%TF.GenerationSoftware,KiCad,Pcbnew,8.0.7+1*%
%TF.CreationDate,2025-02-19T15:00:20+01:00*%
%TF.ProjectId,ts14-arduino-shield,74733134-2d61-4726-9475-696e6f2d7368,rev?*%
%TF.SameCoordinates,Original*%
%TF.FileFunction,Legend,Top*%
%TF.FilePolarity,Positive*%
%FSLAX46Y46*%
G04 Gerber Fmt 4.6, Leading zero omitted, Abs format (unit mm)*
G04 Created by KiCad (PCBNEW 8.0.7+1) date 2025-02-19 15:00:20*
%MOMM*%
%LPD*%
G01*
G04 APERTURE LIST*
%ADD10C,0.150000*%
%ADD11C,0.250000*%
%ADD12C,0.200000*%
%ADD13C,0.120000*%
%ADD14C,0.000000*%
%ADD15C,0.127000*%
G04 APERTURE END LIST*
D10*
X137619819Y-118389411D02*
X137619819Y-118960839D01*
X137619819Y-118675125D02*
X136619819Y-118675125D01*
X136619819Y-118675125D02*
X136762676Y-118770363D01*
X136762676Y-118770363D02*
X136857914Y-118865601D01*
X136857914Y-118865601D02*
X136905533Y-118960839D01*
X140359819Y-118893220D02*
X139359819Y-118893220D01*
X139359819Y-118226554D02*
X139359819Y-118036078D01*
X139359819Y-118036078D02*
X139407438Y-117940840D01*
X139407438Y-117940840D02*
X139502676Y-117845602D01*
X139502676Y-117845602D02*
X139693152Y-117797983D01*
X139693152Y-117797983D02*
X140026485Y-117797983D01*
X140026485Y-117797983D02*
X140216961Y-117845602D01*
X140216961Y-117845602D02*
X140312200Y-117940840D01*
X140312200Y-117940840D02*
X140359819Y-118036078D01*
X140359819Y-118036078D02*
X140359819Y-118226554D01*
X140359819Y-118226554D02*
X140312200Y-118321792D01*
X140312200Y-118321792D02*
X140216961Y-118417030D01*
X140216961Y-118417030D02*
X140026485Y-118464649D01*
X140026485Y-118464649D02*
X139693152Y-118464649D01*
X139693152Y-118464649D02*
X139502676Y-118417030D01*
X139502676Y-118417030D02*
X139407438Y-118321792D01*
X139407438Y-118321792D02*
X139359819Y-118226554D01*
X140359819Y-116797983D02*
X139883628Y-117131316D01*
X140359819Y-117369411D02*
X139359819Y-117369411D01*
X139359819Y-117369411D02*
X139359819Y-116988459D01*
X139359819Y-116988459D02*
X139407438Y-116893221D01*
X139407438Y-116893221D02*
X139455057Y-116845602D01*
X139455057Y-116845602D02*
X139550295Y-116797983D01*
X139550295Y-116797983D02*
X139693152Y-116797983D01*
X139693152Y-116797983D02*
X139788390Y-116845602D01*
X139788390Y-116845602D02*
X139836009Y-116893221D01*
X139836009Y-116893221D02*
X139883628Y-116988459D01*
X139883628Y-116988459D02*
X139883628Y-117369411D01*
X139836009Y-116369411D02*
X139836009Y-116036078D01*
X140359819Y-115893221D02*
X140359819Y-116369411D01*
X140359819Y-116369411D02*
X139359819Y-116369411D01*
X139359819Y-116369411D02*
X139359819Y-115893221D01*
X139836009Y-115131316D02*
X139836009Y-115464649D01*
X140359819Y-115464649D02*
X139359819Y-115464649D01*
X139359819Y-115464649D02*
X139359819Y-114988459D01*
X144988866Y-119163220D02*
X144988866Y-118401316D01*
X145369819Y-118782268D02*
X144607914Y-118782268D01*
X144369819Y-118020363D02*
X144369819Y-117401316D01*
X144369819Y-117401316D02*
X144750771Y-117734649D01*
X144750771Y-117734649D02*
X144750771Y-117591792D01*
X144750771Y-117591792D02*
X144798390Y-117496554D01*
X144798390Y-117496554D02*
X144846009Y-117448935D01*
X144846009Y-117448935D02*
X144941247Y-117401316D01*
X144941247Y-117401316D02*
X145179342Y-117401316D01*
X145179342Y-117401316D02*
X145274580Y-117448935D01*
X145274580Y-117448935D02*
X145322200Y-117496554D01*
X145322200Y-117496554D02*
X145369819Y-117591792D01*
X145369819Y-117591792D02*
X145369819Y-117877506D01*
X145369819Y-117877506D02*
X145322200Y-117972744D01*
X145322200Y-117972744D02*
X145274580Y-118020363D01*
X144369819Y-117115601D02*
X145369819Y-116782268D01*
X145369819Y-116782268D02*
X144369819Y-116448935D01*
X144369819Y-116210839D02*
X144369819Y-115591792D01*
X144369819Y-115591792D02*
X144750771Y-115925125D01*
X144750771Y-115925125D02*
X144750771Y-115782268D01*
X144750771Y-115782268D02*
X144798390Y-115687030D01*
X144798390Y-115687030D02*
X144846009Y-115639411D01*
X144846009Y-115639411D02*
X144941247Y-115591792D01*
X144941247Y-115591792D02*
X145179342Y-115591792D01*
X145179342Y-115591792D02*
X145274580Y-115639411D01*
X145274580Y-115639411D02*
X145322200Y-115687030D01*
X145322200Y-115687030D02*
X145369819Y-115782268D01*
X145369819Y-115782268D02*
X145369819Y-116067982D01*
X145369819Y-116067982D02*
X145322200Y-116163220D01*
X145322200Y-116163220D02*
X145274580Y-116210839D01*
D11*
X122874857Y-109285714D02*
X122874857Y-108571429D01*
X123303428Y-109428571D02*
X121803428Y-108928571D01*
X121803428Y-108928571D02*
X123303428Y-108428571D01*
X123303428Y-107928572D02*
X122303428Y-107928572D01*
X122589142Y-107928572D02*
X122446285Y-107857143D01*
X122446285Y-107857143D02*
X122374857Y-107785715D01*
X122374857Y-107785715D02*
X122303428Y-107642857D01*
X122303428Y-107642857D02*
X122303428Y-107500000D01*
X123303428Y-106357144D02*
X121803428Y-106357144D01*
X123232000Y-106357144D02*
X123303428Y-106500001D01*
X123303428Y-106500001D02*
X123303428Y-106785715D01*
X123303428Y-106785715D02*
X123232000Y-106928572D01*
X123232000Y-106928572D02*
X123160571Y-107000001D01*
X123160571Y-107000001D02*
X123017714Y-107071429D01*
X123017714Y-107071429D02*
X122589142Y-107071429D01*
X122589142Y-107071429D02*
X122446285Y-107000001D01*
X122446285Y-107000001D02*
X122374857Y-106928572D01*
X122374857Y-106928572D02*
X122303428Y-106785715D01*
X122303428Y-106785715D02*
X122303428Y-106500001D01*
X122303428Y-106500001D02*
X122374857Y-106357144D01*
X122303428Y-105000001D02*
X123303428Y-105000001D01*
X122303428Y-105642858D02*
X123089142Y-105642858D01*
X123089142Y-105642858D02*
X123232000Y-105571429D01*
X123232000Y-105571429D02*
X123303428Y-105428572D01*
X123303428Y-105428572D02*
X123303428Y-105214286D01*
X123303428Y-105214286D02*
X123232000Y-105071429D01*
X123232000Y-105071429D02*
X123160571Y-105000001D01*
X123303428Y-104285715D02*
X122303428Y-104285715D01*
X121803428Y-104285715D02*
X121874857Y-104357143D01*
X121874857Y-104357143D02*
X121946285Y-104285715D01*
X121946285Y-104285715D02*
X121874857Y-104214286D01*
X121874857Y-104214286D02*
X121803428Y-104285715D01*
X121803428Y-104285715D02*
X121946285Y-104285715D01*
X122303428Y-103571429D02*
X123303428Y-103571429D01*
X122446285Y-103571429D02*
X122374857Y-103500000D01*
X122374857Y-103500000D02*
X122303428Y-103357143D01*
X122303428Y-103357143D02*
X122303428Y-103142857D01*
X122303428Y-103142857D02*
X122374857Y-103000000D01*
X122374857Y-103000000D02*
X122517714Y-102928572D01*
X122517714Y-102928572D02*
X123303428Y-102928572D01*
X123303428Y-102000000D02*
X123232000Y-102142857D01*
X123232000Y-102142857D02*
X123160571Y-102214286D01*
X123160571Y-102214286D02*
X123017714Y-102285714D01*
X123017714Y-102285714D02*
X122589142Y-102285714D01*
X122589142Y-102285714D02*
X122446285Y-102214286D01*
X122446285Y-102214286D02*
X122374857Y-102142857D01*
X122374857Y-102142857D02*
X122303428Y-102000000D01*
X122303428Y-102000000D02*
X122303428Y-101785714D01*
X122303428Y-101785714D02*
X122374857Y-101642857D01*
X122374857Y-101642857D02*
X122446285Y-101571429D01*
X122446285Y-101571429D02*
X122589142Y-101500000D01*
X122589142Y-101500000D02*
X123017714Y-101500000D01*
X123017714Y-101500000D02*
X123160571Y-101571429D01*
X123160571Y-101571429D02*
X123232000Y-101642857D01*
X123232000Y-101642857D02*
X123303428Y-101785714D01*
X123303428Y-101785714D02*
X123303428Y-102000000D01*
X121803428Y-99714286D02*
X123017714Y-99714286D01*
X123017714Y-99714286D02*
X123160571Y-99642857D01*
X123160571Y-99642857D02*
X123232000Y-99571429D01*
X123232000Y-99571429D02*
X123303428Y-99428571D01*
X123303428Y-99428571D02*
X123303428Y-99142857D01*
X123303428Y-99142857D02*
X123232000Y-99000000D01*
X123232000Y-99000000D02*
X123160571Y-98928571D01*
X123160571Y-98928571D02*
X123017714Y-98857143D01*
X123017714Y-98857143D02*
X121803428Y-98857143D01*
X123303428Y-98142857D02*
X121803428Y-98142857D01*
X121803428Y-98142857D02*
X123303428Y-97285714D01*
X123303428Y-97285714D02*
X121803428Y-97285714D01*
X121803428Y-96285713D02*
X121803428Y-95999999D01*
X121803428Y-95999999D02*
X121874857Y-95857142D01*
X121874857Y-95857142D02*
X122017714Y-95714285D01*
X122017714Y-95714285D02*
X122303428Y-95642856D01*
X122303428Y-95642856D02*
X122803428Y-95642856D01*
X122803428Y-95642856D02*
X123089142Y-95714285D01*
X123089142Y-95714285D02*
X123232000Y-95857142D01*
X123232000Y-95857142D02*
X123303428Y-95999999D01*
X123303428Y-95999999D02*
X123303428Y-96285713D01*
X123303428Y-96285713D02*
X123232000Y-96428571D01*
X123232000Y-96428571D02*
X123089142Y-96571428D01*
X123089142Y-96571428D02*
X122803428Y-96642856D01*
X122803428Y-96642856D02*
X122303428Y-96642856D01*
X122303428Y-96642856D02*
X122017714Y-96571428D01*
X122017714Y-96571428D02*
X121874857Y-96428571D01*
X121874857Y-96428571D02*
X121803428Y-96285713D01*
X123303428Y-92999999D02*
X122589142Y-93499999D01*
X123303428Y-93857142D02*
X121803428Y-93857142D01*
X121803428Y-93857142D02*
X121803428Y-93285713D01*
X121803428Y-93285713D02*
X121874857Y-93142856D01*
X121874857Y-93142856D02*
X121946285Y-93071427D01*
X121946285Y-93071427D02*
X122089142Y-92999999D01*
X122089142Y-92999999D02*
X122303428Y-92999999D01*
X122303428Y-92999999D02*
X122446285Y-93071427D01*
X122446285Y-93071427D02*
X122517714Y-93142856D01*
X122517714Y-93142856D02*
X122589142Y-93285713D01*
X122589142Y-93285713D02*
X122589142Y-93857142D01*
X121803428Y-92499999D02*
X121803428Y-91571427D01*
X121803428Y-91571427D02*
X122374857Y-92071427D01*
X122374857Y-92071427D02*
X122374857Y-91857142D01*
X122374857Y-91857142D02*
X122446285Y-91714285D01*
X122446285Y-91714285D02*
X122517714Y-91642856D01*
X122517714Y-91642856D02*
X122660571Y-91571427D01*
X122660571Y-91571427D02*
X123017714Y-91571427D01*
X123017714Y-91571427D02*
X123160571Y-91642856D01*
X123160571Y-91642856D02*
X123232000Y-91714285D01*
X123232000Y-91714285D02*
X123303428Y-91857142D01*
X123303428Y-91857142D02*
X123303428Y-92285713D01*
X123303428Y-92285713D02*
X123232000Y-92428570D01*
X123232000Y-92428570D02*
X123160571Y-92499999D01*
X123232000Y-89857142D02*
X123303428Y-89714285D01*
X123303428Y-89714285D02*
X123303428Y-89428571D01*
X123303428Y-89428571D02*
X123232000Y-89285714D01*
X123232000Y-89285714D02*
X123089142Y-89214285D01*
X123089142Y-89214285D02*
X123017714Y-89214285D01*
X123017714Y-89214285D02*
X122874857Y-89285714D01*
X122874857Y-89285714D02*
X122803428Y-89428571D01*
X122803428Y-89428571D02*
X122803428Y-89642857D01*
X122803428Y-89642857D02*
X122732000Y-89785714D01*
X122732000Y-89785714D02*
X122589142Y-89857142D01*
X122589142Y-89857142D02*
X122517714Y-89857142D01*
X122517714Y-89857142D02*
X122374857Y-89785714D01*
X122374857Y-89785714D02*
X122303428Y-89642857D01*
X122303428Y-89642857D02*
X122303428Y-89428571D01*
X122303428Y-89428571D02*
X122374857Y-89285714D01*
X123303428Y-88571428D02*
X121803428Y-88571428D01*
X123303428Y-87928571D02*
X122517714Y-87928571D01*
X122517714Y-87928571D02*
X122374857Y-87999999D01*
X122374857Y-87999999D02*
X122303428Y-88142856D01*
X122303428Y-88142856D02*
X122303428Y-88357142D01*
X122303428Y-88357142D02*
X122374857Y-88499999D01*
X122374857Y-88499999D02*
X122446285Y-88571428D01*
X123303428Y-87214285D02*
X122303428Y-87214285D01*
X121803428Y-87214285D02*
X121874857Y-87285713D01*
X121874857Y-87285713D02*
X121946285Y-87214285D01*
X121946285Y-87214285D02*
X121874857Y-87142856D01*
X121874857Y-87142856D02*
X121803428Y-87214285D01*
X121803428Y-87214285D02*
X121946285Y-87214285D01*
X123232000Y-85928570D02*
X123303428Y-86071427D01*
X123303428Y-86071427D02*
X123303428Y-86357142D01*
X123303428Y-86357142D02*
X123232000Y-86499999D01*
X123232000Y-86499999D02*
X123089142Y-86571427D01*
X123089142Y-86571427D02*
X122517714Y-86571427D01*
X122517714Y-86571427D02*
X122374857Y-86499999D01*
X122374857Y-86499999D02*
X122303428Y-86357142D01*
X122303428Y-86357142D02*
X122303428Y-86071427D01*
X122303428Y-86071427D02*
X122374857Y-85928570D01*
X122374857Y-85928570D02*
X122517714Y-85857142D01*
X122517714Y-85857142D02*
X122660571Y-85857142D01*
X122660571Y-85857142D02*
X122803428Y-86571427D01*
X123303428Y-84999999D02*
X123232000Y-85142856D01*
X123232000Y-85142856D02*
X123089142Y-85214285D01*
X123089142Y-85214285D02*
X121803428Y-85214285D01*
X123303428Y-83785714D02*
X121803428Y-83785714D01*
X123232000Y-83785714D02*
X123303428Y-83928571D01*
X123303428Y-83928571D02*
X123303428Y-84214285D01*
X123303428Y-84214285D02*
X123232000Y-84357142D01*
X123232000Y-84357142D02*
X123160571Y-84428571D01*
X123160571Y-84428571D02*
X123017714Y-84499999D01*
X123017714Y-84499999D02*
X122589142Y-84499999D01*
X122589142Y-84499999D02*
X122446285Y-84428571D01*
X122446285Y-84428571D02*
X122374857Y-84357142D01*
X122374857Y-84357142D02*
X122303428Y-84214285D01*
X122303428Y-84214285D02*
X122303428Y-83928571D01*
X122303428Y-83928571D02*
X122374857Y-83785714D01*
D10*
X147488866Y-119163220D02*
X147488866Y-118401316D01*
X147869819Y-118782268D02*
X147107914Y-118782268D01*
X146869819Y-117448935D02*
X146869819Y-117925125D01*
X146869819Y-117925125D02*
X147346009Y-117972744D01*
X147346009Y-117972744D02*
X147298390Y-117925125D01*
X147298390Y-117925125D02*
X147250771Y-117829887D01*
X147250771Y-117829887D02*
X147250771Y-117591792D01*
X147250771Y-117591792D02*
X147298390Y-117496554D01*
X147298390Y-117496554D02*
X147346009Y-117448935D01*
X147346009Y-117448935D02*
X147441247Y-117401316D01*
X147441247Y-117401316D02*
X147679342Y-117401316D01*
X147679342Y-117401316D02*
X147774580Y-117448935D01*
X147774580Y-117448935D02*
X147822200Y-117496554D01*
X147822200Y-117496554D02*
X147869819Y-117591792D01*
X147869819Y-117591792D02*
X147869819Y-117829887D01*
X147869819Y-117829887D02*
X147822200Y-117925125D01*
X147822200Y-117925125D02*
X147774580Y-117972744D01*
X146869819Y-117115601D02*
X147869819Y-116782268D01*
X147869819Y-116782268D02*
X146869819Y-116448935D01*
X127869819Y-75758458D02*
X127869819Y-75139411D01*
X127869819Y-75139411D02*
X128250771Y-75472744D01*
X128250771Y-75472744D02*
X128250771Y-75329887D01*
X128250771Y-75329887D02*
X128298390Y-75234649D01*
X128298390Y-75234649D02*
X128346009Y-75187030D01*
X128346009Y-75187030D02*
X128441247Y-75139411D01*
X128441247Y-75139411D02*
X128679342Y-75139411D01*
X128679342Y-75139411D02*
X128774580Y-75187030D01*
X128774580Y-75187030D02*
X128822200Y-75234649D01*
X128822200Y-75234649D02*
X128869819Y-75329887D01*
X128869819Y-75329887D02*
X128869819Y-75615601D01*
X128869819Y-75615601D02*
X128822200Y-75710839D01*
X128822200Y-75710839D02*
X128774580Y-75758458D01*
X127965057Y-74758458D02*
X127917438Y-74710839D01*
X127917438Y-74710839D02*
X127869819Y-74615601D01*
X127869819Y-74615601D02*
X127869819Y-74377506D01*
X127869819Y-74377506D02*
X127917438Y-74282268D01*
X127917438Y-74282268D02*
X127965057Y-74234649D01*
X127965057Y-74234649D02*
X128060295Y-74187030D01*
X128060295Y-74187030D02*
X128155533Y-74187030D01*
X128155533Y-74187030D02*
X128298390Y-74234649D01*
X128298390Y-74234649D02*
X128869819Y-74806077D01*
X128869819Y-74806077D02*
X128869819Y-74187030D01*
X173369819Y-118389411D02*
X173369819Y-118960839D01*
X173369819Y-118675125D02*
X172369819Y-118675125D01*
X172369819Y-118675125D02*
X172512676Y-118770363D01*
X172512676Y-118770363D02*
X172607914Y-118865601D01*
X172607914Y-118865601D02*
X172655533Y-118960839D01*
X172703152Y-117532268D02*
X173369819Y-117532268D01*
X172322200Y-117770363D02*
X173036485Y-118008458D01*
X173036485Y-118008458D02*
X173036485Y-117389411D01*
X152167438Y-118389411D02*
X152119819Y-118484649D01*
X152119819Y-118484649D02*
X152119819Y-118627506D01*
X152119819Y-118627506D02*
X152167438Y-118770363D01*
X152167438Y-118770363D02*
X152262676Y-118865601D01*
X152262676Y-118865601D02*
X152357914Y-118913220D01*
X152357914Y-118913220D02*
X152548390Y-118960839D01*
X152548390Y-118960839D02*
X152691247Y-118960839D01*
X152691247Y-118960839D02*
X152881723Y-118913220D01*
X152881723Y-118913220D02*
X152976961Y-118865601D01*
X152976961Y-118865601D02*
X153072200Y-118770363D01*
X153072200Y-118770363D02*
X153119819Y-118627506D01*
X153119819Y-118627506D02*
X153119819Y-118532268D01*
X153119819Y-118532268D02*
X153072200Y-118389411D01*
X153072200Y-118389411D02*
X153024580Y-118341792D01*
X153024580Y-118341792D02*
X152691247Y-118341792D01*
X152691247Y-118341792D02*
X152691247Y-118532268D01*
X153119819Y-117913220D02*
X152119819Y-117913220D01*
X152119819Y-117913220D02*
X153119819Y-117341792D01*
X153119819Y-117341792D02*
X152119819Y-117341792D01*
X153119819Y-116865601D02*
X152119819Y-116865601D01*
X152119819Y-116865601D02*
X152119819Y-116627506D01*
X152119819Y-116627506D02*
X152167438Y-116484649D01*
X152167438Y-116484649D02*
X152262676Y-116389411D01*
X152262676Y-116389411D02*
X152357914Y-116341792D01*
X152357914Y-116341792D02*
X152548390Y-116294173D01*
X152548390Y-116294173D02*
X152691247Y-116294173D01*
X152691247Y-116294173D02*
X152881723Y-116341792D01*
X152881723Y-116341792D02*
X152976961Y-116389411D01*
X152976961Y-116389411D02*
X153072200Y-116484649D01*
X153072200Y-116484649D02*
X153119819Y-116627506D01*
X153119819Y-116627506D02*
X153119819Y-116865601D01*
X149667438Y-118389411D02*
X149619819Y-118484649D01*
X149619819Y-118484649D02*
X149619819Y-118627506D01*
X149619819Y-118627506D02*
X149667438Y-118770363D01*
X149667438Y-118770363D02*
X149762676Y-118865601D01*
X149762676Y-118865601D02*
X149857914Y-118913220D01*
X149857914Y-118913220D02*
X150048390Y-118960839D01*
X150048390Y-118960839D02*
X150191247Y-118960839D01*
X150191247Y-118960839D02*
X150381723Y-118913220D01*
X150381723Y-118913220D02*
X150476961Y-118865601D01*
X150476961Y-118865601D02*
X150572200Y-118770363D01*
X150572200Y-118770363D02*
X150619819Y-118627506D01*
X150619819Y-118627506D02*
X150619819Y-118532268D01*
X150619819Y-118532268D02*
X150572200Y-118389411D01*
X150572200Y-118389411D02*
X150524580Y-118341792D01*
X150524580Y-118341792D02*
X150191247Y-118341792D01*
X150191247Y-118341792D02*
X150191247Y-118532268D01*
X150619819Y-117913220D02*
X149619819Y-117913220D01*
X149619819Y-117913220D02*
X150619819Y-117341792D01*
X150619819Y-117341792D02*
X149619819Y-117341792D01*
X150619819Y-116865601D02*
X149619819Y-116865601D01*
X149619819Y-116865601D02*
X149619819Y-116627506D01*
X149619819Y-116627506D02*
X149667438Y-116484649D01*
X149667438Y-116484649D02*
X149762676Y-116389411D01*
X149762676Y-116389411D02*
X149857914Y-116341792D01*
X149857914Y-116341792D02*
X150048390Y-116294173D01*
X150048390Y-116294173D02*
X150191247Y-116294173D01*
X150191247Y-116294173D02*
X150381723Y-116341792D01*
X150381723Y-116341792D02*
X150476961Y-116389411D01*
X150476961Y-116389411D02*
X150572200Y-116484649D01*
X150572200Y-116484649D02*
X150619819Y-116627506D01*
X150619819Y-116627506D02*
X150619819Y-116865601D01*
X173369819Y-75139411D02*
X173369819Y-75710839D01*
X173369819Y-75425125D02*
X172369819Y-75425125D01*
X172369819Y-75425125D02*
X172512676Y-75520363D01*
X172512676Y-75520363D02*
X172607914Y-75615601D01*
X172607914Y-75615601D02*
X172655533Y-75710839D01*
X172369819Y-74234649D02*
X172369819Y-74710839D01*
X172369819Y-74710839D02*
X172846009Y-74758458D01*
X172846009Y-74758458D02*
X172798390Y-74710839D01*
X172798390Y-74710839D02*
X172750771Y-74615601D01*
X172750771Y-74615601D02*
X172750771Y-74377506D01*
X172750771Y-74377506D02*
X172798390Y-74282268D01*
X172798390Y-74282268D02*
X172846009Y-74234649D01*
X172846009Y-74234649D02*
X172941247Y-74187030D01*
X172941247Y-74187030D02*
X173179342Y-74187030D01*
X173179342Y-74187030D02*
X173274580Y-74234649D01*
X173274580Y-74234649D02*
X173322200Y-74282268D01*
X173322200Y-74282268D02*
X173369819Y-74377506D01*
X173369819Y-74377506D02*
X173369819Y-74615601D01*
X173369819Y-74615601D02*
X173322200Y-74710839D01*
X173322200Y-74710839D02*
X173274580Y-74758458D01*
X138589580Y-91716666D02*
X138637200Y-91764285D01*
X138637200Y-91764285D02*
X138684819Y-91907142D01*
X138684819Y-91907142D02*
X138684819Y-92002380D01*
X138684819Y-92002380D02*
X138637200Y-92145237D01*
X138637200Y-92145237D02*
X138541961Y-92240475D01*
X138541961Y-92240475D02*
X138446723Y-92288094D01*
X138446723Y-92288094D02*
X138256247Y-92335713D01*
X138256247Y-92335713D02*
X138113390Y-92335713D01*
X138113390Y-92335713D02*
X137922914Y-92288094D01*
X137922914Y-92288094D02*
X137827676Y-92240475D01*
X137827676Y-92240475D02*
X137732438Y-92145237D01*
X137732438Y-92145237D02*
X137684819Y-92002380D01*
X137684819Y-92002380D02*
X137684819Y-91907142D01*
X137684819Y-91907142D02*
X137732438Y-91764285D01*
X137732438Y-91764285D02*
X137780057Y-91716666D01*
X137684819Y-91383332D02*
X137684819Y-90764285D01*
X137684819Y-90764285D02*
X138065771Y-91097618D01*
X138065771Y-91097618D02*
X138065771Y-90954761D01*
X138065771Y-90954761D02*
X138113390Y-90859523D01*
X138113390Y-90859523D02*
X138161009Y-90811904D01*
X138161009Y-90811904D02*
X138256247Y-90764285D01*
X138256247Y-90764285D02*
X138494342Y-90764285D01*
X138494342Y-90764285D02*
X138589580Y-90811904D01*
X138589580Y-90811904D02*
X138637200Y-90859523D01*
X138637200Y-90859523D02*
X138684819Y-90954761D01*
X138684819Y-90954761D02*
X138684819Y-91240475D01*
X138684819Y-91240475D02*
X138637200Y-91335713D01*
X138637200Y-91335713D02*
X138589580Y-91383332D01*
X140859580Y-78166666D02*
X140907200Y-78214285D01*
X140907200Y-78214285D02*
X140954819Y-78357142D01*
X140954819Y-78357142D02*
X140954819Y-78452380D01*
X140954819Y-78452380D02*
X140907200Y-78595237D01*
X140907200Y-78595237D02*
X140811961Y-78690475D01*
X140811961Y-78690475D02*
X140716723Y-78738094D01*
X140716723Y-78738094D02*
X140526247Y-78785713D01*
X140526247Y-78785713D02*
X140383390Y-78785713D01*
X140383390Y-78785713D02*
X140192914Y-78738094D01*
X140192914Y-78738094D02*
X140097676Y-78690475D01*
X140097676Y-78690475D02*
X140002438Y-78595237D01*
X140002438Y-78595237D02*
X139954819Y-78452380D01*
X139954819Y-78452380D02*
X139954819Y-78357142D01*
X139954819Y-78357142D02*
X140002438Y-78214285D01*
X140002438Y-78214285D02*
X140050057Y-78166666D01*
X140288152Y-77309523D02*
X140954819Y-77309523D01*
X139907200Y-77547618D02*
X140621485Y-77785713D01*
X140621485Y-77785713D02*
X140621485Y-77166666D01*
X141359580Y-100916666D02*
X141407200Y-100964285D01*
X141407200Y-100964285D02*
X141454819Y-101107142D01*
X141454819Y-101107142D02*
X141454819Y-101202380D01*
X141454819Y-101202380D02*
X141407200Y-101345237D01*
X141407200Y-101345237D02*
X141311961Y-101440475D01*
X141311961Y-101440475D02*
X141216723Y-101488094D01*
X141216723Y-101488094D02*
X141026247Y-101535713D01*
X141026247Y-101535713D02*
X140883390Y-101535713D01*
X140883390Y-101535713D02*
X140692914Y-101488094D01*
X140692914Y-101488094D02*
X140597676Y-101440475D01*
X140597676Y-101440475D02*
X140502438Y-101345237D01*
X140502438Y-101345237D02*
X140454819Y-101202380D01*
X140454819Y-101202380D02*
X140454819Y-101107142D01*
X140454819Y-101107142D02*
X140502438Y-100964285D01*
X140502438Y-100964285D02*
X140550057Y-100916666D01*
X140550057Y-100535713D02*
X140502438Y-100488094D01*
X140502438Y-100488094D02*
X140454819Y-100392856D01*
X140454819Y-100392856D02*
X140454819Y-100154761D01*
X140454819Y-100154761D02*
X140502438Y-100059523D01*
X140502438Y-100059523D02*
X140550057Y-100011904D01*
X140550057Y-100011904D02*
X140645295Y-99964285D01*
X140645295Y-99964285D02*
X140740533Y-99964285D01*
X140740533Y-99964285D02*
X140883390Y-100011904D01*
X140883390Y-100011904D02*
X141454819Y-100583332D01*
X141454819Y-100583332D02*
X141454819Y-99964285D01*
X147589580Y-96879166D02*
X147637200Y-96926785D01*
X147637200Y-96926785D02*
X147684819Y-97069642D01*
X147684819Y-97069642D02*
X147684819Y-97164880D01*
X147684819Y-97164880D02*
X147637200Y-97307737D01*
X147637200Y-97307737D02*
X147541961Y-97402975D01*
X147541961Y-97402975D02*
X147446723Y-97450594D01*
X147446723Y-97450594D02*
X147256247Y-97498213D01*
X147256247Y-97498213D02*
X147113390Y-97498213D01*
X147113390Y-97498213D02*
X146922914Y-97450594D01*
X146922914Y-97450594D02*
X146827676Y-97402975D01*
X146827676Y-97402975D02*
X146732438Y-97307737D01*
X146732438Y-97307737D02*
X146684819Y-97164880D01*
X146684819Y-97164880D02*
X146684819Y-97069642D01*
X146684819Y-97069642D02*
X146732438Y-96926785D01*
X146732438Y-96926785D02*
X146780057Y-96879166D01*
X147684819Y-95926785D02*
X147684819Y-96498213D01*
X147684819Y-96212499D02*
X146684819Y-96212499D01*
X146684819Y-96212499D02*
X146827676Y-96307737D01*
X146827676Y-96307737D02*
X146922914Y-96402975D01*
X146922914Y-96402975D02*
X146970533Y-96498213D01*
X146026666Y-111154819D02*
X146026666Y-111869104D01*
X146026666Y-111869104D02*
X145979047Y-112011961D01*
X145979047Y-112011961D02*
X145883809Y-112107200D01*
X145883809Y-112107200D02*
X145740952Y-112154819D01*
X145740952Y-112154819D02*
X145645714Y-112154819D01*
X146502857Y-112154819D02*
X146502857Y-111154819D01*
X146502857Y-111154819D02*
X146883809Y-111154819D01*
X146883809Y-111154819D02*
X146979047Y-111202438D01*
X146979047Y-111202438D02*
X147026666Y-111250057D01*
X147026666Y-111250057D02*
X147074285Y-111345295D01*
X147074285Y-111345295D02*
X147074285Y-111488152D01*
X147074285Y-111488152D02*
X147026666Y-111583390D01*
X147026666Y-111583390D02*
X146979047Y-111631009D01*
X146979047Y-111631009D02*
X146883809Y-111678628D01*
X146883809Y-111678628D02*
X146502857Y-111678628D01*
X148026666Y-112154819D02*
X147455238Y-112154819D01*
X147740952Y-112154819D02*
X147740952Y-111154819D01*
X147740952Y-111154819D02*
X147645714Y-111297676D01*
X147645714Y-111297676D02*
X147550476Y-111392914D01*
X147550476Y-111392914D02*
X147455238Y-111440533D01*
D12*
X155129790Y-102100000D02*
X155129790Y-101185714D01*
X156729790Y-101642857D02*
X155129790Y-101642857D01*
X156729790Y-99738094D02*
X155967885Y-100271428D01*
X156729790Y-100652380D02*
X155129790Y-100652380D01*
X155129790Y-100652380D02*
X155129790Y-100042856D01*
X155129790Y-100042856D02*
X155205980Y-99890475D01*
X155205980Y-99890475D02*
X155282171Y-99814285D01*
X155282171Y-99814285D02*
X155434552Y-99738094D01*
X155434552Y-99738094D02*
X155663123Y-99738094D01*
X155663123Y-99738094D02*
X155815504Y-99814285D01*
X155815504Y-99814285D02*
X155891695Y-99890475D01*
X155891695Y-99890475D02*
X155967885Y-100042856D01*
X155967885Y-100042856D02*
X155967885Y-100652380D01*
X155129790Y-98747618D02*
X155129790Y-98442856D01*
X155129790Y-98442856D02*
X155205980Y-98290475D01*
X155205980Y-98290475D02*
X155358361Y-98138094D01*
X155358361Y-98138094D02*
X155663123Y-98061904D01*
X155663123Y-98061904D02*
X156196457Y-98061904D01*
X156196457Y-98061904D02*
X156501219Y-98138094D01*
X156501219Y-98138094D02*
X156653600Y-98290475D01*
X156653600Y-98290475D02*
X156729790Y-98442856D01*
X156729790Y-98442856D02*
X156729790Y-98747618D01*
X156729790Y-98747618D02*
X156653600Y-98899999D01*
X156653600Y-98899999D02*
X156501219Y-99052380D01*
X156501219Y-99052380D02*
X156196457Y-99128571D01*
X156196457Y-99128571D02*
X155663123Y-99128571D01*
X155663123Y-99128571D02*
X155358361Y-99052380D01*
X155358361Y-99052380D02*
X155205980Y-98899999D01*
X155205980Y-98899999D02*
X155129790Y-98747618D01*
X156729790Y-97376190D02*
X155129790Y-97376190D01*
X155129790Y-97376190D02*
X155129790Y-96766666D01*
X155129790Y-96766666D02*
X155205980Y-96614285D01*
X155205980Y-96614285D02*
X155282171Y-96538095D01*
X155282171Y-96538095D02*
X155434552Y-96461904D01*
X155434552Y-96461904D02*
X155663123Y-96461904D01*
X155663123Y-96461904D02*
X155815504Y-96538095D01*
X155815504Y-96538095D02*
X155891695Y-96614285D01*
X155891695Y-96614285D02*
X155967885Y-96766666D01*
X155967885Y-96766666D02*
X155967885Y-97376190D01*
X156729790Y-95776190D02*
X155129790Y-95776190D01*
X156577409Y-94099999D02*
X156653600Y-94176190D01*
X156653600Y-94176190D02*
X156729790Y-94404761D01*
X156729790Y-94404761D02*
X156729790Y-94557142D01*
X156729790Y-94557142D02*
X156653600Y-94785714D01*
X156653600Y-94785714D02*
X156501219Y-94938095D01*
X156501219Y-94938095D02*
X156348838Y-95014285D01*
X156348838Y-95014285D02*
X156044076Y-95090476D01*
X156044076Y-95090476D02*
X155815504Y-95090476D01*
X155815504Y-95090476D02*
X155510742Y-95014285D01*
X155510742Y-95014285D02*
X155358361Y-94938095D01*
X155358361Y-94938095D02*
X155205980Y-94785714D01*
X155205980Y-94785714D02*
X155129790Y-94557142D01*
X155129790Y-94557142D02*
X155129790Y-94404761D01*
X155129790Y-94404761D02*
X155205980Y-94176190D01*
X155205980Y-94176190D02*
X155282171Y-94099999D01*
X155129790Y-93109523D02*
X155129790Y-92957142D01*
X155129790Y-92957142D02*
X155205980Y-92804761D01*
X155205980Y-92804761D02*
X155282171Y-92728571D01*
X155282171Y-92728571D02*
X155434552Y-92652380D01*
X155434552Y-92652380D02*
X155739314Y-92576190D01*
X155739314Y-92576190D02*
X156120266Y-92576190D01*
X156120266Y-92576190D02*
X156425028Y-92652380D01*
X156425028Y-92652380D02*
X156577409Y-92728571D01*
X156577409Y-92728571D02*
X156653600Y-92804761D01*
X156653600Y-92804761D02*
X156729790Y-92957142D01*
X156729790Y-92957142D02*
X156729790Y-93109523D01*
X156729790Y-93109523D02*
X156653600Y-93261904D01*
X156653600Y-93261904D02*
X156577409Y-93338095D01*
X156577409Y-93338095D02*
X156425028Y-93414285D01*
X156425028Y-93414285D02*
X156120266Y-93490476D01*
X156120266Y-93490476D02*
X155739314Y-93490476D01*
X155739314Y-93490476D02*
X155434552Y-93414285D01*
X155434552Y-93414285D02*
X155282171Y-93338095D01*
X155282171Y-93338095D02*
X155205980Y-93261904D01*
X155205980Y-93261904D02*
X155129790Y-93109523D01*
X156729790Y-91052380D02*
X156729790Y-91966666D01*
X156729790Y-91509523D02*
X155129790Y-91509523D01*
X155129790Y-91509523D02*
X155358361Y-91661904D01*
X155358361Y-91661904D02*
X155510742Y-91814285D01*
X155510742Y-91814285D02*
X155586933Y-91966666D01*
D10*
X149237438Y-105558095D02*
X149189819Y-105653333D01*
X149189819Y-105653333D02*
X149189819Y-105796190D01*
X149189819Y-105796190D02*
X149237438Y-105939047D01*
X149237438Y-105939047D02*
X149332676Y-106034285D01*
X149332676Y-106034285D02*
X149427914Y-106081904D01*
X149427914Y-106081904D02*
X149618390Y-106129523D01*
X149618390Y-106129523D02*
X149761247Y-106129523D01*
X149761247Y-106129523D02*
X149951723Y-106081904D01*
X149951723Y-106081904D02*
X150046961Y-106034285D01*
X150046961Y-106034285D02*
X150142200Y-105939047D01*
X150142200Y-105939047D02*
X150189819Y-105796190D01*
X150189819Y-105796190D02*
X150189819Y-105700952D01*
X150189819Y-105700952D02*
X150142200Y-105558095D01*
X150142200Y-105558095D02*
X150094580Y-105510476D01*
X150094580Y-105510476D02*
X149761247Y-105510476D01*
X149761247Y-105510476D02*
X149761247Y-105700952D01*
X150189819Y-105081904D02*
X149189819Y-105081904D01*
X149189819Y-105081904D02*
X150189819Y-104510476D01*
X150189819Y-104510476D02*
X149189819Y-104510476D01*
X150189819Y-104034285D02*
X149189819Y-104034285D01*
X149189819Y-104034285D02*
X149189819Y-103796190D01*
X149189819Y-103796190D02*
X149237438Y-103653333D01*
X149237438Y-103653333D02*
X149332676Y-103558095D01*
X149332676Y-103558095D02*
X149427914Y-103510476D01*
X149427914Y-103510476D02*
X149618390Y-103462857D01*
X149618390Y-103462857D02*
X149761247Y-103462857D01*
X149761247Y-103462857D02*
X149951723Y-103510476D01*
X149951723Y-103510476D02*
X150046961Y-103558095D01*
X150046961Y-103558095D02*
X150142200Y-103653333D01*
X150142200Y-103653333D02*
X150189819Y-103796190D01*
X150189819Y-103796190D02*
X150189819Y-104034285D01*
X145109819Y-106081903D02*
X144109819Y-106081903D01*
X144109819Y-106081903D02*
X144824104Y-105748570D01*
X144824104Y-105748570D02*
X144109819Y-105415237D01*
X144109819Y-105415237D02*
X145109819Y-105415237D01*
X144109819Y-104748570D02*
X144109819Y-104558094D01*
X144109819Y-104558094D02*
X144157438Y-104462856D01*
X144157438Y-104462856D02*
X144252676Y-104367618D01*
X144252676Y-104367618D02*
X144443152Y-104319999D01*
X144443152Y-104319999D02*
X144776485Y-104319999D01*
X144776485Y-104319999D02*
X144966961Y-104367618D01*
X144966961Y-104367618D02*
X145062200Y-104462856D01*
X145062200Y-104462856D02*
X145109819Y-104558094D01*
X145109819Y-104558094D02*
X145109819Y-104748570D01*
X145109819Y-104748570D02*
X145062200Y-104843808D01*
X145062200Y-104843808D02*
X144966961Y-104939046D01*
X144966961Y-104939046D02*
X144776485Y-104986665D01*
X144776485Y-104986665D02*
X144443152Y-104986665D01*
X144443152Y-104986665D02*
X144252676Y-104939046D01*
X144252676Y-104939046D02*
X144157438Y-104843808D01*
X144157438Y-104843808D02*
X144109819Y-104748570D01*
X145062200Y-103939046D02*
X145109819Y-103796189D01*
X145109819Y-103796189D02*
X145109819Y-103558094D01*
X145109819Y-103558094D02*
X145062200Y-103462856D01*
X145062200Y-103462856D02*
X145014580Y-103415237D01*
X145014580Y-103415237D02*
X144919342Y-103367618D01*
X144919342Y-103367618D02*
X144824104Y-103367618D01*
X144824104Y-103367618D02*
X144728866Y-103415237D01*
X144728866Y-103415237D02*
X144681247Y-103462856D01*
X144681247Y-103462856D02*
X144633628Y-103558094D01*
X144633628Y-103558094D02*
X144586009Y-103748570D01*
X144586009Y-103748570D02*
X144538390Y-103843808D01*
X144538390Y-103843808D02*
X144490771Y-103891427D01*
X144490771Y-103891427D02*
X144395533Y-103939046D01*
X144395533Y-103939046D02*
X144300295Y-103939046D01*
X144300295Y-103939046D02*
X144205057Y-103891427D01*
X144205057Y-103891427D02*
X144157438Y-103843808D01*
X144157438Y-103843808D02*
X144109819Y-103748570D01*
X144109819Y-103748570D02*
X144109819Y-103510475D01*
X144109819Y-103510475D02*
X144157438Y-103367618D01*
X145109819Y-102939046D02*
X144109819Y-102939046D01*
X134949819Y-88767227D02*
X133949819Y-88767227D01*
X134949819Y-88291037D02*
X133949819Y-88291037D01*
X133949819Y-88291037D02*
X134949819Y-87719609D01*
X134949819Y-87719609D02*
X133949819Y-87719609D01*
X133949819Y-87386275D02*
X133949819Y-86814847D01*
X134949819Y-87100561D02*
X133949819Y-87100561D01*
X147268866Y-106081904D02*
X147268866Y-105320000D01*
X147649819Y-105700952D02*
X146887914Y-105700952D01*
X146649819Y-104939047D02*
X146649819Y-104320000D01*
X146649819Y-104320000D02*
X147030771Y-104653333D01*
X147030771Y-104653333D02*
X147030771Y-104510476D01*
X147030771Y-104510476D02*
X147078390Y-104415238D01*
X147078390Y-104415238D02*
X147126009Y-104367619D01*
X147126009Y-104367619D02*
X147221247Y-104320000D01*
X147221247Y-104320000D02*
X147459342Y-104320000D01*
X147459342Y-104320000D02*
X147554580Y-104367619D01*
X147554580Y-104367619D02*
X147602200Y-104415238D01*
X147602200Y-104415238D02*
X147649819Y-104510476D01*
X147649819Y-104510476D02*
X147649819Y-104796190D01*
X147649819Y-104796190D02*
X147602200Y-104891428D01*
X147602200Y-104891428D02*
X147554580Y-104939047D01*
X146649819Y-104034285D02*
X147649819Y-103700952D01*
X147649819Y-103700952D02*
X146649819Y-103367619D01*
X146649819Y-103129523D02*
X146649819Y-102510476D01*
X146649819Y-102510476D02*
X147030771Y-102843809D01*
X147030771Y-102843809D02*
X147030771Y-102700952D01*
X147030771Y-102700952D02*
X147078390Y-102605714D01*
X147078390Y-102605714D02*
X147126009Y-102558095D01*
X147126009Y-102558095D02*
X147221247Y-102510476D01*
X147221247Y-102510476D02*
X147459342Y-102510476D01*
X147459342Y-102510476D02*
X147554580Y-102558095D01*
X147554580Y-102558095D02*
X147602200Y-102605714D01*
X147602200Y-102605714D02*
X147649819Y-102700952D01*
X147649819Y-102700952D02*
X147649819Y-102986666D01*
X147649819Y-102986666D02*
X147602200Y-103081904D01*
X147602200Y-103081904D02*
X147554580Y-103129523D01*
X134949819Y-105510476D02*
X134473628Y-105843809D01*
X134949819Y-106081904D02*
X133949819Y-106081904D01*
X133949819Y-106081904D02*
X133949819Y-105700952D01*
X133949819Y-105700952D02*
X133997438Y-105605714D01*
X133997438Y-105605714D02*
X134045057Y-105558095D01*
X134045057Y-105558095D02*
X134140295Y-105510476D01*
X134140295Y-105510476D02*
X134283152Y-105510476D01*
X134283152Y-105510476D02*
X134378390Y-105558095D01*
X134378390Y-105558095D02*
X134426009Y-105605714D01*
X134426009Y-105605714D02*
X134473628Y-105700952D01*
X134473628Y-105700952D02*
X134473628Y-106081904D01*
X134902200Y-105129523D02*
X134949819Y-104986666D01*
X134949819Y-104986666D02*
X134949819Y-104748571D01*
X134949819Y-104748571D02*
X134902200Y-104653333D01*
X134902200Y-104653333D02*
X134854580Y-104605714D01*
X134854580Y-104605714D02*
X134759342Y-104558095D01*
X134759342Y-104558095D02*
X134664104Y-104558095D01*
X134664104Y-104558095D02*
X134568866Y-104605714D01*
X134568866Y-104605714D02*
X134521247Y-104653333D01*
X134521247Y-104653333D02*
X134473628Y-104748571D01*
X134473628Y-104748571D02*
X134426009Y-104939047D01*
X134426009Y-104939047D02*
X134378390Y-105034285D01*
X134378390Y-105034285D02*
X134330771Y-105081904D01*
X134330771Y-105081904D02*
X134235533Y-105129523D01*
X134235533Y-105129523D02*
X134140295Y-105129523D01*
X134140295Y-105129523D02*
X134045057Y-105081904D01*
X134045057Y-105081904D02*
X133997438Y-105034285D01*
X133997438Y-105034285D02*
X133949819Y-104939047D01*
X133949819Y-104939047D02*
X133949819Y-104700952D01*
X133949819Y-104700952D02*
X133997438Y-104558095D01*
X133949819Y-104272380D02*
X133949819Y-103700952D01*
X134949819Y-103986666D02*
X133949819Y-103986666D01*
X149237438Y-89005323D02*
X149189819Y-89100561D01*
X149189819Y-89100561D02*
X149189819Y-89243418D01*
X149189819Y-89243418D02*
X149237438Y-89386275D01*
X149237438Y-89386275D02*
X149332676Y-89481513D01*
X149332676Y-89481513D02*
X149427914Y-89529132D01*
X149427914Y-89529132D02*
X149618390Y-89576751D01*
X149618390Y-89576751D02*
X149761247Y-89576751D01*
X149761247Y-89576751D02*
X149951723Y-89529132D01*
X149951723Y-89529132D02*
X150046961Y-89481513D01*
X150046961Y-89481513D02*
X150142200Y-89386275D01*
X150142200Y-89386275D02*
X150189819Y-89243418D01*
X150189819Y-89243418D02*
X150189819Y-89148180D01*
X150189819Y-89148180D02*
X150142200Y-89005323D01*
X150142200Y-89005323D02*
X150094580Y-88957704D01*
X150094580Y-88957704D02*
X149761247Y-88957704D01*
X149761247Y-88957704D02*
X149761247Y-89148180D01*
X150189819Y-88529132D02*
X149189819Y-88529132D01*
X149189819Y-88529132D02*
X150189819Y-87957704D01*
X150189819Y-87957704D02*
X149189819Y-87957704D01*
X150189819Y-87481513D02*
X149189819Y-87481513D01*
X149189819Y-87481513D02*
X149189819Y-87243418D01*
X149189819Y-87243418D02*
X149237438Y-87100561D01*
X149237438Y-87100561D02*
X149332676Y-87005323D01*
X149332676Y-87005323D02*
X149427914Y-86957704D01*
X149427914Y-86957704D02*
X149618390Y-86910085D01*
X149618390Y-86910085D02*
X149761247Y-86910085D01*
X149761247Y-86910085D02*
X149951723Y-86957704D01*
X149951723Y-86957704D02*
X150046961Y-87005323D01*
X150046961Y-87005323D02*
X150142200Y-87100561D01*
X150142200Y-87100561D02*
X150189819Y-87243418D01*
X150189819Y-87243418D02*
X150189819Y-87481513D01*
X142569819Y-106081903D02*
X141569819Y-106081903D01*
X141569819Y-106081903D02*
X142284104Y-105748570D01*
X142284104Y-105748570D02*
X141569819Y-105415237D01*
X141569819Y-105415237D02*
X142569819Y-105415237D01*
X142569819Y-104939046D02*
X141569819Y-104939046D01*
X142522200Y-104510475D02*
X142569819Y-104367618D01*
X142569819Y-104367618D02*
X142569819Y-104129523D01*
X142569819Y-104129523D02*
X142522200Y-104034285D01*
X142522200Y-104034285D02*
X142474580Y-103986666D01*
X142474580Y-103986666D02*
X142379342Y-103939047D01*
X142379342Y-103939047D02*
X142284104Y-103939047D01*
X142284104Y-103939047D02*
X142188866Y-103986666D01*
X142188866Y-103986666D02*
X142141247Y-104034285D01*
X142141247Y-104034285D02*
X142093628Y-104129523D01*
X142093628Y-104129523D02*
X142046009Y-104319999D01*
X142046009Y-104319999D02*
X141998390Y-104415237D01*
X141998390Y-104415237D02*
X141950771Y-104462856D01*
X141950771Y-104462856D02*
X141855533Y-104510475D01*
X141855533Y-104510475D02*
X141760295Y-104510475D01*
X141760295Y-104510475D02*
X141665057Y-104462856D01*
X141665057Y-104462856D02*
X141617438Y-104415237D01*
X141617438Y-104415237D02*
X141569819Y-104319999D01*
X141569819Y-104319999D02*
X141569819Y-104081904D01*
X141569819Y-104081904D02*
X141617438Y-103939047D01*
X141569819Y-103319999D02*
X141569819Y-103129523D01*
X141569819Y-103129523D02*
X141617438Y-103034285D01*
X141617438Y-103034285D02*
X141712676Y-102939047D01*
X141712676Y-102939047D02*
X141903152Y-102891428D01*
X141903152Y-102891428D02*
X142236485Y-102891428D01*
X142236485Y-102891428D02*
X142426961Y-102939047D01*
X142426961Y-102939047D02*
X142522200Y-103034285D01*
X142522200Y-103034285D02*
X142569819Y-103129523D01*
X142569819Y-103129523D02*
X142569819Y-103319999D01*
X142569819Y-103319999D02*
X142522200Y-103415237D01*
X142522200Y-103415237D02*
X142426961Y-103510475D01*
X142426961Y-103510475D02*
X142236485Y-103558094D01*
X142236485Y-103558094D02*
X141903152Y-103558094D01*
X141903152Y-103558094D02*
X141712676Y-103510475D01*
X141712676Y-103510475D02*
X141617438Y-103415237D01*
X141617438Y-103415237D02*
X141569819Y-103319999D01*
X137394580Y-105510476D02*
X137442200Y-105558095D01*
X137442200Y-105558095D02*
X137489819Y-105700952D01*
X137489819Y-105700952D02*
X137489819Y-105796190D01*
X137489819Y-105796190D02*
X137442200Y-105939047D01*
X137442200Y-105939047D02*
X137346961Y-106034285D01*
X137346961Y-106034285D02*
X137251723Y-106081904D01*
X137251723Y-106081904D02*
X137061247Y-106129523D01*
X137061247Y-106129523D02*
X136918390Y-106129523D01*
X136918390Y-106129523D02*
X136727914Y-106081904D01*
X136727914Y-106081904D02*
X136632676Y-106034285D01*
X136632676Y-106034285D02*
X136537438Y-105939047D01*
X136537438Y-105939047D02*
X136489819Y-105796190D01*
X136489819Y-105796190D02*
X136489819Y-105700952D01*
X136489819Y-105700952D02*
X136537438Y-105558095D01*
X136537438Y-105558095D02*
X136585057Y-105510476D01*
X137442200Y-105129523D02*
X137489819Y-104986666D01*
X137489819Y-104986666D02*
X137489819Y-104748571D01*
X137489819Y-104748571D02*
X137442200Y-104653333D01*
X137442200Y-104653333D02*
X137394580Y-104605714D01*
X137394580Y-104605714D02*
X137299342Y-104558095D01*
X137299342Y-104558095D02*
X137204104Y-104558095D01*
X137204104Y-104558095D02*
X137108866Y-104605714D01*
X137108866Y-104605714D02*
X137061247Y-104653333D01*
X137061247Y-104653333D02*
X137013628Y-104748571D01*
X137013628Y-104748571D02*
X136966009Y-104939047D01*
X136966009Y-104939047D02*
X136918390Y-105034285D01*
X136918390Y-105034285D02*
X136870771Y-105081904D01*
X136870771Y-105081904D02*
X136775533Y-105129523D01*
X136775533Y-105129523D02*
X136680295Y-105129523D01*
X136680295Y-105129523D02*
X136585057Y-105081904D01*
X136585057Y-105081904D02*
X136537438Y-105034285D01*
X136537438Y-105034285D02*
X136489819Y-104939047D01*
X136489819Y-104939047D02*
X136489819Y-104700952D01*
X136489819Y-104700952D02*
X136537438Y-104558095D01*
X139982200Y-106129523D02*
X140029819Y-105986666D01*
X140029819Y-105986666D02*
X140029819Y-105748571D01*
X140029819Y-105748571D02*
X139982200Y-105653333D01*
X139982200Y-105653333D02*
X139934580Y-105605714D01*
X139934580Y-105605714D02*
X139839342Y-105558095D01*
X139839342Y-105558095D02*
X139744104Y-105558095D01*
X139744104Y-105558095D02*
X139648866Y-105605714D01*
X139648866Y-105605714D02*
X139601247Y-105653333D01*
X139601247Y-105653333D02*
X139553628Y-105748571D01*
X139553628Y-105748571D02*
X139506009Y-105939047D01*
X139506009Y-105939047D02*
X139458390Y-106034285D01*
X139458390Y-106034285D02*
X139410771Y-106081904D01*
X139410771Y-106081904D02*
X139315533Y-106129523D01*
X139315533Y-106129523D02*
X139220295Y-106129523D01*
X139220295Y-106129523D02*
X139125057Y-106081904D01*
X139125057Y-106081904D02*
X139077438Y-106034285D01*
X139077438Y-106034285D02*
X139029819Y-105939047D01*
X139029819Y-105939047D02*
X139029819Y-105700952D01*
X139029819Y-105700952D02*
X139077438Y-105558095D01*
X139934580Y-104558095D02*
X139982200Y-104605714D01*
X139982200Y-104605714D02*
X140029819Y-104748571D01*
X140029819Y-104748571D02*
X140029819Y-104843809D01*
X140029819Y-104843809D02*
X139982200Y-104986666D01*
X139982200Y-104986666D02*
X139886961Y-105081904D01*
X139886961Y-105081904D02*
X139791723Y-105129523D01*
X139791723Y-105129523D02*
X139601247Y-105177142D01*
X139601247Y-105177142D02*
X139458390Y-105177142D01*
X139458390Y-105177142D02*
X139267914Y-105129523D01*
X139267914Y-105129523D02*
X139172676Y-105081904D01*
X139172676Y-105081904D02*
X139077438Y-104986666D01*
X139077438Y-104986666D02*
X139029819Y-104843809D01*
X139029819Y-104843809D02*
X139029819Y-104748571D01*
X139029819Y-104748571D02*
X139077438Y-104605714D01*
X139077438Y-104605714D02*
X139125057Y-104558095D01*
X140029819Y-104129523D02*
X139029819Y-104129523D01*
X140029819Y-103558095D02*
X139458390Y-103986666D01*
X139029819Y-103558095D02*
X139601247Y-104129523D01*
X135204819Y-78166666D02*
X134728628Y-78499999D01*
X135204819Y-78738094D02*
X134204819Y-78738094D01*
X134204819Y-78738094D02*
X134204819Y-78357142D01*
X134204819Y-78357142D02*
X134252438Y-78261904D01*
X134252438Y-78261904D02*
X134300057Y-78214285D01*
X134300057Y-78214285D02*
X134395295Y-78166666D01*
X134395295Y-78166666D02*
X134538152Y-78166666D01*
X134538152Y-78166666D02*
X134633390Y-78214285D01*
X134633390Y-78214285D02*
X134681009Y-78261904D01*
X134681009Y-78261904D02*
X134728628Y-78357142D01*
X134728628Y-78357142D02*
X134728628Y-78738094D01*
X134300057Y-77785713D02*
X134252438Y-77738094D01*
X134252438Y-77738094D02*
X134204819Y-77642856D01*
X134204819Y-77642856D02*
X134204819Y-77404761D01*
X134204819Y-77404761D02*
X134252438Y-77309523D01*
X134252438Y-77309523D02*
X134300057Y-77261904D01*
X134300057Y-77261904D02*
X134395295Y-77214285D01*
X134395295Y-77214285D02*
X134490533Y-77214285D01*
X134490533Y-77214285D02*
X134633390Y-77261904D01*
X134633390Y-77261904D02*
X135204819Y-77833332D01*
X135204819Y-77833332D02*
X135204819Y-77214285D01*
X161704819Y-87166666D02*
X161228628Y-87499999D01*
X161704819Y-87738094D02*
X160704819Y-87738094D01*
X160704819Y-87738094D02*
X160704819Y-87357142D01*
X160704819Y-87357142D02*
X160752438Y-87261904D01*
X160752438Y-87261904D02*
X160800057Y-87214285D01*
X160800057Y-87214285D02*
X160895295Y-87166666D01*
X160895295Y-87166666D02*
X161038152Y-87166666D01*
X161038152Y-87166666D02*
X161133390Y-87214285D01*
X161133390Y-87214285D02*
X161181009Y-87261904D01*
X161181009Y-87261904D02*
X161228628Y-87357142D01*
X161228628Y-87357142D02*
X161228628Y-87738094D01*
X161704819Y-86214285D02*
X161704819Y-86785713D01*
X161704819Y-86499999D02*
X160704819Y-86499999D01*
X160704819Y-86499999D02*
X160847676Y-86595237D01*
X160847676Y-86595237D02*
X160942914Y-86690475D01*
X160942914Y-86690475D02*
X160990533Y-86785713D01*
X160204819Y-94488094D02*
X159204819Y-94488094D01*
X159204819Y-94488094D02*
X159204819Y-94249999D01*
X159204819Y-94249999D02*
X159252438Y-94107142D01*
X159252438Y-94107142D02*
X159347676Y-94011904D01*
X159347676Y-94011904D02*
X159442914Y-93964285D01*
X159442914Y-93964285D02*
X159633390Y-93916666D01*
X159633390Y-93916666D02*
X159776247Y-93916666D01*
X159776247Y-93916666D02*
X159966723Y-93964285D01*
X159966723Y-93964285D02*
X160061961Y-94011904D01*
X160061961Y-94011904D02*
X160157200Y-94107142D01*
X160157200Y-94107142D02*
X160204819Y-94249999D01*
X160204819Y-94249999D02*
X160204819Y-94488094D01*
X160204819Y-92964285D02*
X160204819Y-93535713D01*
X160204819Y-93249999D02*
X159204819Y-93249999D01*
X159204819Y-93249999D02*
X159347676Y-93345237D01*
X159347676Y-93345237D02*
X159442914Y-93440475D01*
X159442914Y-93440475D02*
X159490533Y-93535713D01*
X157409580Y-78166666D02*
X157457200Y-78214285D01*
X157457200Y-78214285D02*
X157504819Y-78357142D01*
X157504819Y-78357142D02*
X157504819Y-78452380D01*
X157504819Y-78452380D02*
X157457200Y-78595237D01*
X157457200Y-78595237D02*
X157361961Y-78690475D01*
X157361961Y-78690475D02*
X157266723Y-78738094D01*
X157266723Y-78738094D02*
X157076247Y-78785713D01*
X157076247Y-78785713D02*
X156933390Y-78785713D01*
X156933390Y-78785713D02*
X156742914Y-78738094D01*
X156742914Y-78738094D02*
X156647676Y-78690475D01*
X156647676Y-78690475D02*
X156552438Y-78595237D01*
X156552438Y-78595237D02*
X156504819Y-78452380D01*
X156504819Y-78452380D02*
X156504819Y-78357142D01*
X156504819Y-78357142D02*
X156552438Y-78214285D01*
X156552438Y-78214285D02*
X156600057Y-78166666D01*
X156504819Y-77261904D02*
X156504819Y-77738094D01*
X156504819Y-77738094D02*
X156981009Y-77785713D01*
X156981009Y-77785713D02*
X156933390Y-77738094D01*
X156933390Y-77738094D02*
X156885771Y-77642856D01*
X156885771Y-77642856D02*
X156885771Y-77404761D01*
X156885771Y-77404761D02*
X156933390Y-77309523D01*
X156933390Y-77309523D02*
X156981009Y-77261904D01*
X156981009Y-77261904D02*
X157076247Y-77214285D01*
X157076247Y-77214285D02*
X157314342Y-77214285D01*
X157314342Y-77214285D02*
X157409580Y-77261904D01*
X157409580Y-77261904D02*
X157457200Y-77309523D01*
X157457200Y-77309523D02*
X157504819Y-77404761D01*
X157504819Y-77404761D02*
X157504819Y-77642856D01*
X157504819Y-77642856D02*
X157457200Y-77738094D01*
X157457200Y-77738094D02*
X157409580Y-77785713D01*
X143694819Y-79016189D02*
X142694819Y-79016189D01*
X143599580Y-77968571D02*
X143647200Y-78016190D01*
X143647200Y-78016190D02*
X143694819Y-78159047D01*
X143694819Y-78159047D02*
X143694819Y-78254285D01*
X143694819Y-78254285D02*
X143647200Y-78397142D01*
X143647200Y-78397142D02*
X143551961Y-78492380D01*
X143551961Y-78492380D02*
X143456723Y-78539999D01*
X143456723Y-78539999D02*
X143266247Y-78587618D01*
X143266247Y-78587618D02*
X143123390Y-78587618D01*
X143123390Y-78587618D02*
X142932914Y-78539999D01*
X142932914Y-78539999D02*
X142837676Y-78492380D01*
X142837676Y-78492380D02*
X142742438Y-78397142D01*
X142742438Y-78397142D02*
X142694819Y-78254285D01*
X142694819Y-78254285D02*
X142694819Y-78159047D01*
X142694819Y-78159047D02*
X142742438Y-78016190D01*
X142742438Y-78016190D02*
X142790057Y-77968571D01*
X142790057Y-77587618D02*
X142742438Y-77539999D01*
X142742438Y-77539999D02*
X142694819Y-77444761D01*
X142694819Y-77444761D02*
X142694819Y-77206666D01*
X142694819Y-77206666D02*
X142742438Y-77111428D01*
X142742438Y-77111428D02*
X142790057Y-77063809D01*
X142790057Y-77063809D02*
X142885295Y-77016190D01*
X142885295Y-77016190D02*
X142980533Y-77016190D01*
X142980533Y-77016190D02*
X143123390Y-77063809D01*
X143123390Y-77063809D02*
X143694819Y-77635237D01*
X143694819Y-77635237D02*
X143694819Y-77016190D01*
X161804819Y-78016666D02*
X161328628Y-78349999D01*
X161804819Y-78588094D02*
X160804819Y-78588094D01*
X160804819Y-78588094D02*
X160804819Y-78207142D01*
X160804819Y-78207142D02*
X160852438Y-78111904D01*
X160852438Y-78111904D02*
X160900057Y-78064285D01*
X160900057Y-78064285D02*
X160995295Y-78016666D01*
X160995295Y-78016666D02*
X161138152Y-78016666D01*
X161138152Y-78016666D02*
X161233390Y-78064285D01*
X161233390Y-78064285D02*
X161281009Y-78111904D01*
X161281009Y-78111904D02*
X161328628Y-78207142D01*
X161328628Y-78207142D02*
X161328628Y-78588094D01*
X160804819Y-77159523D02*
X160804819Y-77349999D01*
X160804819Y-77349999D02*
X160852438Y-77445237D01*
X160852438Y-77445237D02*
X160900057Y-77492856D01*
X160900057Y-77492856D02*
X161042914Y-77588094D01*
X161042914Y-77588094D02*
X161233390Y-77635713D01*
X161233390Y-77635713D02*
X161614342Y-77635713D01*
X161614342Y-77635713D02*
X161709580Y-77588094D01*
X161709580Y-77588094D02*
X161757200Y-77540475D01*
X161757200Y-77540475D02*
X161804819Y-77445237D01*
X161804819Y-77445237D02*
X161804819Y-77254761D01*
X161804819Y-77254761D02*
X161757200Y-77159523D01*
X161757200Y-77159523D02*
X161709580Y-77111904D01*
X161709580Y-77111904D02*
X161614342Y-77064285D01*
X161614342Y-77064285D02*
X161376247Y-77064285D01*
X161376247Y-77064285D02*
X161281009Y-77111904D01*
X161281009Y-77111904D02*
X161233390Y-77159523D01*
X161233390Y-77159523D02*
X161185771Y-77254761D01*
X161185771Y-77254761D02*
X161185771Y-77445237D01*
X161185771Y-77445237D02*
X161233390Y-77540475D01*
X161233390Y-77540475D02*
X161281009Y-77588094D01*
X161281009Y-77588094D02*
X161376247Y-77635713D01*
X138114819Y-96646189D02*
X137114819Y-96646189D01*
X138019580Y-95598571D02*
X138067200Y-95646190D01*
X138067200Y-95646190D02*
X138114819Y-95789047D01*
X138114819Y-95789047D02*
X138114819Y-95884285D01*
X138114819Y-95884285D02*
X138067200Y-96027142D01*
X138067200Y-96027142D02*
X137971961Y-96122380D01*
X137971961Y-96122380D02*
X137876723Y-96169999D01*
X137876723Y-96169999D02*
X137686247Y-96217618D01*
X137686247Y-96217618D02*
X137543390Y-96217618D01*
X137543390Y-96217618D02*
X137352914Y-96169999D01*
X137352914Y-96169999D02*
X137257676Y-96122380D01*
X137257676Y-96122380D02*
X137162438Y-96027142D01*
X137162438Y-96027142D02*
X137114819Y-95884285D01*
X137114819Y-95884285D02*
X137114819Y-95789047D01*
X137114819Y-95789047D02*
X137162438Y-95646190D01*
X137162438Y-95646190D02*
X137210057Y-95598571D01*
X138114819Y-94646190D02*
X138114819Y-95217618D01*
X138114819Y-94931904D02*
X137114819Y-94931904D01*
X137114819Y-94931904D02*
X137257676Y-95027142D01*
X137257676Y-95027142D02*
X137352914Y-95122380D01*
X137352914Y-95122380D02*
X137400533Y-95217618D01*
X135166666Y-111154819D02*
X135166666Y-111869104D01*
X135166666Y-111869104D02*
X135119047Y-112011961D01*
X135119047Y-112011961D02*
X135023809Y-112107200D01*
X135023809Y-112107200D02*
X134880952Y-112154819D01*
X134880952Y-112154819D02*
X134785714Y-112154819D01*
X135642857Y-112154819D02*
X135642857Y-111154819D01*
X135642857Y-111154819D02*
X136023809Y-111154819D01*
X136023809Y-111154819D02*
X136119047Y-111202438D01*
X136119047Y-111202438D02*
X136166666Y-111250057D01*
X136166666Y-111250057D02*
X136214285Y-111345295D01*
X136214285Y-111345295D02*
X136214285Y-111488152D01*
X136214285Y-111488152D02*
X136166666Y-111583390D01*
X136166666Y-111583390D02*
X136119047Y-111631009D01*
X136119047Y-111631009D02*
X136023809Y-111678628D01*
X136023809Y-111678628D02*
X135642857Y-111678628D01*
X136595238Y-111250057D02*
X136642857Y-111202438D01*
X136642857Y-111202438D02*
X136738095Y-111154819D01*
X136738095Y-111154819D02*
X136976190Y-111154819D01*
X136976190Y-111154819D02*
X137071428Y-111202438D01*
X137071428Y-111202438D02*
X137119047Y-111250057D01*
X137119047Y-111250057D02*
X137166666Y-111345295D01*
X137166666Y-111345295D02*
X137166666Y-111440533D01*
X137166666Y-111440533D02*
X137119047Y-111583390D01*
X137119047Y-111583390D02*
X136547619Y-112154819D01*
X136547619Y-112154819D02*
X137166666Y-112154819D01*
D13*
%TO.C,C3*%
X141011252Y-90765000D02*
X140488748Y-90765000D01*
X141011252Y-92235000D02*
X140488748Y-92235000D01*
%TO.C,C4*%
X138265000Y-77738748D02*
X138265000Y-78261252D01*
X139735000Y-77738748D02*
X139735000Y-78261252D01*
%TO.C,C2*%
X138811252Y-100065000D02*
X138288748Y-100065000D01*
X138811252Y-101535000D02*
X138288748Y-101535000D01*
%TO.C,C1*%
X144815000Y-96451248D02*
X144815000Y-96973752D01*
X146285000Y-96451248D02*
X146285000Y-96973752D01*
D14*
%TO.C,G1*%
G36*
X164078836Y-97738742D02*
G01*
X163253215Y-97738742D01*
X163253215Y-96815989D01*
X164078836Y-96815989D01*
X164078836Y-97738742D01*
G37*
G36*
X168061245Y-97690176D02*
G01*
X164613062Y-97690176D01*
X164613062Y-96864555D01*
X168061245Y-96864555D01*
X168061245Y-97690176D01*
G37*
G36*
X166956369Y-115265805D02*
G01*
X167024594Y-115307870D01*
X167061445Y-115388141D01*
X167079160Y-115534812D01*
X167080162Y-115551005D01*
X167097194Y-115706124D01*
X167138228Y-115803566D01*
X167223204Y-115882703D01*
X167261952Y-115909924D01*
X167355601Y-115980283D01*
X167405660Y-116049850D01*
X167425768Y-116151477D01*
X167429556Y-116313704D01*
X167429888Y-116603579D01*
X166847096Y-116026869D01*
X166847096Y-115626244D01*
X166848173Y-115430442D01*
X166854945Y-115314247D01*
X166872724Y-115260138D01*
X166906823Y-115250591D01*
X166956369Y-115265805D01*
G37*
G36*
X168838301Y-116195445D02*
G01*
X168838301Y-118013008D01*
X168401207Y-117577939D01*
X167964113Y-117142871D01*
X167964113Y-116814038D01*
X167969784Y-116649563D01*
X167984671Y-116531637D01*
X168005581Y-116485233D01*
X168006130Y-116485205D01*
X168070270Y-116512681D01*
X168167515Y-116579119D01*
X168171629Y-116582337D01*
X168265002Y-116649472D01*
X168322456Y-116679371D01*
X168323877Y-116679469D01*
X168337613Y-116634862D01*
X168347780Y-116516848D01*
X168352511Y-116349137D01*
X168352641Y-116314406D01*
X168352641Y-115949343D01*
X168838301Y-116195445D01*
G37*
G36*
X167283064Y-112561794D02*
G01*
X167277535Y-112728779D01*
X167253993Y-112826178D01*
X167204565Y-112881004D01*
X167187058Y-112891323D01*
X167137457Y-112929931D01*
X167108109Y-112995056D01*
X167093962Y-113109247D01*
X167089964Y-113295054D01*
X167089926Y-113324930D01*
X167084403Y-113535742D01*
X167062557Y-113667375D01*
X167016474Y-113737419D01*
X166938242Y-113763460D01*
X166891690Y-113765511D01*
X166873431Y-113720288D01*
X166858788Y-113597956D01*
X166849502Y-113418520D01*
X166847096Y-113252741D01*
X166847096Y-112739971D01*
X167281938Y-112284249D01*
X167283064Y-112561794D01*
G37*
G36*
X168838301Y-114396868D02*
G01*
X168352641Y-114396868D01*
X168352641Y-113231285D01*
X168351058Y-112906420D01*
X168346613Y-112616411D01*
X168339757Y-112374530D01*
X168330945Y-112194048D01*
X168320629Y-112088236D01*
X168312846Y-112065702D01*
X168256319Y-112092799D01*
X168146924Y-112163731D01*
X168012679Y-112259966D01*
X167879093Y-112358041D01*
X167779902Y-112427871D01*
X167736795Y-112454230D01*
X167728709Y-112410031D01*
X167723098Y-112294889D01*
X167721283Y-112154789D01*
X167721283Y-111855349D01*
X168279252Y-111292743D01*
X168837221Y-110730138D01*
X168838301Y-114396868D01*
G37*
G36*
X165438683Y-105924519D02*
G01*
X165442873Y-106158808D01*
X165462025Y-106345486D01*
X165506012Y-106489943D01*
X165584707Y-106597568D01*
X165707982Y-106673750D01*
X165885711Y-106723880D01*
X166127767Y-106753345D01*
X166444021Y-106767536D01*
X166844348Y-106771841D01*
X166991234Y-106772012D01*
X168061245Y-106772012D01*
X168061245Y-107597633D01*
X164613062Y-107597633D01*
X164613062Y-107256147D01*
X164618390Y-107064049D01*
X164636757Y-106950749D01*
X164671738Y-106898376D01*
X164685911Y-106891902D01*
X164800742Y-106855902D01*
X164834420Y-106845306D01*
X164871220Y-106817597D01*
X164855107Y-106759601D01*
X164780026Y-106651127D01*
X164773712Y-106642832D01*
X164709720Y-106550848D01*
X164668253Y-106460153D01*
X164643311Y-106345034D01*
X164628897Y-106179780D01*
X164620652Y-105986746D01*
X164603960Y-105509297D01*
X165438683Y-105509297D01*
X165438683Y-105924519D01*
G37*
G36*
X165100045Y-78142375D02*
G01*
X165117107Y-78366740D01*
X165145732Y-78547764D01*
X165195591Y-78690086D01*
X165276356Y-78798342D01*
X165397700Y-78877172D01*
X165569294Y-78931214D01*
X165800809Y-78965105D01*
X166101918Y-78983483D01*
X166482292Y-78990987D01*
X166872362Y-78992279D01*
X168061245Y-78992279D01*
X168061245Y-79382066D01*
X164685911Y-79356524D01*
X164685911Y-79210826D01*
X164698212Y-79108672D01*
X164755185Y-79064001D01*
X164843750Y-79049910D01*
X164951258Y-79027286D01*
X165001155Y-78992624D01*
X165001589Y-78989202D01*
X164965663Y-78944584D01*
X164956984Y-78943713D01*
X164906263Y-78905992D01*
X164831998Y-78811278D01*
X164802649Y-78766167D01*
X164747493Y-78660897D01*
X164713682Y-78544973D01*
X164696095Y-78390396D01*
X164689614Y-78169167D01*
X164689415Y-78146951D01*
X164685911Y-77705281D01*
X165074438Y-77705281D01*
X165100045Y-78142375D01*
G37*
G36*
X165135146Y-108025968D02*
G01*
X165438683Y-108043354D01*
X165438683Y-108811782D01*
X166277781Y-108811782D01*
X166623316Y-108810577D01*
X166883748Y-108803433D01*
X167071107Y-108785059D01*
X167197418Y-108750163D01*
X167274711Y-108693454D01*
X167315013Y-108609641D01*
X167330351Y-108493431D01*
X167332756Y-108347652D01*
X167332756Y-108034727D01*
X168061245Y-108034727D01*
X168060179Y-108532528D01*
X168054500Y-108797751D01*
X168036516Y-108991829D01*
X168002818Y-109140339D01*
X167966697Y-109233885D01*
X167842792Y-109420596D01*
X167678302Y-109537423D01*
X167605265Y-109571067D01*
X167526395Y-109596233D01*
X167426904Y-109614135D01*
X167292004Y-109625988D01*
X167106907Y-109633005D01*
X166856827Y-109636400D01*
X166526973Y-109637388D01*
X166460503Y-109637404D01*
X165438683Y-109637404D01*
X165438683Y-110171629D01*
X164613062Y-110171629D01*
X164613062Y-109637404D01*
X163641742Y-109637404D01*
X163641742Y-108811782D01*
X164613062Y-108811782D01*
X164613062Y-108428916D01*
X164614997Y-108238292D01*
X164632184Y-108114848D01*
X164681696Y-108045407D01*
X164780604Y-108016793D01*
X164945983Y-108015828D01*
X165135146Y-108025968D01*
G37*
G36*
X168061245Y-83187092D02*
G01*
X168054844Y-83289134D01*
X168018298Y-83342799D01*
X167925592Y-83371523D01*
X167841366Y-83385160D01*
X167621487Y-83418133D01*
X167808535Y-83630631D01*
X167925386Y-83785952D01*
X168019339Y-83950411D01*
X168052697Y-84033759D01*
X168089048Y-84231769D01*
X168102870Y-84478845D01*
X168094364Y-84731993D01*
X168063729Y-84948221D01*
X168048183Y-85006079D01*
X167943636Y-85210729D01*
X167772802Y-85416615D01*
X167562491Y-85597267D01*
X167339513Y-85726216D01*
X167304597Y-85740228D01*
X167211731Y-85772109D01*
X167115941Y-85796436D01*
X167002842Y-85814213D01*
X166858045Y-85826445D01*
X166667164Y-85834135D01*
X166415811Y-85838287D01*
X166089601Y-85839906D01*
X165873955Y-85840081D01*
X164710194Y-85840081D01*
X164710194Y-85722638D01*
X164698167Y-85596801D01*
X164680715Y-85528374D01*
X164679631Y-85503610D01*
X164705233Y-85484752D01*
X164768594Y-85471008D01*
X164880783Y-85461588D01*
X165052872Y-85455704D01*
X165295934Y-85452565D01*
X165621038Y-85451382D01*
X165761307Y-85451282D01*
X166093894Y-85449028D01*
X166402525Y-85442860D01*
X166670683Y-85433424D01*
X166881851Y-85421366D01*
X167019513Y-85407332D01*
X167051993Y-85400850D01*
X167303096Y-85285794D01*
X167497735Y-85106438D01*
X167632860Y-84879610D01*
X167705420Y-84622138D01*
X167712364Y-84350849D01*
X167650641Y-84082572D01*
X167517200Y-83834134D01*
X167365990Y-83668986D01*
X167216096Y-83561480D01*
X167053986Y-83479454D01*
X167006263Y-83463268D01*
X166902394Y-83447881D01*
X166717940Y-83434416D01*
X166469438Y-83423546D01*
X166173426Y-83415944D01*
X165846442Y-83412282D01*
X165747072Y-83412053D01*
X164671330Y-83411782D01*
X164678621Y-83229660D01*
X164685911Y-83047538D01*
X168061245Y-83021996D01*
X168061245Y-83187092D01*
G37*
G36*
X169421092Y-86714268D02*
G01*
X167513728Y-86714268D01*
X167730789Y-86946324D01*
X167927648Y-87194349D01*
X168047585Y-87446986D01*
X168100256Y-87732138D01*
X168099861Y-88012593D01*
X168058497Y-88333190D01*
X167969064Y-88592498D01*
X167818882Y-88819686D01*
X167688974Y-88957906D01*
X167395337Y-89176569D01*
X167048059Y-89329166D01*
X166665956Y-89414320D01*
X166374485Y-89426278D01*
X166267846Y-89430653D01*
X165872545Y-89376787D01*
X165498868Y-89251346D01*
X165281749Y-89134136D01*
X165009455Y-88907981D01*
X164808147Y-88631056D01*
X164679684Y-88319235D01*
X164625925Y-87988392D01*
X164633212Y-87881661D01*
X165020057Y-87881661D01*
X165053545Y-88149480D01*
X165154301Y-88404165D01*
X165321588Y-88632600D01*
X165554672Y-88821670D01*
X165852819Y-88958263D01*
X166010325Y-88999595D01*
X166374485Y-89035518D01*
X166725191Y-88995853D01*
X167046974Y-88887224D01*
X167324366Y-88716254D01*
X167541898Y-88489567D01*
X167652396Y-88296436D01*
X167704757Y-88091139D01*
X167715391Y-87842674D01*
X167685460Y-87595021D01*
X167629209Y-87418474D01*
X167458899Y-87161058D01*
X167220212Y-86958723D01*
X166928175Y-86816765D01*
X166597814Y-86740481D01*
X166244157Y-86735166D01*
X165887335Y-86804557D01*
X165573467Y-86941330D01*
X165330540Y-87130542D01*
X165157819Y-87359077D01*
X165054570Y-87613822D01*
X165020057Y-87881661D01*
X164633212Y-87881661D01*
X164648728Y-87654402D01*
X164749952Y-87333140D01*
X164931455Y-87040480D01*
X165024548Y-86937377D01*
X165122570Y-86833927D01*
X165180812Y-86761737D01*
X165188568Y-86741618D01*
X165135061Y-86725408D01*
X165016951Y-86700157D01*
X164928740Y-86683681D01*
X164785110Y-86653623D01*
X164713178Y-86617512D01*
X164688383Y-86556289D01*
X164685911Y-86495254D01*
X164685911Y-86350023D01*
X167053501Y-86337420D01*
X169421092Y-86324816D01*
X169421092Y-86714268D01*
G37*
G36*
X166594352Y-98153517D02*
G01*
X166779711Y-98161907D01*
X166918487Y-98180465D01*
X167035936Y-98212937D01*
X167157313Y-98263067D01*
X167189274Y-98277878D01*
X167506623Y-98461374D01*
X167750193Y-98686441D01*
X167940947Y-98973243D01*
X167968512Y-99027314D01*
X168093851Y-99385395D01*
X168128008Y-99753112D01*
X168072275Y-100114926D01*
X167927945Y-100455301D01*
X167838382Y-100591993D01*
X167758002Y-100701266D01*
X169421092Y-100701266D01*
X169421092Y-101575453D01*
X166337153Y-101575453D01*
X164609133Y-101575453D01*
X164623239Y-101175321D01*
X164632639Y-100976671D01*
X164647196Y-100855229D01*
X164672243Y-100791075D01*
X164713111Y-100764287D01*
X164734477Y-100759667D01*
X164851381Y-100734830D01*
X164900363Y-100695641D01*
X164884623Y-100622245D01*
X164807361Y-100494787D01*
X164783029Y-100458417D01*
X164663438Y-100254050D01*
X164593911Y-100056155D01*
X164584324Y-99976363D01*
X165356284Y-99976363D01*
X165438973Y-100237804D01*
X165597341Y-100447344D01*
X165824366Y-100597637D01*
X166113025Y-100681337D01*
X166337153Y-100696505D01*
X166659049Y-100666036D01*
X166912476Y-100576802D01*
X167110836Y-100422305D01*
X167228816Y-100264172D01*
X167312320Y-100049411D01*
X167336347Y-99802534D01*
X167301182Y-99561667D01*
X167222327Y-99386181D01*
X167019319Y-99166813D01*
X166762320Y-99024886D01*
X166459453Y-98963166D01*
X166118842Y-98984419D01*
X166070041Y-98993873D01*
X165774409Y-99093114D01*
X165554253Y-99250352D01*
X165412048Y-99463239D01*
X165356295Y-99670368D01*
X165356284Y-99976363D01*
X164584324Y-99976363D01*
X164566937Y-99831649D01*
X164575003Y-99547451D01*
X164575286Y-99543500D01*
X164647852Y-99175698D01*
X164806654Y-98847651D01*
X165046297Y-98566893D01*
X165361385Y-98340958D01*
X165480063Y-98280154D01*
X165607651Y-98224413D01*
X165723971Y-98187500D01*
X165854397Y-98165608D01*
X166024299Y-98154930D01*
X166259052Y-98151660D01*
X166337153Y-98151553D01*
X166594352Y-98153517D01*
G37*
G36*
X166715311Y-102019750D02*
G01*
X167029831Y-102093601D01*
X167304623Y-102227941D01*
X167563597Y-102431978D01*
X167628037Y-102494321D01*
X167878922Y-102807426D01*
X168042406Y-103158976D01*
X168119430Y-103552027D01*
X168110936Y-103989630D01*
X168104739Y-104041250D01*
X168010112Y-104410945D01*
X167833331Y-104743305D01*
X167585576Y-105027899D01*
X167278026Y-105254293D01*
X166921859Y-105412057D01*
X166554084Y-105488318D01*
X166396885Y-105488386D01*
X166130348Y-105488501D01*
X165733270Y-105405021D01*
X165374469Y-105243867D01*
X165065563Y-105011024D01*
X164818171Y-104712482D01*
X164723329Y-104544850D01*
X164662831Y-104412912D01*
X164623708Y-104294911D01*
X164601400Y-104163415D01*
X164591349Y-103990994D01*
X164588994Y-103750217D01*
X164588997Y-103736639D01*
X164589667Y-103674438D01*
X165349507Y-103674438D01*
X165362874Y-103938274D01*
X165449424Y-104186149D01*
X165610898Y-104396607D01*
X165617415Y-104402569D01*
X165837390Y-104540694D01*
X166105932Y-104617204D01*
X166396885Y-104632541D01*
X166684095Y-104587144D01*
X166941406Y-104481457D01*
X167083314Y-104377820D01*
X167227297Y-104200117D01*
X167304024Y-103984537D01*
X167320625Y-103710056D01*
X167319414Y-103681761D01*
X167298138Y-103479693D01*
X167249876Y-103332005D01*
X167174306Y-103213215D01*
X167048004Y-103086324D01*
X166884155Y-102968858D01*
X166820186Y-102934029D01*
X166562530Y-102855660D01*
X166272659Y-102841181D01*
X165986920Y-102888333D01*
X165741661Y-102994857D01*
X165731090Y-103001715D01*
X165535356Y-103184703D01*
X165407581Y-103416096D01*
X165349507Y-103674438D01*
X164589667Y-103674438D01*
X164591673Y-103488109D01*
X164602190Y-103310068D01*
X164624633Y-103175949D01*
X164663090Y-103059181D01*
X164708537Y-102959583D01*
X164889927Y-102674933D01*
X165131557Y-102416960D01*
X165406344Y-102211199D01*
X165610169Y-102109464D01*
X165801210Y-102046924D01*
X165996300Y-102011803D01*
X166234572Y-101998058D01*
X166337153Y-101997179D01*
X166715311Y-102019750D01*
G37*
G36*
X166942833Y-93076009D02*
G01*
X167162546Y-93162506D01*
X167396844Y-93291794D01*
X167606914Y-93440198D01*
X167731858Y-93557250D01*
X167938263Y-93863311D01*
X168072726Y-94220093D01*
X168130173Y-94607864D01*
X168105524Y-95006891D01*
X168105249Y-95008511D01*
X167994149Y-95392257D01*
X167805416Y-95725717D01*
X167548307Y-96002025D01*
X167232077Y-96214314D01*
X166865982Y-96355715D01*
X166459278Y-96419363D01*
X166205793Y-96417779D01*
X165791315Y-96347612D01*
X165420845Y-96195388D01*
X165103138Y-95965048D01*
X165023199Y-95885353D01*
X164826195Y-95644744D01*
X164693865Y-95402064D01*
X164614680Y-95128159D01*
X164577111Y-94793872D01*
X164575014Y-94751935D01*
X164585191Y-94363333D01*
X164657762Y-94034938D01*
X164798248Y-93748218D01*
X164923845Y-93580951D01*
X165101633Y-93415942D01*
X165334818Y-93257157D01*
X165583489Y-93129547D01*
X165731473Y-93076009D01*
X165875777Y-93034624D01*
X165873906Y-93456186D01*
X165871778Y-93659470D01*
X165862893Y-93789073D01*
X165840197Y-93868444D01*
X165796635Y-93921034D01*
X165725153Y-93970293D01*
X165717879Y-93974880D01*
X165586528Y-94082247D01*
X165464135Y-94219811D01*
X165448382Y-94241993D01*
X165362668Y-94446604D01*
X165341184Y-94689043D01*
X165381970Y-94936046D01*
X165483067Y-95154354D01*
X165503832Y-95183250D01*
X165713777Y-95384443D01*
X165968175Y-95513024D01*
X166248023Y-95569920D01*
X166534317Y-95556059D01*
X166808054Y-95472366D01*
X167050233Y-95319771D01*
X167241850Y-95099200D01*
X167242344Y-95098413D01*
X167297114Y-94986010D01*
X167322357Y-94853430D01*
X167323753Y-94666369D01*
X167321676Y-94619504D01*
X167307731Y-94435671D01*
X167279779Y-94313453D01*
X167224844Y-94217336D01*
X167139931Y-94122062D01*
X167024063Y-94014936D01*
X166920801Y-93939835D01*
X166886484Y-93923401D01*
X166843811Y-93897828D01*
X166817472Y-93841187D01*
X166803729Y-93733995D01*
X166798842Y-93556774D01*
X166798530Y-93465055D01*
X166798530Y-93034624D01*
X166942833Y-93076009D01*
G37*
G36*
X166582010Y-76029756D02*
G01*
X166584036Y-77365320D01*
X166764864Y-77359715D01*
X166934061Y-77324932D01*
X167126129Y-77240839D01*
X167174365Y-77212733D01*
X167418894Y-77009387D01*
X167591449Y-76757036D01*
X167690309Y-76472989D01*
X167713754Y-76174552D01*
X167660065Y-75879032D01*
X167527522Y-75603734D01*
X167354374Y-75401127D01*
X167231443Y-75279885D01*
X167166570Y-75184122D01*
X167141724Y-75078942D01*
X167138492Y-74983340D01*
X167138492Y-74764546D01*
X167296331Y-74845296D01*
X167609192Y-75057136D01*
X167854790Y-75331639D01*
X168026836Y-75655857D01*
X168119038Y-76016842D01*
X168125105Y-76401646D01*
X168109367Y-76518736D01*
X168001163Y-76877734D01*
X167810280Y-77195102D01*
X167546494Y-77458997D01*
X167219578Y-77657577D01*
X167142345Y-77690457D01*
X166986569Y-77743621D01*
X166825540Y-77776517D01*
X166628892Y-77793339D01*
X166366257Y-77798281D01*
X166361436Y-77798286D01*
X166167173Y-77796249D01*
X166118853Y-77795742D01*
X165943140Y-77784226D01*
X165804117Y-77758688D01*
X165671600Y-77714080D01*
X165554395Y-77663281D01*
X165227553Y-77466466D01*
X164955934Y-77205636D01*
X164758043Y-76898796D01*
X164749076Y-76879660D01*
X164688382Y-76723485D01*
X164654220Y-76561912D01*
X164640561Y-76358845D01*
X164639878Y-76266495D01*
X165017671Y-76266495D01*
X165063984Y-76565852D01*
X165186607Y-76840892D01*
X165379164Y-77077493D01*
X165635277Y-77261532D01*
X165948571Y-77378887D01*
X165960767Y-77381675D01*
X166167173Y-77427844D01*
X166167173Y-76239867D01*
X166166770Y-75869810D01*
X166165026Y-75585896D01*
X166161138Y-75377134D01*
X166154306Y-75232537D01*
X166143725Y-75141116D01*
X166128594Y-75091882D01*
X166108111Y-75073847D01*
X166082182Y-75075821D01*
X165974127Y-75102443D01*
X165842165Y-75130900D01*
X165639659Y-75210151D01*
X165433276Y-75354981D01*
X165254637Y-75540559D01*
X165179481Y-75651322D01*
X165054044Y-75956944D01*
X165017671Y-76266495D01*
X164639878Y-76266495D01*
X164639564Y-76224019D01*
X164662599Y-75885249D01*
X164734902Y-75608943D01*
X164866638Y-75368653D01*
X165050214Y-75155510D01*
X165338876Y-74923578D01*
X165662436Y-74775429D01*
X166033969Y-74705814D01*
X166187794Y-74698890D01*
X166579983Y-74694191D01*
X166582010Y-76029756D01*
G37*
G36*
X164613062Y-112478513D02*
G01*
X164621772Y-112797729D01*
X164629627Y-113030529D01*
X164638105Y-113187599D01*
X164648682Y-113279626D01*
X164662839Y-113317298D01*
X164682052Y-113311302D01*
X164707801Y-113272325D01*
X164719854Y-113250636D01*
X164887798Y-113027089D01*
X165118166Y-112834332D01*
X165386845Y-112684353D01*
X165669723Y-112589139D01*
X165942688Y-112560676D01*
X166075269Y-112576793D01*
X166228306Y-112610405D01*
X165535841Y-113304108D01*
X164843377Y-113997810D01*
X165104605Y-114073674D01*
X165675152Y-114200271D01*
X166227632Y-114240044D01*
X166776180Y-114192015D01*
X167334927Y-114055204D01*
X167781991Y-113888325D01*
X167821298Y-113879692D01*
X167846237Y-113904994D01*
X167860021Y-113980468D01*
X167865861Y-114122351D01*
X167866981Y-114317898D01*
X167866981Y-114783545D01*
X167733425Y-114820895D01*
X167638394Y-114833896D01*
X167467385Y-114844388D01*
X167241540Y-114851550D01*
X166981999Y-114854559D01*
X166871379Y-114854405D01*
X166302184Y-114834758D01*
X165798802Y-114779172D01*
X165335100Y-114683020D01*
X164884944Y-114541671D01*
X164698052Y-114469509D01*
X164671751Y-114464230D01*
X164651499Y-114479603D01*
X164636513Y-114526446D01*
X164626006Y-114615579D01*
X164619192Y-114757819D01*
X164615288Y-114963984D01*
X164613506Y-115244893D01*
X164613063Y-115611365D01*
X164613062Y-115640216D01*
X164613062Y-116845390D01*
X164398258Y-116634576D01*
X164160196Y-116340012D01*
X163998471Y-115995455D01*
X163909949Y-115593233D01*
X163893555Y-115399542D01*
X163872206Y-114969519D01*
X163392730Y-115447196D01*
X162913253Y-115924874D01*
X162913291Y-115585823D01*
X162960599Y-115210634D01*
X163098989Y-114857287D01*
X163323293Y-114534572D01*
X163628344Y-114251279D01*
X163747667Y-114166738D01*
X163941383Y-114038543D01*
X163712118Y-113922027D01*
X163456552Y-113753953D01*
X163206585Y-113522577D01*
X162992367Y-113258577D01*
X162884400Y-113079793D01*
X162810595Y-112914580D01*
X162764661Y-112747259D01*
X162738205Y-112540836D01*
X162728728Y-112393522D01*
X162723489Y-112204193D01*
X162727816Y-112058286D01*
X162740675Y-111977696D01*
X162748798Y-111968570D01*
X162795084Y-112001288D01*
X162897778Y-112092075D01*
X163045043Y-112229885D01*
X163225042Y-112403670D01*
X163398237Y-112574710D01*
X164005987Y-113180851D01*
X164008491Y-112805399D01*
X164053398Y-112407116D01*
X164182258Y-112057014D01*
X164394722Y-111756000D01*
X164423362Y-111725740D01*
X164588779Y-111555759D01*
X164613062Y-112478513D01*
G37*
G36*
X168061245Y-80027887D02*
G01*
X168039852Y-80151200D01*
X167964630Y-80221908D01*
X167819014Y-80251450D01*
X167733425Y-80254331D01*
X167653479Y-80262482D01*
X167633451Y-80295650D01*
X167676096Y-80368889D01*
X167776238Y-80488238D01*
X167952466Y-80728993D01*
X168057945Y-80981515D01*
X168103659Y-81276694D01*
X168107678Y-81420578D01*
X168089481Y-81720858D01*
X168033240Y-81946405D01*
X168019237Y-81979503D01*
X167857843Y-82230519D01*
X167642460Y-82415625D01*
X167390415Y-82532298D01*
X167119035Y-82578020D01*
X166992678Y-82565194D01*
X166845645Y-82550269D01*
X166587573Y-82446526D01*
X166362144Y-82264269D01*
X166328445Y-82225456D01*
X166229642Y-82087501D01*
X166155431Y-81934878D01*
X166101604Y-81750003D01*
X166063953Y-81515291D01*
X166038270Y-81213157D01*
X166025452Y-80959201D01*
X165997192Y-80279277D01*
X165778645Y-80295188D01*
X165500370Y-80356534D01*
X165282231Y-80493580D01*
X165128024Y-80702904D01*
X165045980Y-80955840D01*
X165029402Y-81250284D01*
X165084878Y-81527326D01*
X165203923Y-81767704D01*
X165378050Y-81952158D01*
X165521406Y-82034908D01*
X165626131Y-82090213D01*
X165671534Y-82163184D01*
X165681511Y-82292843D01*
X165681513Y-82296342D01*
X165677079Y-82419558D01*
X165651106Y-82468790D01*
X165584590Y-82467154D01*
X165547956Y-82458780D01*
X165235286Y-82337653D01*
X164980516Y-82143576D01*
X164789443Y-81885571D01*
X164667866Y-81572664D01*
X164621583Y-81213879D01*
X164627919Y-81026757D01*
X164695037Y-80671492D01*
X164834169Y-80378985D01*
X164959248Y-80241621D01*
X166410002Y-80241621D01*
X166411069Y-80891807D01*
X166414128Y-81178634D01*
X166423674Y-81388822D01*
X166441896Y-81542767D01*
X166470983Y-81660867D01*
X166502100Y-81740074D01*
X166645914Y-81961878D01*
X166837576Y-82114992D01*
X166992678Y-82173325D01*
X167175693Y-82170249D01*
X167369887Y-82100390D01*
X167539056Y-81981752D01*
X167637926Y-81852420D01*
X167698677Y-81649991D01*
X167718284Y-81400729D01*
X167697136Y-81145606D01*
X167635626Y-80925592D01*
X167628927Y-80910635D01*
X167456096Y-80641318D01*
X167220406Y-80444523D01*
X166919593Y-80318730D01*
X166680710Y-80273438D01*
X166410002Y-80241621D01*
X164959248Y-80241621D01*
X165049816Y-80142157D01*
X165292985Y-79981285D01*
X165353412Y-79953668D01*
X165427074Y-79931905D01*
X165526235Y-79915114D01*
X165663159Y-79902413D01*
X165850111Y-79892922D01*
X166099353Y-79885760D01*
X166423152Y-79880044D01*
X166762106Y-79875712D01*
X168061245Y-79860673D01*
X168061245Y-80027887D01*
G37*
G36*
X167462002Y-89829120D02*
G01*
X167661031Y-89954403D01*
X167770766Y-90057611D01*
X167911005Y-90227131D01*
X168016387Y-90400804D01*
X168050020Y-90484100D01*
X168086733Y-90680521D01*
X168103067Y-90930897D01*
X168099576Y-91198389D01*
X168076816Y-91446160D01*
X168035341Y-91637372D01*
X168032526Y-91645520D01*
X167879599Y-91939243D01*
X167655868Y-92169203D01*
X167369781Y-92327797D01*
X167223482Y-92373723D01*
X167137092Y-92388544D01*
X167099318Y-92359058D01*
X167090114Y-92262126D01*
X167089926Y-92219576D01*
X167098508Y-92099298D01*
X167140526Y-92024337D01*
X167240385Y-91960249D01*
X167291643Y-91934916D01*
X167469022Y-91818421D01*
X167591028Y-91659066D01*
X167664182Y-91442400D01*
X167695005Y-91153972D01*
X167697000Y-91036639D01*
X167681342Y-90742512D01*
X167629686Y-90525058D01*
X167535014Y-90368245D01*
X167390307Y-90256037D01*
X167345182Y-90232929D01*
X167207690Y-90184654D01*
X167079991Y-90192804D01*
X167011469Y-90212868D01*
X166891459Y-90269953D01*
X166795548Y-90361945D01*
X166716490Y-90503092D01*
X166647038Y-90707643D01*
X166579945Y-90989845D01*
X166555866Y-91108646D01*
X166464513Y-91499437D01*
X166357904Y-91801927D01*
X166229120Y-92024589D01*
X166071243Y-92175895D01*
X165877355Y-92264318D01*
X165640540Y-92298331D01*
X165583654Y-92299354D01*
X165295514Y-92255389D01*
X165050326Y-92126631D01*
X164853298Y-91917787D01*
X164709639Y-91633564D01*
X164659326Y-91464137D01*
X164625154Y-91186317D01*
X164638187Y-90877334D01*
X164694681Y-90585806D01*
X164736162Y-90466285D01*
X164870833Y-90234648D01*
X165056461Y-90039231D01*
X165270673Y-89897549D01*
X165491094Y-89827119D01*
X165558538Y-89822490D01*
X165638523Y-89833244D01*
X165673514Y-89883939D01*
X165681500Y-90002225D01*
X165681513Y-90011489D01*
X165672471Y-90138237D01*
X165632007Y-90201788D01*
X165547956Y-90233499D01*
X165358832Y-90327788D01*
X165198937Y-90500915D01*
X165083347Y-90735623D01*
X165068691Y-90782108D01*
X165023545Y-91043895D01*
X165036335Y-91291292D01*
X165098219Y-91512597D01*
X165200354Y-91696108D01*
X165333899Y-91830120D01*
X165490011Y-91902932D01*
X165659849Y-91902840D01*
X165834571Y-91818141D01*
X165845251Y-91809928D01*
X165924993Y-91741296D01*
X165985905Y-91667381D01*
X166035459Y-91569886D01*
X166081128Y-91430515D01*
X166130385Y-91230970D01*
X166185830Y-90975978D01*
X166276221Y-90599065D01*
X166372663Y-90308574D01*
X166482277Y-90093804D01*
X166612186Y-89944050D01*
X166769514Y-89848611D01*
X166961381Y-89796782D01*
X166971605Y-89795204D01*
X167241861Y-89779228D01*
X167462002Y-89829120D01*
G37*
D13*
%TO.C,JP1*%
X145460000Y-113800000D02*
X145460000Y-113200000D01*
X146160000Y-112500000D02*
X147560000Y-112500000D01*
X147560000Y-114500000D02*
X146160000Y-114500000D01*
X148260000Y-113200000D02*
X148260000Y-113800000D01*
X145460000Y-113200000D02*
G75*
G02*
X146160000Y-112500000I699999J1D01*
G01*
X146160000Y-114500000D02*
G75*
G02*
X145460000Y-113800000I-1J699999D01*
G01*
X147560000Y-112500000D02*
G75*
G02*
X148260000Y-113200000I0J-700000D01*
G01*
X148260000Y-113800000D02*
G75*
G02*
X147560000Y-114500000I-700000J0D01*
G01*
D15*
%TO.C,CON1*%
X128545000Y-82460000D02*
X152040000Y-82460000D01*
X128545000Y-110400000D02*
X152040000Y-110400000D01*
X130450000Y-83730000D02*
X150770000Y-83730000D01*
X130450000Y-86270000D02*
X130450000Y-83730000D01*
X130450000Y-86270000D02*
X132990000Y-86270000D01*
X130450000Y-106590000D02*
X130450000Y-109130000D01*
X130450000Y-109130000D02*
X132990000Y-109130000D01*
X132990000Y-86270000D02*
X132990000Y-83730000D01*
X132990000Y-86270000D02*
X150770000Y-86270000D01*
X132990000Y-106590000D02*
X130450000Y-106590000D01*
X132990000Y-109130000D02*
X132990000Y-106590000D01*
X132990000Y-109130000D02*
X150770000Y-109130000D01*
X150770000Y-83730000D02*
X153360000Y-86260000D01*
X150770000Y-86270000D02*
X150770000Y-83730000D01*
X150770000Y-106590000D02*
X132990000Y-106590000D01*
X150770000Y-109130000D02*
X150770000Y-106590000D01*
X154580000Y-107860000D02*
X154580000Y-85000000D01*
X126005000Y-85000000D02*
G75*
G02*
X128545000Y-82460000I2540000J0D01*
G01*
X128545000Y-110400000D02*
G75*
G02*
X126005000Y-107860000I0J2540000D01*
G01*
X152040000Y-82460000D02*
G75*
G02*
X154580000Y-85000000I0J-2540000D01*
G01*
X152040000Y-82460000D02*
G75*
G02*
X154580000Y-85000000I0J-2540000D01*
G01*
X154580000Y-107860000D02*
G75*
G02*
X152040000Y-110400000I-2540000J0D01*
G01*
D14*
G36*
X125883063Y-94226783D02*
G01*
X125883063Y-94360000D01*
X125760948Y-94360000D01*
X125638832Y-94360000D01*
X125638832Y-94226783D01*
X125638832Y-94093567D01*
X125760948Y-94093567D01*
X125883063Y-94093567D01*
X125883063Y-94226783D01*
G37*
G36*
X127082014Y-94226783D02*
G01*
X127082014Y-94360000D01*
X126593553Y-94360000D01*
X126105091Y-94360000D01*
X126105091Y-94226783D01*
X126105091Y-94093567D01*
X126593553Y-94093567D01*
X127082014Y-94093567D01*
X127082014Y-94226783D01*
G37*
G36*
X126504741Y-92149482D02*
G01*
X126504741Y-92272937D01*
X126422711Y-92272937D01*
X126367324Y-92274937D01*
X126330215Y-92283244D01*
X126307640Y-92301317D01*
X126295858Y-92332616D01*
X126291125Y-92380601D01*
X126290620Y-92395053D01*
X126288264Y-92478313D01*
X126685139Y-92481229D01*
X127082014Y-92484144D01*
X127082014Y-92611670D01*
X127082014Y-92739196D01*
X126592881Y-92739196D01*
X126103747Y-92739196D01*
X126107194Y-92447784D01*
X126108302Y-92359650D01*
X126109458Y-92290841D01*
X126110916Y-92238482D01*
X126112932Y-92199697D01*
X126115759Y-92171611D01*
X126119653Y-92151347D01*
X126124867Y-92136030D01*
X126131656Y-92122784D01*
X126136692Y-92114473D01*
X126158251Y-92084735D01*
X126182941Y-92063207D01*
X126214805Y-92048431D01*
X126257890Y-92038949D01*
X126316239Y-92033303D01*
X126368749Y-92030837D01*
X126504741Y-92026026D01*
X126504741Y-92149482D01*
G37*
G36*
X127082014Y-94719266D02*
G01*
X127082014Y-94846997D01*
X126746197Y-94850505D01*
X126648946Y-94851652D01*
X126571362Y-94852943D01*
X126510911Y-94854531D01*
X126465058Y-94856571D01*
X126431268Y-94859218D01*
X126407004Y-94862626D01*
X126389734Y-94866950D01*
X126376920Y-94872344D01*
X126375504Y-94873103D01*
X126350500Y-94891978D01*
X126333181Y-94919049D01*
X126322425Y-94957965D01*
X126317109Y-95012376D01*
X126316018Y-95066596D01*
X126316018Y-95170402D01*
X126699016Y-95170402D01*
X127082014Y-95170402D01*
X127082017Y-95300844D01*
X127082019Y-95431285D01*
X126701794Y-95431285D01*
X126321568Y-95431285D01*
X126321568Y-95586705D01*
X126321568Y-95742124D01*
X126701791Y-95745045D01*
X127082014Y-95747967D01*
X127082014Y-95869936D01*
X127082014Y-95991906D01*
X126593088Y-95991906D01*
X126104162Y-95991906D01*
X126107402Y-95411858D01*
X126108132Y-95283634D01*
X126108828Y-95175666D01*
X126109578Y-95086006D01*
X126110472Y-95012706D01*
X126111596Y-94953821D01*
X126113040Y-94907402D01*
X126114893Y-94871502D01*
X126117241Y-94844175D01*
X126120175Y-94823472D01*
X126123781Y-94807447D01*
X126128149Y-94794154D01*
X126133367Y-94781643D01*
X126136306Y-94775110D01*
X126177491Y-94708757D01*
X126233625Y-94654629D01*
X126293815Y-94619973D01*
X126309458Y-94614218D01*
X126327579Y-94609558D01*
X126350707Y-94605845D01*
X126381372Y-94602929D01*
X126422106Y-94600662D01*
X126475437Y-94598896D01*
X126543896Y-94597481D01*
X126630013Y-94596268D01*
X126712893Y-94595349D01*
X127082014Y-94591535D01*
X127082014Y-94719266D01*
G37*
G36*
X127075574Y-92872303D02*
G01*
X127078514Y-92900214D01*
X127080676Y-92943465D01*
X127081856Y-92998625D01*
X127082014Y-93029698D01*
X127082014Y-93199935D01*
X126848214Y-93394194D01*
X126614414Y-93588453D01*
X126848214Y-93591449D01*
X127082014Y-93594445D01*
X127082014Y-93720965D01*
X127081081Y-93775678D01*
X127078482Y-93817937D01*
X127074521Y-93844182D01*
X127070930Y-93851186D01*
X127058173Y-93851785D01*
X127025111Y-93852264D01*
X126973640Y-93852621D01*
X126905656Y-93852854D01*
X126823056Y-93852961D01*
X126727737Y-93852940D01*
X126621594Y-93852790D01*
X126506526Y-93852507D01*
X126384428Y-93852090D01*
X126349339Y-93851950D01*
X125638832Y-93849013D01*
X125638832Y-93721630D01*
X125638832Y-93594247D01*
X126101505Y-93591350D01*
X126564178Y-93588453D01*
X126334634Y-93385082D01*
X126105091Y-93181711D01*
X126104166Y-93052040D01*
X126103562Y-92998174D01*
X126102627Y-92950473D01*
X126101494Y-92914498D01*
X126100436Y-92896921D01*
X126099052Y-92882888D01*
X126099337Y-92872834D01*
X126102772Y-92867927D01*
X126110841Y-92869336D01*
X126125027Y-92878227D01*
X126146813Y-92895768D01*
X126177682Y-92923129D01*
X126219117Y-92961476D01*
X126272601Y-93011977D01*
X126339617Y-93075801D01*
X126396323Y-93129937D01*
X126455822Y-93186554D01*
X126501489Y-93229334D01*
X126535421Y-93259912D01*
X126559709Y-93279922D01*
X126576449Y-93290999D01*
X126587734Y-93294777D01*
X126595658Y-93292892D01*
X126600269Y-93289136D01*
X126618980Y-93271196D01*
X126649950Y-93242374D01*
X126690621Y-93204981D01*
X126738437Y-93161324D01*
X126790839Y-93113712D01*
X126845271Y-93064453D01*
X126899176Y-93015858D01*
X126949998Y-92970234D01*
X126995177Y-92929890D01*
X127032159Y-92897135D01*
X127058385Y-92874277D01*
X127071298Y-92863626D01*
X127072063Y-92863162D01*
X127075574Y-92872303D01*
G37*
G36*
X126701270Y-90894036D02*
G01*
X126802760Y-90919646D01*
X126889932Y-90962225D01*
X126962784Y-91021771D01*
X127021317Y-91098286D01*
X127065531Y-91191769D01*
X127070403Y-91205688D01*
X127087087Y-91272774D01*
X127097066Y-91350272D01*
X127099902Y-91429700D01*
X127095158Y-91502574D01*
X127087738Y-91542669D01*
X127051938Y-91644922D01*
X127000673Y-91732017D01*
X126934506Y-91803215D01*
X126853999Y-91857771D01*
X126845771Y-91861988D01*
X126767347Y-91893762D01*
X126684608Y-91911530D01*
X126591991Y-91916413D01*
X126591243Y-91916452D01*
X126555336Y-91915376D01*
X126447184Y-91900648D01*
X126351029Y-91867677D01*
X126267715Y-91817054D01*
X126198084Y-91749369D01*
X126142980Y-91665213D01*
X126118138Y-91609428D01*
X126105067Y-91571871D01*
X126096600Y-91537106D01*
X126091753Y-91498296D01*
X126089546Y-91448605D01*
X126089060Y-91407028D01*
X126089813Y-91378787D01*
X126295387Y-91378787D01*
X126300437Y-91446819D01*
X126316916Y-91495839D01*
X126356388Y-91559553D01*
X126409693Y-91606361D01*
X126477279Y-91636516D01*
X126559593Y-91650272D01*
X126591991Y-91651259D01*
X126676758Y-91643829D01*
X126747634Y-91620830D01*
X126807537Y-91581196D01*
X126822627Y-91567087D01*
X126866362Y-91509177D01*
X126889191Y-91445093D01*
X126890687Y-91377163D01*
X126870425Y-91307715D01*
X126870155Y-91307116D01*
X126835919Y-91247507D01*
X126793118Y-91204222D01*
X126738572Y-91175349D01*
X126669099Y-91158975D01*
X126615755Y-91154193D01*
X126561642Y-91152902D01*
X126520613Y-91155984D01*
X126483795Y-91164518D01*
X126458423Y-91173309D01*
X126392972Y-91208315D01*
X126343051Y-91256352D01*
X126310058Y-91314237D01*
X126295387Y-91378787D01*
X126089813Y-91378787D01*
X126091351Y-91321072D01*
X126100224Y-91250715D01*
X126117279Y-91189919D01*
X126144115Y-91132646D01*
X126174728Y-91083805D01*
X126239098Y-91008388D01*
X126316637Y-90950724D01*
X126406896Y-90911029D01*
X126509424Y-90889521D01*
X126585460Y-90885394D01*
X126701270Y-90894036D01*
G37*
G36*
X128255987Y-92772584D02*
G01*
X128391146Y-92772829D01*
X128514940Y-92773505D01*
X128625756Y-92774584D01*
X128721982Y-92776039D01*
X128802004Y-92777840D01*
X128864210Y-92779959D01*
X128906988Y-92782370D01*
X128924846Y-92784268D01*
X129023566Y-92810642D01*
X129111020Y-92855941D01*
X129186718Y-92919676D01*
X129250171Y-93001360D01*
X129300887Y-93100505D01*
X129331054Y-93188803D01*
X129339516Y-93232311D01*
X129346193Y-93292928D01*
X129350995Y-93365624D01*
X129353835Y-93445368D01*
X129354623Y-93527132D01*
X129353269Y-93605885D01*
X129349684Y-93676598D01*
X129343779Y-93734241D01*
X129341028Y-93751039D01*
X129311409Y-93867647D01*
X129269317Y-93966884D01*
X129214026Y-94050220D01*
X129170458Y-94096751D01*
X129121993Y-94137937D01*
X129073864Y-94168340D01*
X129016505Y-94193642D01*
X128993092Y-94202131D01*
X128979680Y-94206020D01*
X128962228Y-94209356D01*
X128938956Y-94212196D01*
X128908082Y-94214596D01*
X128867827Y-94216612D01*
X128816409Y-94218300D01*
X128752047Y-94219716D01*
X128672959Y-94220917D01*
X128577366Y-94221959D01*
X128463485Y-94222897D01*
X128329537Y-94223789D01*
X128300393Y-94223965D01*
X127659287Y-94227792D01*
X127659287Y-94055216D01*
X127659287Y-93882640D01*
X128178277Y-93882371D01*
X128310255Y-93882236D01*
X128422111Y-93881923D01*
X128515928Y-93881344D01*
X128593788Y-93880412D01*
X128657771Y-93879041D01*
X128709960Y-93877144D01*
X128752436Y-93874635D01*
X128787281Y-93871425D01*
X128816576Y-93867429D01*
X128842403Y-93862559D01*
X128866844Y-93856730D01*
X128880441Y-93853085D01*
X128951216Y-93824629D01*
X129007093Y-93781883D01*
X129048593Y-93723966D01*
X129076238Y-93649998D01*
X129090549Y-93559099D01*
X129092953Y-93494091D01*
X129087958Y-93401810D01*
X129072406Y-93326535D01*
X129045450Y-93265304D01*
X129015989Y-93225420D01*
X128995076Y-93203629D01*
X128973328Y-93184940D01*
X128948945Y-93169118D01*
X128920125Y-93155927D01*
X128885067Y-93145131D01*
X128841971Y-93136493D01*
X128789034Y-93129777D01*
X128724455Y-93124749D01*
X128646434Y-93121171D01*
X128553169Y-93118808D01*
X128442859Y-93117423D01*
X128313703Y-93116782D01*
X128185800Y-93116644D01*
X127659287Y-93116644D01*
X127659287Y-92944572D01*
X127659287Y-92772500D01*
X128255987Y-92772584D01*
G37*
G36*
X128874890Y-90921744D02*
G01*
X128987177Y-90935982D01*
X129083393Y-90965084D01*
X129163332Y-91008944D01*
X129226791Y-91067455D01*
X129266376Y-91126270D01*
X129281894Y-91155733D01*
X129295042Y-91182570D01*
X129306033Y-91208866D01*
X129315080Y-91236706D01*
X129322394Y-91268176D01*
X129328189Y-91305362D01*
X129332677Y-91350349D01*
X129336072Y-91405221D01*
X129338584Y-91472065D01*
X129340429Y-91552967D01*
X129341817Y-91650010D01*
X129342961Y-91765282D01*
X129343966Y-91887164D01*
X129348467Y-92450560D01*
X129197714Y-92450560D01*
X129046962Y-92450560D01*
X129046962Y-91975532D01*
X129046800Y-91848590D01*
X129046204Y-91741768D01*
X129045006Y-91652987D01*
X129043039Y-91580165D01*
X129040135Y-91521223D01*
X129036128Y-91474079D01*
X129030851Y-91436654D01*
X129024135Y-91406867D01*
X129015814Y-91382637D01*
X129005721Y-91361884D01*
X128996411Y-91346621D01*
X128964478Y-91316648D01*
X128918557Y-91297355D01*
X128864448Y-91289362D01*
X128807954Y-91293288D01*
X128754877Y-91309751D01*
X128737498Y-91319004D01*
X128719031Y-91331294D01*
X128703983Y-91345016D01*
X128691943Y-91362508D01*
X128682501Y-91386105D01*
X128675247Y-91418146D01*
X128669770Y-91460967D01*
X128665659Y-91516905D01*
X128662506Y-91588298D01*
X128659898Y-91677482D01*
X128657711Y-91773374D01*
X128655126Y-91882600D01*
X128652249Y-91972441D01*
X128648714Y-92045718D01*
X128644155Y-92105250D01*
X128638207Y-92153855D01*
X128630504Y-92194352D01*
X128620682Y-92229561D01*
X128608375Y-92262300D01*
X128593217Y-92295389D01*
X128588922Y-92304081D01*
X128540617Y-92378903D01*
X128478423Y-92437287D01*
X128401909Y-92479434D01*
X128310638Y-92505544D01*
X128204179Y-92515817D01*
X128133597Y-92514505D01*
X128021112Y-92500549D01*
X127924997Y-92471709D01*
X127844723Y-92427487D01*
X127779756Y-92367387D01*
X127729566Y-92290914D01*
X127693620Y-92197571D01*
X127671388Y-92086861D01*
X127670830Y-92082494D01*
X127668335Y-92051301D01*
X127666037Y-92000612D01*
X127663988Y-91933137D01*
X127662243Y-91851582D01*
X127660854Y-91758655D01*
X127659874Y-91657064D01*
X127659356Y-91549516D01*
X127659287Y-91493355D01*
X127659287Y-90996276D01*
X127809156Y-90996276D01*
X127959025Y-90996276D01*
X127959296Y-91459760D01*
X127959642Y-91574204D01*
X127960510Y-91678303D01*
X127961854Y-91770063D01*
X127963630Y-91847491D01*
X127965793Y-91908593D01*
X127968297Y-91951375D01*
X127970943Y-91973200D01*
X127990817Y-92029861D01*
X128021141Y-92079413D01*
X128057630Y-92115401D01*
X128070588Y-92123353D01*
X128132766Y-92145271D01*
X128194478Y-92148582D01*
X128251669Y-92134351D01*
X128300288Y-92103641D01*
X128336281Y-92057516D01*
X128338580Y-92053017D01*
X128345453Y-92038355D01*
X128351029Y-92023495D01*
X128355491Y-92005946D01*
X128359023Y-91983217D01*
X128361808Y-91952817D01*
X128364030Y-91912253D01*
X128365872Y-91859035D01*
X128367518Y-91790671D01*
X128369152Y-91704668D01*
X128370633Y-91617955D01*
X128372555Y-91521900D01*
X128374934Y-91433653D01*
X128377658Y-91355789D01*
X128380617Y-91290884D01*
X128383699Y-91241511D01*
X128386793Y-91210247D01*
X128388580Y-91201336D01*
X128428993Y-91112621D01*
X128483609Y-91040773D01*
X128552557Y-90985719D01*
X128635967Y-90947385D01*
X128733967Y-90925695D01*
X128846689Y-90920575D01*
X128874890Y-90921744D01*
G37*
G36*
X128934335Y-94511592D02*
G01*
X129020473Y-94526549D01*
X129101239Y-94553952D01*
X129172093Y-94592935D01*
X129228496Y-94642631D01*
X129238540Y-94654950D01*
X129260733Y-94685837D01*
X129279701Y-94717097D01*
X129295693Y-94750682D01*
X129308958Y-94788548D01*
X129319743Y-94832649D01*
X129328296Y-94884938D01*
X129334867Y-94947371D01*
X129339702Y-95021901D01*
X129343051Y-95110482D01*
X129345162Y-95215069D01*
X129346282Y-95337616D01*
X129346660Y-95480077D01*
X129346668Y-95506220D01*
X129346699Y-95991906D01*
X128846493Y-95991906D01*
X128502993Y-95991906D01*
X128151449Y-95991906D01*
X127659287Y-95991906D01*
X127659287Y-95647762D01*
X127959025Y-95647762D01*
X128151449Y-95647762D01*
X128646025Y-95647762D01*
X128846493Y-95647762D01*
X129046962Y-95647762D01*
X129046853Y-95345249D01*
X129046759Y-95255206D01*
X129046406Y-95184431D01*
X129045578Y-95129993D01*
X129044058Y-95088957D01*
X129041631Y-95058390D01*
X129038080Y-95035359D01*
X129033190Y-95016930D01*
X129026745Y-95000171D01*
X129020412Y-94986184D01*
X129000562Y-94949698D01*
X128979069Y-94927281D01*
X128948765Y-94911502D01*
X128948137Y-94911250D01*
X128883191Y-94894545D01*
X128819222Y-94894821D01*
X128760654Y-94910889D01*
X128711914Y-94941562D01*
X128678491Y-94983620D01*
X128670920Y-94998620D01*
X128664966Y-95013821D01*
X128660398Y-95032053D01*
X128656987Y-95056148D01*
X128654500Y-95088939D01*
X128652707Y-95133256D01*
X128651376Y-95191932D01*
X128650277Y-95267798D01*
X128649443Y-95339699D01*
X128646025Y-95647762D01*
X128151449Y-95647762D01*
X128214771Y-95647304D01*
X128270309Y-95646031D01*
X128314284Y-95644102D01*
X128342913Y-95641674D01*
X128352271Y-95639436D01*
X128354373Y-95626533D01*
X128356001Y-95594426D01*
X128357109Y-95546114D01*
X128357652Y-95484592D01*
X128357583Y-95412856D01*
X128356896Y-95336923D01*
X128355679Y-95248078D01*
X128354408Y-95178468D01*
X128352828Y-95125130D01*
X128350684Y-95085098D01*
X128347720Y-95055406D01*
X128343681Y-95033088D01*
X128338311Y-95015181D01*
X128331357Y-94998717D01*
X128327009Y-94989702D01*
X128299736Y-94946593D01*
X128265607Y-94918721D01*
X128220000Y-94903614D01*
X128158295Y-94898799D01*
X128157105Y-94898792D01*
X128114853Y-94899735D01*
X128086170Y-94904748D01*
X128062479Y-94916322D01*
X128040540Y-94932632D01*
X128018282Y-94952144D01*
X128000509Y-94972886D01*
X127986720Y-94997521D01*
X127976412Y-95028712D01*
X127969082Y-95069122D01*
X127964227Y-95121412D01*
X127961346Y-95188247D01*
X127959934Y-95272289D01*
X127959511Y-95361901D01*
X127959025Y-95647762D01*
X127659287Y-95647762D01*
X127659287Y-95544227D01*
X127659697Y-95397160D01*
X127661003Y-95270416D01*
X127663318Y-95162128D01*
X127666755Y-95070431D01*
X127671427Y-94993460D01*
X127677447Y-94929346D01*
X127684928Y-94876225D01*
X127693984Y-94832231D01*
X127704659Y-94795697D01*
X127743934Y-94707170D01*
X127795139Y-94636587D01*
X127859183Y-94583348D01*
X127936976Y-94546853D01*
X128029428Y-94526499D01*
X128119995Y-94521441D01*
X128176136Y-94522573D01*
X128216659Y-94526095D01*
X128248106Y-94533039D01*
X128277021Y-94544436D01*
X128282476Y-94547048D01*
X128357013Y-94593760D01*
X128423926Y-94655221D01*
X128459271Y-94699587D01*
X128479898Y-94726977D01*
X128496699Y-94744746D01*
X128503301Y-94748549D01*
X128514265Y-94739551D01*
X128529423Y-94716976D01*
X128535108Y-94706476D01*
X128566602Y-94658601D01*
X128609924Y-94610499D01*
X128657507Y-94569855D01*
X128689087Y-94550066D01*
X128764102Y-94522484D01*
X128847364Y-94509948D01*
X128934335Y-94511592D01*
G37*
G36*
X129068116Y-96601527D02*
G01*
X129163055Y-96639246D01*
X129171904Y-96643948D01*
X129224761Y-96680630D01*
X129278885Y-96731637D01*
X129328160Y-96790352D01*
X129366472Y-96850159D01*
X129371371Y-96859788D01*
X129405672Y-96953703D01*
X129419511Y-97049238D01*
X129414232Y-97143836D01*
X129391183Y-97234945D01*
X129351706Y-97320010D01*
X129297149Y-97396478D01*
X129228856Y-97461794D01*
X129148172Y-97513404D01*
X129056442Y-97548754D01*
X129002445Y-97560237D01*
X128901435Y-97565379D01*
X128803649Y-97550449D01*
X128711811Y-97517144D01*
X128628641Y-97467162D01*
X128556861Y-97402201D01*
X128499193Y-97323958D01*
X128458360Y-97234131D01*
X128453249Y-97217697D01*
X128435765Y-97157553D01*
X128036424Y-97157553D01*
X127637084Y-97157553D01*
X127637084Y-98134476D01*
X127637084Y-99111399D01*
X128036307Y-99111399D01*
X128435529Y-99111399D01*
X128447181Y-99068128D01*
X128484839Y-98967307D01*
X128538846Y-98880729D01*
X128607622Y-98809610D01*
X128689587Y-98755166D01*
X128783160Y-98718612D01*
X128886761Y-98701163D01*
X128926020Y-98699793D01*
X129012972Y-98704856D01*
X129087629Y-98721765D01*
X129157710Y-98752760D01*
X129201936Y-98779823D01*
X129279775Y-98844478D01*
X129341053Y-98921837D01*
X129385017Y-99009014D01*
X129410916Y-99103123D01*
X129417995Y-99201275D01*
X129405501Y-99300585D01*
X129372682Y-99398166D01*
X129366611Y-99411137D01*
X129314702Y-99495415D01*
X129250205Y-99563724D01*
X129175701Y-99616223D01*
X129093769Y-99653068D01*
X129006992Y-99674416D01*
X128917949Y-99680426D01*
X128829220Y-99671255D01*
X128743388Y-99647060D01*
X128663032Y-99607998D01*
X128590733Y-99554228D01*
X128529072Y-99485907D01*
X128480629Y-99403192D01*
X128461983Y-99355928D01*
X128437602Y-99283471D01*
X128037343Y-99280557D01*
X127637084Y-99277643D01*
X127637084Y-100254704D01*
X127637084Y-101231766D01*
X128036307Y-101231766D01*
X128435529Y-101231766D01*
X128448076Y-101184585D01*
X128481067Y-101098774D01*
X128531811Y-101016156D01*
X128596055Y-100942888D01*
X128641753Y-100904147D01*
X128669116Y-100887483D01*
X128708786Y-100867657D01*
X128752015Y-100849027D01*
X128789171Y-100835208D01*
X128820269Y-100826667D01*
X128852415Y-100822460D01*
X128892715Y-100821640D01*
X128946289Y-100823187D01*
X129004052Y-100826238D01*
X129046437Y-100831083D01*
X129080264Y-100839034D01*
X129112353Y-100851403D01*
X129126026Y-100857784D01*
X129213723Y-100908694D01*
X129284143Y-100969425D01*
X129334319Y-101032666D01*
X129383498Y-101125692D01*
X129412031Y-101225324D01*
X129419337Y-101328834D01*
X129412191Y-101398287D01*
X129384719Y-101494531D01*
X129338382Y-101581817D01*
X129275476Y-101657917D01*
X129198295Y-101720604D01*
X129109132Y-101767650D01*
X129010281Y-101796828D01*
X128999781Y-101798707D01*
X128900720Y-101804619D01*
X128804201Y-101790045D01*
X128713043Y-101756696D01*
X128630064Y-101706288D01*
X128558083Y-101640534D01*
X128499917Y-101561147D01*
X128458386Y-101469841D01*
X128458250Y-101469431D01*
X128434575Y-101398287D01*
X127952569Y-101398287D01*
X127470563Y-101398287D01*
X127470563Y-100865281D01*
X127470563Y-100332276D01*
X127069659Y-100335190D01*
X126668754Y-100338103D01*
X126649304Y-100400978D01*
X126609077Y-100495763D01*
X126552291Y-100577060D01*
X126480969Y-100643527D01*
X126397137Y-100693821D01*
X126302820Y-100726600D01*
X126200043Y-100740523D01*
X126138461Y-100739507D01*
X126039706Y-100722342D01*
X125950311Y-100686890D01*
X125871631Y-100635575D01*
X125805019Y-100570818D01*
X125751830Y-100495043D01*
X125713417Y-100410672D01*
X125691134Y-100320127D01*
X125686336Y-100225832D01*
X125700376Y-100130208D01*
X125734609Y-100035679D01*
X125739528Y-100025722D01*
X125776494Y-99967209D01*
X125825997Y-99908639D01*
X125881686Y-99856544D01*
X125937208Y-99817458D01*
X125947407Y-99811942D01*
X126043921Y-99774736D01*
X126144638Y-99758147D01*
X126246324Y-99761871D01*
X126345747Y-99785605D01*
X126439673Y-99829046D01*
X126490037Y-99862906D01*
X126540780Y-99911180D01*
X126588366Y-99973879D01*
X126627621Y-100043319D01*
X126650271Y-100100902D01*
X126673509Y-100177411D01*
X127069261Y-100174497D01*
X127465012Y-100171582D01*
X127467848Y-99197296D01*
X127470684Y-98223010D01*
X127070204Y-98225924D01*
X126669724Y-98228838D01*
X126650887Y-98284490D01*
X126606953Y-98380712D01*
X126545202Y-98464368D01*
X126467221Y-98533680D01*
X126385105Y-98582029D01*
X126351987Y-98597123D01*
X126324431Y-98607174D01*
X126296429Y-98613204D01*
X126261974Y-98616234D01*
X126215060Y-98617283D01*
X126176987Y-98617387D01*
X126119788Y-98617107D01*
X126078800Y-98615548D01*
X126048030Y-98611624D01*
X126021486Y-98604254D01*
X125993177Y-98592352D01*
X125966060Y-98579249D01*
X125878591Y-98524806D01*
X125806947Y-98457068D01*
X125751575Y-98378735D01*
X125712924Y-98292507D01*
X125691441Y-98201085D01*
X125687574Y-98107169D01*
X125701772Y-98013458D01*
X125734482Y-97922654D01*
X125786152Y-97837456D01*
X125833903Y-97782537D01*
X125911349Y-97719889D01*
X125998088Y-97675416D01*
X126090917Y-97649133D01*
X126186634Y-97641056D01*
X126282036Y-97651197D01*
X126373923Y-97679571D01*
X126459091Y-97726193D01*
X126523105Y-97779475D01*
X126570629Y-97834769D01*
X126612055Y-97897758D01*
X126643098Y-97961170D01*
X126657748Y-98008117D01*
X126666700Y-98051215D01*
X127068632Y-98054129D01*
X127470563Y-98057043D01*
X127470563Y-97529706D01*
X127470563Y-97002369D01*
X127950207Y-96999476D01*
X128429851Y-96996582D01*
X128452994Y-96929369D01*
X128496656Y-96830174D01*
X128554152Y-96747606D01*
X128626911Y-96679876D01*
X128681316Y-96643970D01*
X128771322Y-96604363D01*
X128868375Y-96584086D01*
X128968598Y-96583141D01*
X129068116Y-96601527D01*
G37*
D13*
%TO.C,R2*%
X135515000Y-78227064D02*
X135515000Y-77772936D01*
X136985000Y-78227064D02*
X136985000Y-77772936D01*
%TO.C,R1*%
X159015000Y-87227064D02*
X159015000Y-86772936D01*
X160485000Y-87227064D02*
X160485000Y-86772936D01*
%TO.C,D1*%
X158790000Y-95500000D02*
X158790000Y-98185000D01*
X158790000Y-98185000D02*
X160710000Y-98185000D01*
X160710000Y-98185000D02*
X160710000Y-95500000D01*
%TO.C,C5*%
X154765000Y-78261252D02*
X154765000Y-77738748D01*
X156235000Y-78261252D02*
X156235000Y-77738748D01*
%TO.C,IC2*%
X148000000Y-75390000D02*
X145800000Y-75390000D01*
X148000000Y-75390000D02*
X150200000Y-75390000D01*
X148000000Y-80610000D02*
X145800000Y-80610000D01*
X148000000Y-80610000D02*
X150200000Y-80610000D01*
X145100000Y-75590000D02*
X144860000Y-75260000D01*
X145340000Y-75260000D01*
X145100000Y-75590000D01*
G36*
X145100000Y-75590000D02*
G01*
X144860000Y-75260000D01*
X145340000Y-75260000D01*
X145100000Y-75590000D01*
G37*
%TO.C,R6*%
X159015000Y-78227064D02*
X159015000Y-77772936D01*
X160485000Y-78227064D02*
X160485000Y-77772936D01*
%TO.C,IC1*%
X138890000Y-94390000D02*
X139240000Y-94390000D01*
X138890000Y-94740000D02*
X138890000Y-94390000D01*
X139240000Y-98610000D02*
X139130000Y-98610000D01*
X143110000Y-94390000D02*
X142760000Y-94390000D01*
X143110000Y-94740000D02*
X143110000Y-94390000D01*
X143110000Y-98260000D02*
X143110000Y-98610000D01*
X143110000Y-98610000D02*
X142760000Y-98610000D01*
X138890000Y-98610000D02*
X138560000Y-98850000D01*
X138560000Y-98370000D01*
X138890000Y-98610000D01*
G36*
X138890000Y-98610000D02*
G01*
X138560000Y-98850000D01*
X138560000Y-98370000D01*
X138890000Y-98610000D01*
G37*
%TO.C,JP2*%
X134600000Y-113800000D02*
X134600000Y-113200000D01*
X135300000Y-112500000D02*
X136700000Y-112500000D01*
X136700000Y-114500000D02*
X135300000Y-114500000D01*
X137400000Y-113200000D02*
X137400000Y-113800000D01*
X134600000Y-113200000D02*
G75*
G02*
X135300000Y-112500000I699999J1D01*
G01*
X135300000Y-114500000D02*
G75*
G02*
X134600000Y-113800000I-1J699999D01*
G01*
X136700000Y-112500000D02*
G75*
G02*
X137400000Y-113200000I0J-700000D01*
G01*
X137400000Y-113800000D02*
G75*
G02*
X136700000Y-114500000I-700000J0D01*
G01*
%TD*%
M02*
