%TF.GenerationSoftware,KiCad,Pcbnew,8.0.7+1*%
%TF.CreationDate,2025-02-19T15:00:20+01:00*%
%TF.ProjectId,ts14-arduino-shield,74733134-2d61-4726-9475-696e6f2d7368,rev?*%
%TF.SameCoordinates,Original*%
%TF.FileFunction,Paste,Top*%
%TF.FilePolarity,Positive*%
%FSLAX46Y46*%
G04 Gerber Fmt 4.6, Leading zero omitted, Abs format (unit mm)*
G04 Created by KiCad (PCBNEW 8.0.7+1) date 2025-02-19 15:00:20*
%MOMM*%
%LPD*%
G01*
G04 APERTURE LIST*
G04 Aperture macros list*
%AMRoundRect*
0 Rectangle with rounded corners*
0 $1 Rounding radius*
0 $2 $3 $4 $5 $6 $7 $8 $9 X,Y pos of 4 corners*
0 Add a 4 corners polygon primitive as box body*
4,1,4,$2,$3,$4,$5,$6,$7,$8,$9,$2,$3,0*
0 Add four circle primitives for the rounded corners*
1,1,$1+$1,$2,$3*
1,1,$1+$1,$4,$5*
1,1,$1+$1,$6,$7*
1,1,$1+$1,$8,$9*
0 Add four rect primitives between the rounded corners*
20,1,$1+$1,$2,$3,$4,$5,0*
20,1,$1+$1,$4,$5,$6,$7,0*
20,1,$1+$1,$6,$7,$8,$9,0*
20,1,$1+$1,$8,$9,$2,$3,0*%
%AMFreePoly0*
4,1,14,0.314644,0.085355,0.385355,0.014644,0.400000,-0.020711,0.400000,-0.050000,0.385355,-0.085355,0.350000,-0.100000,-0.350000,-0.100000,-0.385355,-0.085355,-0.400000,-0.050000,-0.400000,0.050000,-0.385355,0.085355,-0.350000,0.100000,0.279289,0.100000,0.314644,0.085355,0.314644,0.085355,$1*%
%AMFreePoly1*
4,1,14,0.385355,0.085355,0.400000,0.050000,0.400000,0.020711,0.385355,-0.014644,0.314644,-0.085355,0.279289,-0.100000,-0.350000,-0.100000,-0.385355,-0.085355,-0.400000,-0.050000,-0.400000,0.050000,-0.385355,0.085355,-0.350000,0.100000,0.350000,0.100000,0.385355,0.085355,0.385355,0.085355,$1*%
%AMFreePoly2*
4,1,14,0.085355,0.385355,0.100000,0.350000,0.100000,-0.350000,0.085355,-0.385355,0.050000,-0.400000,-0.050000,-0.400000,-0.085355,-0.385355,-0.100000,-0.350000,-0.100000,0.279289,-0.085355,0.314644,-0.014644,0.385355,0.020711,0.400000,0.050000,0.400000,0.085355,0.385355,0.085355,0.385355,$1*%
%AMFreePoly3*
4,1,14,0.014644,0.385355,0.085355,0.314644,0.100000,0.279289,0.100000,-0.350000,0.085355,-0.385355,0.050000,-0.400000,-0.050000,-0.400000,-0.085355,-0.385355,-0.100000,-0.350000,-0.100000,0.350000,-0.085355,0.385355,-0.050000,0.400000,-0.020711,0.400000,0.014644,0.385355,0.014644,0.385355,$1*%
%AMFreePoly4*
4,1,14,0.385355,0.085355,0.400000,0.050000,0.400000,-0.050000,0.385355,-0.085355,0.350000,-0.100000,-0.279289,-0.100000,-0.314644,-0.085355,-0.385355,-0.014644,-0.400000,0.020711,-0.400000,0.050000,-0.385355,0.085355,-0.350000,0.100000,0.350000,0.100000,0.385355,0.085355,0.385355,0.085355,$1*%
%AMFreePoly5*
4,1,14,0.385355,0.085355,0.400000,0.050000,0.400000,-0.050000,0.385355,-0.085355,0.350000,-0.100000,-0.350000,-0.100000,-0.385355,-0.085355,-0.400000,-0.050000,-0.400000,-0.020711,-0.385355,0.014644,-0.314644,0.085355,-0.279289,0.100000,0.350000,0.100000,0.385355,0.085355,0.385355,0.085355,$1*%
%AMFreePoly6*
4,1,14,0.085355,0.385355,0.100000,0.350000,0.100000,-0.279289,0.085355,-0.314644,0.014644,-0.385355,-0.020711,-0.400000,-0.050000,-0.400000,-0.085355,-0.385355,-0.100000,-0.350000,-0.100000,0.350000,-0.085355,0.385355,-0.050000,0.400000,0.050000,0.400000,0.085355,0.385355,0.085355,0.385355,$1*%
%AMFreePoly7*
4,1,14,0.085355,0.385355,0.100000,0.350000,0.100000,-0.350000,0.085355,-0.385355,0.050000,-0.400000,0.020711,-0.400000,-0.014644,-0.385355,-0.085355,-0.314644,-0.100000,-0.279289,-0.100000,0.350000,-0.085355,0.385355,-0.050000,0.400000,0.050000,0.400000,0.085355,0.385355,0.085355,0.385355,$1*%
G04 Aperture macros list end*
%ADD10RoundRect,0.250000X0.337500X0.475000X-0.337500X0.475000X-0.337500X-0.475000X0.337500X-0.475000X0*%
%ADD11RoundRect,0.250000X-0.475000X0.337500X-0.475000X-0.337500X0.475000X-0.337500X0.475000X0.337500X0*%
%ADD12RoundRect,0.250000X0.450000X-0.350000X0.450000X0.350000X-0.450000X0.350000X-0.450000X-0.350000X0*%
%ADD13RoundRect,0.243750X0.456250X-0.243750X0.456250X0.243750X-0.456250X0.243750X-0.456250X-0.243750X0*%
%ADD14RoundRect,0.250000X0.475000X-0.337500X0.475000X0.337500X-0.475000X0.337500X-0.475000X-0.337500X0*%
%ADD15RoundRect,0.100000X-0.637500X-0.100000X0.637500X-0.100000X0.637500X0.100000X-0.637500X0.100000X0*%
%ADD16RoundRect,0.250000X0.285000X-0.285000X0.285000X0.285000X-0.285000X0.285000X-0.285000X-0.285000X0*%
%ADD17FreePoly0,90.000000*%
%ADD18RoundRect,0.050000X0.050000X-0.350000X0.050000X0.350000X-0.050000X0.350000X-0.050000X-0.350000X0*%
%ADD19FreePoly1,90.000000*%
%ADD20FreePoly2,90.000000*%
%ADD21RoundRect,0.050000X0.350000X-0.050000X0.350000X0.050000X-0.350000X0.050000X-0.350000X-0.050000X0*%
%ADD22FreePoly3,90.000000*%
%ADD23FreePoly4,90.000000*%
%ADD24FreePoly5,90.000000*%
%ADD25FreePoly6,90.000000*%
%ADD26FreePoly7,90.000000*%
G04 APERTURE END LIST*
D10*
%TO.C,C3*%
X141787500Y-91500000D03*
X139712500Y-91500000D03*
%TD*%
D11*
%TO.C,C4*%
X139000000Y-76962500D03*
X139000000Y-79037500D03*
%TD*%
D10*
%TO.C,C2*%
X139587500Y-100800000D03*
X137512500Y-100800000D03*
%TD*%
D11*
%TO.C,C1*%
X145550000Y-95675000D03*
X145550000Y-97750000D03*
%TD*%
D12*
%TO.C,R2*%
X136250000Y-79000000D03*
X136250000Y-77000000D03*
%TD*%
%TO.C,R1*%
X159750000Y-88000000D03*
X159750000Y-86000000D03*
%TD*%
D13*
%TO.C,D1*%
X159750000Y-97437500D03*
X159750000Y-95562500D03*
%TD*%
D14*
%TO.C,C5*%
X155500000Y-79037500D03*
X155500000Y-76962500D03*
%TD*%
D15*
%TO.C,IC2*%
X145137500Y-76050000D03*
X145137500Y-76700000D03*
X145137500Y-77350000D03*
X145137500Y-78000000D03*
X145137500Y-78650000D03*
X145137500Y-79300000D03*
X145137500Y-79950000D03*
X150862500Y-79950000D03*
X150862500Y-79300000D03*
X150862500Y-78650000D03*
X150862500Y-78000000D03*
X150862500Y-77350000D03*
X150862500Y-76700000D03*
X150862500Y-76050000D03*
%TD*%
D12*
%TO.C,R6*%
X159750000Y-79000000D03*
X159750000Y-77000000D03*
%TD*%
D16*
%TO.C,IC1*%
X140340000Y-97160000D03*
X141660000Y-97160000D03*
X140340000Y-95840000D03*
X141660000Y-95840000D03*
D17*
X139600000Y-98450000D03*
D18*
X140000000Y-98450000D03*
X140400000Y-98450000D03*
X140800000Y-98450000D03*
X141200000Y-98450000D03*
X141600000Y-98450000D03*
X142000000Y-98450000D03*
D19*
X142400000Y-98450000D03*
D20*
X142950000Y-97900000D03*
D21*
X142950000Y-97500000D03*
X142950000Y-97100000D03*
X142950000Y-96700000D03*
X142950000Y-96300000D03*
X142950000Y-95900000D03*
X142950000Y-95500000D03*
D22*
X142950000Y-95100000D03*
D23*
X142400000Y-94550000D03*
D18*
X142000000Y-94550000D03*
X141600000Y-94550000D03*
X141200000Y-94550000D03*
X140800000Y-94550000D03*
X140400000Y-94550000D03*
X140000000Y-94550000D03*
D24*
X139600000Y-94550000D03*
D25*
X139050000Y-95100000D03*
D21*
X139050000Y-95500000D03*
X139050000Y-95900000D03*
X139050000Y-96300000D03*
X139050000Y-96700000D03*
X139050000Y-97100000D03*
X139050000Y-97500000D03*
D26*
X139050000Y-97900000D03*
%TD*%
M02*
