%TF.GenerationSoftware,KiCad,Pcbnew,8.0.7+1*%
%TF.CreationDate,2025-02-19T15:00:20+01:00*%
%TF.ProjectId,ts14-arduino-shield,74733134-2d61-4726-9475-696e6f2d7368,rev?*%
%TF.SameCoordinates,Original*%
%TF.FileFunction,Copper,L2,Bot*%
%TF.FilePolarity,Positive*%
%FSLAX46Y46*%
G04 Gerber Fmt 4.6, Leading zero omitted, Abs format (unit mm)*
G04 Created by KiCad (PCBNEW 8.0.7+1) date 2025-02-19 15:00:20*
%MOMM*%
%LPD*%
G01*
G04 APERTURE LIST*
%ADD10C,0.200000*%
%TA.AperFunction,NonConductor*%
%ADD11C,0.200000*%
%TD*%
%TA.AperFunction,ComponentPad*%
%ADD12R,1.676400X1.676400*%
%TD*%
%TA.AperFunction,ComponentPad*%
%ADD13C,1.524000*%
%TD*%
%TA.AperFunction,ComponentPad*%
%ADD14R,1.524000X1.524000*%
%TD*%
%TA.AperFunction,ComponentPad*%
%ADD15O,1.727200X1.727200*%
%TD*%
%TA.AperFunction,ComponentPad*%
%ADD16R,1.727200X1.727200*%
%TD*%
%TA.AperFunction,ViaPad*%
%ADD17C,1.000000*%
%TD*%
%TA.AperFunction,Conductor*%
%ADD18C,0.500000*%
%TD*%
%TA.AperFunction,Conductor*%
%ADD19C,0.300000*%
%TD*%
G04 APERTURE END LIST*
D10*
D11*
X173093409Y-79203006D02*
X173141028Y-79345863D01*
X173141028Y-79345863D02*
X173188647Y-79393482D01*
X173188647Y-79393482D02*
X173283885Y-79441101D01*
X173283885Y-79441101D02*
X173426742Y-79441101D01*
X173426742Y-79441101D02*
X173521980Y-79393482D01*
X173521980Y-79393482D02*
X173569600Y-79345863D01*
X173569600Y-79345863D02*
X173617219Y-79250625D01*
X173617219Y-79250625D02*
X173617219Y-78869673D01*
X173617219Y-78869673D02*
X172617219Y-78869673D01*
X172617219Y-78869673D02*
X172617219Y-79203006D01*
X172617219Y-79203006D02*
X172664838Y-79298244D01*
X172664838Y-79298244D02*
X172712457Y-79345863D01*
X172712457Y-79345863D02*
X172807695Y-79393482D01*
X172807695Y-79393482D02*
X172902933Y-79393482D01*
X172902933Y-79393482D02*
X172998171Y-79345863D01*
X172998171Y-79345863D02*
X173045790Y-79298244D01*
X173045790Y-79298244D02*
X173093409Y-79203006D01*
X173093409Y-79203006D02*
X173093409Y-78869673D01*
X172617219Y-80060149D02*
X172617219Y-80250625D01*
X172617219Y-80250625D02*
X172664838Y-80345863D01*
X172664838Y-80345863D02*
X172760076Y-80441101D01*
X172760076Y-80441101D02*
X172950552Y-80488720D01*
X172950552Y-80488720D02*
X173283885Y-80488720D01*
X173283885Y-80488720D02*
X173474361Y-80441101D01*
X173474361Y-80441101D02*
X173569600Y-80345863D01*
X173569600Y-80345863D02*
X173617219Y-80250625D01*
X173617219Y-80250625D02*
X173617219Y-80060149D01*
X173617219Y-80060149D02*
X173569600Y-79964911D01*
X173569600Y-79964911D02*
X173474361Y-79869673D01*
X173474361Y-79869673D02*
X173283885Y-79822054D01*
X173283885Y-79822054D02*
X172950552Y-79822054D01*
X172950552Y-79822054D02*
X172760076Y-79869673D01*
X172760076Y-79869673D02*
X172664838Y-79964911D01*
X172664838Y-79964911D02*
X172617219Y-80060149D01*
X172617219Y-80774435D02*
X172617219Y-81345863D01*
X173617219Y-81060149D02*
X172617219Y-81060149D01*
D12*
%TO.P,CON1,P1,AN*%
%TO.N,unconnected-(CON1-AN-PadP1)*%
X131720000Y-107860000D03*
D13*
%TO.P,CON1,P2,RST*%
%TO.N,unconnected-(CON1-RST-PadP2)*%
X134260000Y-107860000D03*
%TO.P,CON1,P3,CS*%
%TO.N,/SPI_CS*%
X136800000Y-107860000D03*
%TO.P,CON1,P4,SCK*%
%TO.N,/SPI_SCK*%
X139340000Y-107860000D03*
%TO.P,CON1,P5,MISO*%
%TO.N,/SPI_MISO*%
X141880000Y-107860000D03*
%TO.P,CON1,P6,MOSI*%
%TO.N,/SPI_MOSI*%
X144420000Y-107860000D03*
%TO.P,CON1,P7,3V3*%
%TO.N,VCC*%
X146960000Y-107860000D03*
%TO.P,CON1,P8,GND1*%
%TO.N,GND*%
X149500000Y-107860000D03*
%TO.P,CON1,P9,GND2*%
X149500000Y-85000000D03*
%TO.P,CON1,P10,5V*%
%TO.N,unconnected-(CON1-5V-PadP10)*%
X146960000Y-85000000D03*
%TO.P,CON1,P11,SDA*%
%TO.N,unconnected-(CON1-SDA-PadP11)*%
X144420000Y-85000000D03*
%TO.P,CON1,P12,SCL*%
%TO.N,unconnected-(CON1-SCL-PadP12)*%
X141880000Y-85000000D03*
%TO.P,CON1,P13,RX*%
%TO.N,unconnected-(CON1-RX-PadP13)*%
X139340000Y-85000000D03*
%TO.P,CON1,P14,TX*%
%TO.N,unconnected-(CON1-TX-PadP14)*%
X136800000Y-85000000D03*
%TO.P,CON1,P15,INT*%
%TO.N,/GPO*%
X134260000Y-85000000D03*
D14*
%TO.P,CON1,P16,PWM*%
%TO.N,unconnected-(CON1-PWM-PadP16)*%
X131720000Y-85000000D03*
%TD*%
D15*
%TO.P,Shield1,*%
%TO.N,*%
X137419881Y-120702500D03*
%TO.P,Shield1,3V3,3.3V*%
%TO.N,Net-(JP1-A)*%
X145039881Y-120702500D03*
%TO.P,Shield1,5V1,5V*%
%TO.N,unconnected-(Shield1-5V-Pad5V1)*%
X147579881Y-120702500D03*
%TO.P,Shield1,5V2,SPI_5V*%
%TO.N,unconnected-(Shield1-SPI_5V-Pad5V2)*%
X175646881Y-92762500D03*
%TO.P,Shield1,A0,A0*%
%TO.N,unconnected-(Shield1-PadA0)*%
X160279881Y-120702500D03*
%TO.P,Shield1,A1,A1*%
%TO.N,unconnected-(Shield1-PadA1)*%
X162819881Y-120702500D03*
%TO.P,Shield1,A2,A2*%
%TO.N,unconnected-(Shield1-PadA2)*%
X165359881Y-120702500D03*
%TO.P,Shield1,A3,A3*%
%TO.N,unconnected-(Shield1-PadA3)*%
X167899881Y-120702500D03*
%TO.P,Shield1,A4,A4*%
%TO.N,unconnected-(Shield1-PadA4)*%
X170439881Y-120702500D03*
%TO.P,Shield1,A5,A5*%
%TO.N,unconnected-(Shield1-PadA5)*%
X172979881Y-120702500D03*
%TO.P,Shield1,AREF,AREF*%
%TO.N,unconnected-(Shield1-PadAREF)*%
X133355881Y-72442500D03*
%TO.P,Shield1,D0,D0/RX*%
%TO.N,unconnected-(Shield1-D0{slash}RX-PadD0)*%
X172979881Y-72442500D03*
%TO.P,Shield1,D1,D1/TX*%
%TO.N,unconnected-(Shield1-D1{slash}TX-PadD1)*%
X170439881Y-72442500D03*
%TO.P,Shield1,D2,D2_INT0*%
%TO.N,/5V_INT*%
X167899881Y-72442500D03*
%TO.P,Shield1,D3,D3_INT1*%
%TO.N,unconnected-(Shield1-D3_INT1-PadD3)*%
X165359881Y-72442500D03*
%TO.P,Shield1,D4,D4*%
%TO.N,unconnected-(Shield1-PadD4)*%
X162819881Y-72442500D03*
%TO.P,Shield1,D5,D5*%
%TO.N,unconnected-(Shield1-PadD5)*%
X160279881Y-72442500D03*
%TO.P,Shield1,D6,D6*%
%TO.N,unconnected-(Shield1-PadD6)*%
X157739881Y-72442500D03*
%TO.P,Shield1,D7,D7*%
%TO.N,unconnected-(Shield1-PadD7)*%
X155199881Y-72442500D03*
%TO.P,Shield1,D8,D8*%
%TO.N,unconnected-(Shield1-PadD8)*%
X151135881Y-72442500D03*
%TO.P,Shield1,D9,D9*%
%TO.N,unconnected-(Shield1-PadD9)*%
X148595881Y-72442500D03*
%TO.P,Shield1,D10,D10_CS*%
%TO.N,/5V_SPI_CS*%
X146055881Y-72442500D03*
%TO.P,Shield1,D11,D11*%
%TO.N,/5V_SPI_MOSI*%
X143515881Y-72442500D03*
%TO.P,Shield1,D12,D12*%
%TO.N,/5V_SPI_MISO*%
X140975881Y-72442500D03*
%TO.P,Shield1,D13,D13*%
%TO.N,/5V_SPI_SCK*%
X138435881Y-72442500D03*
D16*
%TO.P,Shield1,GND1,GND*%
%TO.N,GND*%
X135895881Y-72442500D03*
%TO.P,Shield1,GND2,GND*%
X150119881Y-120702500D03*
%TO.P,Shield1,GND3,GND*%
X152659881Y-120702500D03*
%TO.P,Shield1,GND4,SPI_GND*%
%TO.N,unconnected-(Shield1-SPI_GND-PadGND4)*%
X175646881Y-97842500D03*
D15*
%TO.P,Shield1,IORF,IOREF*%
%TO.N,Net-(JP2-B)*%
X139959881Y-120702500D03*
%TO.P,Shield1,MISO,SPI_MISO*%
%TO.N,unconnected-(Shield1-SPI_MISO-PadMISO)*%
X173106881Y-92762500D03*
%TO.P,Shield1,MOSI,SPI_MOSI*%
%TO.N,unconnected-(Shield1-SPI_MOSI-PadMOSI)*%
X175646881Y-95302500D03*
%TO.P,Shield1,RST1,RESET*%
%TO.N,unconnected-(Shield1-RESET-PadRST1)*%
X142499881Y-120702500D03*
%TO.P,Shield1,RST2,SPI_RESET*%
%TO.N,unconnected-(Shield1-SPI_RESET-PadRST2)*%
X173106881Y-97842500D03*
%TO.P,Shield1,SCK,SPI_SCK*%
%TO.N,unconnected-(Shield1-SPI_SCK-PadSCK)*%
X173106881Y-95302500D03*
%TO.P,Shield1,SCL,SCL*%
%TO.N,unconnected-(Shield1-PadSCL)*%
X128275881Y-72442500D03*
%TO.P,Shield1,SDA,SDA*%
%TO.N,unconnected-(Shield1-PadSDA)*%
X130815881Y-72442500D03*
%TO.P,Shield1,VIN,VIN*%
%TO.N,unconnected-(Shield1-PadVIN)*%
X155199881Y-120702500D03*
%TD*%
D17*
%TO.N,GND*%
X127720000Y-104280000D03*
X146750000Y-88000000D03*
X152750000Y-98000000D03*
X145610000Y-94470000D03*
X155580000Y-80370000D03*
X137760000Y-97290000D03*
X173750000Y-83000000D03*
X169750000Y-110000000D03*
X159750000Y-108000000D03*
X121000000Y-110000000D03*
X121000000Y-122000000D03*
X152750000Y-108000000D03*
X138960000Y-80230000D03*
X146750000Y-80000000D03*
X121000000Y-71000000D03*
X144750000Y-91520000D03*
X143010000Y-91520000D03*
X159880000Y-98510000D03*
X129750000Y-80000000D03*
X157750000Y-122000000D03*
X153270000Y-74730000D03*
X176750000Y-119000000D03*
X159750000Y-83000000D03*
X144300000Y-94470000D03*
X143310000Y-99690000D03*
X129750000Y-122000000D03*
X176750000Y-112000000D03*
X139620000Y-102150000D03*
X143430000Y-79940000D03*
X176750000Y-100000000D03*
X150750000Y-94000000D03*
X136750000Y-88000000D03*
X127660000Y-88030000D03*
X137750000Y-93250000D03*
X145000000Y-99690000D03*
X121000000Y-80000000D03*
%TO.N,/VCC_SPI_IO*%
X147590000Y-76130000D03*
X139670000Y-75620000D03*
%TO.N,/GPO*%
X150950000Y-82490000D03*
X159670000Y-81370000D03*
%TO.N,/5V_SPI_SCK*%
X142010000Y-74290000D03*
%TO.N,/SPI_SCK*%
X143370000Y-102570000D03*
X148460000Y-102570000D03*
%TO.N,/SPI_MOSI*%
X148520000Y-105320000D03*
X143330000Y-105320000D03*
%TO.N,/SPI_CS*%
X143370000Y-101230000D03*
X150210000Y-101230000D03*
%TO.N,/SPI_MISO*%
X148475000Y-104005000D03*
X143300000Y-103920000D03*
%TD*%
D18*
%TO.N,/VCC_SPI_IO*%
X140180000Y-76130000D02*
X147590000Y-76130000D01*
X139670000Y-75620000D02*
X140180000Y-76130000D01*
D19*
%TO.N,/GPO*%
X156620000Y-82440000D02*
X157690000Y-81370000D01*
X157690000Y-81370000D02*
X159670000Y-81370000D01*
X151000000Y-82440000D02*
X156620000Y-82440000D01*
X150950000Y-82490000D02*
X151000000Y-82440000D01*
%TO.N,/5V_SPI_SCK*%
X140283381Y-74290000D02*
X138435881Y-72442500D01*
X142010000Y-74290000D02*
X140283381Y-74290000D01*
%TO.N,/SPI_SCK*%
X142430000Y-102570000D02*
X139340000Y-105660000D01*
X143370000Y-102570000D02*
X142430000Y-102570000D01*
X148460000Y-102570000D02*
X143370000Y-102570000D01*
X139340000Y-105660000D02*
X139340000Y-107860000D01*
%TO.N,/SPI_MOSI*%
X143330000Y-105320000D02*
X144420000Y-106410000D01*
X144420000Y-106410000D02*
X144420000Y-107860000D01*
X148520000Y-105320000D02*
X143330000Y-105320000D01*
%TO.N,/SPI_CS*%
X142290000Y-101230000D02*
X136800000Y-106720000D01*
X143370000Y-101230000D02*
X142290000Y-101230000D01*
X136800000Y-106720000D02*
X136800000Y-107860000D01*
X150210000Y-101230000D02*
X143370000Y-101230000D01*
%TO.N,/SPI_MISO*%
X148390000Y-103920000D02*
X143300000Y-103920000D01*
X141880000Y-104690000D02*
X141880000Y-107860000D01*
X142650000Y-103920000D02*
X141880000Y-104690000D01*
X143300000Y-103920000D02*
X142650000Y-103920000D01*
X148475000Y-104005000D02*
X148390000Y-103920000D01*
%TD*%
%TA.AperFunction,Conductor*%
%TO.N,GND*%
G36*
X151433213Y-120505279D02*
G01*
X151477561Y-120533780D01*
X151496281Y-120552500D01*
X152174153Y-120552500D01*
X152151881Y-120635620D01*
X152151881Y-120769380D01*
X152174153Y-120852500D01*
X151496281Y-120852500D01*
X151477561Y-120871220D01*
X151416238Y-120904704D01*
X151346546Y-120899719D01*
X151302200Y-120871219D01*
X151283481Y-120852500D01*
X150605609Y-120852500D01*
X150627881Y-120769380D01*
X150627881Y-120635620D01*
X150605609Y-120552500D01*
X151283479Y-120552500D01*
X151302198Y-120533781D01*
X151363521Y-120500295D01*
X151433213Y-120505279D01*
G37*
%TD.AperFunction*%
%TA.AperFunction,Conductor*%
G36*
X124016342Y-70520185D02*
G01*
X124062097Y-70572989D01*
X124072041Y-70642147D01*
X124043016Y-70705703D01*
X123996756Y-70739061D01*
X123899675Y-70779273D01*
X123899666Y-70779277D01*
X123689587Y-70900567D01*
X123497144Y-71048233D01*
X123497137Y-71048239D01*
X123325620Y-71219756D01*
X123325614Y-71219763D01*
X123177948Y-71412206D01*
X123056658Y-71622285D01*
X123056654Y-71622294D01*
X122963828Y-71846395D01*
X122901042Y-72080714D01*
X122869381Y-72321211D01*
X122869381Y-72563788D01*
X122901042Y-72804285D01*
X122963828Y-73038604D01*
X123030090Y-73198573D01*
X123056657Y-73262712D01*
X123177945Y-73472789D01*
X123177947Y-73472792D01*
X123177948Y-73472793D01*
X123325614Y-73665236D01*
X123325620Y-73665243D01*
X123497137Y-73836760D01*
X123497144Y-73836766D01*
X123583698Y-73903181D01*
X123689592Y-73984436D01*
X123899669Y-74105724D01*
X124123781Y-74198554D01*
X124358092Y-74261338D01*
X124538467Y-74285084D01*
X124598592Y-74293000D01*
X124598593Y-74293000D01*
X124841170Y-74293000D01*
X124889269Y-74286667D01*
X125081670Y-74261338D01*
X125315981Y-74198554D01*
X125540093Y-74105724D01*
X125750170Y-73984436D01*
X125942619Y-73836765D01*
X126114146Y-73665238D01*
X126261817Y-73472789D01*
X126383105Y-73262712D01*
X126475935Y-73038600D01*
X126538719Y-72804289D01*
X126570381Y-72563788D01*
X126570381Y-72442500D01*
X127206632Y-72442500D01*
X127227177Y-72651102D01*
X127288024Y-72851685D01*
X127386829Y-73036537D01*
X127386833Y-73036544D01*
X127519807Y-73198573D01*
X127681836Y-73331547D01*
X127681843Y-73331551D01*
X127718058Y-73350908D01*
X127866697Y-73430357D01*
X128067281Y-73491204D01*
X128275881Y-73511749D01*
X128484481Y-73491204D01*
X128685065Y-73430357D01*
X128869924Y-73331548D01*
X129031954Y-73198573D01*
X129164929Y-73036543D01*
X129263738Y-72851684D01*
X129324585Y-72651100D01*
X129345130Y-72442500D01*
X129746632Y-72442500D01*
X129767177Y-72651102D01*
X129828024Y-72851685D01*
X129926829Y-73036537D01*
X129926833Y-73036544D01*
X130059807Y-73198573D01*
X130221836Y-73331547D01*
X130221843Y-73331551D01*
X130258058Y-73350908D01*
X130406697Y-73430357D01*
X130607281Y-73491204D01*
X130815881Y-73511749D01*
X131024481Y-73491204D01*
X131225065Y-73430357D01*
X131409924Y-73331548D01*
X131571954Y-73198573D01*
X131704929Y-73036543D01*
X131803738Y-72851684D01*
X131864585Y-72651100D01*
X131885130Y-72442500D01*
X132286632Y-72442500D01*
X132307177Y-72651102D01*
X132368024Y-72851685D01*
X132466829Y-73036537D01*
X132466833Y-73036544D01*
X132599807Y-73198573D01*
X132761836Y-73331547D01*
X132761843Y-73331551D01*
X132798058Y-73350908D01*
X132946697Y-73430357D01*
X133147281Y-73491204D01*
X133355881Y-73511749D01*
X133564481Y-73491204D01*
X133765065Y-73430357D01*
X133949924Y-73331548D01*
X134111954Y-73198573D01*
X134244929Y-73036543D01*
X134343738Y-72851684D01*
X134404585Y-72651100D01*
X134425130Y-72442500D01*
X134404585Y-72233900D01*
X134343738Y-72033316D01*
X134244929Y-71848457D01*
X134244928Y-71848455D01*
X134111954Y-71686426D01*
X133949925Y-71553452D01*
X133949918Y-71553448D01*
X133913730Y-71534105D01*
X134732281Y-71534105D01*
X134732281Y-72292500D01*
X135410153Y-72292500D01*
X135387881Y-72375620D01*
X135387881Y-72509380D01*
X135410153Y-72592500D01*
X134732282Y-72592500D01*
X134732282Y-73350885D01*
X134732283Y-73350908D01*
X134735189Y-73375969D01*
X134735190Y-73375973D01*
X134780492Y-73478574D01*
X134780495Y-73478579D01*
X134859801Y-73557885D01*
X134859806Y-73557888D01*
X134962404Y-73603189D01*
X134987487Y-73606099D01*
X135745880Y-73606099D01*
X135745881Y-73606098D01*
X135745881Y-72928228D01*
X135829001Y-72950500D01*
X135962761Y-72950500D01*
X136045881Y-72928228D01*
X136045881Y-73606099D01*
X136804267Y-73606099D01*
X136804289Y-73606097D01*
X136829350Y-73603191D01*
X136829354Y-73603190D01*
X136931955Y-73557888D01*
X136931960Y-73557885D01*
X137011266Y-73478579D01*
X137011269Y-73478574D01*
X137056570Y-73375977D01*
X137056570Y-73375975D01*
X137059480Y-73350894D01*
X137059481Y-73350891D01*
X137059481Y-72592500D01*
X136381609Y-72592500D01*
X136403881Y-72509380D01*
X136403881Y-72442500D01*
X137366632Y-72442500D01*
X137387177Y-72651102D01*
X137448024Y-72851685D01*
X137546829Y-73036537D01*
X137546833Y-73036544D01*
X137679807Y-73198573D01*
X137841836Y-73331547D01*
X137841843Y-73331551D01*
X137878058Y-73350908D01*
X138026697Y-73430357D01*
X138227281Y-73491204D01*
X138435881Y-73511749D01*
X138644481Y-73491204D01*
X138837618Y-73432615D01*
X138907484Y-73431992D01*
X138961294Y-73463595D01*
X140068169Y-74570470D01*
X140148093Y-74616614D01*
X140237237Y-74640500D01*
X140237238Y-74640500D01*
X140329525Y-74640500D01*
X141335681Y-74640500D01*
X141402720Y-74660185D01*
X141437729Y-74694057D01*
X141481817Y-74757929D01*
X141583072Y-74847633D01*
X141609150Y-74870736D01*
X141759773Y-74949789D01*
X141759775Y-74949790D01*
X141924944Y-74990500D01*
X142095056Y-74990500D01*
X142260225Y-74949790D01*
X142339692Y-74908081D01*
X142410849Y-74870736D01*
X142410850Y-74870734D01*
X142410852Y-74870734D01*
X142538183Y-74757929D01*
X142634818Y-74617930D01*
X142695140Y-74458872D01*
X142715645Y-74290000D01*
X142695140Y-74121128D01*
X142634818Y-73962070D01*
X142538183Y-73822071D01*
X142410852Y-73709266D01*
X142410849Y-73709263D01*
X142260226Y-73630210D01*
X142095056Y-73589500D01*
X141924944Y-73589500D01*
X141759773Y-73630210D01*
X141609150Y-73709263D01*
X141481818Y-73822070D01*
X141481817Y-73822071D01*
X141437729Y-73885942D01*
X141383448Y-73929931D01*
X141335681Y-73939500D01*
X140479925Y-73939500D01*
X140412886Y-73919815D01*
X140392244Y-73903181D01*
X139456976Y-72967913D01*
X139423491Y-72906590D01*
X139425997Y-72844236D01*
X139438116Y-72804285D01*
X139484585Y-72651100D01*
X139505130Y-72442500D01*
X139906632Y-72442500D01*
X139927177Y-72651102D01*
X139988024Y-72851685D01*
X140086829Y-73036537D01*
X140086833Y-73036544D01*
X140219807Y-73198573D01*
X140381836Y-73331547D01*
X140381843Y-73331551D01*
X140418058Y-73350908D01*
X140566697Y-73430357D01*
X140767281Y-73491204D01*
X140975881Y-73511749D01*
X141184481Y-73491204D01*
X141385065Y-73430357D01*
X141569924Y-73331548D01*
X141731954Y-73198573D01*
X141864929Y-73036543D01*
X141963738Y-72851684D01*
X142024585Y-72651100D01*
X142045130Y-72442500D01*
X142446632Y-72442500D01*
X142467177Y-72651102D01*
X142528024Y-72851685D01*
X142626829Y-73036537D01*
X142626833Y-73036544D01*
X142759807Y-73198573D01*
X142921836Y-73331547D01*
X142921843Y-73331551D01*
X142958058Y-73350908D01*
X143106697Y-73430357D01*
X143307281Y-73491204D01*
X143515881Y-73511749D01*
X143724481Y-73491204D01*
X143925065Y-73430357D01*
X144109924Y-73331548D01*
X144271954Y-73198573D01*
X144404929Y-73036543D01*
X144503738Y-72851684D01*
X144564585Y-72651100D01*
X144585130Y-72442500D01*
X144986632Y-72442500D01*
X145007177Y-72651102D01*
X145068024Y-72851685D01*
X145166829Y-73036537D01*
X145166833Y-73036544D01*
X145299807Y-73198573D01*
X145461836Y-73331547D01*
X145461843Y-73331551D01*
X145498058Y-73350908D01*
X145646697Y-73430357D01*
X145847281Y-73491204D01*
X146055881Y-73511749D01*
X146264481Y-73491204D01*
X146465065Y-73430357D01*
X146649924Y-73331548D01*
X146811954Y-73198573D01*
X146944929Y-73036543D01*
X147043738Y-72851684D01*
X147104585Y-72651100D01*
X147125130Y-72442500D01*
X147526632Y-72442500D01*
X147547177Y-72651102D01*
X147608024Y-72851685D01*
X147706829Y-73036537D01*
X147706833Y-73036544D01*
X147839807Y-73198573D01*
X148001836Y-73331547D01*
X148001843Y-73331551D01*
X148038058Y-73350908D01*
X148186697Y-73430357D01*
X148387281Y-73491204D01*
X148595881Y-73511749D01*
X148804481Y-73491204D01*
X149005065Y-73430357D01*
X149189924Y-73331548D01*
X149351954Y-73198573D01*
X149484929Y-73036543D01*
X149583738Y-72851684D01*
X149644585Y-72651100D01*
X149665130Y-72442500D01*
X150066632Y-72442500D01*
X150087177Y-72651102D01*
X150148024Y-72851685D01*
X150246829Y-73036537D01*
X150246833Y-73036544D01*
X150379807Y-73198573D01*
X150541836Y-73331547D01*
X150541843Y-73331551D01*
X150578058Y-73350908D01*
X150726697Y-73430357D01*
X150927281Y-73491204D01*
X151135881Y-73511749D01*
X151344481Y-73491204D01*
X151545065Y-73430357D01*
X151729924Y-73331548D01*
X151891954Y-73198573D01*
X152024929Y-73036543D01*
X152123738Y-72851684D01*
X152184585Y-72651100D01*
X152205130Y-72442500D01*
X154130632Y-72442500D01*
X154151177Y-72651102D01*
X154212024Y-72851685D01*
X154310829Y-73036537D01*
X154310833Y-73036544D01*
X154443807Y-73198573D01*
X154605836Y-73331547D01*
X154605843Y-73331551D01*
X154642058Y-73350908D01*
X154790697Y-73430357D01*
X154991281Y-73491204D01*
X155199881Y-73511749D01*
X155408481Y-73491204D01*
X155609065Y-73430357D01*
X155793924Y-73331548D01*
X155955954Y-73198573D01*
X156088929Y-73036543D01*
X156187738Y-72851684D01*
X156248585Y-72651100D01*
X156269130Y-72442500D01*
X156670632Y-72442500D01*
X156691177Y-72651102D01*
X156752024Y-72851685D01*
X156850829Y-73036537D01*
X156850833Y-73036544D01*
X156983807Y-73198573D01*
X157145836Y-73331547D01*
X157145843Y-73331551D01*
X157182058Y-73350908D01*
X157330697Y-73430357D01*
X157531281Y-73491204D01*
X157739881Y-73511749D01*
X157948481Y-73491204D01*
X158149065Y-73430357D01*
X158333924Y-73331548D01*
X158495954Y-73198573D01*
X158628929Y-73036543D01*
X158727738Y-72851684D01*
X158788585Y-72651100D01*
X158809130Y-72442500D01*
X159210632Y-72442500D01*
X159231177Y-72651102D01*
X159292024Y-72851685D01*
X159390829Y-73036537D01*
X159390833Y-73036544D01*
X159523807Y-73198573D01*
X159685836Y-73331547D01*
X159685843Y-73331551D01*
X159722058Y-73350908D01*
X159870697Y-73430357D01*
X160071281Y-73491204D01*
X160279881Y-73511749D01*
X160488481Y-73491204D01*
X160689065Y-73430357D01*
X160873924Y-73331548D01*
X161035954Y-73198573D01*
X161168929Y-73036543D01*
X161267738Y-72851684D01*
X161328585Y-72651100D01*
X161349130Y-72442500D01*
X161750632Y-72442500D01*
X161771177Y-72651102D01*
X161832024Y-72851685D01*
X161930829Y-73036537D01*
X161930833Y-73036544D01*
X162063807Y-73198573D01*
X162225836Y-73331547D01*
X162225843Y-73331551D01*
X162262058Y-73350908D01*
X162410697Y-73430357D01*
X162611281Y-73491204D01*
X162819881Y-73511749D01*
X163028481Y-73491204D01*
X163229065Y-73430357D01*
X163413924Y-73331548D01*
X163575954Y-73198573D01*
X163708929Y-73036543D01*
X163807738Y-72851684D01*
X163868585Y-72651100D01*
X163889130Y-72442500D01*
X164290632Y-72442500D01*
X164311177Y-72651102D01*
X164372024Y-72851685D01*
X164470829Y-73036537D01*
X164470833Y-73036544D01*
X164603807Y-73198573D01*
X164765836Y-73331547D01*
X164765843Y-73331551D01*
X164802058Y-73350908D01*
X164950697Y-73430357D01*
X165151281Y-73491204D01*
X165359881Y-73511749D01*
X165568481Y-73491204D01*
X165769065Y-73430357D01*
X165953924Y-73331548D01*
X166115954Y-73198573D01*
X166248929Y-73036543D01*
X166347738Y-72851684D01*
X166408585Y-72651100D01*
X166429130Y-72442500D01*
X166830632Y-72442500D01*
X166851177Y-72651102D01*
X166912024Y-72851685D01*
X167010829Y-73036537D01*
X167010833Y-73036544D01*
X167143807Y-73198573D01*
X167305836Y-73331547D01*
X167305843Y-73331551D01*
X167342058Y-73350908D01*
X167490697Y-73430357D01*
X167691281Y-73491204D01*
X167899881Y-73511749D01*
X168108481Y-73491204D01*
X168309065Y-73430357D01*
X168493924Y-73331548D01*
X168655954Y-73198573D01*
X168788929Y-73036543D01*
X168887738Y-72851684D01*
X168948585Y-72651100D01*
X168969130Y-72442500D01*
X169370632Y-72442500D01*
X169391177Y-72651102D01*
X169452024Y-72851685D01*
X169550829Y-73036537D01*
X169550833Y-73036544D01*
X169683807Y-73198573D01*
X169845836Y-73331547D01*
X169845843Y-73331551D01*
X169882058Y-73350908D01*
X170030697Y-73430357D01*
X170231281Y-73491204D01*
X170439881Y-73511749D01*
X170648481Y-73491204D01*
X170849065Y-73430357D01*
X171033924Y-73331548D01*
X171195954Y-73198573D01*
X171328929Y-73036543D01*
X171427738Y-72851684D01*
X171488585Y-72651100D01*
X171509130Y-72442500D01*
X171910632Y-72442500D01*
X171931177Y-72651102D01*
X171992024Y-72851685D01*
X172090829Y-73036537D01*
X172090833Y-73036544D01*
X172223807Y-73198573D01*
X172385836Y-73331547D01*
X172385843Y-73331551D01*
X172422058Y-73350908D01*
X172570697Y-73430357D01*
X172771281Y-73491204D01*
X172979881Y-73511749D01*
X173188481Y-73491204D01*
X173389065Y-73430357D01*
X173573924Y-73331548D01*
X173735954Y-73198573D01*
X173868929Y-73036543D01*
X173967738Y-72851684D01*
X174028585Y-72651100D01*
X174049130Y-72442500D01*
X174028585Y-72233900D01*
X173967738Y-72033316D01*
X173868929Y-71848457D01*
X173868928Y-71848455D01*
X173735954Y-71686426D01*
X173573925Y-71553452D01*
X173573918Y-71553448D01*
X173389066Y-71454643D01*
X173188483Y-71393796D01*
X172979881Y-71373251D01*
X172771278Y-71393796D01*
X172570695Y-71454643D01*
X172385843Y-71553448D01*
X172385836Y-71553452D01*
X172223807Y-71686426D01*
X172090833Y-71848455D01*
X172090829Y-71848462D01*
X171992024Y-72033314D01*
X171931177Y-72233897D01*
X171910632Y-72442500D01*
X171509130Y-72442500D01*
X171488585Y-72233900D01*
X171427738Y-72033316D01*
X171328929Y-71848457D01*
X171328928Y-71848455D01*
X171195954Y-71686426D01*
X171033925Y-71553452D01*
X171033918Y-71553448D01*
X170849066Y-71454643D01*
X170648483Y-71393796D01*
X170439881Y-71373251D01*
X170231278Y-71393796D01*
X170030695Y-71454643D01*
X169845843Y-71553448D01*
X169845836Y-71553452D01*
X169683807Y-71686426D01*
X169550833Y-71848455D01*
X169550829Y-71848462D01*
X169452024Y-72033314D01*
X169391177Y-72233897D01*
X169370632Y-72442500D01*
X168969130Y-72442500D01*
X168948585Y-72233900D01*
X168887738Y-72033316D01*
X168788929Y-71848457D01*
X168788928Y-71848455D01*
X168655954Y-71686426D01*
X168493925Y-71553452D01*
X168493918Y-71553448D01*
X168309066Y-71454643D01*
X168108483Y-71393796D01*
X167899881Y-71373251D01*
X167691278Y-71393796D01*
X167490695Y-71454643D01*
X167305843Y-71553448D01*
X167305836Y-71553452D01*
X167143807Y-71686426D01*
X167010833Y-71848455D01*
X167010829Y-71848462D01*
X166912024Y-72033314D01*
X166851177Y-72233897D01*
X166830632Y-72442500D01*
X166429130Y-72442500D01*
X166408585Y-72233900D01*
X166347738Y-72033316D01*
X166248929Y-71848457D01*
X166248928Y-71848455D01*
X166115954Y-71686426D01*
X165953925Y-71553452D01*
X165953918Y-71553448D01*
X165769066Y-71454643D01*
X165568483Y-71393796D01*
X165359881Y-71373251D01*
X165151278Y-71393796D01*
X164950695Y-71454643D01*
X164765843Y-71553448D01*
X164765836Y-71553452D01*
X164603807Y-71686426D01*
X164470833Y-71848455D01*
X164470829Y-71848462D01*
X164372024Y-72033314D01*
X164311177Y-72233897D01*
X164290632Y-72442500D01*
X163889130Y-72442500D01*
X163868585Y-72233900D01*
X163807738Y-72033316D01*
X163708929Y-71848457D01*
X163708928Y-71848455D01*
X163575954Y-71686426D01*
X163413925Y-71553452D01*
X163413918Y-71553448D01*
X163229066Y-71454643D01*
X163028483Y-71393796D01*
X162819881Y-71373251D01*
X162611278Y-71393796D01*
X162410695Y-71454643D01*
X162225843Y-71553448D01*
X162225836Y-71553452D01*
X162063807Y-71686426D01*
X161930833Y-71848455D01*
X161930829Y-71848462D01*
X161832024Y-72033314D01*
X161771177Y-72233897D01*
X161750632Y-72442500D01*
X161349130Y-72442500D01*
X161328585Y-72233900D01*
X161267738Y-72033316D01*
X161168929Y-71848457D01*
X161168928Y-71848455D01*
X161035954Y-71686426D01*
X160873925Y-71553452D01*
X160873918Y-71553448D01*
X160689066Y-71454643D01*
X160488483Y-71393796D01*
X160279881Y-71373251D01*
X160071278Y-71393796D01*
X159870695Y-71454643D01*
X159685843Y-71553448D01*
X159685836Y-71553452D01*
X159523807Y-71686426D01*
X159390833Y-71848455D01*
X159390829Y-71848462D01*
X159292024Y-72033314D01*
X159231177Y-72233897D01*
X159210632Y-72442500D01*
X158809130Y-72442500D01*
X158788585Y-72233900D01*
X158727738Y-72033316D01*
X158628929Y-71848457D01*
X158628928Y-71848455D01*
X158495954Y-71686426D01*
X158333925Y-71553452D01*
X158333918Y-71553448D01*
X158149066Y-71454643D01*
X157948483Y-71393796D01*
X157739881Y-71373251D01*
X157531278Y-71393796D01*
X157330695Y-71454643D01*
X157145843Y-71553448D01*
X157145836Y-71553452D01*
X156983807Y-71686426D01*
X156850833Y-71848455D01*
X156850829Y-71848462D01*
X156752024Y-72033314D01*
X156691177Y-72233897D01*
X156670632Y-72442500D01*
X156269130Y-72442500D01*
X156248585Y-72233900D01*
X156187738Y-72033316D01*
X156088929Y-71848457D01*
X156088928Y-71848455D01*
X155955954Y-71686426D01*
X155793925Y-71553452D01*
X155793918Y-71553448D01*
X155609066Y-71454643D01*
X155408483Y-71393796D01*
X155199881Y-71373251D01*
X154991278Y-71393796D01*
X154790695Y-71454643D01*
X154605843Y-71553448D01*
X154605836Y-71553452D01*
X154443807Y-71686426D01*
X154310833Y-71848455D01*
X154310829Y-71848462D01*
X154212024Y-72033314D01*
X154151177Y-72233897D01*
X154130632Y-72442500D01*
X152205130Y-72442500D01*
X152184585Y-72233900D01*
X152123738Y-72033316D01*
X152024929Y-71848457D01*
X152024928Y-71848455D01*
X151891954Y-71686426D01*
X151729925Y-71553452D01*
X151729918Y-71553448D01*
X151545066Y-71454643D01*
X151344483Y-71393796D01*
X151135881Y-71373251D01*
X150927278Y-71393796D01*
X150726695Y-71454643D01*
X150541843Y-71553448D01*
X150541836Y-71553452D01*
X150379807Y-71686426D01*
X150246833Y-71848455D01*
X150246829Y-71848462D01*
X150148024Y-72033314D01*
X150087177Y-72233897D01*
X150066632Y-72442500D01*
X149665130Y-72442500D01*
X149644585Y-72233900D01*
X149583738Y-72033316D01*
X149484929Y-71848457D01*
X149484928Y-71848455D01*
X149351954Y-71686426D01*
X149189925Y-71553452D01*
X149189918Y-71553448D01*
X149005066Y-71454643D01*
X148804483Y-71393796D01*
X148595881Y-71373251D01*
X148387278Y-71393796D01*
X148186695Y-71454643D01*
X148001843Y-71553448D01*
X148001836Y-71553452D01*
X147839807Y-71686426D01*
X147706833Y-71848455D01*
X147706829Y-71848462D01*
X147608024Y-72033314D01*
X147547177Y-72233897D01*
X147526632Y-72442500D01*
X147125130Y-72442500D01*
X147104585Y-72233900D01*
X147043738Y-72033316D01*
X146944929Y-71848457D01*
X146944928Y-71848455D01*
X146811954Y-71686426D01*
X146649925Y-71553452D01*
X146649918Y-71553448D01*
X146465066Y-71454643D01*
X146264483Y-71393796D01*
X146055881Y-71373251D01*
X145847278Y-71393796D01*
X145646695Y-71454643D01*
X145461843Y-71553448D01*
X145461836Y-71553452D01*
X145299807Y-71686426D01*
X145166833Y-71848455D01*
X145166829Y-71848462D01*
X145068024Y-72033314D01*
X145007177Y-72233897D01*
X144986632Y-72442500D01*
X144585130Y-72442500D01*
X144564585Y-72233900D01*
X144503738Y-72033316D01*
X144404929Y-71848457D01*
X144404928Y-71848455D01*
X144271954Y-71686426D01*
X144109925Y-71553452D01*
X144109918Y-71553448D01*
X143925066Y-71454643D01*
X143724483Y-71393796D01*
X143515881Y-71373251D01*
X143307278Y-71393796D01*
X143106695Y-71454643D01*
X142921843Y-71553448D01*
X142921836Y-71553452D01*
X142759807Y-71686426D01*
X142626833Y-71848455D01*
X142626829Y-71848462D01*
X142528024Y-72033314D01*
X142467177Y-72233897D01*
X142446632Y-72442500D01*
X142045130Y-72442500D01*
X142024585Y-72233900D01*
X141963738Y-72033316D01*
X141864929Y-71848457D01*
X141864928Y-71848455D01*
X141731954Y-71686426D01*
X141569925Y-71553452D01*
X141569918Y-71553448D01*
X141385066Y-71454643D01*
X141184483Y-71393796D01*
X140975881Y-71373251D01*
X140767278Y-71393796D01*
X140566695Y-71454643D01*
X140381843Y-71553448D01*
X140381836Y-71553452D01*
X140219807Y-71686426D01*
X140086833Y-71848455D01*
X140086829Y-71848462D01*
X139988024Y-72033314D01*
X139927177Y-72233897D01*
X139906632Y-72442500D01*
X139505130Y-72442500D01*
X139484585Y-72233900D01*
X139423738Y-72033316D01*
X139324929Y-71848457D01*
X139324928Y-71848455D01*
X139191954Y-71686426D01*
X139029925Y-71553452D01*
X139029918Y-71553448D01*
X138845066Y-71454643D01*
X138644483Y-71393796D01*
X138435881Y-71373251D01*
X138227278Y-71393796D01*
X138026695Y-71454643D01*
X137841843Y-71553448D01*
X137841836Y-71553452D01*
X137679807Y-71686426D01*
X137546833Y-71848455D01*
X137546829Y-71848462D01*
X137448024Y-72033314D01*
X137387177Y-72233897D01*
X137366632Y-72442500D01*
X136403881Y-72442500D01*
X136403881Y-72375620D01*
X136381609Y-72292500D01*
X137059480Y-72292500D01*
X137059480Y-71534114D01*
X137059478Y-71534091D01*
X137056572Y-71509030D01*
X137056571Y-71509026D01*
X137011269Y-71406425D01*
X137011266Y-71406420D01*
X136931960Y-71327114D01*
X136931955Y-71327111D01*
X136829357Y-71281810D01*
X136804275Y-71278900D01*
X136045881Y-71278900D01*
X136045881Y-71956771D01*
X135962761Y-71934500D01*
X135829001Y-71934500D01*
X135745881Y-71956771D01*
X135745881Y-71278900D01*
X134987495Y-71278900D01*
X134987472Y-71278902D01*
X134962411Y-71281808D01*
X134962407Y-71281809D01*
X134859806Y-71327111D01*
X134859801Y-71327114D01*
X134780495Y-71406420D01*
X134780492Y-71406425D01*
X134735191Y-71509022D01*
X134735191Y-71509024D01*
X134732281Y-71534105D01*
X133913730Y-71534105D01*
X133765066Y-71454643D01*
X133564483Y-71393796D01*
X133355881Y-71373251D01*
X133147278Y-71393796D01*
X132946695Y-71454643D01*
X132761843Y-71553448D01*
X132761836Y-71553452D01*
X132599807Y-71686426D01*
X132466833Y-71848455D01*
X132466829Y-71848462D01*
X132368024Y-72033314D01*
X132307177Y-72233897D01*
X132286632Y-72442500D01*
X131885130Y-72442500D01*
X131864585Y-72233900D01*
X131803738Y-72033316D01*
X131704929Y-71848457D01*
X131704928Y-71848455D01*
X131571954Y-71686426D01*
X131409925Y-71553452D01*
X131409918Y-71553448D01*
X131225066Y-71454643D01*
X131024483Y-71393796D01*
X130815881Y-71373251D01*
X130607278Y-71393796D01*
X130406695Y-71454643D01*
X130221843Y-71553448D01*
X130221836Y-71553452D01*
X130059807Y-71686426D01*
X129926833Y-71848455D01*
X129926829Y-71848462D01*
X129828024Y-72033314D01*
X129767177Y-72233897D01*
X129746632Y-72442500D01*
X129345130Y-72442500D01*
X129324585Y-72233900D01*
X129263738Y-72033316D01*
X129164929Y-71848457D01*
X129164928Y-71848455D01*
X129031954Y-71686426D01*
X128869925Y-71553452D01*
X128869918Y-71553448D01*
X128685066Y-71454643D01*
X128484483Y-71393796D01*
X128275881Y-71373251D01*
X128067278Y-71393796D01*
X127866695Y-71454643D01*
X127681843Y-71553448D01*
X127681836Y-71553452D01*
X127519807Y-71686426D01*
X127386833Y-71848455D01*
X127386829Y-71848462D01*
X127288024Y-72033314D01*
X127227177Y-72233897D01*
X127206632Y-72442500D01*
X126570381Y-72442500D01*
X126570381Y-72321212D01*
X126538719Y-72080711D01*
X126475935Y-71846400D01*
X126383105Y-71622288D01*
X126261817Y-71412211D01*
X126161756Y-71281809D01*
X126114147Y-71219763D01*
X126114141Y-71219756D01*
X125942624Y-71048239D01*
X125942617Y-71048233D01*
X125750174Y-70900567D01*
X125750173Y-70900566D01*
X125750170Y-70900564D01*
X125540093Y-70779276D01*
X125540086Y-70779273D01*
X125443006Y-70739061D01*
X125388603Y-70695220D01*
X125366538Y-70628926D01*
X125383817Y-70561227D01*
X125434954Y-70513616D01*
X125490459Y-70500500D01*
X173741324Y-70500500D01*
X173808363Y-70520185D01*
X173829005Y-70536819D01*
X174713181Y-71420995D01*
X174746666Y-71482318D01*
X174749500Y-71508676D01*
X174749500Y-82934108D01*
X174749500Y-83065892D01*
X174750798Y-83070736D01*
X174783608Y-83193187D01*
X174816554Y-83250250D01*
X174849500Y-83307314D01*
X176172071Y-84629885D01*
X177463181Y-85920994D01*
X177496666Y-85982317D01*
X177499500Y-86008675D01*
X177499500Y-87002742D01*
X177479815Y-87069781D01*
X177427011Y-87115536D01*
X177357853Y-87125480D01*
X177294297Y-87096455D01*
X177260939Y-87050195D01*
X177183108Y-86862294D01*
X177183103Y-86862285D01*
X177061817Y-86652211D01*
X176914146Y-86459762D01*
X176914141Y-86459756D01*
X176742624Y-86288239D01*
X176742617Y-86288233D01*
X176550174Y-86140567D01*
X176550173Y-86140566D01*
X176550170Y-86140564D01*
X176340093Y-86019276D01*
X176314500Y-86008675D01*
X176115985Y-85926447D01*
X175881666Y-85863661D01*
X175641170Y-85832000D01*
X175641169Y-85832000D01*
X175398593Y-85832000D01*
X175398592Y-85832000D01*
X175158095Y-85863661D01*
X174923776Y-85926447D01*
X174699675Y-86019273D01*
X174699666Y-86019277D01*
X174489587Y-86140567D01*
X174297144Y-86288233D01*
X174297137Y-86288239D01*
X174125620Y-86459756D01*
X174125614Y-86459763D01*
X173977948Y-86652206D01*
X173856658Y-86862285D01*
X173856654Y-86862294D01*
X173763828Y-87086395D01*
X173701042Y-87320714D01*
X173669381Y-87561211D01*
X173669381Y-87803788D01*
X173701042Y-88044285D01*
X173763828Y-88278604D01*
X173856654Y-88502705D01*
X173856657Y-88502712D01*
X173977945Y-88712789D01*
X173977947Y-88712792D01*
X173977948Y-88712793D01*
X174125614Y-88905236D01*
X174125620Y-88905243D01*
X174297137Y-89076760D01*
X174297143Y-89076765D01*
X174489592Y-89224436D01*
X174699669Y-89345724D01*
X174923781Y-89438554D01*
X175158092Y-89501338D01*
X175338467Y-89525084D01*
X175398592Y-89533000D01*
X175398593Y-89533000D01*
X175641170Y-89533000D01*
X175689269Y-89526667D01*
X175881670Y-89501338D01*
X176115981Y-89438554D01*
X176340093Y-89345724D01*
X176550170Y-89224436D01*
X176742619Y-89076765D01*
X176914146Y-88905238D01*
X177061817Y-88712789D01*
X177183105Y-88502712D01*
X177260939Y-88314804D01*
X177304780Y-88260401D01*
X177371074Y-88238336D01*
X177438773Y-88255615D01*
X177486384Y-88306752D01*
X177499500Y-88362257D01*
X177499500Y-114942742D01*
X177479815Y-115009781D01*
X177427011Y-115055536D01*
X177357853Y-115065480D01*
X177294297Y-115036455D01*
X177260939Y-114990195D01*
X177183108Y-114802294D01*
X177183103Y-114802285D01*
X177061817Y-114592211D01*
X176914146Y-114399762D01*
X176914141Y-114399756D01*
X176742624Y-114228239D01*
X176742617Y-114228233D01*
X176550174Y-114080567D01*
X176550173Y-114080566D01*
X176550170Y-114080564D01*
X176340093Y-113959276D01*
X176340086Y-113959273D01*
X176115985Y-113866447D01*
X175881666Y-113803661D01*
X175641170Y-113772000D01*
X175641169Y-113772000D01*
X175398593Y-113772000D01*
X175398592Y-113772000D01*
X175158095Y-113803661D01*
X174923776Y-113866447D01*
X174699675Y-113959273D01*
X174699666Y-113959277D01*
X174489587Y-114080567D01*
X174297144Y-114228233D01*
X174297137Y-114228239D01*
X174125620Y-114399756D01*
X174125614Y-114399763D01*
X173977948Y-114592206D01*
X173856658Y-114802285D01*
X173856654Y-114802294D01*
X173763828Y-115026395D01*
X173701042Y-115260714D01*
X173669381Y-115501211D01*
X173669381Y-115743788D01*
X173701042Y-115984285D01*
X173763828Y-116218604D01*
X173856654Y-116442705D01*
X173856657Y-116442712D01*
X173977945Y-116652789D01*
X173977947Y-116652792D01*
X173977948Y-116652793D01*
X174125614Y-116845236D01*
X174125620Y-116845243D01*
X174297137Y-117016760D01*
X174297143Y-117016765D01*
X174489592Y-117164436D01*
X174699669Y-117285724D01*
X174923781Y-117378554D01*
X175158092Y-117441338D01*
X175338467Y-117465084D01*
X175398592Y-117473000D01*
X175398593Y-117473000D01*
X175641170Y-117473000D01*
X175689269Y-117466667D01*
X175881670Y-117441338D01*
X176115981Y-117378554D01*
X176340093Y-117285724D01*
X176550170Y-117164436D01*
X176742619Y-117016765D01*
X176914146Y-116845238D01*
X177061817Y-116652789D01*
X177183105Y-116442712D01*
X177260939Y-116254804D01*
X177304780Y-116200401D01*
X177371074Y-116178336D01*
X177438773Y-116195615D01*
X177486384Y-116246752D01*
X177499500Y-116302257D01*
X177499500Y-118991324D01*
X177479815Y-119058363D01*
X177463181Y-119079005D01*
X174079005Y-122463181D01*
X174017682Y-122496666D01*
X173991324Y-122499500D01*
X124501159Y-122499500D01*
X124434120Y-122479815D01*
X124388365Y-122427011D01*
X124378421Y-122357853D01*
X124407446Y-122294297D01*
X124439156Y-122268115D01*
X124480170Y-122244436D01*
X124672619Y-122096765D01*
X124844146Y-121925238D01*
X124991817Y-121732789D01*
X125113105Y-121522712D01*
X125205935Y-121298600D01*
X125268719Y-121064289D01*
X125300381Y-120823788D01*
X125300381Y-120702500D01*
X136350632Y-120702500D01*
X136371177Y-120911102D01*
X136432024Y-121111685D01*
X136530829Y-121296537D01*
X136530833Y-121296544D01*
X136663807Y-121458573D01*
X136825836Y-121591547D01*
X136825843Y-121591551D01*
X136862058Y-121610908D01*
X137010697Y-121690357D01*
X137211281Y-121751204D01*
X137419881Y-121771749D01*
X137628481Y-121751204D01*
X137829065Y-121690357D01*
X138013924Y-121591548D01*
X138175954Y-121458573D01*
X138308929Y-121296543D01*
X138407738Y-121111684D01*
X138468585Y-120911100D01*
X138489130Y-120702500D01*
X138890632Y-120702500D01*
X138911177Y-120911102D01*
X138972024Y-121111685D01*
X139070829Y-121296537D01*
X139070833Y-121296544D01*
X139203807Y-121458573D01*
X139365836Y-121591547D01*
X139365843Y-121591551D01*
X139402058Y-121610908D01*
X139550697Y-121690357D01*
X139751281Y-121751204D01*
X139959881Y-121771749D01*
X140168481Y-121751204D01*
X140369065Y-121690357D01*
X140553924Y-121591548D01*
X140715954Y-121458573D01*
X140848929Y-121296543D01*
X140947738Y-121111684D01*
X141008585Y-120911100D01*
X141029130Y-120702500D01*
X141430632Y-120702500D01*
X141451177Y-120911102D01*
X141512024Y-121111685D01*
X141610829Y-121296537D01*
X141610833Y-121296544D01*
X141743807Y-121458573D01*
X141905836Y-121591547D01*
X141905843Y-121591551D01*
X141942058Y-121610908D01*
X142090697Y-121690357D01*
X142291281Y-121751204D01*
X142499881Y-121771749D01*
X142708481Y-121751204D01*
X142909065Y-121690357D01*
X143093924Y-121591548D01*
X143255954Y-121458573D01*
X143388929Y-121296543D01*
X143487738Y-121111684D01*
X143548585Y-120911100D01*
X143569130Y-120702500D01*
X143970632Y-120702500D01*
X143991177Y-120911102D01*
X144052024Y-121111685D01*
X144150829Y-121296537D01*
X144150833Y-121296544D01*
X144283807Y-121458573D01*
X144445836Y-121591547D01*
X144445843Y-121591551D01*
X144482058Y-121610908D01*
X144630697Y-121690357D01*
X144831281Y-121751204D01*
X145039881Y-121771749D01*
X145248481Y-121751204D01*
X145449065Y-121690357D01*
X145633924Y-121591548D01*
X145795954Y-121458573D01*
X145928929Y-121296543D01*
X146027738Y-121111684D01*
X146088585Y-120911100D01*
X146109130Y-120702500D01*
X146510632Y-120702500D01*
X146531177Y-120911102D01*
X146592024Y-121111685D01*
X146690829Y-121296537D01*
X146690833Y-121296544D01*
X146823807Y-121458573D01*
X146985836Y-121591547D01*
X146985843Y-121591551D01*
X147022058Y-121610908D01*
X147170697Y-121690357D01*
X147371281Y-121751204D01*
X147579881Y-121771749D01*
X147788481Y-121751204D01*
X147989065Y-121690357D01*
X148173924Y-121591548D01*
X148335954Y-121458573D01*
X148468929Y-121296543D01*
X148567738Y-121111684D01*
X148628585Y-120911100D01*
X148649130Y-120702500D01*
X148628585Y-120493900D01*
X148567738Y-120293316D01*
X148468929Y-120108457D01*
X148468928Y-120108455D01*
X148335954Y-119946426D01*
X148173925Y-119813452D01*
X148173918Y-119813448D01*
X148137730Y-119794105D01*
X148956281Y-119794105D01*
X148956281Y-120552500D01*
X149634153Y-120552500D01*
X149611881Y-120635620D01*
X149611881Y-120769380D01*
X149634153Y-120852500D01*
X148956282Y-120852500D01*
X148956282Y-121610885D01*
X148956283Y-121610908D01*
X148959189Y-121635969D01*
X148959190Y-121635973D01*
X149004492Y-121738574D01*
X149004495Y-121738579D01*
X149083801Y-121817885D01*
X149083806Y-121817888D01*
X149186404Y-121863189D01*
X149211487Y-121866099D01*
X149969880Y-121866099D01*
X149969881Y-121866098D01*
X149969881Y-121188228D01*
X150053001Y-121210500D01*
X150186761Y-121210500D01*
X150269881Y-121188228D01*
X150269881Y-121866099D01*
X151028267Y-121866099D01*
X151028289Y-121866097D01*
X151053350Y-121863191D01*
X151053354Y-121863190D01*
X151155955Y-121817888D01*
X151155960Y-121817885D01*
X151235266Y-121738579D01*
X151235269Y-121738574D01*
X151276446Y-121645317D01*
X151321531Y-121591940D01*
X151388317Y-121571412D01*
X151455600Y-121590250D01*
X151502017Y-121642472D01*
X151503316Y-121645317D01*
X151544492Y-121738574D01*
X151544495Y-121738579D01*
X151623801Y-121817885D01*
X151623806Y-121817888D01*
X151726404Y-121863189D01*
X151751487Y-121866099D01*
X152509880Y-121866099D01*
X152509881Y-121866098D01*
X152509881Y-121188228D01*
X152593001Y-121210500D01*
X152726761Y-121210500D01*
X152809881Y-121188228D01*
X152809881Y-121866099D01*
X153568267Y-121866099D01*
X153568289Y-121866097D01*
X153593350Y-121863191D01*
X153593354Y-121863190D01*
X153695955Y-121817888D01*
X153695960Y-121817885D01*
X153775266Y-121738579D01*
X153775269Y-121738574D01*
X153820570Y-121635977D01*
X153820570Y-121635975D01*
X153823480Y-121610894D01*
X153823481Y-121610891D01*
X153823481Y-120852500D01*
X153145609Y-120852500D01*
X153167881Y-120769380D01*
X153167881Y-120702500D01*
X154130632Y-120702500D01*
X154151177Y-120911102D01*
X154212024Y-121111685D01*
X154310829Y-121296537D01*
X154310833Y-121296544D01*
X154443807Y-121458573D01*
X154605836Y-121591547D01*
X154605843Y-121591551D01*
X154642058Y-121610908D01*
X154790697Y-121690357D01*
X154991281Y-121751204D01*
X155199881Y-121771749D01*
X155408481Y-121751204D01*
X155609065Y-121690357D01*
X155793924Y-121591548D01*
X155955954Y-121458573D01*
X156088929Y-121296543D01*
X156187738Y-121111684D01*
X156248585Y-120911100D01*
X156269130Y-120702500D01*
X159210632Y-120702500D01*
X159231177Y-120911102D01*
X159292024Y-121111685D01*
X159390829Y-121296537D01*
X159390833Y-121296544D01*
X159523807Y-121458573D01*
X159685836Y-121591547D01*
X159685843Y-121591551D01*
X159722058Y-121610908D01*
X159870697Y-121690357D01*
X160071281Y-121751204D01*
X160279881Y-121771749D01*
X160488481Y-121751204D01*
X160689065Y-121690357D01*
X160873924Y-121591548D01*
X161035954Y-121458573D01*
X161168929Y-121296543D01*
X161267738Y-121111684D01*
X161328585Y-120911100D01*
X161349130Y-120702500D01*
X161750632Y-120702500D01*
X161771177Y-120911102D01*
X161832024Y-121111685D01*
X161930829Y-121296537D01*
X161930833Y-121296544D01*
X162063807Y-121458573D01*
X162225836Y-121591547D01*
X162225843Y-121591551D01*
X162262058Y-121610908D01*
X162410697Y-121690357D01*
X162611281Y-121751204D01*
X162819881Y-121771749D01*
X163028481Y-121751204D01*
X163229065Y-121690357D01*
X163413924Y-121591548D01*
X163575954Y-121458573D01*
X163708929Y-121296543D01*
X163807738Y-121111684D01*
X163868585Y-120911100D01*
X163889130Y-120702500D01*
X164290632Y-120702500D01*
X164311177Y-120911102D01*
X164372024Y-121111685D01*
X164470829Y-121296537D01*
X164470833Y-121296544D01*
X164603807Y-121458573D01*
X164765836Y-121591547D01*
X164765843Y-121591551D01*
X164802058Y-121610908D01*
X164950697Y-121690357D01*
X165151281Y-121751204D01*
X165359881Y-121771749D01*
X165568481Y-121751204D01*
X165769065Y-121690357D01*
X165953924Y-121591548D01*
X166115954Y-121458573D01*
X166248929Y-121296543D01*
X166347738Y-121111684D01*
X166408585Y-120911100D01*
X166429130Y-120702500D01*
X166830632Y-120702500D01*
X166851177Y-120911102D01*
X166912024Y-121111685D01*
X167010829Y-121296537D01*
X167010833Y-121296544D01*
X167143807Y-121458573D01*
X167305836Y-121591547D01*
X167305843Y-121591551D01*
X167342058Y-121610908D01*
X167490697Y-121690357D01*
X167691281Y-121751204D01*
X167899881Y-121771749D01*
X168108481Y-121751204D01*
X168309065Y-121690357D01*
X168493924Y-121591548D01*
X168655954Y-121458573D01*
X168788929Y-121296543D01*
X168887738Y-121111684D01*
X168948585Y-120911100D01*
X168969130Y-120702500D01*
X169370632Y-120702500D01*
X169391177Y-120911102D01*
X169452024Y-121111685D01*
X169550829Y-121296537D01*
X169550833Y-121296544D01*
X169683807Y-121458573D01*
X169845836Y-121591547D01*
X169845843Y-121591551D01*
X169882058Y-121610908D01*
X170030697Y-121690357D01*
X170231281Y-121751204D01*
X170439881Y-121771749D01*
X170648481Y-121751204D01*
X170849065Y-121690357D01*
X171033924Y-121591548D01*
X171195954Y-121458573D01*
X171328929Y-121296543D01*
X171427738Y-121111684D01*
X171488585Y-120911100D01*
X171509130Y-120702500D01*
X171910632Y-120702500D01*
X171931177Y-120911102D01*
X171992024Y-121111685D01*
X172090829Y-121296537D01*
X172090833Y-121296544D01*
X172223807Y-121458573D01*
X172385836Y-121591547D01*
X172385843Y-121591551D01*
X172422058Y-121610908D01*
X172570697Y-121690357D01*
X172771281Y-121751204D01*
X172979881Y-121771749D01*
X173188481Y-121751204D01*
X173389065Y-121690357D01*
X173573924Y-121591548D01*
X173735954Y-121458573D01*
X173868929Y-121296543D01*
X173967738Y-121111684D01*
X174028585Y-120911100D01*
X174049130Y-120702500D01*
X174028585Y-120493900D01*
X173967738Y-120293316D01*
X173868929Y-120108457D01*
X173868928Y-120108455D01*
X173735954Y-119946426D01*
X173573925Y-119813452D01*
X173573918Y-119813448D01*
X173389066Y-119714643D01*
X173188483Y-119653796D01*
X172979881Y-119633251D01*
X172771278Y-119653796D01*
X172570695Y-119714643D01*
X172385843Y-119813448D01*
X172385836Y-119813452D01*
X172223807Y-119946426D01*
X172090833Y-120108455D01*
X172090829Y-120108462D01*
X171992024Y-120293314D01*
X171931177Y-120493897D01*
X171910632Y-120702500D01*
X171509130Y-120702500D01*
X171488585Y-120493900D01*
X171427738Y-120293316D01*
X171328929Y-120108457D01*
X171328928Y-120108455D01*
X171195954Y-119946426D01*
X171033925Y-119813452D01*
X171033918Y-119813448D01*
X170849066Y-119714643D01*
X170648483Y-119653796D01*
X170439881Y-119633251D01*
X170231278Y-119653796D01*
X170030695Y-119714643D01*
X169845843Y-119813448D01*
X169845836Y-119813452D01*
X169683807Y-119946426D01*
X169550833Y-120108455D01*
X169550829Y-120108462D01*
X169452024Y-120293314D01*
X169391177Y-120493897D01*
X169370632Y-120702500D01*
X168969130Y-120702500D01*
X168948585Y-120493900D01*
X168887738Y-120293316D01*
X168788929Y-120108457D01*
X168788928Y-120108455D01*
X168655954Y-119946426D01*
X168493925Y-119813452D01*
X168493918Y-119813448D01*
X168309066Y-119714643D01*
X168108483Y-119653796D01*
X167899881Y-119633251D01*
X167691278Y-119653796D01*
X167490695Y-119714643D01*
X167305843Y-119813448D01*
X167305836Y-119813452D01*
X167143807Y-119946426D01*
X167010833Y-120108455D01*
X167010829Y-120108462D01*
X166912024Y-120293314D01*
X166851177Y-120493897D01*
X166830632Y-120702500D01*
X166429130Y-120702500D01*
X166408585Y-120493900D01*
X166347738Y-120293316D01*
X166248929Y-120108457D01*
X166248928Y-120108455D01*
X166115954Y-119946426D01*
X165953925Y-119813452D01*
X165953918Y-119813448D01*
X165769066Y-119714643D01*
X165568483Y-119653796D01*
X165359881Y-119633251D01*
X165151278Y-119653796D01*
X164950695Y-119714643D01*
X164765843Y-119813448D01*
X164765836Y-119813452D01*
X164603807Y-119946426D01*
X164470833Y-120108455D01*
X164470829Y-120108462D01*
X164372024Y-120293314D01*
X164311177Y-120493897D01*
X164290632Y-120702500D01*
X163889130Y-120702500D01*
X163868585Y-120493900D01*
X163807738Y-120293316D01*
X163708929Y-120108457D01*
X163708928Y-120108455D01*
X163575954Y-119946426D01*
X163413925Y-119813452D01*
X163413918Y-119813448D01*
X163229066Y-119714643D01*
X163028483Y-119653796D01*
X162819881Y-119633251D01*
X162611278Y-119653796D01*
X162410695Y-119714643D01*
X162225843Y-119813448D01*
X162225836Y-119813452D01*
X162063807Y-119946426D01*
X161930833Y-120108455D01*
X161930829Y-120108462D01*
X161832024Y-120293314D01*
X161771177Y-120493897D01*
X161750632Y-120702500D01*
X161349130Y-120702500D01*
X161328585Y-120493900D01*
X161267738Y-120293316D01*
X161168929Y-120108457D01*
X161168928Y-120108455D01*
X161035954Y-119946426D01*
X160873925Y-119813452D01*
X160873918Y-119813448D01*
X160689066Y-119714643D01*
X160488483Y-119653796D01*
X160279881Y-119633251D01*
X160071278Y-119653796D01*
X159870695Y-119714643D01*
X159685843Y-119813448D01*
X159685836Y-119813452D01*
X159523807Y-119946426D01*
X159390833Y-120108455D01*
X159390829Y-120108462D01*
X159292024Y-120293314D01*
X159231177Y-120493897D01*
X159210632Y-120702500D01*
X156269130Y-120702500D01*
X156248585Y-120493900D01*
X156187738Y-120293316D01*
X156088929Y-120108457D01*
X156088928Y-120108455D01*
X155955954Y-119946426D01*
X155793925Y-119813452D01*
X155793918Y-119813448D01*
X155609066Y-119714643D01*
X155408483Y-119653796D01*
X155199881Y-119633251D01*
X154991278Y-119653796D01*
X154790695Y-119714643D01*
X154605843Y-119813448D01*
X154605836Y-119813452D01*
X154443807Y-119946426D01*
X154310833Y-120108455D01*
X154310829Y-120108462D01*
X154212024Y-120293314D01*
X154151177Y-120493897D01*
X154130632Y-120702500D01*
X153167881Y-120702500D01*
X153167881Y-120635620D01*
X153145609Y-120552500D01*
X153823480Y-120552500D01*
X153823480Y-119794114D01*
X153823478Y-119794091D01*
X153820572Y-119769030D01*
X153820571Y-119769026D01*
X153775269Y-119666425D01*
X153775266Y-119666420D01*
X153695960Y-119587114D01*
X153695955Y-119587111D01*
X153593357Y-119541810D01*
X153568275Y-119538900D01*
X152809881Y-119538900D01*
X152809881Y-120216771D01*
X152726761Y-120194500D01*
X152593001Y-120194500D01*
X152509881Y-120216771D01*
X152509881Y-119538900D01*
X151751495Y-119538900D01*
X151751472Y-119538902D01*
X151726411Y-119541808D01*
X151726407Y-119541809D01*
X151623806Y-119587111D01*
X151623801Y-119587114D01*
X151544495Y-119666420D01*
X151544490Y-119666428D01*
X151503314Y-119759683D01*
X151458228Y-119813060D01*
X151391442Y-119833587D01*
X151324160Y-119814749D01*
X151277744Y-119762525D01*
X151276445Y-119759682D01*
X151235269Y-119666424D01*
X151235266Y-119666420D01*
X151155960Y-119587114D01*
X151155955Y-119587111D01*
X151053357Y-119541810D01*
X151028275Y-119538900D01*
X150269881Y-119538900D01*
X150269881Y-120216771D01*
X150186761Y-120194500D01*
X150053001Y-120194500D01*
X149969881Y-120216771D01*
X149969881Y-119538900D01*
X149211495Y-119538900D01*
X149211472Y-119538902D01*
X149186411Y-119541808D01*
X149186407Y-119541809D01*
X149083806Y-119587111D01*
X149083801Y-119587114D01*
X149004495Y-119666420D01*
X149004492Y-119666425D01*
X148959191Y-119769022D01*
X148959191Y-119769024D01*
X148956281Y-119794105D01*
X148137730Y-119794105D01*
X147989066Y-119714643D01*
X147788483Y-119653796D01*
X147579881Y-119633251D01*
X147371278Y-119653796D01*
X147170695Y-119714643D01*
X146985843Y-119813448D01*
X146985836Y-119813452D01*
X146823807Y-119946426D01*
X146690833Y-120108455D01*
X146690829Y-120108462D01*
X146592024Y-120293314D01*
X146531177Y-120493897D01*
X146510632Y-120702500D01*
X146109130Y-120702500D01*
X146088585Y-120493900D01*
X146027738Y-120293316D01*
X145928929Y-120108457D01*
X145928928Y-120108455D01*
X145795954Y-119946426D01*
X145633925Y-119813452D01*
X145633918Y-119813448D01*
X145449066Y-119714643D01*
X145248483Y-119653796D01*
X145039881Y-119633251D01*
X144831278Y-119653796D01*
X144630695Y-119714643D01*
X144445843Y-119813448D01*
X144445836Y-119813452D01*
X144283807Y-119946426D01*
X144150833Y-120108455D01*
X144150829Y-120108462D01*
X144052024Y-120293314D01*
X143991177Y-120493897D01*
X143970632Y-120702500D01*
X143569130Y-120702500D01*
X143548585Y-120493900D01*
X143487738Y-120293316D01*
X143388929Y-120108457D01*
X143388928Y-120108455D01*
X143255954Y-119946426D01*
X143093925Y-119813452D01*
X143093918Y-119813448D01*
X142909066Y-119714643D01*
X142708483Y-119653796D01*
X142499881Y-119633251D01*
X142291278Y-119653796D01*
X142090695Y-119714643D01*
X141905843Y-119813448D01*
X141905836Y-119813452D01*
X141743807Y-119946426D01*
X141610833Y-120108455D01*
X141610829Y-120108462D01*
X141512024Y-120293314D01*
X141451177Y-120493897D01*
X141430632Y-120702500D01*
X141029130Y-120702500D01*
X141008585Y-120493900D01*
X140947738Y-120293316D01*
X140848929Y-120108457D01*
X140848928Y-120108455D01*
X140715954Y-119946426D01*
X140553925Y-119813452D01*
X140553918Y-119813448D01*
X140369066Y-119714643D01*
X140168483Y-119653796D01*
X139959881Y-119633251D01*
X139751278Y-119653796D01*
X139550695Y-119714643D01*
X139365843Y-119813448D01*
X139365836Y-119813452D01*
X139203807Y-119946426D01*
X139070833Y-120108455D01*
X139070829Y-120108462D01*
X138972024Y-120293314D01*
X138911177Y-120493897D01*
X138890632Y-120702500D01*
X138489130Y-120702500D01*
X138468585Y-120493900D01*
X138407738Y-120293316D01*
X138308929Y-120108457D01*
X138308928Y-120108455D01*
X138175954Y-119946426D01*
X138013925Y-119813452D01*
X138013918Y-119813448D01*
X137829066Y-119714643D01*
X137628483Y-119653796D01*
X137419881Y-119633251D01*
X137211278Y-119653796D01*
X137010695Y-119714643D01*
X136825843Y-119813448D01*
X136825836Y-119813452D01*
X136663807Y-119946426D01*
X136530833Y-120108455D01*
X136530829Y-120108462D01*
X136432024Y-120293314D01*
X136371177Y-120493897D01*
X136350632Y-120702500D01*
X125300381Y-120702500D01*
X125300381Y-120581212D01*
X125268719Y-120340711D01*
X125205935Y-120106400D01*
X125113105Y-119882288D01*
X124991817Y-119672211D01*
X124891756Y-119541809D01*
X124844147Y-119479763D01*
X124844141Y-119479756D01*
X124672624Y-119308239D01*
X124672617Y-119308233D01*
X124480174Y-119160567D01*
X124480173Y-119160566D01*
X124480170Y-119160564D01*
X124303153Y-119058363D01*
X124270095Y-119039277D01*
X124270086Y-119039273D01*
X124045985Y-118946447D01*
X123811666Y-118883661D01*
X123571170Y-118852000D01*
X123571169Y-118852000D01*
X123328593Y-118852000D01*
X123328592Y-118852000D01*
X123088095Y-118883661D01*
X122853776Y-118946447D01*
X122629675Y-119039273D01*
X122629666Y-119039277D01*
X122419587Y-119160567D01*
X122227144Y-119308233D01*
X122227137Y-119308239D01*
X122055620Y-119479756D01*
X122055614Y-119479763D01*
X121907948Y-119672206D01*
X121786658Y-119882285D01*
X121786654Y-119882294D01*
X121693828Y-120106395D01*
X121631042Y-120340714D01*
X121599381Y-120581211D01*
X121599381Y-120823788D01*
X121631042Y-121064285D01*
X121693828Y-121298604D01*
X121760090Y-121458573D01*
X121786657Y-121522712D01*
X121907945Y-121732789D01*
X121907947Y-121732792D01*
X121907948Y-121732793D01*
X122055614Y-121925236D01*
X122055620Y-121925243D01*
X122227137Y-122096760D01*
X122227143Y-122096765D01*
X122419592Y-122244436D01*
X122460604Y-122268114D01*
X122508819Y-122318680D01*
X122522042Y-122387287D01*
X122496074Y-122452152D01*
X122439160Y-122492680D01*
X122398603Y-122499500D01*
X120624500Y-122499500D01*
X120557461Y-122479815D01*
X120511706Y-122427011D01*
X120500500Y-122375500D01*
X120500500Y-107002047D01*
X130681300Y-107002047D01*
X130681300Y-108717952D01*
X130692931Y-108776429D01*
X130692932Y-108776430D01*
X130737247Y-108842752D01*
X130803569Y-108887067D01*
X130803570Y-108887068D01*
X130862047Y-108898699D01*
X130862050Y-108898700D01*
X130862052Y-108898700D01*
X132577950Y-108898700D01*
X132577951Y-108898699D01*
X132592768Y-108895752D01*
X132636429Y-108887068D01*
X132636429Y-108887067D01*
X132636431Y-108887067D01*
X132702752Y-108842752D01*
X132747067Y-108776431D01*
X132747067Y-108776429D01*
X132747068Y-108776429D01*
X132758699Y-108717952D01*
X132758700Y-108717950D01*
X132758700Y-107860000D01*
X133292843Y-107860000D01*
X133311426Y-108048681D01*
X133311427Y-108048683D01*
X133366463Y-108230115D01*
X133366464Y-108230118D01*
X133366465Y-108230119D01*
X133366466Y-108230122D01*
X133455834Y-108397318D01*
X133455838Y-108397325D01*
X133576116Y-108543883D01*
X133722674Y-108664161D01*
X133722681Y-108664165D01*
X133889877Y-108753533D01*
X133889878Y-108753533D01*
X133889885Y-108753537D01*
X134071317Y-108808573D01*
X134071316Y-108808573D01*
X134088233Y-108810239D01*
X134260000Y-108827157D01*
X134448683Y-108808573D01*
X134630115Y-108753537D01*
X134797324Y-108664162D01*
X134943883Y-108543883D01*
X135064162Y-108397324D01*
X135153537Y-108230115D01*
X135208573Y-108048683D01*
X135227157Y-107860000D01*
X135832843Y-107860000D01*
X135851426Y-108048681D01*
X135851427Y-108048683D01*
X135906463Y-108230115D01*
X135906464Y-108230118D01*
X135906465Y-108230119D01*
X135906466Y-108230122D01*
X135995834Y-108397318D01*
X135995838Y-108397325D01*
X136116116Y-108543883D01*
X136262674Y-108664161D01*
X136262681Y-108664165D01*
X136429877Y-108753533D01*
X136429878Y-108753533D01*
X136429885Y-108753537D01*
X136611317Y-108808573D01*
X136611316Y-108808573D01*
X136628233Y-108810239D01*
X136800000Y-108827157D01*
X136988683Y-108808573D01*
X137170115Y-108753537D01*
X137337324Y-108664162D01*
X137483883Y-108543883D01*
X137604162Y-108397324D01*
X137693537Y-108230115D01*
X137748573Y-108048683D01*
X137767157Y-107860000D01*
X137748573Y-107671317D01*
X137693537Y-107489885D01*
X137669969Y-107445792D01*
X137604165Y-107322681D01*
X137604161Y-107322674D01*
X137483883Y-107176116D01*
X137337325Y-107055839D01*
X137337324Y-107055838D01*
X137238780Y-107003165D01*
X137188938Y-106954204D01*
X137173477Y-106886067D01*
X137197308Y-106820387D01*
X137209547Y-106806134D01*
X142398863Y-101616819D01*
X142460186Y-101583334D01*
X142486544Y-101580500D01*
X142695681Y-101580500D01*
X142762720Y-101600185D01*
X142797729Y-101634057D01*
X142837247Y-101691308D01*
X142841819Y-101697932D01*
X142965141Y-101807185D01*
X143002268Y-101866374D01*
X143001500Y-101936240D01*
X142965141Y-101992815D01*
X142841819Y-102102067D01*
X142841816Y-102102072D01*
X142797729Y-102165942D01*
X142743448Y-102209931D01*
X142695681Y-102219500D01*
X142383856Y-102219500D01*
X142294712Y-102243386D01*
X142294709Y-102243387D01*
X142214791Y-102289527D01*
X142214786Y-102289531D01*
X139059531Y-105444786D01*
X139059527Y-105444791D01*
X139013387Y-105524709D01*
X139013386Y-105524712D01*
X138989500Y-105613856D01*
X138989500Y-106881655D01*
X138969815Y-106948694D01*
X138923953Y-106991013D01*
X138802681Y-107055833D01*
X138802674Y-107055838D01*
X138656116Y-107176116D01*
X138535838Y-107322674D01*
X138535834Y-107322681D01*
X138446466Y-107489877D01*
X138446465Y-107489880D01*
X138391426Y-107671318D01*
X138372843Y-107860000D01*
X138391426Y-108048681D01*
X138391427Y-108048683D01*
X138446463Y-108230115D01*
X138446464Y-108230118D01*
X138446465Y-108230119D01*
X138446466Y-108230122D01*
X138535834Y-108397318D01*
X138535838Y-108397325D01*
X138656116Y-108543883D01*
X138802674Y-108664161D01*
X138802681Y-108664165D01*
X138969877Y-108753533D01*
X138969878Y-108753533D01*
X138969885Y-108753537D01*
X139151317Y-108808573D01*
X139151316Y-108808573D01*
X139168233Y-108810239D01*
X139340000Y-108827157D01*
X139528683Y-108808573D01*
X139710115Y-108753537D01*
X139877324Y-108664162D01*
X140023883Y-108543883D01*
X140144162Y-108397324D01*
X140233537Y-108230115D01*
X140288573Y-108048683D01*
X140307157Y-107860000D01*
X140288573Y-107671317D01*
X140233537Y-107489885D01*
X140209969Y-107445792D01*
X140144165Y-107322681D01*
X140144161Y-107322674D01*
X140023883Y-107176116D01*
X139877325Y-107055838D01*
X139877318Y-107055833D01*
X139756047Y-106991013D01*
X139706202Y-106942051D01*
X139690500Y-106881655D01*
X139690500Y-105856544D01*
X139710185Y-105789505D01*
X139726819Y-105768863D01*
X142538863Y-102956819D01*
X142600186Y-102923334D01*
X142626544Y-102920500D01*
X142695681Y-102920500D01*
X142762720Y-102940185D01*
X142797729Y-102974057D01*
X142837247Y-103031308D01*
X142841819Y-103037932D01*
X142942277Y-103126929D01*
X142979404Y-103186118D01*
X142978636Y-103255983D01*
X142940219Y-103314343D01*
X142917680Y-103329538D01*
X142899151Y-103339263D01*
X142771818Y-103452070D01*
X142771817Y-103452071D01*
X142727729Y-103515942D01*
X142673448Y-103559931D01*
X142625681Y-103569500D01*
X142603856Y-103569500D01*
X142514711Y-103593386D01*
X142434787Y-103639531D01*
X142434784Y-103639533D01*
X141599532Y-104474785D01*
X141599530Y-104474787D01*
X141599530Y-104474788D01*
X141561112Y-104541330D01*
X141561111Y-104541330D01*
X141553387Y-104554709D01*
X141553386Y-104554712D01*
X141529500Y-104643856D01*
X141529500Y-106881655D01*
X141509815Y-106948694D01*
X141463953Y-106991013D01*
X141342681Y-107055833D01*
X141342674Y-107055838D01*
X141196116Y-107176116D01*
X141075838Y-107322674D01*
X141075834Y-107322681D01*
X140986466Y-107489877D01*
X140986465Y-107489880D01*
X140931426Y-107671318D01*
X140912843Y-107860000D01*
X140931426Y-108048681D01*
X140931427Y-108048683D01*
X140986463Y-108230115D01*
X140986464Y-108230118D01*
X140986465Y-108230119D01*
X140986466Y-108230122D01*
X141075834Y-108397318D01*
X141075838Y-108397325D01*
X141196116Y-108543883D01*
X141342674Y-108664161D01*
X141342681Y-108664165D01*
X141509877Y-108753533D01*
X141509878Y-108753533D01*
X141509885Y-108753537D01*
X141691317Y-108808573D01*
X141691316Y-108808573D01*
X141708233Y-108810239D01*
X141880000Y-108827157D01*
X142068683Y-108808573D01*
X142250115Y-108753537D01*
X142417324Y-108664162D01*
X142563883Y-108543883D01*
X142684162Y-108397324D01*
X142773537Y-108230115D01*
X142828573Y-108048683D01*
X142847157Y-107860000D01*
X142828573Y-107671317D01*
X142773537Y-107489885D01*
X142749969Y-107445792D01*
X142684165Y-107322681D01*
X142684161Y-107322674D01*
X142563883Y-107176116D01*
X142417325Y-107055838D01*
X142417318Y-107055833D01*
X142296047Y-106991013D01*
X142246202Y-106942051D01*
X142230500Y-106881655D01*
X142230500Y-104886543D01*
X142250185Y-104819504D01*
X142266815Y-104798866D01*
X142639403Y-104426277D01*
X142700724Y-104392794D01*
X142770415Y-104397778D01*
X142809309Y-104421144D01*
X142899148Y-104500734D01*
X142932189Y-104518075D01*
X142982402Y-104566660D01*
X142998377Y-104634678D01*
X142975042Y-104700536D01*
X142935301Y-104734974D01*
X142935322Y-104735004D01*
X142935054Y-104735188D01*
X142932198Y-104737664D01*
X142929152Y-104739262D01*
X142801816Y-104852072D01*
X142705182Y-104992068D01*
X142644860Y-105151125D01*
X142644859Y-105151130D01*
X142624355Y-105320000D01*
X142644859Y-105488869D01*
X142644860Y-105488874D01*
X142705182Y-105647931D01*
X142737833Y-105695233D01*
X142801817Y-105787929D01*
X142879268Y-105856544D01*
X142929150Y-105900736D01*
X143079773Y-105979789D01*
X143079775Y-105979790D01*
X143244944Y-106020500D01*
X143415055Y-106020500D01*
X143415056Y-106020500D01*
X143443232Y-106013555D01*
X143513035Y-106016624D01*
X143560589Y-106046271D01*
X144033181Y-106518863D01*
X144066666Y-106580186D01*
X144069500Y-106606544D01*
X144069500Y-106881655D01*
X144049815Y-106948694D01*
X144003953Y-106991013D01*
X143882681Y-107055833D01*
X143882674Y-107055838D01*
X143736116Y-107176116D01*
X143615838Y-107322674D01*
X143615834Y-107322681D01*
X143526466Y-107489877D01*
X143526465Y-107489880D01*
X143471426Y-107671318D01*
X143452843Y-107860000D01*
X143471426Y-108048681D01*
X143471427Y-108048683D01*
X143526463Y-108230115D01*
X143526464Y-108230118D01*
X143526465Y-108230119D01*
X143526466Y-108230122D01*
X143615834Y-108397318D01*
X143615838Y-108397325D01*
X143736116Y-108543883D01*
X143882674Y-108664161D01*
X143882681Y-108664165D01*
X144049877Y-108753533D01*
X144049878Y-108753533D01*
X144049885Y-108753537D01*
X144231317Y-108808573D01*
X144231316Y-108808573D01*
X144248233Y-108810239D01*
X144420000Y-108827157D01*
X144608683Y-108808573D01*
X144790115Y-108753537D01*
X144957324Y-108664162D01*
X145103883Y-108543883D01*
X145224162Y-108397324D01*
X145313537Y-108230115D01*
X145368573Y-108048683D01*
X145387157Y-107860000D01*
X145992843Y-107860000D01*
X146011426Y-108048681D01*
X146011427Y-108048683D01*
X146066463Y-108230115D01*
X146066464Y-108230118D01*
X146066465Y-108230119D01*
X146066466Y-108230122D01*
X146155834Y-108397318D01*
X146155838Y-108397325D01*
X146276116Y-108543883D01*
X146422674Y-108664161D01*
X146422681Y-108664165D01*
X146589877Y-108753533D01*
X146589878Y-108753533D01*
X146589885Y-108753537D01*
X146771317Y-108808573D01*
X146771316Y-108808573D01*
X146788233Y-108810239D01*
X146960000Y-108827157D01*
X147148683Y-108808573D01*
X147330115Y-108753537D01*
X147497324Y-108664162D01*
X147643883Y-108543883D01*
X147764162Y-108397324D01*
X147853537Y-108230115D01*
X147908573Y-108048683D01*
X147927157Y-107860000D01*
X148432861Y-107860000D01*
X148453365Y-108068186D01*
X148514092Y-108268375D01*
X148612705Y-108452869D01*
X148649799Y-108498067D01*
X149096957Y-108050910D01*
X149144311Y-108132930D01*
X149227070Y-108215689D01*
X149309089Y-108263042D01*
X148861931Y-108710199D01*
X148861931Y-108710200D01*
X148907126Y-108747292D01*
X148907128Y-108747293D01*
X149091624Y-108845907D01*
X149291815Y-108906634D01*
X149291811Y-108906634D01*
X149500000Y-108927138D01*
X149708186Y-108906634D01*
X149908379Y-108845906D01*
X150092870Y-108747294D01*
X150092874Y-108747291D01*
X150138067Y-108710200D01*
X150138067Y-108710199D01*
X149690910Y-108263042D01*
X149772930Y-108215689D01*
X149855689Y-108132930D01*
X149903042Y-108050910D01*
X150350199Y-108498067D01*
X150350200Y-108498067D01*
X150387291Y-108452874D01*
X150387294Y-108452870D01*
X150485906Y-108268379D01*
X150546634Y-108068186D01*
X150567138Y-107860000D01*
X150546634Y-107651813D01*
X150485907Y-107451624D01*
X150387293Y-107267128D01*
X150387292Y-107267126D01*
X150350200Y-107221931D01*
X150350199Y-107221931D01*
X149903041Y-107669088D01*
X149855689Y-107587070D01*
X149772930Y-107504311D01*
X149690910Y-107456957D01*
X150138067Y-107009799D01*
X150092869Y-106972705D01*
X149908375Y-106874092D01*
X149708184Y-106813365D01*
X149708188Y-106813365D01*
X149500000Y-106792861D01*
X149291813Y-106813365D01*
X149091620Y-106874093D01*
X148907130Y-106972704D01*
X148907128Y-106972706D01*
X148861930Y-107009798D01*
X148861930Y-107009799D01*
X149309089Y-107456957D01*
X149227070Y-107504311D01*
X149144311Y-107587070D01*
X149096957Y-107669088D01*
X148649799Y-107221930D01*
X148649798Y-107221930D01*
X148612706Y-107267128D01*
X148612704Y-107267130D01*
X148514093Y-107451620D01*
X148453365Y-107651813D01*
X148432861Y-107860000D01*
X147927157Y-107860000D01*
X147908573Y-107671317D01*
X147853537Y-107489885D01*
X147829969Y-107445792D01*
X147764165Y-107322681D01*
X147764161Y-107322674D01*
X147643883Y-107176116D01*
X147497325Y-107055838D01*
X147497318Y-107055834D01*
X147330122Y-106966466D01*
X147330119Y-106966465D01*
X147330118Y-106966464D01*
X147330115Y-106966463D01*
X147148683Y-106911427D01*
X147148681Y-106911426D01*
X147148683Y-106911426D01*
X146960000Y-106892843D01*
X146771318Y-106911426D01*
X146670362Y-106942051D01*
X146589885Y-106966463D01*
X146589882Y-106966464D01*
X146589880Y-106966465D01*
X146589877Y-106966466D01*
X146422681Y-107055834D01*
X146422674Y-107055838D01*
X146276116Y-107176116D01*
X146155838Y-107322674D01*
X146155834Y-107322681D01*
X146066466Y-107489877D01*
X146066465Y-107489880D01*
X146011426Y-107671318D01*
X145992843Y-107860000D01*
X145387157Y-107860000D01*
X145368573Y-107671317D01*
X145313537Y-107489885D01*
X145289969Y-107445792D01*
X145224165Y-107322681D01*
X145224161Y-107322674D01*
X145103883Y-107176116D01*
X144957325Y-107055838D01*
X144957318Y-107055833D01*
X144836047Y-106991013D01*
X144786202Y-106942051D01*
X144770500Y-106881655D01*
X144770500Y-106363858D01*
X144770500Y-106363856D01*
X144746614Y-106274712D01*
X144700470Y-106194788D01*
X144387863Y-105882181D01*
X144354378Y-105820858D01*
X144359362Y-105751166D01*
X144401234Y-105695233D01*
X144466698Y-105670816D01*
X144475544Y-105670500D01*
X147845681Y-105670500D01*
X147912720Y-105690185D01*
X147947729Y-105724057D01*
X147991817Y-105787929D01*
X148069268Y-105856544D01*
X148119150Y-105900736D01*
X148269773Y-105979789D01*
X148269775Y-105979790D01*
X148434944Y-106020500D01*
X148605056Y-106020500D01*
X148770225Y-105979790D01*
X148849692Y-105938081D01*
X148920849Y-105900736D01*
X148920850Y-105900734D01*
X148920852Y-105900734D01*
X149048183Y-105787929D01*
X149144818Y-105647930D01*
X149205140Y-105488872D01*
X149225645Y-105320000D01*
X149205140Y-105151128D01*
X149144818Y-104992070D01*
X149048183Y-104852071D01*
X149048181Y-104852069D01*
X148916468Y-104735381D01*
X148879341Y-104676192D01*
X148880109Y-104606326D01*
X148916468Y-104549751D01*
X149003183Y-104472929D01*
X149099818Y-104332930D01*
X149160140Y-104173872D01*
X149180645Y-104005000D01*
X149160140Y-103836128D01*
X149099818Y-103677070D01*
X149003183Y-103537071D01*
X148875852Y-103424266D01*
X148831965Y-103401232D01*
X148816965Y-103393359D01*
X148766753Y-103344774D01*
X148750779Y-103276755D01*
X148774115Y-103210897D01*
X148816964Y-103173768D01*
X148860852Y-103150734D01*
X148988183Y-103037929D01*
X149084818Y-102897930D01*
X149145140Y-102738872D01*
X149165645Y-102570000D01*
X149145140Y-102401128D01*
X149084818Y-102242070D01*
X148988183Y-102102071D01*
X148860852Y-101989266D01*
X148860849Y-101989263D01*
X148710226Y-101910210D01*
X148545056Y-101869500D01*
X148374944Y-101869500D01*
X148209773Y-101910210D01*
X148059150Y-101989263D01*
X147931818Y-102102070D01*
X147931817Y-102102071D01*
X147887729Y-102165942D01*
X147833448Y-102209931D01*
X147785681Y-102219500D01*
X144044319Y-102219500D01*
X143977280Y-102199815D01*
X143942270Y-102165942D01*
X143898183Y-102102071D01*
X143774856Y-101992813D01*
X143737731Y-101933626D01*
X143738499Y-101863761D01*
X143774856Y-101807186D01*
X143898183Y-101697929D01*
X143942270Y-101634057D01*
X143996552Y-101590069D01*
X144044319Y-101580500D01*
X149535681Y-101580500D01*
X149602720Y-101600185D01*
X149637729Y-101634057D01*
X149681817Y-101697929D01*
X149783072Y-101787633D01*
X149809150Y-101810736D01*
X149921116Y-101869500D01*
X149959775Y-101889790D01*
X150124944Y-101930500D01*
X150295056Y-101930500D01*
X150460225Y-101889790D01*
X150539692Y-101848081D01*
X150610849Y-101810736D01*
X150610850Y-101810734D01*
X150610852Y-101810734D01*
X150738183Y-101697929D01*
X150834818Y-101557930D01*
X150895140Y-101398872D01*
X150915645Y-101230000D01*
X150895140Y-101061128D01*
X150834818Y-100902070D01*
X150738183Y-100762071D01*
X150610852Y-100649266D01*
X150610849Y-100649263D01*
X150460226Y-100570210D01*
X150295056Y-100529500D01*
X150124944Y-100529500D01*
X149959773Y-100570210D01*
X149809150Y-100649263D01*
X149681818Y-100762070D01*
X149681817Y-100762071D01*
X149637729Y-100825942D01*
X149583448Y-100869931D01*
X149535681Y-100879500D01*
X144044319Y-100879500D01*
X143977280Y-100859815D01*
X143942270Y-100825942D01*
X143898183Y-100762071D01*
X143770852Y-100649266D01*
X143770849Y-100649263D01*
X143620226Y-100570210D01*
X143455056Y-100529500D01*
X143284944Y-100529500D01*
X143119773Y-100570210D01*
X142969150Y-100649263D01*
X142841818Y-100762070D01*
X142841817Y-100762071D01*
X142797729Y-100825942D01*
X142743448Y-100869931D01*
X142695681Y-100879500D01*
X142243856Y-100879500D01*
X142154711Y-100903386D01*
X142074787Y-100949531D01*
X142074784Y-100949533D01*
X136519531Y-106504786D01*
X136519527Y-106504791D01*
X136473387Y-106584709D01*
X136473386Y-106584712D01*
X136449500Y-106673856D01*
X136449500Y-106881655D01*
X136429815Y-106948694D01*
X136383953Y-106991013D01*
X136262681Y-107055833D01*
X136262674Y-107055838D01*
X136116116Y-107176116D01*
X135995838Y-107322674D01*
X135995834Y-107322681D01*
X135906466Y-107489877D01*
X135906465Y-107489880D01*
X135851426Y-107671318D01*
X135832843Y-107860000D01*
X135227157Y-107860000D01*
X135208573Y-107671317D01*
X135153537Y-107489885D01*
X135129969Y-107445792D01*
X135064165Y-107322681D01*
X135064161Y-107322674D01*
X134943883Y-107176116D01*
X134797325Y-107055838D01*
X134797318Y-107055834D01*
X134630122Y-106966466D01*
X134630119Y-106966465D01*
X134630118Y-106966464D01*
X134630115Y-106966463D01*
X134448683Y-106911427D01*
X134448681Y-106911426D01*
X134448683Y-106911426D01*
X134260000Y-106892843D01*
X134071318Y-106911426D01*
X133970362Y-106942051D01*
X133889885Y-106966463D01*
X133889882Y-106966464D01*
X133889880Y-106966465D01*
X133889877Y-106966466D01*
X133722681Y-107055834D01*
X133722674Y-107055838D01*
X133576116Y-107176116D01*
X133455838Y-107322674D01*
X133455834Y-107322681D01*
X133366466Y-107489877D01*
X133366465Y-107489880D01*
X133311426Y-107671318D01*
X133292843Y-107860000D01*
X132758700Y-107860000D01*
X132758700Y-107002049D01*
X132758699Y-107002047D01*
X132747068Y-106943570D01*
X132747067Y-106943569D01*
X132702752Y-106877247D01*
X132636430Y-106832932D01*
X132636429Y-106832931D01*
X132577952Y-106821300D01*
X132577948Y-106821300D01*
X130862052Y-106821300D01*
X130862047Y-106821300D01*
X130803570Y-106832931D01*
X130803569Y-106832932D01*
X130737247Y-106877247D01*
X130692932Y-106943569D01*
X130692931Y-106943570D01*
X130681300Y-107002047D01*
X120500500Y-107002047D01*
X120500500Y-97842500D01*
X172037632Y-97842500D01*
X172058177Y-98051102D01*
X172119024Y-98251685D01*
X172217829Y-98436537D01*
X172217833Y-98436544D01*
X172350807Y-98598573D01*
X172512836Y-98731547D01*
X172512843Y-98731551D01*
X172611584Y-98784329D01*
X172697697Y-98830357D01*
X172898281Y-98891204D01*
X173106881Y-98911749D01*
X173315481Y-98891204D01*
X173516065Y-98830357D01*
X173700924Y-98731548D01*
X173862954Y-98598573D01*
X173995929Y-98436543D01*
X174094738Y-98251684D01*
X174155585Y-98051100D01*
X174176130Y-97842500D01*
X174155585Y-97633900D01*
X174094738Y-97433316D01*
X173995929Y-97248457D01*
X173995928Y-97248455D01*
X173862954Y-97086426D01*
X173707864Y-96959147D01*
X174582781Y-96959147D01*
X174582781Y-98725852D01*
X174594412Y-98784329D01*
X174594413Y-98784330D01*
X174638728Y-98850652D01*
X174705050Y-98894967D01*
X174705051Y-98894968D01*
X174763528Y-98906599D01*
X174763531Y-98906600D01*
X174763533Y-98906600D01*
X176530231Y-98906600D01*
X176530232Y-98906599D01*
X176545049Y-98903652D01*
X176588710Y-98894968D01*
X176588710Y-98894967D01*
X176588712Y-98894967D01*
X176655033Y-98850652D01*
X176699348Y-98784331D01*
X176699348Y-98784329D01*
X176699349Y-98784329D01*
X176708033Y-98740668D01*
X176710981Y-98725848D01*
X176710981Y-96959152D01*
X176710981Y-96959149D01*
X176710980Y-96959147D01*
X176699349Y-96900670D01*
X176699348Y-96900669D01*
X176655033Y-96834347D01*
X176588711Y-96790032D01*
X176588710Y-96790031D01*
X176530233Y-96778400D01*
X176530229Y-96778400D01*
X174763533Y-96778400D01*
X174763528Y-96778400D01*
X174705051Y-96790031D01*
X174705050Y-96790032D01*
X174638728Y-96834347D01*
X174594413Y-96900669D01*
X174594412Y-96900670D01*
X174582781Y-96959147D01*
X173707864Y-96959147D01*
X173700925Y-96953452D01*
X173700918Y-96953448D01*
X173516066Y-96854643D01*
X173315483Y-96793796D01*
X173106881Y-96773251D01*
X172898278Y-96793796D01*
X172697695Y-96854643D01*
X172512843Y-96953448D01*
X172512836Y-96953452D01*
X172350807Y-97086426D01*
X172217833Y-97248455D01*
X172217829Y-97248462D01*
X172119024Y-97433314D01*
X172058177Y-97633897D01*
X172037632Y-97842500D01*
X120500500Y-97842500D01*
X120500500Y-95302500D01*
X172037632Y-95302500D01*
X172058177Y-95511102D01*
X172119024Y-95711685D01*
X172217829Y-95896537D01*
X172217833Y-95896544D01*
X172350807Y-96058573D01*
X172512836Y-96191547D01*
X172512843Y-96191551D01*
X172697695Y-96290356D01*
X172697697Y-96290357D01*
X172898281Y-96351204D01*
X173106881Y-96371749D01*
X173315481Y-96351204D01*
X173516065Y-96290357D01*
X173700924Y-96191548D01*
X173862954Y-96058573D01*
X173995929Y-95896543D01*
X174094738Y-95711684D01*
X174155585Y-95511100D01*
X174176130Y-95302500D01*
X174577632Y-95302500D01*
X174598177Y-95511102D01*
X174659024Y-95711685D01*
X174757829Y-95896537D01*
X174757833Y-95896544D01*
X174890807Y-96058573D01*
X175052836Y-96191547D01*
X175052843Y-96191551D01*
X175237695Y-96290356D01*
X175237697Y-96290357D01*
X175438281Y-96351204D01*
X175646881Y-96371749D01*
X175855481Y-96351204D01*
X176056065Y-96290357D01*
X176240924Y-96191548D01*
X176402954Y-96058573D01*
X176535929Y-95896543D01*
X176634738Y-95711684D01*
X176695585Y-95511100D01*
X176716130Y-95302500D01*
X176695585Y-95093900D01*
X176634738Y-94893316D01*
X176535929Y-94708457D01*
X176535928Y-94708455D01*
X176402954Y-94546426D01*
X176240925Y-94413452D01*
X176240918Y-94413448D01*
X176056066Y-94314643D01*
X175855483Y-94253796D01*
X175646881Y-94233251D01*
X175438278Y-94253796D01*
X175237695Y-94314643D01*
X175052843Y-94413448D01*
X175052836Y-94413452D01*
X174890807Y-94546426D01*
X174757833Y-94708455D01*
X174757829Y-94708462D01*
X174659024Y-94893314D01*
X174598177Y-95093897D01*
X174577632Y-95302500D01*
X174176130Y-95302500D01*
X174155585Y-95093900D01*
X174094738Y-94893316D01*
X173995929Y-94708457D01*
X173995928Y-94708455D01*
X173862954Y-94546426D01*
X173700925Y-94413452D01*
X173700918Y-94413448D01*
X173516066Y-94314643D01*
X173315483Y-94253796D01*
X173106881Y-94233251D01*
X172898278Y-94253796D01*
X172697695Y-94314643D01*
X172512843Y-94413448D01*
X172512836Y-94413452D01*
X172350807Y-94546426D01*
X172217833Y-94708455D01*
X172217829Y-94708462D01*
X172119024Y-94893314D01*
X172058177Y-95093897D01*
X172037632Y-95302500D01*
X120500500Y-95302500D01*
X120500500Y-92762500D01*
X172037632Y-92762500D01*
X172058177Y-92971102D01*
X172119024Y-93171685D01*
X172217829Y-93356537D01*
X172217833Y-93356544D01*
X172350807Y-93518573D01*
X172512836Y-93651547D01*
X172512843Y-93651551D01*
X172697695Y-93750356D01*
X172697697Y-93750357D01*
X172898281Y-93811204D01*
X173106881Y-93831749D01*
X173315481Y-93811204D01*
X173516065Y-93750357D01*
X173700924Y-93651548D01*
X173862954Y-93518573D01*
X173995929Y-93356543D01*
X174094738Y-93171684D01*
X174155585Y-92971100D01*
X174176130Y-92762500D01*
X174577632Y-92762500D01*
X174598177Y-92971102D01*
X174659024Y-93171685D01*
X174757829Y-93356537D01*
X174757833Y-93356544D01*
X174890807Y-93518573D01*
X175052836Y-93651547D01*
X175052843Y-93651551D01*
X175237695Y-93750356D01*
X175237697Y-93750357D01*
X175438281Y-93811204D01*
X175646881Y-93831749D01*
X175855481Y-93811204D01*
X176056065Y-93750357D01*
X176240924Y-93651548D01*
X176402954Y-93518573D01*
X176535929Y-93356543D01*
X176634738Y-93171684D01*
X176695585Y-92971100D01*
X176716130Y-92762500D01*
X176695585Y-92553900D01*
X176634738Y-92353316D01*
X176535929Y-92168457D01*
X176535928Y-92168455D01*
X176402954Y-92006426D01*
X176240925Y-91873452D01*
X176240918Y-91873448D01*
X176056066Y-91774643D01*
X175855483Y-91713796D01*
X175646881Y-91693251D01*
X175438278Y-91713796D01*
X175237695Y-91774643D01*
X175052843Y-91873448D01*
X175052836Y-91873452D01*
X174890807Y-92006426D01*
X174757833Y-92168455D01*
X174757829Y-92168462D01*
X174659024Y-92353314D01*
X174598177Y-92553897D01*
X174577632Y-92762500D01*
X174176130Y-92762500D01*
X174155585Y-92553900D01*
X174094738Y-92353316D01*
X173995929Y-92168457D01*
X173995928Y-92168455D01*
X173862954Y-92006426D01*
X173700925Y-91873452D01*
X173700918Y-91873448D01*
X173516066Y-91774643D01*
X173315483Y-91713796D01*
X173106881Y-91693251D01*
X172898278Y-91713796D01*
X172697695Y-91774643D01*
X172512843Y-91873448D01*
X172512836Y-91873452D01*
X172350807Y-92006426D01*
X172217833Y-92168455D01*
X172217829Y-92168462D01*
X172119024Y-92353314D01*
X172058177Y-92553897D01*
X172037632Y-92762500D01*
X120500500Y-92762500D01*
X120500500Y-84218247D01*
X130757500Y-84218247D01*
X130757500Y-85781752D01*
X130769131Y-85840229D01*
X130769132Y-85840230D01*
X130813447Y-85906552D01*
X130879769Y-85950867D01*
X130879770Y-85950868D01*
X130938247Y-85962499D01*
X130938250Y-85962500D01*
X130938252Y-85962500D01*
X132501750Y-85962500D01*
X132501751Y-85962499D01*
X132516568Y-85959552D01*
X132560229Y-85950868D01*
X132560229Y-85950867D01*
X132560231Y-85950867D01*
X132626552Y-85906552D01*
X132670867Y-85840231D01*
X132670867Y-85840229D01*
X132670868Y-85840229D01*
X132682499Y-85781752D01*
X132682500Y-85781750D01*
X132682500Y-85000000D01*
X133292843Y-85000000D01*
X133311426Y-85188681D01*
X133311427Y-85188683D01*
X133366463Y-85370115D01*
X133366464Y-85370118D01*
X133366465Y-85370119D01*
X133366466Y-85370122D01*
X133455834Y-85537318D01*
X133455838Y-85537325D01*
X133576116Y-85683883D01*
X133722674Y-85804161D01*
X133722681Y-85804165D01*
X133889877Y-85893533D01*
X133889878Y-85893533D01*
X133889885Y-85893537D01*
X134071317Y-85948573D01*
X134071316Y-85948573D01*
X134088233Y-85950239D01*
X134260000Y-85967157D01*
X134448683Y-85948573D01*
X134630115Y-85893537D01*
X134797324Y-85804162D01*
X134943883Y-85683883D01*
X135064162Y-85537324D01*
X135153537Y-85370115D01*
X135208573Y-85188683D01*
X135227157Y-85000000D01*
X135832843Y-85000000D01*
X135851426Y-85188681D01*
X135851427Y-85188683D01*
X135906463Y-85370115D01*
X135906464Y-85370118D01*
X135906465Y-85370119D01*
X135906466Y-85370122D01*
X135995834Y-85537318D01*
X135995838Y-85537325D01*
X136116116Y-85683883D01*
X136262674Y-85804161D01*
X136262681Y-85804165D01*
X136429877Y-85893533D01*
X136429878Y-85893533D01*
X136429885Y-85893537D01*
X136611317Y-85948573D01*
X136611316Y-85948573D01*
X136628233Y-85950239D01*
X136800000Y-85967157D01*
X136988683Y-85948573D01*
X137170115Y-85893537D01*
X137337324Y-85804162D01*
X137483883Y-85683883D01*
X137604162Y-85537324D01*
X137693537Y-85370115D01*
X137748573Y-85188683D01*
X137767157Y-85000000D01*
X138372843Y-85000000D01*
X138391426Y-85188681D01*
X138391427Y-85188683D01*
X138446463Y-85370115D01*
X138446464Y-85370118D01*
X138446465Y-85370119D01*
X138446466Y-85370122D01*
X138535834Y-85537318D01*
X138535838Y-85537325D01*
X138656116Y-85683883D01*
X138802674Y-85804161D01*
X138802681Y-85804165D01*
X138969877Y-85893533D01*
X138969878Y-85893533D01*
X138969885Y-85893537D01*
X139151317Y-85948573D01*
X139151316Y-85948573D01*
X139168233Y-85950239D01*
X139340000Y-85967157D01*
X139528683Y-85948573D01*
X139710115Y-85893537D01*
X139877324Y-85804162D01*
X140023883Y-85683883D01*
X140144162Y-85537324D01*
X140233537Y-85370115D01*
X140288573Y-85188683D01*
X140307157Y-85000000D01*
X140912843Y-85000000D01*
X140931426Y-85188681D01*
X140931427Y-85188683D01*
X140986463Y-85370115D01*
X140986464Y-85370118D01*
X140986465Y-85370119D01*
X140986466Y-85370122D01*
X141075834Y-85537318D01*
X141075838Y-85537325D01*
X141196116Y-85683883D01*
X141342674Y-85804161D01*
X141342681Y-85804165D01*
X141509877Y-85893533D01*
X141509878Y-85893533D01*
X141509885Y-85893537D01*
X141691317Y-85948573D01*
X141691316Y-85948573D01*
X141708233Y-85950239D01*
X141880000Y-85967157D01*
X142068683Y-85948573D01*
X142250115Y-85893537D01*
X142417324Y-85804162D01*
X142563883Y-85683883D01*
X142684162Y-85537324D01*
X142773537Y-85370115D01*
X142828573Y-85188683D01*
X142847157Y-85000000D01*
X143452843Y-85000000D01*
X143471426Y-85188681D01*
X143471427Y-85188683D01*
X143526463Y-85370115D01*
X143526464Y-85370118D01*
X143526465Y-85370119D01*
X143526466Y-85370122D01*
X143615834Y-85537318D01*
X143615838Y-85537325D01*
X143736116Y-85683883D01*
X143882674Y-85804161D01*
X143882681Y-85804165D01*
X144049877Y-85893533D01*
X144049878Y-85893533D01*
X144049885Y-85893537D01*
X144231317Y-85948573D01*
X144231316Y-85948573D01*
X144248233Y-85950239D01*
X144420000Y-85967157D01*
X144608683Y-85948573D01*
X144790115Y-85893537D01*
X144957324Y-85804162D01*
X145103883Y-85683883D01*
X145224162Y-85537324D01*
X145313537Y-85370115D01*
X145368573Y-85188683D01*
X145387157Y-85000000D01*
X145992843Y-85000000D01*
X146011426Y-85188681D01*
X146011427Y-85188683D01*
X146066463Y-85370115D01*
X146066464Y-85370118D01*
X146066465Y-85370119D01*
X146066466Y-85370122D01*
X146155834Y-85537318D01*
X146155838Y-85537325D01*
X146276116Y-85683883D01*
X146422674Y-85804161D01*
X146422681Y-85804165D01*
X146589877Y-85893533D01*
X146589878Y-85893533D01*
X146589885Y-85893537D01*
X146771317Y-85948573D01*
X146771316Y-85948573D01*
X146788233Y-85950239D01*
X146960000Y-85967157D01*
X147148683Y-85948573D01*
X147330115Y-85893537D01*
X147497324Y-85804162D01*
X147643883Y-85683883D01*
X147764162Y-85537324D01*
X147853537Y-85370115D01*
X147908573Y-85188683D01*
X147927157Y-85000000D01*
X148432861Y-85000000D01*
X148453365Y-85208186D01*
X148514092Y-85408375D01*
X148612705Y-85592869D01*
X148649799Y-85638067D01*
X149096957Y-85190910D01*
X149144311Y-85272930D01*
X149227070Y-85355689D01*
X149309089Y-85403042D01*
X148861931Y-85850199D01*
X148861931Y-85850200D01*
X148907126Y-85887292D01*
X148907128Y-85887293D01*
X149091624Y-85985907D01*
X149291815Y-86046634D01*
X149291811Y-86046634D01*
X149500000Y-86067138D01*
X149708186Y-86046634D01*
X149908379Y-85985906D01*
X150092870Y-85887294D01*
X150092874Y-85887291D01*
X150138067Y-85850200D01*
X150138067Y-85850199D01*
X149690910Y-85403042D01*
X149772930Y-85355689D01*
X149855689Y-85272930D01*
X149903042Y-85190910D01*
X150350199Y-85638067D01*
X150350200Y-85638067D01*
X150387291Y-85592874D01*
X150387294Y-85592870D01*
X150485906Y-85408379D01*
X150546634Y-85208186D01*
X150567138Y-85000000D01*
X150546634Y-84791813D01*
X150485907Y-84591624D01*
X150387293Y-84407128D01*
X150387292Y-84407126D01*
X150350200Y-84361931D01*
X150350199Y-84361931D01*
X149903041Y-84809088D01*
X149855689Y-84727070D01*
X149772930Y-84644311D01*
X149690910Y-84596957D01*
X150138067Y-84149799D01*
X150092869Y-84112705D01*
X149908375Y-84014092D01*
X149708184Y-83953365D01*
X149708188Y-83953365D01*
X149500000Y-83932861D01*
X149291813Y-83953365D01*
X149091620Y-84014093D01*
X148907130Y-84112704D01*
X148907128Y-84112706D01*
X148861930Y-84149798D01*
X148861930Y-84149799D01*
X149309089Y-84596957D01*
X149227070Y-84644311D01*
X149144311Y-84727070D01*
X149096957Y-84809088D01*
X148649799Y-84361930D01*
X148649798Y-84361930D01*
X148612706Y-84407128D01*
X148612704Y-84407130D01*
X148514093Y-84591620D01*
X148453365Y-84791813D01*
X148432861Y-85000000D01*
X147927157Y-85000000D01*
X147908573Y-84811317D01*
X147853537Y-84629885D01*
X147829969Y-84585792D01*
X147764165Y-84462681D01*
X147764161Y-84462674D01*
X147643883Y-84316116D01*
X147497325Y-84195838D01*
X147497318Y-84195834D01*
X147330122Y-84106466D01*
X147330119Y-84106465D01*
X147330118Y-84106464D01*
X147330115Y-84106463D01*
X147148683Y-84051427D01*
X147148681Y-84051426D01*
X147148683Y-84051426D01*
X146960000Y-84032843D01*
X146771318Y-84051426D01*
X146664194Y-84083921D01*
X146589885Y-84106463D01*
X146589882Y-84106464D01*
X146589880Y-84106465D01*
X146589877Y-84106466D01*
X146422681Y-84195834D01*
X146422674Y-84195838D01*
X146276116Y-84316116D01*
X146155838Y-84462674D01*
X146155834Y-84462681D01*
X146066466Y-84629877D01*
X146066465Y-84629880D01*
X146011426Y-84811318D01*
X145992843Y-85000000D01*
X145387157Y-85000000D01*
X145368573Y-84811317D01*
X145313537Y-84629885D01*
X145289969Y-84585792D01*
X145224165Y-84462681D01*
X145224161Y-84462674D01*
X145103883Y-84316116D01*
X144957325Y-84195838D01*
X144957318Y-84195834D01*
X144790122Y-84106466D01*
X144790119Y-84106465D01*
X144790118Y-84106464D01*
X144790115Y-84106463D01*
X144608683Y-84051427D01*
X144608681Y-84051426D01*
X144608683Y-84051426D01*
X144420000Y-84032843D01*
X144231318Y-84051426D01*
X144124194Y-84083921D01*
X144049885Y-84106463D01*
X144049882Y-84106464D01*
X144049880Y-84106465D01*
X144049877Y-84106466D01*
X143882681Y-84195834D01*
X143882674Y-84195838D01*
X143736116Y-84316116D01*
X143615838Y-84462674D01*
X143615834Y-84462681D01*
X143526466Y-84629877D01*
X143526465Y-84629880D01*
X143471426Y-84811318D01*
X143452843Y-85000000D01*
X142847157Y-85000000D01*
X142828573Y-84811317D01*
X142773537Y-84629885D01*
X142749969Y-84585792D01*
X142684165Y-84462681D01*
X142684161Y-84462674D01*
X142563883Y-84316116D01*
X142417325Y-84195838D01*
X142417318Y-84195834D01*
X142250122Y-84106466D01*
X142250119Y-84106465D01*
X142250118Y-84106464D01*
X142250115Y-84106463D01*
X142068683Y-84051427D01*
X142068681Y-84051426D01*
X142068683Y-84051426D01*
X141880000Y-84032843D01*
X141691318Y-84051426D01*
X141584194Y-84083921D01*
X141509885Y-84106463D01*
X141509882Y-84106464D01*
X141509880Y-84106465D01*
X141509877Y-84106466D01*
X141342681Y-84195834D01*
X141342674Y-84195838D01*
X141196116Y-84316116D01*
X141075838Y-84462674D01*
X141075834Y-84462681D01*
X140986466Y-84629877D01*
X140986465Y-84629880D01*
X140931426Y-84811318D01*
X140912843Y-85000000D01*
X140307157Y-85000000D01*
X140288573Y-84811317D01*
X140233537Y-84629885D01*
X140209969Y-84585792D01*
X140144165Y-84462681D01*
X140144161Y-84462674D01*
X140023883Y-84316116D01*
X139877325Y-84195838D01*
X139877318Y-84195834D01*
X139710122Y-84106466D01*
X139710119Y-84106465D01*
X139710118Y-84106464D01*
X139710115Y-84106463D01*
X139528683Y-84051427D01*
X139528681Y-84051426D01*
X139528683Y-84051426D01*
X139340000Y-84032843D01*
X139151318Y-84051426D01*
X139044194Y-84083921D01*
X138969885Y-84106463D01*
X138969882Y-84106464D01*
X138969880Y-84106465D01*
X138969877Y-84106466D01*
X138802681Y-84195834D01*
X138802674Y-84195838D01*
X138656116Y-84316116D01*
X138535838Y-84462674D01*
X138535834Y-84462681D01*
X138446466Y-84629877D01*
X138446465Y-84629880D01*
X138391426Y-84811318D01*
X138372843Y-85000000D01*
X137767157Y-85000000D01*
X137748573Y-84811317D01*
X137693537Y-84629885D01*
X137669969Y-84585792D01*
X137604165Y-84462681D01*
X137604161Y-84462674D01*
X137483883Y-84316116D01*
X137337325Y-84195838D01*
X137337318Y-84195834D01*
X137170122Y-84106466D01*
X137170119Y-84106465D01*
X137170118Y-84106464D01*
X137170115Y-84106463D01*
X136988683Y-84051427D01*
X136988681Y-84051426D01*
X136988683Y-84051426D01*
X136800000Y-84032843D01*
X136611318Y-84051426D01*
X136504194Y-84083921D01*
X136429885Y-84106463D01*
X136429882Y-84106464D01*
X136429880Y-84106465D01*
X136429877Y-84106466D01*
X136262681Y-84195834D01*
X136262674Y-84195838D01*
X136116116Y-84316116D01*
X135995838Y-84462674D01*
X135995834Y-84462681D01*
X135906466Y-84629877D01*
X135906465Y-84629880D01*
X135851426Y-84811318D01*
X135832843Y-85000000D01*
X135227157Y-85000000D01*
X135208573Y-84811317D01*
X135153537Y-84629885D01*
X135129969Y-84585792D01*
X135064165Y-84462681D01*
X135064161Y-84462674D01*
X134943883Y-84316116D01*
X134797325Y-84195838D01*
X134797318Y-84195834D01*
X134630122Y-84106466D01*
X134630119Y-84106465D01*
X134630118Y-84106464D01*
X134630115Y-84106463D01*
X134448683Y-84051427D01*
X134448681Y-84051426D01*
X134448683Y-84051426D01*
X134260000Y-84032843D01*
X134071318Y-84051426D01*
X133964194Y-84083921D01*
X133889885Y-84106463D01*
X133889882Y-84106464D01*
X133889880Y-84106465D01*
X133889877Y-84106466D01*
X133722681Y-84195834D01*
X133722674Y-84195838D01*
X133576116Y-84316116D01*
X133455838Y-84462674D01*
X133455834Y-84462681D01*
X133366466Y-84629877D01*
X133366465Y-84629880D01*
X133311426Y-84811318D01*
X133292843Y-85000000D01*
X132682500Y-85000000D01*
X132682500Y-84218249D01*
X132682499Y-84218247D01*
X132670868Y-84159770D01*
X132670867Y-84159769D01*
X132626552Y-84093447D01*
X132560230Y-84049132D01*
X132560229Y-84049131D01*
X132501752Y-84037500D01*
X132501748Y-84037500D01*
X130938252Y-84037500D01*
X130938247Y-84037500D01*
X130879770Y-84049131D01*
X130879769Y-84049132D01*
X130813447Y-84093447D01*
X130769132Y-84159769D01*
X130769131Y-84159770D01*
X130757500Y-84218247D01*
X120500500Y-84218247D01*
X120500500Y-82490000D01*
X150244355Y-82490000D01*
X150264859Y-82658869D01*
X150264860Y-82658874D01*
X150325182Y-82817931D01*
X150387475Y-82908177D01*
X150421817Y-82957929D01*
X150527505Y-83051560D01*
X150549150Y-83070736D01*
X150699773Y-83149789D01*
X150699775Y-83149790D01*
X150864944Y-83190500D01*
X151035056Y-83190500D01*
X151200225Y-83149790D01*
X151279692Y-83108081D01*
X151350849Y-83070736D01*
X151350850Y-83070734D01*
X151350852Y-83070734D01*
X151478183Y-82957929D01*
X151556782Y-82844058D01*
X151611065Y-82800069D01*
X151658832Y-82790500D01*
X156666142Y-82790500D01*
X156666144Y-82790500D01*
X156755288Y-82766614D01*
X156835212Y-82720470D01*
X157798863Y-81756819D01*
X157860186Y-81723334D01*
X157886544Y-81720500D01*
X158995681Y-81720500D01*
X159062720Y-81740185D01*
X159097729Y-81774057D01*
X159141817Y-81837929D01*
X159222337Y-81909263D01*
X159269150Y-81950736D01*
X159419773Y-82029789D01*
X159419775Y-82029790D01*
X159584944Y-82070500D01*
X159755056Y-82070500D01*
X159920225Y-82029790D01*
X159999692Y-81988081D01*
X160070849Y-81950736D01*
X160070850Y-81950734D01*
X160070852Y-81950734D01*
X160198183Y-81837929D01*
X160294818Y-81697930D01*
X160312478Y-81651363D01*
X172310574Y-81651363D01*
X173923864Y-81651363D01*
X173923864Y-78564173D01*
X172310574Y-78564173D01*
X172310574Y-81651363D01*
X160312478Y-81651363D01*
X160355140Y-81538872D01*
X160375645Y-81370000D01*
X160355140Y-81201128D01*
X160294818Y-81042070D01*
X160198183Y-80902071D01*
X160070852Y-80789266D01*
X160070849Y-80789263D01*
X159920226Y-80710210D01*
X159755056Y-80669500D01*
X159584944Y-80669500D01*
X159419773Y-80710210D01*
X159269150Y-80789263D01*
X159141818Y-80902070D01*
X159141817Y-80902071D01*
X159097729Y-80965942D01*
X159043448Y-81009931D01*
X158995681Y-81019500D01*
X157643854Y-81019500D01*
X157559624Y-81042068D01*
X157559625Y-81042069D01*
X157554714Y-81043384D01*
X157554708Y-81043387D01*
X157474791Y-81089527D01*
X157474786Y-81089531D01*
X156511137Y-82053181D01*
X156449814Y-82086666D01*
X156423456Y-82089500D01*
X151589806Y-82089500D01*
X151522767Y-82069815D01*
X151487756Y-82035940D01*
X151478183Y-82022071D01*
X151350849Y-81909263D01*
X151200226Y-81830210D01*
X151035056Y-81789500D01*
X150864944Y-81789500D01*
X150699773Y-81830210D01*
X150549150Y-81909263D01*
X150421816Y-82022072D01*
X150325182Y-82162068D01*
X150264860Y-82321125D01*
X150264859Y-82321130D01*
X150244355Y-82490000D01*
X120500500Y-82490000D01*
X120500500Y-75620000D01*
X138964355Y-75620000D01*
X138984859Y-75788869D01*
X138984860Y-75788874D01*
X139045182Y-75947931D01*
X139054293Y-75961130D01*
X139141817Y-76087929D01*
X139189306Y-76130000D01*
X139269150Y-76200736D01*
X139419773Y-76279789D01*
X139419775Y-76279790D01*
X139584944Y-76320500D01*
X139682035Y-76320500D01*
X139749074Y-76340185D01*
X139769716Y-76356819D01*
X139903386Y-76490489D01*
X140006113Y-76549799D01*
X140030321Y-76556284D01*
X140030324Y-76556286D01*
X140030325Y-76556286D01*
X140060447Y-76564357D01*
X140120691Y-76580500D01*
X146995117Y-76580500D01*
X147062156Y-76600185D01*
X147077344Y-76611685D01*
X147189147Y-76710733D01*
X147189149Y-76710735D01*
X147339773Y-76789789D01*
X147339775Y-76789790D01*
X147504944Y-76830500D01*
X147675056Y-76830500D01*
X147840225Y-76789790D01*
X147919692Y-76748081D01*
X147990849Y-76710736D01*
X147990850Y-76710734D01*
X147990852Y-76710734D01*
X148118183Y-76597929D01*
X148214818Y-76457930D01*
X148275140Y-76298872D01*
X148295645Y-76130000D01*
X148275140Y-75961128D01*
X148214818Y-75802070D01*
X148205709Y-75788874D01*
X148130213Y-75679500D01*
X148118183Y-75662071D01*
X148023316Y-75578026D01*
X147990849Y-75549263D01*
X147840226Y-75470210D01*
X147675056Y-75429500D01*
X147504944Y-75429500D01*
X147339773Y-75470210D01*
X147189149Y-75549264D01*
X147189147Y-75549266D01*
X147077344Y-75648315D01*
X147014111Y-75678037D01*
X146995117Y-75679500D01*
X140492724Y-75679500D01*
X140425685Y-75659815D01*
X140379930Y-75607011D01*
X140369628Y-75570447D01*
X140355140Y-75451130D01*
X140355139Y-75451125D01*
X140294817Y-75292068D01*
X140260476Y-75242318D01*
X140198183Y-75152071D01*
X140070852Y-75039266D01*
X140070849Y-75039263D01*
X139920226Y-74960210D01*
X139755056Y-74919500D01*
X139584944Y-74919500D01*
X139419773Y-74960210D01*
X139269150Y-75039263D01*
X139141816Y-75152072D01*
X139045182Y-75292068D01*
X138984860Y-75451125D01*
X138984859Y-75451130D01*
X138964355Y-75620000D01*
X120500500Y-75620000D01*
X120500500Y-70624500D01*
X120520185Y-70557461D01*
X120572989Y-70511706D01*
X120624500Y-70500500D01*
X123949303Y-70500500D01*
X124016342Y-70520185D01*
G37*
%TD.AperFunction*%
%TD*%
M02*
