%TF.GenerationSoftware,KiCad,Pcbnew,8.0.7+1*%
%TF.CreationDate,2025-02-19T15:00:20+01:00*%
%TF.ProjectId,ts14-arduino-shield,74733134-2d61-4726-9475-696e6f2d7368,rev?*%
%TF.SameCoordinates,Original*%
%TF.FileFunction,Soldermask,Bot*%
%TF.FilePolarity,Negative*%
%FSLAX46Y46*%
G04 Gerber Fmt 4.6, Leading zero omitted, Abs format (unit mm)*
G04 Created by KiCad (PCBNEW 8.0.7+1) date 2025-02-19 15:00:20*
%MOMM*%
%LPD*%
G01*
G04 APERTURE LIST*
%ADD10C,0.150000*%
%ADD11R,1.676400X1.676400*%
%ADD12C,1.524000*%
%ADD13R,1.524000X1.524000*%
%ADD14C,3.200000*%
%ADD15O,1.727200X1.727200*%
%ADD16R,1.727200X1.727200*%
G04 APERTURE END LIST*
D10*
X174558628Y-102241541D02*
X174558628Y-103098684D01*
X176058628Y-102670112D02*
X174558628Y-102670112D01*
X175987200Y-103527255D02*
X176058628Y-103741541D01*
X176058628Y-103741541D02*
X176058628Y-104098683D01*
X176058628Y-104098683D02*
X175987200Y-104241541D01*
X175987200Y-104241541D02*
X175915771Y-104312969D01*
X175915771Y-104312969D02*
X175772914Y-104384398D01*
X175772914Y-104384398D02*
X175630057Y-104384398D01*
X175630057Y-104384398D02*
X175487200Y-104312969D01*
X175487200Y-104312969D02*
X175415771Y-104241541D01*
X175415771Y-104241541D02*
X175344342Y-104098683D01*
X175344342Y-104098683D02*
X175272914Y-103812969D01*
X175272914Y-103812969D02*
X175201485Y-103670112D01*
X175201485Y-103670112D02*
X175130057Y-103598683D01*
X175130057Y-103598683D02*
X174987200Y-103527255D01*
X174987200Y-103527255D02*
X174844342Y-103527255D01*
X174844342Y-103527255D02*
X174701485Y-103598683D01*
X174701485Y-103598683D02*
X174630057Y-103670112D01*
X174630057Y-103670112D02*
X174558628Y-103812969D01*
X174558628Y-103812969D02*
X174558628Y-104170112D01*
X174558628Y-104170112D02*
X174630057Y-104384398D01*
X176058628Y-105812969D02*
X176058628Y-104955826D01*
X176058628Y-105384397D02*
X174558628Y-105384397D01*
X174558628Y-105384397D02*
X174772914Y-105241540D01*
X174772914Y-105241540D02*
X174915771Y-105098683D01*
X174915771Y-105098683D02*
X174987200Y-104955826D01*
X175058628Y-107098683D02*
X176058628Y-107098683D01*
X174487200Y-106741540D02*
X175558628Y-106384397D01*
X175558628Y-106384397D02*
X175558628Y-107312968D01*
X174558628Y-108170111D02*
X174558628Y-108312968D01*
X174558628Y-108312968D02*
X174630057Y-108455825D01*
X174630057Y-108455825D02*
X174701485Y-108527254D01*
X174701485Y-108527254D02*
X174844342Y-108598682D01*
X174844342Y-108598682D02*
X175130057Y-108670111D01*
X175130057Y-108670111D02*
X175487200Y-108670111D01*
X175487200Y-108670111D02*
X175772914Y-108598682D01*
X175772914Y-108598682D02*
X175915771Y-108527254D01*
X175915771Y-108527254D02*
X175987200Y-108455825D01*
X175987200Y-108455825D02*
X176058628Y-108312968D01*
X176058628Y-108312968D02*
X176058628Y-108170111D01*
X176058628Y-108170111D02*
X175987200Y-108027254D01*
X175987200Y-108027254D02*
X175915771Y-107955825D01*
X175915771Y-107955825D02*
X175772914Y-107884396D01*
X175772914Y-107884396D02*
X175487200Y-107812968D01*
X175487200Y-107812968D02*
X175130057Y-107812968D01*
X175130057Y-107812968D02*
X174844342Y-107884396D01*
X174844342Y-107884396D02*
X174701485Y-107955825D01*
X174701485Y-107955825D02*
X174630057Y-108027254D01*
X174630057Y-108027254D02*
X174558628Y-108170111D01*
X176058628Y-110098682D02*
X176058628Y-109241539D01*
X176058628Y-109670110D02*
X174558628Y-109670110D01*
X174558628Y-109670110D02*
X174772914Y-109527253D01*
X174772914Y-109527253D02*
X174915771Y-109384396D01*
X174915771Y-109384396D02*
X174987200Y-109241539D01*
D11*
%TO.C,CON1*%
X131720000Y-107860000D03*
D12*
X134260000Y-107860000D03*
X136800000Y-107860000D03*
X139340000Y-107860000D03*
X141880000Y-107860000D03*
X144420000Y-107860000D03*
X146960000Y-107860000D03*
X149500000Y-107860000D03*
X149500000Y-85000000D03*
X146960000Y-85000000D03*
X144420000Y-85000000D03*
X141880000Y-85000000D03*
X139340000Y-85000000D03*
X136800000Y-85000000D03*
X134260000Y-85000000D03*
D13*
X131720000Y-85000000D03*
%TD*%
D14*
%TO.C,Shield1*%
X123449881Y-120702500D03*
X124719881Y-72442500D03*
D15*
X137419881Y-120702500D03*
D14*
X175519881Y-87682500D03*
X175519881Y-115622500D03*
D15*
X145039881Y-120702500D03*
X147579881Y-120702500D03*
X175646881Y-92762500D03*
X160279881Y-120702500D03*
X162819881Y-120702500D03*
X165359881Y-120702500D03*
X167899881Y-120702500D03*
X170439881Y-120702500D03*
X172979881Y-120702500D03*
X133355881Y-72442500D03*
X172979881Y-72442500D03*
X170439881Y-72442500D03*
X167899881Y-72442500D03*
X165359881Y-72442500D03*
X162819881Y-72442500D03*
X160279881Y-72442500D03*
X157739881Y-72442500D03*
X155199881Y-72442500D03*
X151135881Y-72442500D03*
X148595881Y-72442500D03*
X146055881Y-72442500D03*
X143515881Y-72442500D03*
X140975881Y-72442500D03*
X138435881Y-72442500D03*
D16*
X135895881Y-72442500D03*
X150119881Y-120702500D03*
X152659881Y-120702500D03*
X175646881Y-97842500D03*
D15*
X139959881Y-120702500D03*
X173106881Y-92762500D03*
X175646881Y-95302500D03*
X142499881Y-120702500D03*
X173106881Y-97842500D03*
X173106881Y-95302500D03*
X128275881Y-72442500D03*
X130815881Y-72442500D03*
X155199881Y-120702500D03*
%TD*%
M02*
