M48
; DRILL file {KiCad 8.0.7+1} date 2025-02-19T15:00:18+0100
; FORMAT={-:-/ absolute / inch / decimal}
; #@! TF.CreationDate,2025-02-19T15:00:18+01:00
; #@! TF.GenerationSoftware,Kicad,Pcbnew,8.0.7+1
; #@! TF.FileFunction,Plated,1,2,PTH
FMAT,2
INCH
; #@! TA.AperFunction,Plated,PTH,ViaDrill
T1C0.0236
; #@! TA.AperFunction,Plated,PTH,ComponentDrill
T2C0.0350
; #@! TA.AperFunction,Plated,PTH,ComponentDrill
T3C0.0400
%
G90
G05
T1
X4.7638Y-2.7953
X4.7638Y-3.1496
X4.7638Y-4.3307
X4.7638Y-4.8031
X5.026Y-3.4657
X5.0283Y-4.1055
X5.1083Y-3.1496
X5.1083Y-4.8031
X5.3839Y-3.4646
X5.4232Y-3.6713
X5.4236Y-3.8303
X5.4709Y-3.1587
X5.4969Y-4.0217
X5.4988Y-2.9772
X5.5909Y-2.9248
X5.6303Y-3.6031
X5.6417Y-4.0913
X5.6421Y-3.9248
X5.6429Y-4.1465
X5.6445Y-3.9854
X5.6445Y-4.0382
X5.6469Y-3.1472
X5.6811Y-3.7193
X5.6988Y-3.6031
X5.7087Y-3.9248
X5.7327Y-3.7193
X5.7776Y-3.1496
X5.7776Y-3.4646
X5.8106Y-2.9972
X5.8449Y-4.0382
X5.8455Y-4.0947
X5.8472Y-4.1465
X5.9138Y-3.9854
X5.935Y-3.7008
X5.9429Y-3.2476
X6.0138Y-3.8583
X6.0138Y-4.252
X6.0343Y-2.9421
X6.1252Y-3.1642
X6.2106Y-4.8031
X6.2862Y-3.2035
X6.2894Y-3.2677
X6.2894Y-4.252
X6.2945Y-3.8783
X6.6831Y-4.3307
X6.8406Y-3.2677
X6.9587Y-3.937
X6.9587Y-4.4094
X6.9587Y-4.685
T2
X5.1858Y-3.3465
X5.1858Y-4.2465
X5.2858Y-3.3465
X5.2858Y-4.2465
X5.3858Y-3.3465
X5.3858Y-4.2465
X5.4858Y-3.3465
X5.4858Y-4.2465
X5.5858Y-3.3465
X5.5858Y-4.2465
X5.6858Y-3.3465
X5.6858Y-4.2465
X5.7858Y-3.3465
X5.7858Y-4.2465
X5.8858Y-3.3465
X5.8858Y-4.2465
T3
X5.0502Y-2.8521
X5.1502Y-2.8521
X5.2502Y-2.8521
X5.3502Y-2.8521
X5.4102Y-4.7521
X5.4502Y-2.8521
X5.5102Y-4.7521
X5.5502Y-2.8521
X5.6102Y-4.7521
X5.6502Y-2.8521
X5.7102Y-4.7521
X5.7502Y-2.8521
X5.8102Y-4.7521
X5.8502Y-2.8521
X5.9102Y-4.7521
X5.9502Y-2.8521
X6.0102Y-4.7521
X6.1102Y-2.8521
X6.1102Y-4.7521
X6.2102Y-2.8521
X6.3102Y-2.8521
X6.3102Y-4.7521
X6.4102Y-2.8521
X6.4102Y-4.7521
X6.5102Y-2.8521
X6.5102Y-4.7521
X6.6102Y-2.8521
X6.6102Y-4.7521
X6.7102Y-2.8521
X6.7102Y-4.7521
X6.8102Y-2.8521
X6.8102Y-4.7521
X6.8152Y-3.6521
X6.8152Y-3.7521
X6.8152Y-3.8521
X6.9152Y-3.6521
X6.9152Y-3.7521
X6.9152Y-3.8521
M30
