%TF.GenerationSoftware,KiCad,Pcbnew,8.0.7+1*%
%TF.CreationDate,2025-02-19T15:00:17+01:00*%
%TF.ProjectId,ts14-arduino-shield,74733134-2d61-4726-9475-696e6f2d7368,rev?*%
%TF.SameCoordinates,Original*%
%TF.FileFunction,Drillmap*%
%TF.FilePolarity,Positive*%
%FSLAX45Y45*%
G04 Gerber Fmt 4.5, Leading zero omitted, Abs format (unit mm)*
G04 Created by KiCad (PCBNEW 8.0.7+1) date 2025-02-19 15:00:17*
%MOMM*%
%LPD*%
G01*
G04 APERTURE LIST*
%ADD10C,0.120000*%
%ADD11C,0.200000*%
%ADD12C,0.100000*%
%ADD13C,0.101600*%
G04 APERTURE END LIST*
D10*
X17525000Y-8300000D02*
X17800000Y-8575000D01*
X12000000Y-12300000D02*
X12000000Y-7000000D01*
X17425000Y-12300000D02*
X12000000Y-12300000D01*
X17400000Y-7000000D02*
X17525000Y-7125000D01*
X17800000Y-11925000D02*
X17425000Y-12300000D01*
X12000000Y-7000000D02*
X17400000Y-7000000D01*
X17800000Y-8575000D02*
X17800000Y-11925000D01*
X17525000Y-7125000D02*
X17525000Y-8300000D01*
D11*
D12*
X12070000Y-7070000D02*
X12130000Y-7130000D01*
X12130000Y-7070000D02*
X12070000Y-7130000D01*
X12070000Y-7970000D02*
X12130000Y-8030000D01*
X12130000Y-7970000D02*
X12070000Y-8030000D01*
X12070000Y-10970000D02*
X12130000Y-11030000D01*
X12130000Y-10970000D02*
X12070000Y-11030000D01*
X12070000Y-12170000D02*
X12130000Y-12230000D01*
X12130000Y-12170000D02*
X12070000Y-12230000D01*
X12736000Y-8773000D02*
X12796000Y-8833000D01*
X12796000Y-8773000D02*
X12736000Y-8833000D01*
X12742000Y-10398000D02*
X12802000Y-10458000D01*
X12802000Y-10398000D02*
X12742000Y-10458000D01*
X12945000Y-7970000D02*
X13005000Y-8030000D01*
X13005000Y-7970000D02*
X12945000Y-8030000D01*
X12945000Y-12170000D02*
X13005000Y-12230000D01*
X13005000Y-12170000D02*
X12945000Y-12230000D01*
X13645000Y-8770000D02*
X13705000Y-8830000D01*
X13705000Y-8770000D02*
X13645000Y-8830000D01*
X13745000Y-9295000D02*
X13805000Y-9355000D01*
X13805000Y-9295000D02*
X13745000Y-9355000D01*
X13746000Y-9699000D02*
X13806000Y-9759000D01*
X13806000Y-9699000D02*
X13746000Y-9759000D01*
X13866000Y-7993000D02*
X13926000Y-8053000D01*
X13926000Y-7993000D02*
X13866000Y-8053000D01*
X13932000Y-10185000D02*
X13992000Y-10245000D01*
X13992000Y-10185000D02*
X13932000Y-10245000D01*
X13937000Y-7532000D02*
X13997000Y-7592000D01*
X13997000Y-7532000D02*
X13937000Y-7592000D01*
X14171000Y-7399000D02*
X14231000Y-7459000D01*
X14231000Y-7399000D02*
X14171000Y-7459000D01*
X14271000Y-9122000D02*
X14331000Y-9182000D01*
X14331000Y-9122000D02*
X14271000Y-9182000D01*
X14300000Y-10362000D02*
X14360000Y-10422000D01*
X14360000Y-10362000D02*
X14300000Y-10422000D01*
X14301000Y-9939000D02*
X14361000Y-9999000D01*
X14361000Y-9939000D02*
X14301000Y-9999000D01*
X14303000Y-10502000D02*
X14363000Y-10562000D01*
X14363000Y-10502000D02*
X14303000Y-10562000D01*
X14307000Y-10093000D02*
X14367000Y-10153000D01*
X14367000Y-10093000D02*
X14307000Y-10153000D01*
X14307000Y-10227000D02*
X14367000Y-10287000D01*
X14367000Y-10227000D02*
X14307000Y-10287000D01*
X14313000Y-7964000D02*
X14373000Y-8024000D01*
X14373000Y-7964000D02*
X14313000Y-8024000D01*
X14400000Y-9417000D02*
X14460000Y-9477000D01*
X14460000Y-9417000D02*
X14400000Y-9477000D01*
X14445000Y-9122000D02*
X14505000Y-9182000D01*
X14505000Y-9122000D02*
X14445000Y-9182000D01*
X14470000Y-9939000D02*
X14530000Y-9999000D01*
X14530000Y-9939000D02*
X14470000Y-9999000D01*
X14531000Y-9417000D02*
X14591000Y-9477000D01*
X14591000Y-9417000D02*
X14531000Y-9477000D01*
X14645000Y-7970000D02*
X14705000Y-8030000D01*
X14705000Y-7970000D02*
X14645000Y-8030000D01*
X14645000Y-8770000D02*
X14705000Y-8830000D01*
X14705000Y-8770000D02*
X14645000Y-8830000D01*
X14729000Y-7583000D02*
X14789000Y-7643000D01*
X14789000Y-7583000D02*
X14729000Y-7643000D01*
X14816000Y-10227000D02*
X14876000Y-10287000D01*
X14876000Y-10227000D02*
X14816000Y-10287000D01*
X14817500Y-10370500D02*
X14877500Y-10430500D01*
X14877500Y-10370500D02*
X14817500Y-10430500D01*
X14822000Y-10502000D02*
X14882000Y-10562000D01*
X14882000Y-10502000D02*
X14822000Y-10562000D01*
X14991000Y-10093000D02*
X15051000Y-10153000D01*
X15051000Y-10093000D02*
X14991000Y-10153000D01*
X15045000Y-9370000D02*
X15105000Y-9430000D01*
X15105000Y-9370000D02*
X15045000Y-9430000D01*
X15065000Y-8219000D02*
X15125000Y-8279000D01*
X15125000Y-8219000D02*
X15065000Y-8279000D01*
X15245000Y-9770000D02*
X15305000Y-9830000D01*
X15305000Y-9770000D02*
X15245000Y-9830000D01*
X15245000Y-10770000D02*
X15305000Y-10830000D01*
X15305000Y-10770000D02*
X15245000Y-10830000D01*
X15297000Y-7443000D02*
X15357000Y-7503000D01*
X15357000Y-7443000D02*
X15297000Y-7503000D01*
X15528000Y-8007000D02*
X15588000Y-8067000D01*
X15588000Y-8007000D02*
X15528000Y-8067000D01*
X15745000Y-12170000D02*
X15805000Y-12230000D01*
X15805000Y-12170000D02*
X15745000Y-12230000D01*
X15937000Y-8107000D02*
X15997000Y-8167000D01*
X15997000Y-8107000D02*
X15937000Y-8167000D01*
X15945000Y-8270000D02*
X16005000Y-8330000D01*
X16005000Y-8270000D02*
X15945000Y-8330000D01*
X15945000Y-10770000D02*
X16005000Y-10830000D01*
X16005000Y-10770000D02*
X15945000Y-10830000D01*
X15958000Y-9821000D02*
X16018000Y-9881000D01*
X16018000Y-9821000D02*
X15958000Y-9881000D01*
X16945000Y-10970000D02*
X17005000Y-11030000D01*
X17005000Y-10970000D02*
X16945000Y-11030000D01*
X17345000Y-8270000D02*
X17405000Y-8330000D01*
X17405000Y-8270000D02*
X17345000Y-8330000D01*
X17645000Y-9970000D02*
X17705000Y-10030000D01*
X17705000Y-9970000D02*
X17645000Y-10030000D01*
X17645000Y-11170000D02*
X17705000Y-11230000D01*
X17705000Y-11170000D02*
X17645000Y-11230000D01*
X17645000Y-11870000D02*
X17705000Y-11930000D01*
X17705000Y-11870000D02*
X17645000Y-11930000D01*
X13216450Y-8500000D02*
G75*
G02*
X13127550Y-8500000I-44450J0D01*
G01*
X13127550Y-8500000D02*
G75*
G02*
X13216450Y-8500000I44450J0D01*
G01*
X13216450Y-10786000D02*
G75*
G02*
X13127550Y-10786000I-44450J0D01*
G01*
X13127550Y-10786000D02*
G75*
G02*
X13216450Y-10786000I44450J0D01*
G01*
X13470450Y-8500000D02*
G75*
G02*
X13381550Y-8500000I-44450J0D01*
G01*
X13381550Y-8500000D02*
G75*
G02*
X13470450Y-8500000I44450J0D01*
G01*
X13470450Y-10786000D02*
G75*
G02*
X13381550Y-10786000I-44450J0D01*
G01*
X13381550Y-10786000D02*
G75*
G02*
X13470450Y-10786000I44450J0D01*
G01*
X13724450Y-8500000D02*
G75*
G02*
X13635550Y-8500000I-44450J0D01*
G01*
X13635550Y-8500000D02*
G75*
G02*
X13724450Y-8500000I44450J0D01*
G01*
X13724450Y-10786000D02*
G75*
G02*
X13635550Y-10786000I-44450J0D01*
G01*
X13635550Y-10786000D02*
G75*
G02*
X13724450Y-10786000I44450J0D01*
G01*
X13978450Y-8500000D02*
G75*
G02*
X13889550Y-8500000I-44450J0D01*
G01*
X13889550Y-8500000D02*
G75*
G02*
X13978450Y-8500000I44450J0D01*
G01*
X13978450Y-10786000D02*
G75*
G02*
X13889550Y-10786000I-44450J0D01*
G01*
X13889550Y-10786000D02*
G75*
G02*
X13978450Y-10786000I44450J0D01*
G01*
X14232450Y-8500000D02*
G75*
G02*
X14143550Y-8500000I-44450J0D01*
G01*
X14143550Y-8500000D02*
G75*
G02*
X14232450Y-8500000I44450J0D01*
G01*
X14232450Y-10786000D02*
G75*
G02*
X14143550Y-10786000I-44450J0D01*
G01*
X14143550Y-10786000D02*
G75*
G02*
X14232450Y-10786000I44450J0D01*
G01*
X14486450Y-8500000D02*
G75*
G02*
X14397550Y-8500000I-44450J0D01*
G01*
X14397550Y-8500000D02*
G75*
G02*
X14486450Y-8500000I44450J0D01*
G01*
X14486450Y-10786000D02*
G75*
G02*
X14397550Y-10786000I-44450J0D01*
G01*
X14397550Y-10786000D02*
G75*
G02*
X14486450Y-10786000I44450J0D01*
G01*
X14740450Y-8500000D02*
G75*
G02*
X14651550Y-8500000I-44450J0D01*
G01*
X14651550Y-8500000D02*
G75*
G02*
X14740450Y-8500000I44450J0D01*
G01*
X14740450Y-10786000D02*
G75*
G02*
X14651550Y-10786000I-44450J0D01*
G01*
X14651550Y-10786000D02*
G75*
G02*
X14740450Y-10786000I44450J0D01*
G01*
X14994450Y-8500000D02*
G75*
G02*
X14905550Y-8500000I-44450J0D01*
G01*
X14905550Y-8500000D02*
G75*
G02*
X14994450Y-8500000I44450J0D01*
G01*
X14994450Y-10786000D02*
G75*
G02*
X14905550Y-10786000I-44450J0D01*
G01*
X14905550Y-10786000D02*
G75*
G02*
X14994450Y-10786000I44450J0D01*
G01*
D13*
X12827588Y-7193450D02*
X12827588Y-7295050D01*
X12776788Y-7244250D02*
X12878388Y-7244250D01*
X13081588Y-7193450D02*
X13081588Y-7295050D01*
X13030788Y-7244250D02*
X13132388Y-7244250D01*
X13335588Y-7193450D02*
X13335588Y-7295050D01*
X13284788Y-7244250D02*
X13386388Y-7244250D01*
X13589588Y-7193450D02*
X13589588Y-7295050D01*
X13538788Y-7244250D02*
X13640388Y-7244250D01*
X13741988Y-12019450D02*
X13741988Y-12121050D01*
X13691188Y-12070250D02*
X13792788Y-12070250D01*
X13843588Y-7193450D02*
X13843588Y-7295050D01*
X13792788Y-7244250D02*
X13894388Y-7244250D01*
X13995988Y-12019450D02*
X13995988Y-12121050D01*
X13945188Y-12070250D02*
X14046788Y-12070250D01*
X14097588Y-7193450D02*
X14097588Y-7295050D01*
X14046788Y-7244250D02*
X14148388Y-7244250D01*
X14249988Y-12019450D02*
X14249988Y-12121050D01*
X14199188Y-12070250D02*
X14300788Y-12070250D01*
X14351588Y-7193450D02*
X14351588Y-7295050D01*
X14300788Y-7244250D02*
X14402388Y-7244250D01*
X14503988Y-12019450D02*
X14503988Y-12121050D01*
X14453188Y-12070250D02*
X14554788Y-12070250D01*
X14605588Y-7193450D02*
X14605588Y-7295050D01*
X14554788Y-7244250D02*
X14656388Y-7244250D01*
X14757988Y-12019450D02*
X14757988Y-12121050D01*
X14707188Y-12070250D02*
X14808788Y-12070250D01*
X14859588Y-7193450D02*
X14859588Y-7295050D01*
X14808788Y-7244250D02*
X14910388Y-7244250D01*
X15011988Y-12019450D02*
X15011988Y-12121050D01*
X14961188Y-12070250D02*
X15062788Y-12070250D01*
X15113588Y-7193450D02*
X15113588Y-7295050D01*
X15062788Y-7244250D02*
X15164388Y-7244250D01*
X15265988Y-12019450D02*
X15265988Y-12121050D01*
X15215188Y-12070250D02*
X15316788Y-12070250D01*
X15519988Y-7193450D02*
X15519988Y-7295050D01*
X15469188Y-7244250D02*
X15570788Y-7244250D01*
X15519988Y-12019450D02*
X15519988Y-12121050D01*
X15469188Y-12070250D02*
X15570788Y-12070250D01*
X15773988Y-7193450D02*
X15773988Y-7295050D01*
X15723188Y-7244250D02*
X15824788Y-7244250D01*
X16027988Y-7193450D02*
X16027988Y-7295050D01*
X15977188Y-7244250D02*
X16078788Y-7244250D01*
X16027988Y-12019450D02*
X16027988Y-12121050D01*
X15977188Y-12070250D02*
X16078788Y-12070250D01*
X16281988Y-7193450D02*
X16281988Y-7295050D01*
X16231188Y-7244250D02*
X16332788Y-7244250D01*
X16281988Y-12019450D02*
X16281988Y-12121050D01*
X16231188Y-12070250D02*
X16332788Y-12070250D01*
X16535988Y-7193450D02*
X16535988Y-7295050D01*
X16485188Y-7244250D02*
X16586788Y-7244250D01*
X16535988Y-12019450D02*
X16535988Y-12121050D01*
X16485188Y-12070250D02*
X16586788Y-12070250D01*
X16789988Y-7193450D02*
X16789988Y-7295050D01*
X16739188Y-7244250D02*
X16840788Y-7244250D01*
X16789988Y-12019450D02*
X16789988Y-12121050D01*
X16739188Y-12070250D02*
X16840788Y-12070250D01*
X17043988Y-7193450D02*
X17043988Y-7295050D01*
X16993188Y-7244250D02*
X17094788Y-7244250D01*
X17043988Y-12019450D02*
X17043988Y-12121050D01*
X16993188Y-12070250D02*
X17094788Y-12070250D01*
X17297988Y-7193450D02*
X17297988Y-7295050D01*
X17247188Y-7244250D02*
X17348788Y-7244250D01*
X17297988Y-12019450D02*
X17297988Y-12121050D01*
X17247188Y-12070250D02*
X17348788Y-12070250D01*
X17310688Y-9225450D02*
X17310688Y-9327050D01*
X17259888Y-9276250D02*
X17361488Y-9276250D01*
X17310688Y-9479450D02*
X17310688Y-9581050D01*
X17259888Y-9530250D02*
X17361488Y-9530250D01*
X17310688Y-9733450D02*
X17310688Y-9835050D01*
X17259888Y-9784250D02*
X17361488Y-9784250D01*
X17564688Y-9225450D02*
X17564688Y-9327050D01*
X17513888Y-9276250D02*
X17615488Y-9276250D01*
X17564688Y-9479450D02*
X17564688Y-9581050D01*
X17513888Y-9530250D02*
X17615488Y-9530250D01*
X17564688Y-9733450D02*
X17564688Y-9835050D01*
X17513888Y-9784250D02*
X17615488Y-9784250D01*
D11*
X12254777Y-12617484D02*
X12254777Y-12417484D01*
X12254777Y-12417484D02*
X12302396Y-12417484D01*
X12302396Y-12417484D02*
X12330967Y-12427008D01*
X12330967Y-12427008D02*
X12350015Y-12446055D01*
X12350015Y-12446055D02*
X12359539Y-12465103D01*
X12359539Y-12465103D02*
X12369062Y-12503198D01*
X12369062Y-12503198D02*
X12369062Y-12531769D01*
X12369062Y-12531769D02*
X12359539Y-12569865D01*
X12359539Y-12569865D02*
X12350015Y-12588912D01*
X12350015Y-12588912D02*
X12330967Y-12607960D01*
X12330967Y-12607960D02*
X12302396Y-12617484D01*
X12302396Y-12617484D02*
X12254777Y-12617484D01*
X12454777Y-12617484D02*
X12454777Y-12484150D01*
X12454777Y-12522246D02*
X12464301Y-12503198D01*
X12464301Y-12503198D02*
X12473824Y-12493674D01*
X12473824Y-12493674D02*
X12492872Y-12484150D01*
X12492872Y-12484150D02*
X12511920Y-12484150D01*
X12578586Y-12617484D02*
X12578586Y-12484150D01*
X12578586Y-12417484D02*
X12569062Y-12427008D01*
X12569062Y-12427008D02*
X12578586Y-12436531D01*
X12578586Y-12436531D02*
X12588110Y-12427008D01*
X12588110Y-12427008D02*
X12578586Y-12417484D01*
X12578586Y-12417484D02*
X12578586Y-12436531D01*
X12702396Y-12617484D02*
X12683348Y-12607960D01*
X12683348Y-12607960D02*
X12673824Y-12588912D01*
X12673824Y-12588912D02*
X12673824Y-12417484D01*
X12807158Y-12617484D02*
X12788110Y-12607960D01*
X12788110Y-12607960D02*
X12778586Y-12588912D01*
X12778586Y-12588912D02*
X12778586Y-12417484D01*
X13035729Y-12617484D02*
X13035729Y-12417484D01*
X13035729Y-12417484D02*
X13102396Y-12560341D01*
X13102396Y-12560341D02*
X13169062Y-12417484D01*
X13169062Y-12417484D02*
X13169062Y-12617484D01*
X13350015Y-12617484D02*
X13350015Y-12512722D01*
X13350015Y-12512722D02*
X13340491Y-12493674D01*
X13340491Y-12493674D02*
X13321443Y-12484150D01*
X13321443Y-12484150D02*
X13283348Y-12484150D01*
X13283348Y-12484150D02*
X13264301Y-12493674D01*
X13350015Y-12607960D02*
X13330967Y-12617484D01*
X13330967Y-12617484D02*
X13283348Y-12617484D01*
X13283348Y-12617484D02*
X13264301Y-12607960D01*
X13264301Y-12607960D02*
X13254777Y-12588912D01*
X13254777Y-12588912D02*
X13254777Y-12569865D01*
X13254777Y-12569865D02*
X13264301Y-12550817D01*
X13264301Y-12550817D02*
X13283348Y-12541293D01*
X13283348Y-12541293D02*
X13330967Y-12541293D01*
X13330967Y-12541293D02*
X13350015Y-12531769D01*
X13445253Y-12484150D02*
X13445253Y-12684150D01*
X13445253Y-12493674D02*
X13464301Y-12484150D01*
X13464301Y-12484150D02*
X13502396Y-12484150D01*
X13502396Y-12484150D02*
X13521443Y-12493674D01*
X13521443Y-12493674D02*
X13530967Y-12503198D01*
X13530967Y-12503198D02*
X13540491Y-12522246D01*
X13540491Y-12522246D02*
X13540491Y-12579388D01*
X13540491Y-12579388D02*
X13530967Y-12598436D01*
X13530967Y-12598436D02*
X13521443Y-12607960D01*
X13521443Y-12607960D02*
X13502396Y-12617484D01*
X13502396Y-12617484D02*
X13464301Y-12617484D01*
X13464301Y-12617484D02*
X13445253Y-12607960D01*
X13626205Y-12598436D02*
X13635729Y-12607960D01*
X13635729Y-12607960D02*
X13626205Y-12617484D01*
X13626205Y-12617484D02*
X13616682Y-12607960D01*
X13616682Y-12607960D02*
X13626205Y-12598436D01*
X13626205Y-12598436D02*
X13626205Y-12617484D01*
X13626205Y-12493674D02*
X13635729Y-12503198D01*
X13635729Y-12503198D02*
X13626205Y-12512722D01*
X13626205Y-12512722D02*
X13616682Y-12503198D01*
X13616682Y-12503198D02*
X13626205Y-12493674D01*
X13626205Y-12493674D02*
X13626205Y-12512722D01*
D12*
X11934000Y-12916000D02*
X11994000Y-12976000D01*
X11994000Y-12916000D02*
X11934000Y-12976000D01*
D11*
X12292872Y-12837484D02*
X12311920Y-12837484D01*
X12311920Y-12837484D02*
X12330967Y-12847008D01*
X12330967Y-12847008D02*
X12340491Y-12856531D01*
X12340491Y-12856531D02*
X12350015Y-12875579D01*
X12350015Y-12875579D02*
X12359539Y-12913674D01*
X12359539Y-12913674D02*
X12359539Y-12961293D01*
X12359539Y-12961293D02*
X12350015Y-12999388D01*
X12350015Y-12999388D02*
X12340491Y-13018436D01*
X12340491Y-13018436D02*
X12330967Y-13027960D01*
X12330967Y-13027960D02*
X12311920Y-13037484D01*
X12311920Y-13037484D02*
X12292872Y-13037484D01*
X12292872Y-13037484D02*
X12273824Y-13027960D01*
X12273824Y-13027960D02*
X12264301Y-13018436D01*
X12264301Y-13018436D02*
X12254777Y-12999388D01*
X12254777Y-12999388D02*
X12245253Y-12961293D01*
X12245253Y-12961293D02*
X12245253Y-12913674D01*
X12245253Y-12913674D02*
X12254777Y-12875579D01*
X12254777Y-12875579D02*
X12264301Y-12856531D01*
X12264301Y-12856531D02*
X12273824Y-12847008D01*
X12273824Y-12847008D02*
X12292872Y-12837484D01*
X12445253Y-13018436D02*
X12454777Y-13027960D01*
X12454777Y-13027960D02*
X12445253Y-13037484D01*
X12445253Y-13037484D02*
X12435729Y-13027960D01*
X12435729Y-13027960D02*
X12445253Y-13018436D01*
X12445253Y-13018436D02*
X12445253Y-13037484D01*
X12626205Y-12837484D02*
X12588110Y-12837484D01*
X12588110Y-12837484D02*
X12569062Y-12847008D01*
X12569062Y-12847008D02*
X12559539Y-12856531D01*
X12559539Y-12856531D02*
X12540491Y-12885103D01*
X12540491Y-12885103D02*
X12530967Y-12923198D01*
X12530967Y-12923198D02*
X12530967Y-12999388D01*
X12530967Y-12999388D02*
X12540491Y-13018436D01*
X12540491Y-13018436D02*
X12550015Y-13027960D01*
X12550015Y-13027960D02*
X12569062Y-13037484D01*
X12569062Y-13037484D02*
X12607158Y-13037484D01*
X12607158Y-13037484D02*
X12626205Y-13027960D01*
X12626205Y-13027960D02*
X12635729Y-13018436D01*
X12635729Y-13018436D02*
X12645253Y-12999388D01*
X12645253Y-12999388D02*
X12645253Y-12951769D01*
X12645253Y-12951769D02*
X12635729Y-12932722D01*
X12635729Y-12932722D02*
X12626205Y-12923198D01*
X12626205Y-12923198D02*
X12607158Y-12913674D01*
X12607158Y-12913674D02*
X12569062Y-12913674D01*
X12569062Y-12913674D02*
X12550015Y-12923198D01*
X12550015Y-12923198D02*
X12540491Y-12932722D01*
X12540491Y-12932722D02*
X12530967Y-12951769D01*
X12769062Y-12837484D02*
X12788110Y-12837484D01*
X12788110Y-12837484D02*
X12807158Y-12847008D01*
X12807158Y-12847008D02*
X12816682Y-12856531D01*
X12816682Y-12856531D02*
X12826205Y-12875579D01*
X12826205Y-12875579D02*
X12835729Y-12913674D01*
X12835729Y-12913674D02*
X12835729Y-12961293D01*
X12835729Y-12961293D02*
X12826205Y-12999388D01*
X12826205Y-12999388D02*
X12816682Y-13018436D01*
X12816682Y-13018436D02*
X12807158Y-13027960D01*
X12807158Y-13027960D02*
X12788110Y-13037484D01*
X12788110Y-13037484D02*
X12769062Y-13037484D01*
X12769062Y-13037484D02*
X12750015Y-13027960D01*
X12750015Y-13027960D02*
X12740491Y-13018436D01*
X12740491Y-13018436D02*
X12730967Y-12999388D01*
X12730967Y-12999388D02*
X12721443Y-12961293D01*
X12721443Y-12961293D02*
X12721443Y-12913674D01*
X12721443Y-12913674D02*
X12730967Y-12875579D01*
X12730967Y-12875579D02*
X12740491Y-12856531D01*
X12740491Y-12856531D02*
X12750015Y-12847008D01*
X12750015Y-12847008D02*
X12769062Y-12837484D01*
X12959539Y-12837484D02*
X12978586Y-12837484D01*
X12978586Y-12837484D02*
X12997634Y-12847008D01*
X12997634Y-12847008D02*
X13007158Y-12856531D01*
X13007158Y-12856531D02*
X13016682Y-12875579D01*
X13016682Y-12875579D02*
X13026205Y-12913674D01*
X13026205Y-12913674D02*
X13026205Y-12961293D01*
X13026205Y-12961293D02*
X13016682Y-12999388D01*
X13016682Y-12999388D02*
X13007158Y-13018436D01*
X13007158Y-13018436D02*
X12997634Y-13027960D01*
X12997634Y-13027960D02*
X12978586Y-13037484D01*
X12978586Y-13037484D02*
X12959539Y-13037484D01*
X12959539Y-13037484D02*
X12940491Y-13027960D01*
X12940491Y-13027960D02*
X12930967Y-13018436D01*
X12930967Y-13018436D02*
X12921443Y-12999388D01*
X12921443Y-12999388D02*
X12911920Y-12961293D01*
X12911920Y-12961293D02*
X12911920Y-12913674D01*
X12911920Y-12913674D02*
X12921443Y-12875579D01*
X12921443Y-12875579D02*
X12930967Y-12856531D01*
X12930967Y-12856531D02*
X12940491Y-12847008D01*
X12940491Y-12847008D02*
X12959539Y-12837484D01*
X13111920Y-13037484D02*
X13111920Y-12904150D01*
X13111920Y-12923198D02*
X13121443Y-12913674D01*
X13121443Y-12913674D02*
X13140491Y-12904150D01*
X13140491Y-12904150D02*
X13169063Y-12904150D01*
X13169063Y-12904150D02*
X13188110Y-12913674D01*
X13188110Y-12913674D02*
X13197634Y-12932722D01*
X13197634Y-12932722D02*
X13197634Y-13037484D01*
X13197634Y-12932722D02*
X13207158Y-12913674D01*
X13207158Y-12913674D02*
X13226205Y-12904150D01*
X13226205Y-12904150D02*
X13254777Y-12904150D01*
X13254777Y-12904150D02*
X13273824Y-12913674D01*
X13273824Y-12913674D02*
X13283348Y-12932722D01*
X13283348Y-12932722D02*
X13283348Y-13037484D01*
X13378586Y-13037484D02*
X13378586Y-12904150D01*
X13378586Y-12923198D02*
X13388110Y-12913674D01*
X13388110Y-12913674D02*
X13407158Y-12904150D01*
X13407158Y-12904150D02*
X13435729Y-12904150D01*
X13435729Y-12904150D02*
X13454777Y-12913674D01*
X13454777Y-12913674D02*
X13464301Y-12932722D01*
X13464301Y-12932722D02*
X13464301Y-13037484D01*
X13464301Y-12932722D02*
X13473824Y-12913674D01*
X13473824Y-12913674D02*
X13492872Y-12904150D01*
X13492872Y-12904150D02*
X13521443Y-12904150D01*
X13521443Y-12904150D02*
X13540491Y-12913674D01*
X13540491Y-12913674D02*
X13550015Y-12932722D01*
X13550015Y-12932722D02*
X13550015Y-13037484D01*
X13940491Y-12827960D02*
X13769063Y-13085103D01*
X14197634Y-12837484D02*
X14216682Y-12837484D01*
X14216682Y-12837484D02*
X14235729Y-12847008D01*
X14235729Y-12847008D02*
X14245253Y-12856531D01*
X14245253Y-12856531D02*
X14254777Y-12875579D01*
X14254777Y-12875579D02*
X14264301Y-12913674D01*
X14264301Y-12913674D02*
X14264301Y-12961293D01*
X14264301Y-12961293D02*
X14254777Y-12999388D01*
X14254777Y-12999388D02*
X14245253Y-13018436D01*
X14245253Y-13018436D02*
X14235729Y-13027960D01*
X14235729Y-13027960D02*
X14216682Y-13037484D01*
X14216682Y-13037484D02*
X14197634Y-13037484D01*
X14197634Y-13037484D02*
X14178586Y-13027960D01*
X14178586Y-13027960D02*
X14169063Y-13018436D01*
X14169063Y-13018436D02*
X14159539Y-12999388D01*
X14159539Y-12999388D02*
X14150015Y-12961293D01*
X14150015Y-12961293D02*
X14150015Y-12913674D01*
X14150015Y-12913674D02*
X14159539Y-12875579D01*
X14159539Y-12875579D02*
X14169063Y-12856531D01*
X14169063Y-12856531D02*
X14178586Y-12847008D01*
X14178586Y-12847008D02*
X14197634Y-12837484D01*
X14350015Y-13018436D02*
X14359539Y-13027960D01*
X14359539Y-13027960D02*
X14350015Y-13037484D01*
X14350015Y-13037484D02*
X14340491Y-13027960D01*
X14340491Y-13027960D02*
X14350015Y-13018436D01*
X14350015Y-13018436D02*
X14350015Y-13037484D01*
X14483348Y-12837484D02*
X14502396Y-12837484D01*
X14502396Y-12837484D02*
X14521444Y-12847008D01*
X14521444Y-12847008D02*
X14530967Y-12856531D01*
X14530967Y-12856531D02*
X14540491Y-12875579D01*
X14540491Y-12875579D02*
X14550015Y-12913674D01*
X14550015Y-12913674D02*
X14550015Y-12961293D01*
X14550015Y-12961293D02*
X14540491Y-12999388D01*
X14540491Y-12999388D02*
X14530967Y-13018436D01*
X14530967Y-13018436D02*
X14521444Y-13027960D01*
X14521444Y-13027960D02*
X14502396Y-13037484D01*
X14502396Y-13037484D02*
X14483348Y-13037484D01*
X14483348Y-13037484D02*
X14464301Y-13027960D01*
X14464301Y-13027960D02*
X14454777Y-13018436D01*
X14454777Y-13018436D02*
X14445253Y-12999388D01*
X14445253Y-12999388D02*
X14435729Y-12961293D01*
X14435729Y-12961293D02*
X14435729Y-12913674D01*
X14435729Y-12913674D02*
X14445253Y-12875579D01*
X14445253Y-12875579D02*
X14454777Y-12856531D01*
X14454777Y-12856531D02*
X14464301Y-12847008D01*
X14464301Y-12847008D02*
X14483348Y-12837484D01*
X14626206Y-12856531D02*
X14635729Y-12847008D01*
X14635729Y-12847008D02*
X14654777Y-12837484D01*
X14654777Y-12837484D02*
X14702396Y-12837484D01*
X14702396Y-12837484D02*
X14721444Y-12847008D01*
X14721444Y-12847008D02*
X14730967Y-12856531D01*
X14730967Y-12856531D02*
X14740491Y-12875579D01*
X14740491Y-12875579D02*
X14740491Y-12894627D01*
X14740491Y-12894627D02*
X14730967Y-12923198D01*
X14730967Y-12923198D02*
X14616682Y-13037484D01*
X14616682Y-13037484D02*
X14740491Y-13037484D01*
X14807158Y-12837484D02*
X14930967Y-12837484D01*
X14930967Y-12837484D02*
X14864301Y-12913674D01*
X14864301Y-12913674D02*
X14892872Y-12913674D01*
X14892872Y-12913674D02*
X14911920Y-12923198D01*
X14911920Y-12923198D02*
X14921444Y-12932722D01*
X14921444Y-12932722D02*
X14930967Y-12951769D01*
X14930967Y-12951769D02*
X14930967Y-12999388D01*
X14930967Y-12999388D02*
X14921444Y-13018436D01*
X14921444Y-13018436D02*
X14911920Y-13027960D01*
X14911920Y-13027960D02*
X14892872Y-13037484D01*
X14892872Y-13037484D02*
X14835729Y-13037484D01*
X14835729Y-13037484D02*
X14816682Y-13027960D01*
X14816682Y-13027960D02*
X14807158Y-13018436D01*
X15102396Y-12837484D02*
X15064301Y-12837484D01*
X15064301Y-12837484D02*
X15045253Y-12847008D01*
X15045253Y-12847008D02*
X15035729Y-12856531D01*
X15035729Y-12856531D02*
X15016682Y-12885103D01*
X15016682Y-12885103D02*
X15007158Y-12923198D01*
X15007158Y-12923198D02*
X15007158Y-12999388D01*
X15007158Y-12999388D02*
X15016682Y-13018436D01*
X15016682Y-13018436D02*
X15026206Y-13027960D01*
X15026206Y-13027960D02*
X15045253Y-13037484D01*
X15045253Y-13037484D02*
X15083348Y-13037484D01*
X15083348Y-13037484D02*
X15102396Y-13027960D01*
X15102396Y-13027960D02*
X15111920Y-13018436D01*
X15111920Y-13018436D02*
X15121444Y-12999388D01*
X15121444Y-12999388D02*
X15121444Y-12951769D01*
X15121444Y-12951769D02*
X15111920Y-12932722D01*
X15111920Y-12932722D02*
X15102396Y-12923198D01*
X15102396Y-12923198D02*
X15083348Y-12913674D01*
X15083348Y-12913674D02*
X15045253Y-12913674D01*
X15045253Y-12913674D02*
X15026206Y-12923198D01*
X15026206Y-12923198D02*
X15016682Y-12932722D01*
X15016682Y-12932722D02*
X15007158Y-12951769D01*
X15197634Y-12837484D02*
X15197634Y-12875579D01*
X15273825Y-12837484D02*
X15273825Y-12875579D01*
X15569063Y-13113674D02*
X15559539Y-13104150D01*
X15559539Y-13104150D02*
X15540491Y-13075579D01*
X15540491Y-13075579D02*
X15530968Y-13056531D01*
X15530968Y-13056531D02*
X15521444Y-13027960D01*
X15521444Y-13027960D02*
X15511920Y-12980341D01*
X15511920Y-12980341D02*
X15511920Y-12942246D01*
X15511920Y-12942246D02*
X15521444Y-12894627D01*
X15521444Y-12894627D02*
X15530968Y-12866055D01*
X15530968Y-12866055D02*
X15540491Y-12847008D01*
X15540491Y-12847008D02*
X15559539Y-12818436D01*
X15559539Y-12818436D02*
X15569063Y-12808912D01*
X15730968Y-12904150D02*
X15730968Y-13037484D01*
X15683348Y-12827960D02*
X15635729Y-12970817D01*
X15635729Y-12970817D02*
X15759539Y-12970817D01*
X15845253Y-13037484D02*
X15883348Y-13037484D01*
X15883348Y-13037484D02*
X15902396Y-13027960D01*
X15902396Y-13027960D02*
X15911920Y-13018436D01*
X15911920Y-13018436D02*
X15930968Y-12989865D01*
X15930968Y-12989865D02*
X15940491Y-12951769D01*
X15940491Y-12951769D02*
X15940491Y-12875579D01*
X15940491Y-12875579D02*
X15930968Y-12856531D01*
X15930968Y-12856531D02*
X15921444Y-12847008D01*
X15921444Y-12847008D02*
X15902396Y-12837484D01*
X15902396Y-12837484D02*
X15864301Y-12837484D01*
X15864301Y-12837484D02*
X15845253Y-12847008D01*
X15845253Y-12847008D02*
X15835729Y-12856531D01*
X15835729Y-12856531D02*
X15826206Y-12875579D01*
X15826206Y-12875579D02*
X15826206Y-12923198D01*
X15826206Y-12923198D02*
X15835729Y-12942246D01*
X15835729Y-12942246D02*
X15845253Y-12951769D01*
X15845253Y-12951769D02*
X15864301Y-12961293D01*
X15864301Y-12961293D02*
X15902396Y-12961293D01*
X15902396Y-12961293D02*
X15921444Y-12951769D01*
X15921444Y-12951769D02*
X15930968Y-12942246D01*
X15930968Y-12942246D02*
X15940491Y-12923198D01*
X16178587Y-13037484D02*
X16178587Y-12837484D01*
X16264301Y-13037484D02*
X16264301Y-12932722D01*
X16264301Y-12932722D02*
X16254777Y-12913674D01*
X16254777Y-12913674D02*
X16235730Y-12904150D01*
X16235730Y-12904150D02*
X16207158Y-12904150D01*
X16207158Y-12904150D02*
X16188110Y-12913674D01*
X16188110Y-12913674D02*
X16178587Y-12923198D01*
X16388110Y-13037484D02*
X16369063Y-13027960D01*
X16369063Y-13027960D02*
X16359539Y-13018436D01*
X16359539Y-13018436D02*
X16350015Y-12999388D01*
X16350015Y-12999388D02*
X16350015Y-12942246D01*
X16350015Y-12942246D02*
X16359539Y-12923198D01*
X16359539Y-12923198D02*
X16369063Y-12913674D01*
X16369063Y-12913674D02*
X16388110Y-12904150D01*
X16388110Y-12904150D02*
X16416682Y-12904150D01*
X16416682Y-12904150D02*
X16435730Y-12913674D01*
X16435730Y-12913674D02*
X16445253Y-12923198D01*
X16445253Y-12923198D02*
X16454777Y-12942246D01*
X16454777Y-12942246D02*
X16454777Y-12999388D01*
X16454777Y-12999388D02*
X16445253Y-13018436D01*
X16445253Y-13018436D02*
X16435730Y-13027960D01*
X16435730Y-13027960D02*
X16416682Y-13037484D01*
X16416682Y-13037484D02*
X16388110Y-13037484D01*
X16569063Y-13037484D02*
X16550015Y-13027960D01*
X16550015Y-13027960D02*
X16540491Y-13008912D01*
X16540491Y-13008912D02*
X16540491Y-12837484D01*
X16721444Y-13027960D02*
X16702396Y-13037484D01*
X16702396Y-13037484D02*
X16664301Y-13037484D01*
X16664301Y-13037484D02*
X16645253Y-13027960D01*
X16645253Y-13027960D02*
X16635730Y-13008912D01*
X16635730Y-13008912D02*
X16635730Y-12932722D01*
X16635730Y-12932722D02*
X16645253Y-12913674D01*
X16645253Y-12913674D02*
X16664301Y-12904150D01*
X16664301Y-12904150D02*
X16702396Y-12904150D01*
X16702396Y-12904150D02*
X16721444Y-12913674D01*
X16721444Y-12913674D02*
X16730968Y-12932722D01*
X16730968Y-12932722D02*
X16730968Y-12951769D01*
X16730968Y-12951769D02*
X16635730Y-12970817D01*
X16807158Y-13027960D02*
X16826206Y-13037484D01*
X16826206Y-13037484D02*
X16864301Y-13037484D01*
X16864301Y-13037484D02*
X16883349Y-13027960D01*
X16883349Y-13027960D02*
X16892873Y-13008912D01*
X16892873Y-13008912D02*
X16892873Y-12999388D01*
X16892873Y-12999388D02*
X16883349Y-12980341D01*
X16883349Y-12980341D02*
X16864301Y-12970817D01*
X16864301Y-12970817D02*
X16835730Y-12970817D01*
X16835730Y-12970817D02*
X16816682Y-12961293D01*
X16816682Y-12961293D02*
X16807158Y-12942246D01*
X16807158Y-12942246D02*
X16807158Y-12932722D01*
X16807158Y-12932722D02*
X16816682Y-12913674D01*
X16816682Y-12913674D02*
X16835730Y-12904150D01*
X16835730Y-12904150D02*
X16864301Y-12904150D01*
X16864301Y-12904150D02*
X16883349Y-12913674D01*
X16959539Y-13113674D02*
X16969063Y-13104150D01*
X16969063Y-13104150D02*
X16988111Y-13075579D01*
X16988111Y-13075579D02*
X16997634Y-13056531D01*
X16997634Y-13056531D02*
X17007158Y-13027960D01*
X17007158Y-13027960D02*
X17016682Y-12980341D01*
X17016682Y-12980341D02*
X17016682Y-12942246D01*
X17016682Y-12942246D02*
X17007158Y-12894627D01*
X17007158Y-12894627D02*
X16997634Y-12866055D01*
X16997634Y-12866055D02*
X16988111Y-12847008D01*
X16988111Y-12847008D02*
X16969063Y-12818436D01*
X16969063Y-12818436D02*
X16959539Y-12808912D01*
D12*
X11994000Y-13210000D02*
G75*
G02*
X11905100Y-13210000I-44450J0D01*
G01*
X11905100Y-13210000D02*
G75*
G02*
X11994000Y-13210000I44450J0D01*
G01*
D11*
X12292872Y-13101484D02*
X12311920Y-13101484D01*
X12311920Y-13101484D02*
X12330967Y-13111008D01*
X12330967Y-13111008D02*
X12340491Y-13120531D01*
X12340491Y-13120531D02*
X12350015Y-13139579D01*
X12350015Y-13139579D02*
X12359539Y-13177674D01*
X12359539Y-13177674D02*
X12359539Y-13225293D01*
X12359539Y-13225293D02*
X12350015Y-13263388D01*
X12350015Y-13263388D02*
X12340491Y-13282436D01*
X12340491Y-13282436D02*
X12330967Y-13291960D01*
X12330967Y-13291960D02*
X12311920Y-13301484D01*
X12311920Y-13301484D02*
X12292872Y-13301484D01*
X12292872Y-13301484D02*
X12273824Y-13291960D01*
X12273824Y-13291960D02*
X12264301Y-13282436D01*
X12264301Y-13282436D02*
X12254777Y-13263388D01*
X12254777Y-13263388D02*
X12245253Y-13225293D01*
X12245253Y-13225293D02*
X12245253Y-13177674D01*
X12245253Y-13177674D02*
X12254777Y-13139579D01*
X12254777Y-13139579D02*
X12264301Y-13120531D01*
X12264301Y-13120531D02*
X12273824Y-13111008D01*
X12273824Y-13111008D02*
X12292872Y-13101484D01*
X12445253Y-13282436D02*
X12454777Y-13291960D01*
X12454777Y-13291960D02*
X12445253Y-13301484D01*
X12445253Y-13301484D02*
X12435729Y-13291960D01*
X12435729Y-13291960D02*
X12445253Y-13282436D01*
X12445253Y-13282436D02*
X12445253Y-13301484D01*
X12569062Y-13187198D02*
X12550015Y-13177674D01*
X12550015Y-13177674D02*
X12540491Y-13168150D01*
X12540491Y-13168150D02*
X12530967Y-13149103D01*
X12530967Y-13149103D02*
X12530967Y-13139579D01*
X12530967Y-13139579D02*
X12540491Y-13120531D01*
X12540491Y-13120531D02*
X12550015Y-13111008D01*
X12550015Y-13111008D02*
X12569062Y-13101484D01*
X12569062Y-13101484D02*
X12607158Y-13101484D01*
X12607158Y-13101484D02*
X12626205Y-13111008D01*
X12626205Y-13111008D02*
X12635729Y-13120531D01*
X12635729Y-13120531D02*
X12645253Y-13139579D01*
X12645253Y-13139579D02*
X12645253Y-13149103D01*
X12645253Y-13149103D02*
X12635729Y-13168150D01*
X12635729Y-13168150D02*
X12626205Y-13177674D01*
X12626205Y-13177674D02*
X12607158Y-13187198D01*
X12607158Y-13187198D02*
X12569062Y-13187198D01*
X12569062Y-13187198D02*
X12550015Y-13196722D01*
X12550015Y-13196722D02*
X12540491Y-13206246D01*
X12540491Y-13206246D02*
X12530967Y-13225293D01*
X12530967Y-13225293D02*
X12530967Y-13263388D01*
X12530967Y-13263388D02*
X12540491Y-13282436D01*
X12540491Y-13282436D02*
X12550015Y-13291960D01*
X12550015Y-13291960D02*
X12569062Y-13301484D01*
X12569062Y-13301484D02*
X12607158Y-13301484D01*
X12607158Y-13301484D02*
X12626205Y-13291960D01*
X12626205Y-13291960D02*
X12635729Y-13282436D01*
X12635729Y-13282436D02*
X12645253Y-13263388D01*
X12645253Y-13263388D02*
X12645253Y-13225293D01*
X12645253Y-13225293D02*
X12635729Y-13206246D01*
X12635729Y-13206246D02*
X12626205Y-13196722D01*
X12626205Y-13196722D02*
X12607158Y-13187198D01*
X12759539Y-13187198D02*
X12740491Y-13177674D01*
X12740491Y-13177674D02*
X12730967Y-13168150D01*
X12730967Y-13168150D02*
X12721443Y-13149103D01*
X12721443Y-13149103D02*
X12721443Y-13139579D01*
X12721443Y-13139579D02*
X12730967Y-13120531D01*
X12730967Y-13120531D02*
X12740491Y-13111008D01*
X12740491Y-13111008D02*
X12759539Y-13101484D01*
X12759539Y-13101484D02*
X12797634Y-13101484D01*
X12797634Y-13101484D02*
X12816682Y-13111008D01*
X12816682Y-13111008D02*
X12826205Y-13120531D01*
X12826205Y-13120531D02*
X12835729Y-13139579D01*
X12835729Y-13139579D02*
X12835729Y-13149103D01*
X12835729Y-13149103D02*
X12826205Y-13168150D01*
X12826205Y-13168150D02*
X12816682Y-13177674D01*
X12816682Y-13177674D02*
X12797634Y-13187198D01*
X12797634Y-13187198D02*
X12759539Y-13187198D01*
X12759539Y-13187198D02*
X12740491Y-13196722D01*
X12740491Y-13196722D02*
X12730967Y-13206246D01*
X12730967Y-13206246D02*
X12721443Y-13225293D01*
X12721443Y-13225293D02*
X12721443Y-13263388D01*
X12721443Y-13263388D02*
X12730967Y-13282436D01*
X12730967Y-13282436D02*
X12740491Y-13291960D01*
X12740491Y-13291960D02*
X12759539Y-13301484D01*
X12759539Y-13301484D02*
X12797634Y-13301484D01*
X12797634Y-13301484D02*
X12816682Y-13291960D01*
X12816682Y-13291960D02*
X12826205Y-13282436D01*
X12826205Y-13282436D02*
X12835729Y-13263388D01*
X12835729Y-13263388D02*
X12835729Y-13225293D01*
X12835729Y-13225293D02*
X12826205Y-13206246D01*
X12826205Y-13206246D02*
X12816682Y-13196722D01*
X12816682Y-13196722D02*
X12797634Y-13187198D01*
X12930967Y-13301484D02*
X12969062Y-13301484D01*
X12969062Y-13301484D02*
X12988110Y-13291960D01*
X12988110Y-13291960D02*
X12997634Y-13282436D01*
X12997634Y-13282436D02*
X13016682Y-13253865D01*
X13016682Y-13253865D02*
X13026205Y-13215769D01*
X13026205Y-13215769D02*
X13026205Y-13139579D01*
X13026205Y-13139579D02*
X13016682Y-13120531D01*
X13016682Y-13120531D02*
X13007158Y-13111008D01*
X13007158Y-13111008D02*
X12988110Y-13101484D01*
X12988110Y-13101484D02*
X12950015Y-13101484D01*
X12950015Y-13101484D02*
X12930967Y-13111008D01*
X12930967Y-13111008D02*
X12921443Y-13120531D01*
X12921443Y-13120531D02*
X12911920Y-13139579D01*
X12911920Y-13139579D02*
X12911920Y-13187198D01*
X12911920Y-13187198D02*
X12921443Y-13206246D01*
X12921443Y-13206246D02*
X12930967Y-13215769D01*
X12930967Y-13215769D02*
X12950015Y-13225293D01*
X12950015Y-13225293D02*
X12988110Y-13225293D01*
X12988110Y-13225293D02*
X13007158Y-13215769D01*
X13007158Y-13215769D02*
X13016682Y-13206246D01*
X13016682Y-13206246D02*
X13026205Y-13187198D01*
X13111920Y-13301484D02*
X13111920Y-13168150D01*
X13111920Y-13187198D02*
X13121443Y-13177674D01*
X13121443Y-13177674D02*
X13140491Y-13168150D01*
X13140491Y-13168150D02*
X13169063Y-13168150D01*
X13169063Y-13168150D02*
X13188110Y-13177674D01*
X13188110Y-13177674D02*
X13197634Y-13196722D01*
X13197634Y-13196722D02*
X13197634Y-13301484D01*
X13197634Y-13196722D02*
X13207158Y-13177674D01*
X13207158Y-13177674D02*
X13226205Y-13168150D01*
X13226205Y-13168150D02*
X13254777Y-13168150D01*
X13254777Y-13168150D02*
X13273824Y-13177674D01*
X13273824Y-13177674D02*
X13283348Y-13196722D01*
X13283348Y-13196722D02*
X13283348Y-13301484D01*
X13378586Y-13301484D02*
X13378586Y-13168150D01*
X13378586Y-13187198D02*
X13388110Y-13177674D01*
X13388110Y-13177674D02*
X13407158Y-13168150D01*
X13407158Y-13168150D02*
X13435729Y-13168150D01*
X13435729Y-13168150D02*
X13454777Y-13177674D01*
X13454777Y-13177674D02*
X13464301Y-13196722D01*
X13464301Y-13196722D02*
X13464301Y-13301484D01*
X13464301Y-13196722D02*
X13473824Y-13177674D01*
X13473824Y-13177674D02*
X13492872Y-13168150D01*
X13492872Y-13168150D02*
X13521443Y-13168150D01*
X13521443Y-13168150D02*
X13540491Y-13177674D01*
X13540491Y-13177674D02*
X13550015Y-13196722D01*
X13550015Y-13196722D02*
X13550015Y-13301484D01*
X13940491Y-13091960D02*
X13769063Y-13349103D01*
X14197634Y-13101484D02*
X14216682Y-13101484D01*
X14216682Y-13101484D02*
X14235729Y-13111008D01*
X14235729Y-13111008D02*
X14245253Y-13120531D01*
X14245253Y-13120531D02*
X14254777Y-13139579D01*
X14254777Y-13139579D02*
X14264301Y-13177674D01*
X14264301Y-13177674D02*
X14264301Y-13225293D01*
X14264301Y-13225293D02*
X14254777Y-13263388D01*
X14254777Y-13263388D02*
X14245253Y-13282436D01*
X14245253Y-13282436D02*
X14235729Y-13291960D01*
X14235729Y-13291960D02*
X14216682Y-13301484D01*
X14216682Y-13301484D02*
X14197634Y-13301484D01*
X14197634Y-13301484D02*
X14178586Y-13291960D01*
X14178586Y-13291960D02*
X14169063Y-13282436D01*
X14169063Y-13282436D02*
X14159539Y-13263388D01*
X14159539Y-13263388D02*
X14150015Y-13225293D01*
X14150015Y-13225293D02*
X14150015Y-13177674D01*
X14150015Y-13177674D02*
X14159539Y-13139579D01*
X14159539Y-13139579D02*
X14169063Y-13120531D01*
X14169063Y-13120531D02*
X14178586Y-13111008D01*
X14178586Y-13111008D02*
X14197634Y-13101484D01*
X14350015Y-13282436D02*
X14359539Y-13291960D01*
X14359539Y-13291960D02*
X14350015Y-13301484D01*
X14350015Y-13301484D02*
X14340491Y-13291960D01*
X14340491Y-13291960D02*
X14350015Y-13282436D01*
X14350015Y-13282436D02*
X14350015Y-13301484D01*
X14483348Y-13101484D02*
X14502396Y-13101484D01*
X14502396Y-13101484D02*
X14521444Y-13111008D01*
X14521444Y-13111008D02*
X14530967Y-13120531D01*
X14530967Y-13120531D02*
X14540491Y-13139579D01*
X14540491Y-13139579D02*
X14550015Y-13177674D01*
X14550015Y-13177674D02*
X14550015Y-13225293D01*
X14550015Y-13225293D02*
X14540491Y-13263388D01*
X14540491Y-13263388D02*
X14530967Y-13282436D01*
X14530967Y-13282436D02*
X14521444Y-13291960D01*
X14521444Y-13291960D02*
X14502396Y-13301484D01*
X14502396Y-13301484D02*
X14483348Y-13301484D01*
X14483348Y-13301484D02*
X14464301Y-13291960D01*
X14464301Y-13291960D02*
X14454777Y-13282436D01*
X14454777Y-13282436D02*
X14445253Y-13263388D01*
X14445253Y-13263388D02*
X14435729Y-13225293D01*
X14435729Y-13225293D02*
X14435729Y-13177674D01*
X14435729Y-13177674D02*
X14445253Y-13139579D01*
X14445253Y-13139579D02*
X14454777Y-13120531D01*
X14454777Y-13120531D02*
X14464301Y-13111008D01*
X14464301Y-13111008D02*
X14483348Y-13101484D01*
X14616682Y-13101484D02*
X14740491Y-13101484D01*
X14740491Y-13101484D02*
X14673825Y-13177674D01*
X14673825Y-13177674D02*
X14702396Y-13177674D01*
X14702396Y-13177674D02*
X14721444Y-13187198D01*
X14721444Y-13187198D02*
X14730967Y-13196722D01*
X14730967Y-13196722D02*
X14740491Y-13215769D01*
X14740491Y-13215769D02*
X14740491Y-13263388D01*
X14740491Y-13263388D02*
X14730967Y-13282436D01*
X14730967Y-13282436D02*
X14721444Y-13291960D01*
X14721444Y-13291960D02*
X14702396Y-13301484D01*
X14702396Y-13301484D02*
X14645253Y-13301484D01*
X14645253Y-13301484D02*
X14626206Y-13291960D01*
X14626206Y-13291960D02*
X14616682Y-13282436D01*
X14921444Y-13101484D02*
X14826206Y-13101484D01*
X14826206Y-13101484D02*
X14816682Y-13196722D01*
X14816682Y-13196722D02*
X14826206Y-13187198D01*
X14826206Y-13187198D02*
X14845253Y-13177674D01*
X14845253Y-13177674D02*
X14892872Y-13177674D01*
X14892872Y-13177674D02*
X14911920Y-13187198D01*
X14911920Y-13187198D02*
X14921444Y-13196722D01*
X14921444Y-13196722D02*
X14930967Y-13215769D01*
X14930967Y-13215769D02*
X14930967Y-13263388D01*
X14930967Y-13263388D02*
X14921444Y-13282436D01*
X14921444Y-13282436D02*
X14911920Y-13291960D01*
X14911920Y-13291960D02*
X14892872Y-13301484D01*
X14892872Y-13301484D02*
X14845253Y-13301484D01*
X14845253Y-13301484D02*
X14826206Y-13291960D01*
X14826206Y-13291960D02*
X14816682Y-13282436D01*
X15054777Y-13101484D02*
X15073825Y-13101484D01*
X15073825Y-13101484D02*
X15092872Y-13111008D01*
X15092872Y-13111008D02*
X15102396Y-13120531D01*
X15102396Y-13120531D02*
X15111920Y-13139579D01*
X15111920Y-13139579D02*
X15121444Y-13177674D01*
X15121444Y-13177674D02*
X15121444Y-13225293D01*
X15121444Y-13225293D02*
X15111920Y-13263388D01*
X15111920Y-13263388D02*
X15102396Y-13282436D01*
X15102396Y-13282436D02*
X15092872Y-13291960D01*
X15092872Y-13291960D02*
X15073825Y-13301484D01*
X15073825Y-13301484D02*
X15054777Y-13301484D01*
X15054777Y-13301484D02*
X15035729Y-13291960D01*
X15035729Y-13291960D02*
X15026206Y-13282436D01*
X15026206Y-13282436D02*
X15016682Y-13263388D01*
X15016682Y-13263388D02*
X15007158Y-13225293D01*
X15007158Y-13225293D02*
X15007158Y-13177674D01*
X15007158Y-13177674D02*
X15016682Y-13139579D01*
X15016682Y-13139579D02*
X15026206Y-13120531D01*
X15026206Y-13120531D02*
X15035729Y-13111008D01*
X15035729Y-13111008D02*
X15054777Y-13101484D01*
X15197634Y-13101484D02*
X15197634Y-13139579D01*
X15273825Y-13101484D02*
X15273825Y-13139579D01*
X15569063Y-13377674D02*
X15559539Y-13368150D01*
X15559539Y-13368150D02*
X15540491Y-13339579D01*
X15540491Y-13339579D02*
X15530968Y-13320531D01*
X15530968Y-13320531D02*
X15521444Y-13291960D01*
X15521444Y-13291960D02*
X15511920Y-13244341D01*
X15511920Y-13244341D02*
X15511920Y-13206246D01*
X15511920Y-13206246D02*
X15521444Y-13158627D01*
X15521444Y-13158627D02*
X15530968Y-13130055D01*
X15530968Y-13130055D02*
X15540491Y-13111008D01*
X15540491Y-13111008D02*
X15559539Y-13082436D01*
X15559539Y-13082436D02*
X15569063Y-13072912D01*
X15750015Y-13301484D02*
X15635729Y-13301484D01*
X15692872Y-13301484D02*
X15692872Y-13101484D01*
X15692872Y-13101484D02*
X15673825Y-13130055D01*
X15673825Y-13130055D02*
X15654777Y-13149103D01*
X15654777Y-13149103D02*
X15635729Y-13158627D01*
X15921444Y-13101484D02*
X15883348Y-13101484D01*
X15883348Y-13101484D02*
X15864301Y-13111008D01*
X15864301Y-13111008D02*
X15854777Y-13120531D01*
X15854777Y-13120531D02*
X15835729Y-13149103D01*
X15835729Y-13149103D02*
X15826206Y-13187198D01*
X15826206Y-13187198D02*
X15826206Y-13263388D01*
X15826206Y-13263388D02*
X15835729Y-13282436D01*
X15835729Y-13282436D02*
X15845253Y-13291960D01*
X15845253Y-13291960D02*
X15864301Y-13301484D01*
X15864301Y-13301484D02*
X15902396Y-13301484D01*
X15902396Y-13301484D02*
X15921444Y-13291960D01*
X15921444Y-13291960D02*
X15930968Y-13282436D01*
X15930968Y-13282436D02*
X15940491Y-13263388D01*
X15940491Y-13263388D02*
X15940491Y-13215769D01*
X15940491Y-13215769D02*
X15930968Y-13196722D01*
X15930968Y-13196722D02*
X15921444Y-13187198D01*
X15921444Y-13187198D02*
X15902396Y-13177674D01*
X15902396Y-13177674D02*
X15864301Y-13177674D01*
X15864301Y-13177674D02*
X15845253Y-13187198D01*
X15845253Y-13187198D02*
X15835729Y-13196722D01*
X15835729Y-13196722D02*
X15826206Y-13215769D01*
X16178587Y-13301484D02*
X16178587Y-13101484D01*
X16264301Y-13301484D02*
X16264301Y-13196722D01*
X16264301Y-13196722D02*
X16254777Y-13177674D01*
X16254777Y-13177674D02*
X16235730Y-13168150D01*
X16235730Y-13168150D02*
X16207158Y-13168150D01*
X16207158Y-13168150D02*
X16188110Y-13177674D01*
X16188110Y-13177674D02*
X16178587Y-13187198D01*
X16388110Y-13301484D02*
X16369063Y-13291960D01*
X16369063Y-13291960D02*
X16359539Y-13282436D01*
X16359539Y-13282436D02*
X16350015Y-13263388D01*
X16350015Y-13263388D02*
X16350015Y-13206246D01*
X16350015Y-13206246D02*
X16359539Y-13187198D01*
X16359539Y-13187198D02*
X16369063Y-13177674D01*
X16369063Y-13177674D02*
X16388110Y-13168150D01*
X16388110Y-13168150D02*
X16416682Y-13168150D01*
X16416682Y-13168150D02*
X16435730Y-13177674D01*
X16435730Y-13177674D02*
X16445253Y-13187198D01*
X16445253Y-13187198D02*
X16454777Y-13206246D01*
X16454777Y-13206246D02*
X16454777Y-13263388D01*
X16454777Y-13263388D02*
X16445253Y-13282436D01*
X16445253Y-13282436D02*
X16435730Y-13291960D01*
X16435730Y-13291960D02*
X16416682Y-13301484D01*
X16416682Y-13301484D02*
X16388110Y-13301484D01*
X16569063Y-13301484D02*
X16550015Y-13291960D01*
X16550015Y-13291960D02*
X16540491Y-13272912D01*
X16540491Y-13272912D02*
X16540491Y-13101484D01*
X16721444Y-13291960D02*
X16702396Y-13301484D01*
X16702396Y-13301484D02*
X16664301Y-13301484D01*
X16664301Y-13301484D02*
X16645253Y-13291960D01*
X16645253Y-13291960D02*
X16635730Y-13272912D01*
X16635730Y-13272912D02*
X16635730Y-13196722D01*
X16635730Y-13196722D02*
X16645253Y-13177674D01*
X16645253Y-13177674D02*
X16664301Y-13168150D01*
X16664301Y-13168150D02*
X16702396Y-13168150D01*
X16702396Y-13168150D02*
X16721444Y-13177674D01*
X16721444Y-13177674D02*
X16730968Y-13196722D01*
X16730968Y-13196722D02*
X16730968Y-13215769D01*
X16730968Y-13215769D02*
X16635730Y-13234817D01*
X16807158Y-13291960D02*
X16826206Y-13301484D01*
X16826206Y-13301484D02*
X16864301Y-13301484D01*
X16864301Y-13301484D02*
X16883349Y-13291960D01*
X16883349Y-13291960D02*
X16892873Y-13272912D01*
X16892873Y-13272912D02*
X16892873Y-13263388D01*
X16892873Y-13263388D02*
X16883349Y-13244341D01*
X16883349Y-13244341D02*
X16864301Y-13234817D01*
X16864301Y-13234817D02*
X16835730Y-13234817D01*
X16835730Y-13234817D02*
X16816682Y-13225293D01*
X16816682Y-13225293D02*
X16807158Y-13206246D01*
X16807158Y-13206246D02*
X16807158Y-13196722D01*
X16807158Y-13196722D02*
X16816682Y-13177674D01*
X16816682Y-13177674D02*
X16835730Y-13168150D01*
X16835730Y-13168150D02*
X16864301Y-13168150D01*
X16864301Y-13168150D02*
X16883349Y-13177674D01*
X16959539Y-13377674D02*
X16969063Y-13368150D01*
X16969063Y-13368150D02*
X16988111Y-13339579D01*
X16988111Y-13339579D02*
X16997634Y-13320531D01*
X16997634Y-13320531D02*
X17007158Y-13291960D01*
X17007158Y-13291960D02*
X17016682Y-13244341D01*
X17016682Y-13244341D02*
X17016682Y-13206246D01*
X17016682Y-13206246D02*
X17007158Y-13158627D01*
X17007158Y-13158627D02*
X16997634Y-13130055D01*
X16997634Y-13130055D02*
X16988111Y-13111008D01*
X16988111Y-13111008D02*
X16969063Y-13082436D01*
X16969063Y-13082436D02*
X16959539Y-13072912D01*
D13*
X11943200Y-13423200D02*
X11943200Y-13524800D01*
X11892400Y-13474000D02*
X11994000Y-13474000D01*
D11*
X12359539Y-13565484D02*
X12245253Y-13565484D01*
X12302396Y-13565484D02*
X12302396Y-13365484D01*
X12302396Y-13365484D02*
X12283348Y-13394055D01*
X12283348Y-13394055D02*
X12264301Y-13413103D01*
X12264301Y-13413103D02*
X12245253Y-13422627D01*
X12445253Y-13546436D02*
X12454777Y-13555960D01*
X12454777Y-13555960D02*
X12445253Y-13565484D01*
X12445253Y-13565484D02*
X12435729Y-13555960D01*
X12435729Y-13555960D02*
X12445253Y-13546436D01*
X12445253Y-13546436D02*
X12445253Y-13565484D01*
X12578586Y-13365484D02*
X12597634Y-13365484D01*
X12597634Y-13365484D02*
X12616682Y-13375008D01*
X12616682Y-13375008D02*
X12626205Y-13384531D01*
X12626205Y-13384531D02*
X12635729Y-13403579D01*
X12635729Y-13403579D02*
X12645253Y-13441674D01*
X12645253Y-13441674D02*
X12645253Y-13489293D01*
X12645253Y-13489293D02*
X12635729Y-13527388D01*
X12635729Y-13527388D02*
X12626205Y-13546436D01*
X12626205Y-13546436D02*
X12616682Y-13555960D01*
X12616682Y-13555960D02*
X12597634Y-13565484D01*
X12597634Y-13565484D02*
X12578586Y-13565484D01*
X12578586Y-13565484D02*
X12559539Y-13555960D01*
X12559539Y-13555960D02*
X12550015Y-13546436D01*
X12550015Y-13546436D02*
X12540491Y-13527388D01*
X12540491Y-13527388D02*
X12530967Y-13489293D01*
X12530967Y-13489293D02*
X12530967Y-13441674D01*
X12530967Y-13441674D02*
X12540491Y-13403579D01*
X12540491Y-13403579D02*
X12550015Y-13384531D01*
X12550015Y-13384531D02*
X12559539Y-13375008D01*
X12559539Y-13375008D02*
X12578586Y-13365484D01*
X12835729Y-13565484D02*
X12721443Y-13565484D01*
X12778586Y-13565484D02*
X12778586Y-13365484D01*
X12778586Y-13365484D02*
X12759539Y-13394055D01*
X12759539Y-13394055D02*
X12740491Y-13413103D01*
X12740491Y-13413103D02*
X12721443Y-13422627D01*
X13007158Y-13365484D02*
X12969062Y-13365484D01*
X12969062Y-13365484D02*
X12950015Y-13375008D01*
X12950015Y-13375008D02*
X12940491Y-13384531D01*
X12940491Y-13384531D02*
X12921443Y-13413103D01*
X12921443Y-13413103D02*
X12911920Y-13451198D01*
X12911920Y-13451198D02*
X12911920Y-13527388D01*
X12911920Y-13527388D02*
X12921443Y-13546436D01*
X12921443Y-13546436D02*
X12930967Y-13555960D01*
X12930967Y-13555960D02*
X12950015Y-13565484D01*
X12950015Y-13565484D02*
X12988110Y-13565484D01*
X12988110Y-13565484D02*
X13007158Y-13555960D01*
X13007158Y-13555960D02*
X13016682Y-13546436D01*
X13016682Y-13546436D02*
X13026205Y-13527388D01*
X13026205Y-13527388D02*
X13026205Y-13479769D01*
X13026205Y-13479769D02*
X13016682Y-13460722D01*
X13016682Y-13460722D02*
X13007158Y-13451198D01*
X13007158Y-13451198D02*
X12988110Y-13441674D01*
X12988110Y-13441674D02*
X12950015Y-13441674D01*
X12950015Y-13441674D02*
X12930967Y-13451198D01*
X12930967Y-13451198D02*
X12921443Y-13460722D01*
X12921443Y-13460722D02*
X12911920Y-13479769D01*
X13111920Y-13565484D02*
X13111920Y-13432150D01*
X13111920Y-13451198D02*
X13121443Y-13441674D01*
X13121443Y-13441674D02*
X13140491Y-13432150D01*
X13140491Y-13432150D02*
X13169063Y-13432150D01*
X13169063Y-13432150D02*
X13188110Y-13441674D01*
X13188110Y-13441674D02*
X13197634Y-13460722D01*
X13197634Y-13460722D02*
X13197634Y-13565484D01*
X13197634Y-13460722D02*
X13207158Y-13441674D01*
X13207158Y-13441674D02*
X13226205Y-13432150D01*
X13226205Y-13432150D02*
X13254777Y-13432150D01*
X13254777Y-13432150D02*
X13273824Y-13441674D01*
X13273824Y-13441674D02*
X13283348Y-13460722D01*
X13283348Y-13460722D02*
X13283348Y-13565484D01*
X13378586Y-13565484D02*
X13378586Y-13432150D01*
X13378586Y-13451198D02*
X13388110Y-13441674D01*
X13388110Y-13441674D02*
X13407158Y-13432150D01*
X13407158Y-13432150D02*
X13435729Y-13432150D01*
X13435729Y-13432150D02*
X13454777Y-13441674D01*
X13454777Y-13441674D02*
X13464301Y-13460722D01*
X13464301Y-13460722D02*
X13464301Y-13565484D01*
X13464301Y-13460722D02*
X13473824Y-13441674D01*
X13473824Y-13441674D02*
X13492872Y-13432150D01*
X13492872Y-13432150D02*
X13521443Y-13432150D01*
X13521443Y-13432150D02*
X13540491Y-13441674D01*
X13540491Y-13441674D02*
X13550015Y-13460722D01*
X13550015Y-13460722D02*
X13550015Y-13565484D01*
X13940491Y-13355960D02*
X13769063Y-13613103D01*
X14197634Y-13365484D02*
X14216682Y-13365484D01*
X14216682Y-13365484D02*
X14235729Y-13375008D01*
X14235729Y-13375008D02*
X14245253Y-13384531D01*
X14245253Y-13384531D02*
X14254777Y-13403579D01*
X14254777Y-13403579D02*
X14264301Y-13441674D01*
X14264301Y-13441674D02*
X14264301Y-13489293D01*
X14264301Y-13489293D02*
X14254777Y-13527388D01*
X14254777Y-13527388D02*
X14245253Y-13546436D01*
X14245253Y-13546436D02*
X14235729Y-13555960D01*
X14235729Y-13555960D02*
X14216682Y-13565484D01*
X14216682Y-13565484D02*
X14197634Y-13565484D01*
X14197634Y-13565484D02*
X14178586Y-13555960D01*
X14178586Y-13555960D02*
X14169063Y-13546436D01*
X14169063Y-13546436D02*
X14159539Y-13527388D01*
X14159539Y-13527388D02*
X14150015Y-13489293D01*
X14150015Y-13489293D02*
X14150015Y-13441674D01*
X14150015Y-13441674D02*
X14159539Y-13403579D01*
X14159539Y-13403579D02*
X14169063Y-13384531D01*
X14169063Y-13384531D02*
X14178586Y-13375008D01*
X14178586Y-13375008D02*
X14197634Y-13365484D01*
X14350015Y-13546436D02*
X14359539Y-13555960D01*
X14359539Y-13555960D02*
X14350015Y-13565484D01*
X14350015Y-13565484D02*
X14340491Y-13555960D01*
X14340491Y-13555960D02*
X14350015Y-13546436D01*
X14350015Y-13546436D02*
X14350015Y-13565484D01*
X14483348Y-13365484D02*
X14502396Y-13365484D01*
X14502396Y-13365484D02*
X14521444Y-13375008D01*
X14521444Y-13375008D02*
X14530967Y-13384531D01*
X14530967Y-13384531D02*
X14540491Y-13403579D01*
X14540491Y-13403579D02*
X14550015Y-13441674D01*
X14550015Y-13441674D02*
X14550015Y-13489293D01*
X14550015Y-13489293D02*
X14540491Y-13527388D01*
X14540491Y-13527388D02*
X14530967Y-13546436D01*
X14530967Y-13546436D02*
X14521444Y-13555960D01*
X14521444Y-13555960D02*
X14502396Y-13565484D01*
X14502396Y-13565484D02*
X14483348Y-13565484D01*
X14483348Y-13565484D02*
X14464301Y-13555960D01*
X14464301Y-13555960D02*
X14454777Y-13546436D01*
X14454777Y-13546436D02*
X14445253Y-13527388D01*
X14445253Y-13527388D02*
X14435729Y-13489293D01*
X14435729Y-13489293D02*
X14435729Y-13441674D01*
X14435729Y-13441674D02*
X14445253Y-13403579D01*
X14445253Y-13403579D02*
X14454777Y-13384531D01*
X14454777Y-13384531D02*
X14464301Y-13375008D01*
X14464301Y-13375008D02*
X14483348Y-13365484D01*
X14721444Y-13432150D02*
X14721444Y-13565484D01*
X14673825Y-13355960D02*
X14626206Y-13498817D01*
X14626206Y-13498817D02*
X14750015Y-13498817D01*
X14864301Y-13365484D02*
X14883348Y-13365484D01*
X14883348Y-13365484D02*
X14902396Y-13375008D01*
X14902396Y-13375008D02*
X14911920Y-13384531D01*
X14911920Y-13384531D02*
X14921444Y-13403579D01*
X14921444Y-13403579D02*
X14930967Y-13441674D01*
X14930967Y-13441674D02*
X14930967Y-13489293D01*
X14930967Y-13489293D02*
X14921444Y-13527388D01*
X14921444Y-13527388D02*
X14911920Y-13546436D01*
X14911920Y-13546436D02*
X14902396Y-13555960D01*
X14902396Y-13555960D02*
X14883348Y-13565484D01*
X14883348Y-13565484D02*
X14864301Y-13565484D01*
X14864301Y-13565484D02*
X14845253Y-13555960D01*
X14845253Y-13555960D02*
X14835729Y-13546436D01*
X14835729Y-13546436D02*
X14826206Y-13527388D01*
X14826206Y-13527388D02*
X14816682Y-13489293D01*
X14816682Y-13489293D02*
X14816682Y-13441674D01*
X14816682Y-13441674D02*
X14826206Y-13403579D01*
X14826206Y-13403579D02*
X14835729Y-13384531D01*
X14835729Y-13384531D02*
X14845253Y-13375008D01*
X14845253Y-13375008D02*
X14864301Y-13365484D01*
X15054777Y-13365484D02*
X15073825Y-13365484D01*
X15073825Y-13365484D02*
X15092872Y-13375008D01*
X15092872Y-13375008D02*
X15102396Y-13384531D01*
X15102396Y-13384531D02*
X15111920Y-13403579D01*
X15111920Y-13403579D02*
X15121444Y-13441674D01*
X15121444Y-13441674D02*
X15121444Y-13489293D01*
X15121444Y-13489293D02*
X15111920Y-13527388D01*
X15111920Y-13527388D02*
X15102396Y-13546436D01*
X15102396Y-13546436D02*
X15092872Y-13555960D01*
X15092872Y-13555960D02*
X15073825Y-13565484D01*
X15073825Y-13565484D02*
X15054777Y-13565484D01*
X15054777Y-13565484D02*
X15035729Y-13555960D01*
X15035729Y-13555960D02*
X15026206Y-13546436D01*
X15026206Y-13546436D02*
X15016682Y-13527388D01*
X15016682Y-13527388D02*
X15007158Y-13489293D01*
X15007158Y-13489293D02*
X15007158Y-13441674D01*
X15007158Y-13441674D02*
X15016682Y-13403579D01*
X15016682Y-13403579D02*
X15026206Y-13384531D01*
X15026206Y-13384531D02*
X15035729Y-13375008D01*
X15035729Y-13375008D02*
X15054777Y-13365484D01*
X15197634Y-13365484D02*
X15197634Y-13403579D01*
X15273825Y-13365484D02*
X15273825Y-13403579D01*
X15569063Y-13641674D02*
X15559539Y-13632150D01*
X15559539Y-13632150D02*
X15540491Y-13603579D01*
X15540491Y-13603579D02*
X15530968Y-13584531D01*
X15530968Y-13584531D02*
X15521444Y-13555960D01*
X15521444Y-13555960D02*
X15511920Y-13508341D01*
X15511920Y-13508341D02*
X15511920Y-13470246D01*
X15511920Y-13470246D02*
X15521444Y-13422627D01*
X15521444Y-13422627D02*
X15530968Y-13394055D01*
X15530968Y-13394055D02*
X15540491Y-13375008D01*
X15540491Y-13375008D02*
X15559539Y-13346436D01*
X15559539Y-13346436D02*
X15569063Y-13336912D01*
X15626206Y-13365484D02*
X15750015Y-13365484D01*
X15750015Y-13365484D02*
X15683348Y-13441674D01*
X15683348Y-13441674D02*
X15711920Y-13441674D01*
X15711920Y-13441674D02*
X15730968Y-13451198D01*
X15730968Y-13451198D02*
X15740491Y-13460722D01*
X15740491Y-13460722D02*
X15750015Y-13479769D01*
X15750015Y-13479769D02*
X15750015Y-13527388D01*
X15750015Y-13527388D02*
X15740491Y-13546436D01*
X15740491Y-13546436D02*
X15730968Y-13555960D01*
X15730968Y-13555960D02*
X15711920Y-13565484D01*
X15711920Y-13565484D02*
X15654777Y-13565484D01*
X15654777Y-13565484D02*
X15635729Y-13555960D01*
X15635729Y-13555960D02*
X15626206Y-13546436D01*
X15864301Y-13451198D02*
X15845253Y-13441674D01*
X15845253Y-13441674D02*
X15835729Y-13432150D01*
X15835729Y-13432150D02*
X15826206Y-13413103D01*
X15826206Y-13413103D02*
X15826206Y-13403579D01*
X15826206Y-13403579D02*
X15835729Y-13384531D01*
X15835729Y-13384531D02*
X15845253Y-13375008D01*
X15845253Y-13375008D02*
X15864301Y-13365484D01*
X15864301Y-13365484D02*
X15902396Y-13365484D01*
X15902396Y-13365484D02*
X15921444Y-13375008D01*
X15921444Y-13375008D02*
X15930968Y-13384531D01*
X15930968Y-13384531D02*
X15940491Y-13403579D01*
X15940491Y-13403579D02*
X15940491Y-13413103D01*
X15940491Y-13413103D02*
X15930968Y-13432150D01*
X15930968Y-13432150D02*
X15921444Y-13441674D01*
X15921444Y-13441674D02*
X15902396Y-13451198D01*
X15902396Y-13451198D02*
X15864301Y-13451198D01*
X15864301Y-13451198D02*
X15845253Y-13460722D01*
X15845253Y-13460722D02*
X15835729Y-13470246D01*
X15835729Y-13470246D02*
X15826206Y-13489293D01*
X15826206Y-13489293D02*
X15826206Y-13527388D01*
X15826206Y-13527388D02*
X15835729Y-13546436D01*
X15835729Y-13546436D02*
X15845253Y-13555960D01*
X15845253Y-13555960D02*
X15864301Y-13565484D01*
X15864301Y-13565484D02*
X15902396Y-13565484D01*
X15902396Y-13565484D02*
X15921444Y-13555960D01*
X15921444Y-13555960D02*
X15930968Y-13546436D01*
X15930968Y-13546436D02*
X15940491Y-13527388D01*
X15940491Y-13527388D02*
X15940491Y-13489293D01*
X15940491Y-13489293D02*
X15930968Y-13470246D01*
X15930968Y-13470246D02*
X15921444Y-13460722D01*
X15921444Y-13460722D02*
X15902396Y-13451198D01*
X16178587Y-13565484D02*
X16178587Y-13365484D01*
X16264301Y-13565484D02*
X16264301Y-13460722D01*
X16264301Y-13460722D02*
X16254777Y-13441674D01*
X16254777Y-13441674D02*
X16235730Y-13432150D01*
X16235730Y-13432150D02*
X16207158Y-13432150D01*
X16207158Y-13432150D02*
X16188110Y-13441674D01*
X16188110Y-13441674D02*
X16178587Y-13451198D01*
X16388110Y-13565484D02*
X16369063Y-13555960D01*
X16369063Y-13555960D02*
X16359539Y-13546436D01*
X16359539Y-13546436D02*
X16350015Y-13527388D01*
X16350015Y-13527388D02*
X16350015Y-13470246D01*
X16350015Y-13470246D02*
X16359539Y-13451198D01*
X16359539Y-13451198D02*
X16369063Y-13441674D01*
X16369063Y-13441674D02*
X16388110Y-13432150D01*
X16388110Y-13432150D02*
X16416682Y-13432150D01*
X16416682Y-13432150D02*
X16435730Y-13441674D01*
X16435730Y-13441674D02*
X16445253Y-13451198D01*
X16445253Y-13451198D02*
X16454777Y-13470246D01*
X16454777Y-13470246D02*
X16454777Y-13527388D01*
X16454777Y-13527388D02*
X16445253Y-13546436D01*
X16445253Y-13546436D02*
X16435730Y-13555960D01*
X16435730Y-13555960D02*
X16416682Y-13565484D01*
X16416682Y-13565484D02*
X16388110Y-13565484D01*
X16569063Y-13565484D02*
X16550015Y-13555960D01*
X16550015Y-13555960D02*
X16540491Y-13536912D01*
X16540491Y-13536912D02*
X16540491Y-13365484D01*
X16721444Y-13555960D02*
X16702396Y-13565484D01*
X16702396Y-13565484D02*
X16664301Y-13565484D01*
X16664301Y-13565484D02*
X16645253Y-13555960D01*
X16645253Y-13555960D02*
X16635730Y-13536912D01*
X16635730Y-13536912D02*
X16635730Y-13460722D01*
X16635730Y-13460722D02*
X16645253Y-13441674D01*
X16645253Y-13441674D02*
X16664301Y-13432150D01*
X16664301Y-13432150D02*
X16702396Y-13432150D01*
X16702396Y-13432150D02*
X16721444Y-13441674D01*
X16721444Y-13441674D02*
X16730968Y-13460722D01*
X16730968Y-13460722D02*
X16730968Y-13479769D01*
X16730968Y-13479769D02*
X16635730Y-13498817D01*
X16807158Y-13555960D02*
X16826206Y-13565484D01*
X16826206Y-13565484D02*
X16864301Y-13565484D01*
X16864301Y-13565484D02*
X16883349Y-13555960D01*
X16883349Y-13555960D02*
X16892873Y-13536912D01*
X16892873Y-13536912D02*
X16892873Y-13527388D01*
X16892873Y-13527388D02*
X16883349Y-13508341D01*
X16883349Y-13508341D02*
X16864301Y-13498817D01*
X16864301Y-13498817D02*
X16835730Y-13498817D01*
X16835730Y-13498817D02*
X16816682Y-13489293D01*
X16816682Y-13489293D02*
X16807158Y-13470246D01*
X16807158Y-13470246D02*
X16807158Y-13460722D01*
X16807158Y-13460722D02*
X16816682Y-13441674D01*
X16816682Y-13441674D02*
X16835730Y-13432150D01*
X16835730Y-13432150D02*
X16864301Y-13432150D01*
X16864301Y-13432150D02*
X16883349Y-13441674D01*
X16959539Y-13641674D02*
X16969063Y-13632150D01*
X16969063Y-13632150D02*
X16988111Y-13603579D01*
X16988111Y-13603579D02*
X16997634Y-13584531D01*
X16997634Y-13584531D02*
X17007158Y-13555960D01*
X17007158Y-13555960D02*
X17016682Y-13508341D01*
X17016682Y-13508341D02*
X17016682Y-13470246D01*
X17016682Y-13470246D02*
X17007158Y-13422627D01*
X17007158Y-13422627D02*
X16997634Y-13394055D01*
X16997634Y-13394055D02*
X16988111Y-13375008D01*
X16988111Y-13375008D02*
X16969063Y-13346436D01*
X16969063Y-13346436D02*
X16959539Y-13336912D01*
M02*
