%TF.GenerationSoftware,KiCad,Pcbnew,8.0.7+1*%
%TF.CreationDate,2025-02-19T15:00:20+01:00*%
%TF.ProjectId,ts14-arduino-shield,74733134-2d61-4726-9475-696e6f2d7368,rev?*%
%TF.SameCoordinates,Original*%
%TF.FileFunction,Soldermask,Top*%
%TF.FilePolarity,Negative*%
%FSLAX46Y46*%
G04 Gerber Fmt 4.6, Leading zero omitted, Abs format (unit mm)*
G04 Created by KiCad (PCBNEW 8.0.7+1) date 2025-02-19 15:00:20*
%MOMM*%
%LPD*%
G01*
G04 APERTURE LIST*
G04 Aperture macros list*
%AMRoundRect*
0 Rectangle with rounded corners*
0 $1 Rounding radius*
0 $2 $3 $4 $5 $6 $7 $8 $9 X,Y pos of 4 corners*
0 Add a 4 corners polygon primitive as box body*
4,1,4,$2,$3,$4,$5,$6,$7,$8,$9,$2,$3,0*
0 Add four circle primitives for the rounded corners*
1,1,$1+$1,$2,$3*
1,1,$1+$1,$4,$5*
1,1,$1+$1,$6,$7*
1,1,$1+$1,$8,$9*
0 Add four rect primitives between the rounded corners*
20,1,$1+$1,$2,$3,$4,$5,0*
20,1,$1+$1,$4,$5,$6,$7,0*
20,1,$1+$1,$6,$7,$8,$9,0*
20,1,$1+$1,$8,$9,$2,$3,0*%
%AMFreePoly0*
4,1,19,0.500000,-0.750000,0.000000,-0.750000,0.000000,-0.744911,-0.071157,-0.744911,-0.207708,-0.704816,-0.327430,-0.627875,-0.420627,-0.520320,-0.479746,-0.390866,-0.500000,-0.250000,-0.500000,0.250000,-0.479746,0.390866,-0.420627,0.520320,-0.327430,0.627875,-0.207708,0.704816,-0.071157,0.744911,0.000000,0.744911,0.000000,0.750000,0.500000,0.750000,0.500000,-0.750000,0.500000,-0.750000,
$1*%
%AMFreePoly1*
4,1,19,0.000000,0.744911,0.071157,0.744911,0.207708,0.704816,0.327430,0.627875,0.420627,0.520320,0.479746,0.390866,0.500000,0.250000,0.500000,-0.250000,0.479746,-0.390866,0.420627,-0.520320,0.327430,-0.627875,0.207708,-0.704816,0.071157,-0.744911,0.000000,-0.744911,0.000000,-0.750000,-0.500000,-0.750000,-0.500000,0.750000,0.000000,0.750000,0.000000,0.744911,0.000000,0.744911,
$1*%
%AMFreePoly2*
4,1,14,0.314644,0.085355,0.385355,0.014644,0.400000,-0.020711,0.400000,-0.050000,0.385355,-0.085355,0.350000,-0.100000,-0.350000,-0.100000,-0.385355,-0.085355,-0.400000,-0.050000,-0.400000,0.050000,-0.385355,0.085355,-0.350000,0.100000,0.279289,0.100000,0.314644,0.085355,0.314644,0.085355,$1*%
%AMFreePoly3*
4,1,14,0.385355,0.085355,0.400000,0.050000,0.400000,0.020711,0.385355,-0.014644,0.314644,-0.085355,0.279289,-0.100000,-0.350000,-0.100000,-0.385355,-0.085355,-0.400000,-0.050000,-0.400000,0.050000,-0.385355,0.085355,-0.350000,0.100000,0.350000,0.100000,0.385355,0.085355,0.385355,0.085355,$1*%
%AMFreePoly4*
4,1,14,0.085355,0.385355,0.100000,0.350000,0.100000,-0.350000,0.085355,-0.385355,0.050000,-0.400000,-0.050000,-0.400000,-0.085355,-0.385355,-0.100000,-0.350000,-0.100000,0.279289,-0.085355,0.314644,-0.014644,0.385355,0.020711,0.400000,0.050000,0.400000,0.085355,0.385355,0.085355,0.385355,$1*%
%AMFreePoly5*
4,1,14,0.014644,0.385355,0.085355,0.314644,0.100000,0.279289,0.100000,-0.350000,0.085355,-0.385355,0.050000,-0.400000,-0.050000,-0.400000,-0.085355,-0.385355,-0.100000,-0.350000,-0.100000,0.350000,-0.085355,0.385355,-0.050000,0.400000,-0.020711,0.400000,0.014644,0.385355,0.014644,0.385355,$1*%
%AMFreePoly6*
4,1,14,0.385355,0.085355,0.400000,0.050000,0.400000,-0.050000,0.385355,-0.085355,0.350000,-0.100000,-0.279289,-0.100000,-0.314644,-0.085355,-0.385355,-0.014644,-0.400000,0.020711,-0.400000,0.050000,-0.385355,0.085355,-0.350000,0.100000,0.350000,0.100000,0.385355,0.085355,0.385355,0.085355,$1*%
%AMFreePoly7*
4,1,14,0.385355,0.085355,0.400000,0.050000,0.400000,-0.050000,0.385355,-0.085355,0.350000,-0.100000,-0.350000,-0.100000,-0.385355,-0.085355,-0.400000,-0.050000,-0.400000,-0.020711,-0.385355,0.014644,-0.314644,0.085355,-0.279289,0.100000,0.350000,0.100000,0.385355,0.085355,0.385355,0.085355,$1*%
%AMFreePoly8*
4,1,14,0.085355,0.385355,0.100000,0.350000,0.100000,-0.279289,0.085355,-0.314644,0.014644,-0.385355,-0.020711,-0.400000,-0.050000,-0.400000,-0.085355,-0.385355,-0.100000,-0.350000,-0.100000,0.350000,-0.085355,0.385355,-0.050000,0.400000,0.050000,0.400000,0.085355,0.385355,0.085355,0.385355,$1*%
%AMFreePoly9*
4,1,14,0.085355,0.385355,0.100000,0.350000,0.100000,-0.350000,0.085355,-0.385355,0.050000,-0.400000,0.020711,-0.400000,-0.014644,-0.385355,-0.085355,-0.314644,-0.100000,-0.279289,-0.100000,0.350000,-0.085355,0.385355,-0.050000,0.400000,0.050000,0.400000,0.085355,0.385355,0.085355,0.385355,$1*%
G04 Aperture macros list end*
%ADD10C,0.150000*%
%ADD11C,0.000000*%
%ADD12RoundRect,0.250000X0.337500X0.475000X-0.337500X0.475000X-0.337500X-0.475000X0.337500X-0.475000X0*%
%ADD13RoundRect,0.250000X-0.475000X0.337500X-0.475000X-0.337500X0.475000X-0.337500X0.475000X0.337500X0*%
%ADD14FreePoly0,0.000000*%
%ADD15FreePoly1,0.000000*%
%ADD16R,1.676400X1.676400*%
%ADD17C,1.524000*%
%ADD18R,1.524000X1.524000*%
%ADD19RoundRect,0.250000X0.450000X-0.350000X0.450000X0.350000X-0.450000X0.350000X-0.450000X-0.350000X0*%
%ADD20C,3.200000*%
%ADD21O,1.727200X1.727200*%
%ADD22R,1.727200X1.727200*%
%ADD23C,1.000000*%
%ADD24RoundRect,0.243750X0.456250X-0.243750X0.456250X0.243750X-0.456250X0.243750X-0.456250X-0.243750X0*%
%ADD25RoundRect,0.250000X0.475000X-0.337500X0.475000X0.337500X-0.475000X0.337500X-0.475000X-0.337500X0*%
%ADD26RoundRect,0.100000X-0.637500X-0.100000X0.637500X-0.100000X0.637500X0.100000X-0.637500X0.100000X0*%
%ADD27FreePoly2,90.000000*%
%ADD28RoundRect,0.050000X0.050000X-0.350000X0.050000X0.350000X-0.050000X0.350000X-0.050000X-0.350000X0*%
%ADD29FreePoly3,90.000000*%
%ADD30FreePoly4,90.000000*%
%ADD31RoundRect,0.050000X0.350000X-0.050000X0.350000X0.050000X-0.350000X0.050000X-0.350000X-0.050000X0*%
%ADD32FreePoly5,90.000000*%
%ADD33FreePoly6,90.000000*%
%ADD34FreePoly7,90.000000*%
%ADD35FreePoly8,90.000000*%
%ADD36FreePoly9,90.000000*%
%ADD37R,2.650000X2.650000*%
G04 APERTURE END LIST*
D10*
X174558628Y-109758458D02*
X174558628Y-108901316D01*
X176058628Y-109329887D02*
X174558628Y-109329887D01*
X175987200Y-108472744D02*
X176058628Y-108258459D01*
X176058628Y-108258459D02*
X176058628Y-107901316D01*
X176058628Y-107901316D02*
X175987200Y-107758459D01*
X175987200Y-107758459D02*
X175915771Y-107687030D01*
X175915771Y-107687030D02*
X175772914Y-107615601D01*
X175772914Y-107615601D02*
X175630057Y-107615601D01*
X175630057Y-107615601D02*
X175487200Y-107687030D01*
X175487200Y-107687030D02*
X175415771Y-107758459D01*
X175415771Y-107758459D02*
X175344342Y-107901316D01*
X175344342Y-107901316D02*
X175272914Y-108187030D01*
X175272914Y-108187030D02*
X175201485Y-108329887D01*
X175201485Y-108329887D02*
X175130057Y-108401316D01*
X175130057Y-108401316D02*
X174987200Y-108472744D01*
X174987200Y-108472744D02*
X174844342Y-108472744D01*
X174844342Y-108472744D02*
X174701485Y-108401316D01*
X174701485Y-108401316D02*
X174630057Y-108329887D01*
X174630057Y-108329887D02*
X174558628Y-108187030D01*
X174558628Y-108187030D02*
X174558628Y-107829887D01*
X174558628Y-107829887D02*
X174630057Y-107615601D01*
X176058628Y-106187030D02*
X176058628Y-107044173D01*
X176058628Y-106615602D02*
X174558628Y-106615602D01*
X174558628Y-106615602D02*
X174772914Y-106758459D01*
X174772914Y-106758459D02*
X174915771Y-106901316D01*
X174915771Y-106901316D02*
X174987200Y-107044173D01*
X175058628Y-104901317D02*
X176058628Y-104901317D01*
X174487200Y-105258459D02*
X175558628Y-105615602D01*
X175558628Y-105615602D02*
X175558628Y-104687031D01*
X174558628Y-103829888D02*
X174558628Y-103687031D01*
X174558628Y-103687031D02*
X174630057Y-103544174D01*
X174630057Y-103544174D02*
X174701485Y-103472746D01*
X174701485Y-103472746D02*
X174844342Y-103401317D01*
X174844342Y-103401317D02*
X175130057Y-103329888D01*
X175130057Y-103329888D02*
X175487200Y-103329888D01*
X175487200Y-103329888D02*
X175772914Y-103401317D01*
X175772914Y-103401317D02*
X175915771Y-103472746D01*
X175915771Y-103472746D02*
X175987200Y-103544174D01*
X175987200Y-103544174D02*
X176058628Y-103687031D01*
X176058628Y-103687031D02*
X176058628Y-103829888D01*
X176058628Y-103829888D02*
X175987200Y-103972746D01*
X175987200Y-103972746D02*
X175915771Y-104044174D01*
X175915771Y-104044174D02*
X175772914Y-104115603D01*
X175772914Y-104115603D02*
X175487200Y-104187031D01*
X175487200Y-104187031D02*
X175130057Y-104187031D01*
X175130057Y-104187031D02*
X174844342Y-104115603D01*
X174844342Y-104115603D02*
X174701485Y-104044174D01*
X174701485Y-104044174D02*
X174630057Y-103972746D01*
X174630057Y-103972746D02*
X174558628Y-103829888D01*
X176058628Y-101901317D02*
X176058628Y-102758460D01*
X176058628Y-102329889D02*
X174558628Y-102329889D01*
X174558628Y-102329889D02*
X174772914Y-102472746D01*
X174772914Y-102472746D02*
X174915771Y-102615603D01*
X174915771Y-102615603D02*
X174987200Y-102758460D01*
D11*
%TO.C,JP1*%
G36*
X146960000Y-113850000D02*
G01*
X146760000Y-113850000D01*
X146760000Y-113150000D01*
X146960000Y-113150000D01*
X146960000Y-113850000D01*
G37*
%TO.C,JP2*%
G36*
X136100000Y-113850000D02*
G01*
X135900000Y-113850000D01*
X135900000Y-113150000D01*
X136100000Y-113150000D01*
X136100000Y-113850000D01*
G37*
%TD*%
D12*
%TO.C,C3*%
X141787500Y-91500000D03*
X139712500Y-91500000D03*
%TD*%
D13*
%TO.C,C4*%
X139000000Y-76962500D03*
X139000000Y-79037500D03*
%TD*%
D12*
%TO.C,C2*%
X139587500Y-100800000D03*
X137512500Y-100800000D03*
%TD*%
D13*
%TO.C,C1*%
X145550000Y-95675000D03*
X145550000Y-97750000D03*
%TD*%
D14*
%TO.C,JP1*%
X146260000Y-113500000D03*
D15*
X147460000Y-113500000D03*
%TD*%
D16*
%TO.C,CON1*%
X131720000Y-107860000D03*
D17*
X134260000Y-107860000D03*
X136800000Y-107860000D03*
X139340000Y-107860000D03*
X141880000Y-107860000D03*
X144420000Y-107860000D03*
X146960000Y-107860000D03*
X149500000Y-107860000D03*
X149500000Y-85000000D03*
X146960000Y-85000000D03*
X144420000Y-85000000D03*
X141880000Y-85000000D03*
X139340000Y-85000000D03*
X136800000Y-85000000D03*
X134260000Y-85000000D03*
D18*
X131720000Y-85000000D03*
%TD*%
D19*
%TO.C,R2*%
X136250000Y-79000000D03*
X136250000Y-77000000D03*
%TD*%
D20*
%TO.C,Shield1*%
X123449881Y-120702500D03*
X124719881Y-72442500D03*
D21*
X137419881Y-120702500D03*
D20*
X175519881Y-87682500D03*
X175519881Y-115622500D03*
D21*
X145039881Y-120702500D03*
X147579881Y-120702500D03*
X175646881Y-92762500D03*
X160279881Y-120702500D03*
X162819881Y-120702500D03*
X165359881Y-120702500D03*
X167899881Y-120702500D03*
X170439881Y-120702500D03*
X172979881Y-120702500D03*
X133355881Y-72442500D03*
X172979881Y-72442500D03*
X170439881Y-72442500D03*
X167899881Y-72442500D03*
X165359881Y-72442500D03*
X162819881Y-72442500D03*
X160279881Y-72442500D03*
X157739881Y-72442500D03*
X155199881Y-72442500D03*
X151135881Y-72442500D03*
X148595881Y-72442500D03*
X146055881Y-72442500D03*
X143515881Y-72442500D03*
X140975881Y-72442500D03*
X138435881Y-72442500D03*
D22*
X135895881Y-72442500D03*
X150119881Y-120702500D03*
X152659881Y-120702500D03*
X175646881Y-97842500D03*
D21*
X139959881Y-120702500D03*
X173106881Y-92762500D03*
X175646881Y-95302500D03*
X142499881Y-120702500D03*
X173106881Y-97842500D03*
X173106881Y-95302500D03*
X128275881Y-72442500D03*
X130815881Y-72442500D03*
X155199881Y-120702500D03*
%TD*%
D19*
%TO.C,R1*%
X159750000Y-88000000D03*
X159750000Y-86000000D03*
%TD*%
D23*
%TO.C,FID1*%
X124750000Y-78250000D03*
%TD*%
D24*
%TO.C,D1*%
X159750000Y-97437500D03*
X159750000Y-95562500D03*
%TD*%
D25*
%TO.C,C5*%
X155500000Y-79037500D03*
X155500000Y-76962500D03*
%TD*%
D26*
%TO.C,IC2*%
X145137500Y-76050000D03*
X145137500Y-76700000D03*
X145137500Y-77350000D03*
X145137500Y-78000000D03*
X145137500Y-78650000D03*
X145137500Y-79300000D03*
X145137500Y-79950000D03*
X150862500Y-79950000D03*
X150862500Y-79300000D03*
X150862500Y-78650000D03*
X150862500Y-78000000D03*
X150862500Y-77350000D03*
X150862500Y-76700000D03*
X150862500Y-76050000D03*
%TD*%
D19*
%TO.C,R6*%
X159750000Y-79000000D03*
X159750000Y-77000000D03*
%TD*%
D27*
%TO.C,IC1*%
X139600000Y-98450000D03*
D28*
X140000000Y-98450000D03*
X140400000Y-98450000D03*
X140800000Y-98450000D03*
X141200000Y-98450000D03*
X141600000Y-98450000D03*
X142000000Y-98450000D03*
D29*
X142400000Y-98450000D03*
D30*
X142950000Y-97900000D03*
D31*
X142950000Y-97500000D03*
X142950000Y-97100000D03*
X142950000Y-96700000D03*
X142950000Y-96300000D03*
X142950000Y-95900000D03*
X142950000Y-95500000D03*
D32*
X142950000Y-95100000D03*
D33*
X142400000Y-94550000D03*
D28*
X142000000Y-94550000D03*
X141600000Y-94550000D03*
X141200000Y-94550000D03*
X140800000Y-94550000D03*
X140400000Y-94550000D03*
X140000000Y-94550000D03*
D34*
X139600000Y-94550000D03*
D35*
X139050000Y-95100000D03*
D31*
X139050000Y-95500000D03*
X139050000Y-95900000D03*
X139050000Y-96300000D03*
X139050000Y-96700000D03*
X139050000Y-97100000D03*
X139050000Y-97500000D03*
D36*
X139050000Y-97900000D03*
D37*
X141000000Y-96500000D03*
%TD*%
D14*
%TO.C,JP2*%
X135400000Y-113500000D03*
D15*
X136600000Y-113500000D03*
%TD*%
M02*
