%TF.GenerationSoftware,KiCad,Pcbnew,8.0.7+1*%
%TF.CreationDate,2025-02-19T15:00:20+01:00*%
%TF.ProjectId,ts14-arduino-shield,74733134-2d61-4726-9475-696e6f2d7368,rev?*%
%TF.SameCoordinates,Original*%
%TF.FileFunction,Copper,L1,Top*%
%TF.FilePolarity,Positive*%
%FSLAX46Y46*%
G04 Gerber Fmt 4.6, Leading zero omitted, Abs format (unit mm)*
G04 Created by KiCad (PCBNEW 8.0.7+1) date 2025-02-19 15:00:20*
%MOMM*%
%LPD*%
G01*
G04 APERTURE LIST*
G04 Aperture macros list*
%AMRoundRect*
0 Rectangle with rounded corners*
0 $1 Rounding radius*
0 $2 $3 $4 $5 $6 $7 $8 $9 X,Y pos of 4 corners*
0 Add a 4 corners polygon primitive as box body*
4,1,4,$2,$3,$4,$5,$6,$7,$8,$9,$2,$3,0*
0 Add four circle primitives for the rounded corners*
1,1,$1+$1,$2,$3*
1,1,$1+$1,$4,$5*
1,1,$1+$1,$6,$7*
1,1,$1+$1,$8,$9*
0 Add four rect primitives between the rounded corners*
20,1,$1+$1,$2,$3,$4,$5,0*
20,1,$1+$1,$4,$5,$6,$7,0*
20,1,$1+$1,$6,$7,$8,$9,0*
20,1,$1+$1,$8,$9,$2,$3,0*%
%AMFreePoly0*
4,1,19,0.500000,-0.750000,0.000000,-0.750000,0.000000,-0.744911,-0.071157,-0.744911,-0.207708,-0.704816,-0.327430,-0.627875,-0.420627,-0.520320,-0.479746,-0.390866,-0.500000,-0.250000,-0.500000,0.250000,-0.479746,0.390866,-0.420627,0.520320,-0.327430,0.627875,-0.207708,0.704816,-0.071157,0.744911,0.000000,0.744911,0.000000,0.750000,0.500000,0.750000,0.500000,-0.750000,0.500000,-0.750000,
$1*%
%AMFreePoly1*
4,1,19,0.000000,0.744911,0.071157,0.744911,0.207708,0.704816,0.327430,0.627875,0.420627,0.520320,0.479746,0.390866,0.500000,0.250000,0.500000,-0.250000,0.479746,-0.390866,0.420627,-0.520320,0.327430,-0.627875,0.207708,-0.704816,0.071157,-0.744911,0.000000,-0.744911,0.000000,-0.750000,-0.500000,-0.750000,-0.500000,0.750000,0.000000,0.750000,0.000000,0.744911,0.000000,0.744911,
$1*%
%AMFreePoly2*
4,1,14,0.314644,0.085355,0.385355,0.014644,0.400000,-0.020711,0.400000,-0.050000,0.385355,-0.085355,0.350000,-0.100000,-0.350000,-0.100000,-0.385355,-0.085355,-0.400000,-0.050000,-0.400000,0.050000,-0.385355,0.085355,-0.350000,0.100000,0.279289,0.100000,0.314644,0.085355,0.314644,0.085355,$1*%
%AMFreePoly3*
4,1,14,0.385355,0.085355,0.400000,0.050000,0.400000,0.020711,0.385355,-0.014644,0.314644,-0.085355,0.279289,-0.100000,-0.350000,-0.100000,-0.385355,-0.085355,-0.400000,-0.050000,-0.400000,0.050000,-0.385355,0.085355,-0.350000,0.100000,0.350000,0.100000,0.385355,0.085355,0.385355,0.085355,$1*%
%AMFreePoly4*
4,1,14,0.085355,0.385355,0.100000,0.350000,0.100000,-0.350000,0.085355,-0.385355,0.050000,-0.400000,-0.050000,-0.400000,-0.085355,-0.385355,-0.100000,-0.350000,-0.100000,0.279289,-0.085355,0.314644,-0.014644,0.385355,0.020711,0.400000,0.050000,0.400000,0.085355,0.385355,0.085355,0.385355,$1*%
%AMFreePoly5*
4,1,14,0.014644,0.385355,0.085355,0.314644,0.100000,0.279289,0.100000,-0.350000,0.085355,-0.385355,0.050000,-0.400000,-0.050000,-0.400000,-0.085355,-0.385355,-0.100000,-0.350000,-0.100000,0.350000,-0.085355,0.385355,-0.050000,0.400000,-0.020711,0.400000,0.014644,0.385355,0.014644,0.385355,$1*%
%AMFreePoly6*
4,1,14,0.385355,0.085355,0.400000,0.050000,0.400000,-0.050000,0.385355,-0.085355,0.350000,-0.100000,-0.279289,-0.100000,-0.314644,-0.085355,-0.385355,-0.014644,-0.400000,0.020711,-0.400000,0.050000,-0.385355,0.085355,-0.350000,0.100000,0.350000,0.100000,0.385355,0.085355,0.385355,0.085355,$1*%
%AMFreePoly7*
4,1,14,0.385355,0.085355,0.400000,0.050000,0.400000,-0.050000,0.385355,-0.085355,0.350000,-0.100000,-0.350000,-0.100000,-0.385355,-0.085355,-0.400000,-0.050000,-0.400000,-0.020711,-0.385355,0.014644,-0.314644,0.085355,-0.279289,0.100000,0.350000,0.100000,0.385355,0.085355,0.385355,0.085355,$1*%
%AMFreePoly8*
4,1,14,0.085355,0.385355,0.100000,0.350000,0.100000,-0.279289,0.085355,-0.314644,0.014644,-0.385355,-0.020711,-0.400000,-0.050000,-0.400000,-0.085355,-0.385355,-0.100000,-0.350000,-0.100000,0.350000,-0.085355,0.385355,-0.050000,0.400000,0.050000,0.400000,0.085355,0.385355,0.085355,0.385355,$1*%
%AMFreePoly9*
4,1,14,0.085355,0.385355,0.100000,0.350000,0.100000,-0.350000,0.085355,-0.385355,0.050000,-0.400000,0.020711,-0.400000,-0.014644,-0.385355,-0.085355,-0.314644,-0.100000,-0.279289,-0.100000,0.350000,-0.085355,0.385355,-0.050000,0.400000,0.050000,0.400000,0.085355,0.385355,0.085355,0.385355,$1*%
G04 Aperture macros list end*
%ADD10C,0.200000*%
%TA.AperFunction,NonConductor*%
%ADD11C,0.200000*%
%TD*%
%TA.AperFunction,EtchedComponent*%
%ADD12C,0.000000*%
%TD*%
%TA.AperFunction,SMDPad,CuDef*%
%ADD13RoundRect,0.250000X0.337500X0.475000X-0.337500X0.475000X-0.337500X-0.475000X0.337500X-0.475000X0*%
%TD*%
%TA.AperFunction,SMDPad,CuDef*%
%ADD14RoundRect,0.250000X-0.475000X0.337500X-0.475000X-0.337500X0.475000X-0.337500X0.475000X0.337500X0*%
%TD*%
%TA.AperFunction,SMDPad,CuDef*%
%ADD15FreePoly0,0.000000*%
%TD*%
%TA.AperFunction,SMDPad,CuDef*%
%ADD16FreePoly1,0.000000*%
%TD*%
%TA.AperFunction,ComponentPad*%
%ADD17R,1.676400X1.676400*%
%TD*%
%TA.AperFunction,ComponentPad*%
%ADD18C,1.524000*%
%TD*%
%TA.AperFunction,ComponentPad*%
%ADD19R,1.524000X1.524000*%
%TD*%
%TA.AperFunction,SMDPad,CuDef*%
%ADD20RoundRect,0.250000X0.450000X-0.350000X0.450000X0.350000X-0.450000X0.350000X-0.450000X-0.350000X0*%
%TD*%
%TA.AperFunction,ComponentPad*%
%ADD21O,1.727200X1.727200*%
%TD*%
%TA.AperFunction,ComponentPad*%
%ADD22R,1.727200X1.727200*%
%TD*%
%TA.AperFunction,SMDPad,CuDef*%
%ADD23C,0.500000*%
%TD*%
%TA.AperFunction,SMDPad,CuDef*%
%ADD24RoundRect,0.243750X0.456250X-0.243750X0.456250X0.243750X-0.456250X0.243750X-0.456250X-0.243750X0*%
%TD*%
%TA.AperFunction,SMDPad,CuDef*%
%ADD25RoundRect,0.250000X0.475000X-0.337500X0.475000X0.337500X-0.475000X0.337500X-0.475000X-0.337500X0*%
%TD*%
%TA.AperFunction,SMDPad,CuDef*%
%ADD26RoundRect,0.100000X-0.637500X-0.100000X0.637500X-0.100000X0.637500X0.100000X-0.637500X0.100000X0*%
%TD*%
%TA.AperFunction,SMDPad,CuDef*%
%ADD27FreePoly2,90.000000*%
%TD*%
%TA.AperFunction,SMDPad,CuDef*%
%ADD28RoundRect,0.050000X0.050000X-0.350000X0.050000X0.350000X-0.050000X0.350000X-0.050000X-0.350000X0*%
%TD*%
%TA.AperFunction,SMDPad,CuDef*%
%ADD29FreePoly3,90.000000*%
%TD*%
%TA.AperFunction,SMDPad,CuDef*%
%ADD30FreePoly4,90.000000*%
%TD*%
%TA.AperFunction,SMDPad,CuDef*%
%ADD31RoundRect,0.050000X0.350000X-0.050000X0.350000X0.050000X-0.350000X0.050000X-0.350000X-0.050000X0*%
%TD*%
%TA.AperFunction,SMDPad,CuDef*%
%ADD32FreePoly5,90.000000*%
%TD*%
%TA.AperFunction,SMDPad,CuDef*%
%ADD33FreePoly6,90.000000*%
%TD*%
%TA.AperFunction,SMDPad,CuDef*%
%ADD34FreePoly7,90.000000*%
%TD*%
%TA.AperFunction,SMDPad,CuDef*%
%ADD35FreePoly8,90.000000*%
%TD*%
%TA.AperFunction,SMDPad,CuDef*%
%ADD36FreePoly9,90.000000*%
%TD*%
%TA.AperFunction,HeatsinkPad*%
%ADD37R,2.650000X2.650000*%
%TD*%
%TA.AperFunction,ViaPad*%
%ADD38C,1.000000*%
%TD*%
%TA.AperFunction,Conductor*%
%ADD39C,0.300000*%
%TD*%
%TA.AperFunction,Conductor*%
%ADD40C,0.800000*%
%TD*%
%TA.AperFunction,Conductor*%
%ADD41C,0.200000*%
%TD*%
%TA.AperFunction,Conductor*%
%ADD42C,0.500000*%
%TD*%
G04 APERTURE END LIST*
D10*
D11*
X172617219Y-81273183D02*
X172617219Y-80701755D01*
X173617219Y-80987469D02*
X172617219Y-80987469D01*
X172617219Y-80177945D02*
X172617219Y-79987469D01*
X172617219Y-79987469D02*
X172664838Y-79892231D01*
X172664838Y-79892231D02*
X172760076Y-79796993D01*
X172760076Y-79796993D02*
X172950552Y-79749374D01*
X172950552Y-79749374D02*
X173283885Y-79749374D01*
X173283885Y-79749374D02*
X173474361Y-79796993D01*
X173474361Y-79796993D02*
X173569600Y-79892231D01*
X173569600Y-79892231D02*
X173617219Y-79987469D01*
X173617219Y-79987469D02*
X173617219Y-80177945D01*
X173617219Y-80177945D02*
X173569600Y-80273183D01*
X173569600Y-80273183D02*
X173474361Y-80368421D01*
X173474361Y-80368421D02*
X173283885Y-80416040D01*
X173283885Y-80416040D02*
X172950552Y-80416040D01*
X172950552Y-80416040D02*
X172760076Y-80368421D01*
X172760076Y-80368421D02*
X172664838Y-80273183D01*
X172664838Y-80273183D02*
X172617219Y-80177945D01*
X173617219Y-79320802D02*
X172617219Y-79320802D01*
X172617219Y-79320802D02*
X172617219Y-78939850D01*
X172617219Y-78939850D02*
X172664838Y-78844612D01*
X172664838Y-78844612D02*
X172712457Y-78796993D01*
X172712457Y-78796993D02*
X172807695Y-78749374D01*
X172807695Y-78749374D02*
X172950552Y-78749374D01*
X172950552Y-78749374D02*
X173045790Y-78796993D01*
X173045790Y-78796993D02*
X173093409Y-78844612D01*
X173093409Y-78844612D02*
X173141028Y-78939850D01*
X173141028Y-78939850D02*
X173141028Y-79320802D01*
D12*
%TA.AperFunction,EtchedComponent*%
%TO.C,JP1*%
G36*
X147110000Y-113600000D02*
G01*
X146610000Y-113600000D01*
X146610000Y-113400000D01*
X147110000Y-113400000D01*
X147110000Y-113600000D01*
G37*
%TD.AperFunction*%
%TA.AperFunction,EtchedComponent*%
%TO.C,JP2*%
G36*
X136250000Y-113600000D02*
G01*
X135750000Y-113600000D01*
X135750000Y-113400000D01*
X136250000Y-113400000D01*
X136250000Y-113600000D01*
G37*
%TD.AperFunction*%
%TD*%
D13*
%TO.P,C3,1*%
%TO.N,GND*%
X141787500Y-91500000D03*
%TO.P,C3,2*%
%TO.N,VCC*%
X139712500Y-91500000D03*
%TD*%
D14*
%TO.P,C4,1*%
%TO.N,/VCC_SPI_IO*%
X139000000Y-76962500D03*
%TO.P,C4,2*%
%TO.N,GND*%
X139000000Y-79037500D03*
%TD*%
D13*
%TO.P,C2,1*%
%TO.N,GND*%
X139587500Y-100800000D03*
%TO.P,C2,2*%
%TO.N,VCC*%
X137512500Y-100800000D03*
%TD*%
D14*
%TO.P,C1,1*%
%TO.N,GND*%
X145550000Y-95675000D03*
%TO.P,C1,2*%
%TO.N,VCC*%
X145550000Y-97750000D03*
%TD*%
D15*
%TO.P,JP1,1,A*%
%TO.N,Net-(JP1-A)*%
X146260000Y-113500000D03*
D16*
%TO.P,JP1,2,B*%
%TO.N,VCC*%
X147460000Y-113500000D03*
%TD*%
D17*
%TO.P,CON1,P1,AN*%
%TO.N,unconnected-(CON1-AN-PadP1)*%
X131720000Y-107860000D03*
D18*
%TO.P,CON1,P2,RST*%
%TO.N,unconnected-(CON1-RST-PadP2)*%
X134260000Y-107860000D03*
%TO.P,CON1,P3,CS*%
%TO.N,/SPI_CS*%
X136800000Y-107860000D03*
%TO.P,CON1,P4,SCK*%
%TO.N,/SPI_SCK*%
X139340000Y-107860000D03*
%TO.P,CON1,P5,MISO*%
%TO.N,/SPI_MISO*%
X141880000Y-107860000D03*
%TO.P,CON1,P6,MOSI*%
%TO.N,/SPI_MOSI*%
X144420000Y-107860000D03*
%TO.P,CON1,P7,3V3*%
%TO.N,VCC*%
X146960000Y-107860000D03*
%TO.P,CON1,P8,GND1*%
%TO.N,GND*%
X149500000Y-107860000D03*
%TO.P,CON1,P9,GND2*%
X149500000Y-85000000D03*
%TO.P,CON1,P10,5V*%
%TO.N,unconnected-(CON1-5V-PadP10)*%
X146960000Y-85000000D03*
%TO.P,CON1,P11,SDA*%
%TO.N,unconnected-(CON1-SDA-PadP11)*%
X144420000Y-85000000D03*
%TO.P,CON1,P12,SCL*%
%TO.N,unconnected-(CON1-SCL-PadP12)*%
X141880000Y-85000000D03*
%TO.P,CON1,P13,RX*%
%TO.N,unconnected-(CON1-RX-PadP13)*%
X139340000Y-85000000D03*
%TO.P,CON1,P14,TX*%
%TO.N,unconnected-(CON1-TX-PadP14)*%
X136800000Y-85000000D03*
%TO.P,CON1,P15,INT*%
%TO.N,/GPO*%
X134260000Y-85000000D03*
D19*
%TO.P,CON1,P16,PWM*%
%TO.N,unconnected-(CON1-PWM-PadP16)*%
X131720000Y-85000000D03*
%TD*%
D20*
%TO.P,R2,1*%
%TO.N,/5V_SPI_CS*%
X136250000Y-79000000D03*
%TO.P,R2,2*%
%TO.N,/VCC_SPI_IO*%
X136250000Y-77000000D03*
%TD*%
D21*
%TO.P,Shield1,*%
%TO.N,*%
X137419881Y-120702500D03*
%TO.P,Shield1,3V3,3.3V*%
%TO.N,Net-(JP1-A)*%
X145039881Y-120702500D03*
%TO.P,Shield1,5V1,5V*%
%TO.N,unconnected-(Shield1-5V-Pad5V1)*%
X147579881Y-120702500D03*
%TO.P,Shield1,5V2,SPI_5V*%
%TO.N,unconnected-(Shield1-SPI_5V-Pad5V2)*%
X175646881Y-92762500D03*
%TO.P,Shield1,A0,A0*%
%TO.N,unconnected-(Shield1-PadA0)*%
X160279881Y-120702500D03*
%TO.P,Shield1,A1,A1*%
%TO.N,unconnected-(Shield1-PadA1)*%
X162819881Y-120702500D03*
%TO.P,Shield1,A2,A2*%
%TO.N,unconnected-(Shield1-PadA2)*%
X165359881Y-120702500D03*
%TO.P,Shield1,A3,A3*%
%TO.N,unconnected-(Shield1-PadA3)*%
X167899881Y-120702500D03*
%TO.P,Shield1,A4,A4*%
%TO.N,unconnected-(Shield1-PadA4)*%
X170439881Y-120702500D03*
%TO.P,Shield1,A5,A5*%
%TO.N,unconnected-(Shield1-PadA5)*%
X172979881Y-120702500D03*
%TO.P,Shield1,AREF,AREF*%
%TO.N,unconnected-(Shield1-PadAREF)*%
X133355881Y-72442500D03*
%TO.P,Shield1,D0,D0/RX*%
%TO.N,unconnected-(Shield1-D0{slash}RX-PadD0)*%
X172979881Y-72442500D03*
%TO.P,Shield1,D1,D1/TX*%
%TO.N,unconnected-(Shield1-D1{slash}TX-PadD1)*%
X170439881Y-72442500D03*
%TO.P,Shield1,D2,D2_INT0*%
%TO.N,/5V_INT*%
X167899881Y-72442500D03*
%TO.P,Shield1,D3,D3_INT1*%
%TO.N,unconnected-(Shield1-D3_INT1-PadD3)*%
X165359881Y-72442500D03*
%TO.P,Shield1,D4,D4*%
%TO.N,unconnected-(Shield1-PadD4)*%
X162819881Y-72442500D03*
%TO.P,Shield1,D5,D5*%
%TO.N,unconnected-(Shield1-PadD5)*%
X160279881Y-72442500D03*
%TO.P,Shield1,D6,D6*%
%TO.N,unconnected-(Shield1-PadD6)*%
X157739881Y-72442500D03*
%TO.P,Shield1,D7,D7*%
%TO.N,unconnected-(Shield1-PadD7)*%
X155199881Y-72442500D03*
%TO.P,Shield1,D8,D8*%
%TO.N,unconnected-(Shield1-PadD8)*%
X151135881Y-72442500D03*
%TO.P,Shield1,D9,D9*%
%TO.N,unconnected-(Shield1-PadD9)*%
X148595881Y-72442500D03*
%TO.P,Shield1,D10,D10_CS*%
%TO.N,/5V_SPI_CS*%
X146055881Y-72442500D03*
%TO.P,Shield1,D11,D11*%
%TO.N,/5V_SPI_MOSI*%
X143515881Y-72442500D03*
%TO.P,Shield1,D12,D12*%
%TO.N,/5V_SPI_MISO*%
X140975881Y-72442500D03*
%TO.P,Shield1,D13,D13*%
%TO.N,/5V_SPI_SCK*%
X138435881Y-72442500D03*
D22*
%TO.P,Shield1,GND1,GND*%
%TO.N,GND*%
X135895881Y-72442500D03*
%TO.P,Shield1,GND2,GND*%
X150119881Y-120702500D03*
%TO.P,Shield1,GND3,GND*%
X152659881Y-120702500D03*
%TO.P,Shield1,GND4,SPI_GND*%
%TO.N,unconnected-(Shield1-SPI_GND-PadGND4)*%
X175646881Y-97842500D03*
D21*
%TO.P,Shield1,IORF,IOREF*%
%TO.N,Net-(JP2-B)*%
X139959881Y-120702500D03*
%TO.P,Shield1,MISO,SPI_MISO*%
%TO.N,unconnected-(Shield1-SPI_MISO-PadMISO)*%
X173106881Y-92762500D03*
%TO.P,Shield1,MOSI,SPI_MOSI*%
%TO.N,unconnected-(Shield1-SPI_MOSI-PadMOSI)*%
X175646881Y-95302500D03*
%TO.P,Shield1,RST1,RESET*%
%TO.N,unconnected-(Shield1-RESET-PadRST1)*%
X142499881Y-120702500D03*
%TO.P,Shield1,RST2,SPI_RESET*%
%TO.N,unconnected-(Shield1-SPI_RESET-PadRST2)*%
X173106881Y-97842500D03*
%TO.P,Shield1,SCK,SPI_SCK*%
%TO.N,unconnected-(Shield1-SPI_SCK-PadSCK)*%
X173106881Y-95302500D03*
%TO.P,Shield1,SCL,SCL*%
%TO.N,unconnected-(Shield1-PadSCL)*%
X128275881Y-72442500D03*
%TO.P,Shield1,SDA,SDA*%
%TO.N,unconnected-(Shield1-PadSDA)*%
X130815881Y-72442500D03*
%TO.P,Shield1,VIN,VIN*%
%TO.N,unconnected-(Shield1-PadVIN)*%
X155199881Y-120702500D03*
%TD*%
D20*
%TO.P,R1,1*%
%TO.N,Net-(D1-A)*%
X159750000Y-88000000D03*
%TO.P,R1,2*%
%TO.N,VCC*%
X159750000Y-86000000D03*
%TD*%
D23*
%TO.P,FID1,*%
%TO.N,*%
X124750000Y-78250000D03*
%TD*%
D24*
%TO.P,D1,1,K*%
%TO.N,GND*%
X159750000Y-97437500D03*
%TO.P,D1,2,A*%
%TO.N,Net-(D1-A)*%
X159750000Y-95562500D03*
%TD*%
D25*
%TO.P,C5,1*%
%TO.N,GND*%
X155500000Y-79037500D03*
%TO.P,C5,2*%
%TO.N,VCC*%
X155500000Y-76962500D03*
%TD*%
D26*
%TO.P,IC2,1,VCCA*%
%TO.N,/VCC_SPI_IO*%
X145137500Y-76050000D03*
%TO.P,IC2,2,A1_IN*%
%TO.N,/5V_SPI_CS*%
X145137500Y-76700000D03*
%TO.P,IC2,3,A2_IN*%
%TO.N,/5V_SPI_MOSI*%
X145137500Y-77350000D03*
%TO.P,IC2,4,A3_IN*%
%TO.N,/5V_SPI_SCK*%
X145137500Y-78000000D03*
%TO.P,IC2,5,A4_OUT*%
%TO.N,/5V_SPI_MISO*%
X145137500Y-78650000D03*
%TO.P,IC2,6*%
%TO.N,N/C*%
X145137500Y-79300000D03*
%TO.P,IC2,7,GND*%
%TO.N,GND*%
X145137500Y-79950000D03*
%TO.P,IC2,8,OE*%
%TO.N,/VCC_SPI_IO*%
X150862500Y-79950000D03*
%TO.P,IC2,9*%
%TO.N,N/C*%
X150862500Y-79300000D03*
%TO.P,IC2,10,B4_IN*%
%TO.N,/SPI_MISO*%
X150862500Y-78650000D03*
%TO.P,IC2,11,B3_OUT*%
%TO.N,/SPI_SCK*%
X150862500Y-78000000D03*
%TO.P,IC2,12,B2_OUT*%
%TO.N,/SPI_MOSI*%
X150862500Y-77350000D03*
%TO.P,IC2,13,B1_OUT*%
%TO.N,/SPI_CS*%
X150862500Y-76700000D03*
%TO.P,IC2,14,VCCB*%
%TO.N,VCC*%
X150862500Y-76050000D03*
%TD*%
D20*
%TO.P,R6,1*%
%TO.N,/GPO*%
X159750000Y-79000000D03*
%TO.P,R6,2*%
%TO.N,/5V_INT*%
X159750000Y-77000000D03*
%TD*%
D27*
%TO.P,IC1,1,VCC*%
%TO.N,VCC*%
X139600000Y-98450000D03*
D28*
%TO.P,IC1,2,GND*%
%TO.N,GND*%
X140000000Y-98450000D03*
%TO.P,IC1,3,PULLDN*%
X140400000Y-98450000D03*
%TO.P,IC1,4,GPO*%
%TO.N,/GPO*%
X140800000Y-98450000D03*
%TO.P,IC1,5,SDI*%
%TO.N,/SPI_MOSI*%
X141200000Y-98450000D03*
%TO.P,IC1,6,SDO*%
%TO.N,/SPI_MISO*%
X141600000Y-98450000D03*
%TO.P,IC1,7,SCK*%
%TO.N,/SPI_SCK*%
X142000000Y-98450000D03*
D29*
%TO.P,IC1,8,CSN*%
%TO.N,/SPI_CS*%
X142400000Y-98450000D03*
D30*
%TO.P,IC1,9,PULLDN*%
%TO.N,GND*%
X142950000Y-97900000D03*
D31*
%TO.P,IC1,10,PULLDN*%
X142950000Y-97500000D03*
%TO.P,IC1,11,VCC*%
%TO.N,VCC*%
X142950000Y-97100000D03*
%TO.P,IC1,12,GND*%
%TO.N,GND*%
X142950000Y-96700000D03*
%TO.P,IC1,13,DNC*%
%TO.N,unconnected-(IC1-DNC-Pad13)*%
X142950000Y-96300000D03*
%TO.P,IC1,14,DNC*%
%TO.N,unconnected-(IC1-DNC-Pad14)*%
X142950000Y-95900000D03*
%TO.P,IC1,15*%
%TO.N,N/C*%
X142950000Y-95500000D03*
D32*
%TO.P,IC1,16*%
X142950000Y-95100000D03*
D33*
%TO.P,IC1,17,DNC*%
%TO.N,unconnected-(IC1-DNC-Pad17)*%
X142400000Y-94550000D03*
D28*
%TO.P,IC1,18,DNC*%
%TO.N,unconnected-(IC1-DNC-Pad18)*%
X142000000Y-94550000D03*
%TO.P,IC1,19,DNC*%
%TO.N,unconnected-(IC1-DNC-Pad19)*%
X141600000Y-94550000D03*
%TO.P,IC1,20,DNC*%
%TO.N,unconnected-(IC1-DNC-Pad20)*%
X141200000Y-94550000D03*
%TO.P,IC1,21,DNC*%
%TO.N,unconnected-(IC1-DNC-Pad21)*%
X140800000Y-94550000D03*
%TO.P,IC1,22,PULLUP*%
%TO.N,VCC*%
X140400000Y-94550000D03*
%TO.P,IC1,23,GND*%
%TO.N,GND*%
X140000000Y-94550000D03*
D34*
%TO.P,IC1,24,VCC*%
%TO.N,VCC*%
X139600000Y-94550000D03*
D35*
%TO.P,IC1,25*%
%TO.N,N/C*%
X139050000Y-95100000D03*
D31*
%TO.P,IC1,26,DNC*%
%TO.N,unconnected-(IC1-DNC-Pad26)*%
X139050000Y-95500000D03*
%TO.P,IC1,27,DNC*%
%TO.N,unconnected-(IC1-DNC-Pad27)*%
X139050000Y-95900000D03*
%TO.P,IC1,28,DNC*%
%TO.N,unconnected-(IC1-DNC-Pad28)*%
X139050000Y-96300000D03*
%TO.P,IC1,29,DNC*%
%TO.N,unconnected-(IC1-DNC-Pad29)*%
X139050000Y-96700000D03*
%TO.P,IC1,30,PULLDN*%
%TO.N,GND*%
X139050000Y-97100000D03*
%TO.P,IC1,31,PULLDN*%
X139050000Y-97500000D03*
D36*
%TO.P,IC1,32*%
%TO.N,N/C*%
X139050000Y-97900000D03*
D37*
%TO.P,IC1,33,TP*%
%TO.N,GND*%
X141000000Y-96500000D03*
%TD*%
D15*
%TO.P,JP2,1,A*%
%TO.N,/VCC_SPI_IO*%
X135400000Y-113500000D03*
D16*
%TO.P,JP2,2,B*%
%TO.N,Net-(JP2-B)*%
X136600000Y-113500000D03*
%TD*%
D38*
%TO.N,GND*%
X127720000Y-104280000D03*
X146750000Y-88000000D03*
X152750000Y-98000000D03*
X145610000Y-94470000D03*
X155580000Y-80370000D03*
X137760000Y-97290000D03*
X173750000Y-83000000D03*
X169750000Y-110000000D03*
X159750000Y-108000000D03*
X121000000Y-110000000D03*
X121000000Y-122000000D03*
X152750000Y-108000000D03*
X138960000Y-80230000D03*
X146750000Y-80000000D03*
X121000000Y-71000000D03*
X144750000Y-91520000D03*
X143010000Y-91520000D03*
X159880000Y-98510000D03*
X129750000Y-80000000D03*
X157750000Y-122000000D03*
X153270000Y-74730000D03*
X176750000Y-119000000D03*
X159750000Y-83000000D03*
X144300000Y-94470000D03*
X143310000Y-99690000D03*
X129750000Y-122000000D03*
X176750000Y-112000000D03*
X139620000Y-102150000D03*
X143430000Y-79940000D03*
X176750000Y-100000000D03*
X150750000Y-94000000D03*
X136750000Y-88000000D03*
X127660000Y-88030000D03*
X137750000Y-93250000D03*
X145000000Y-99690000D03*
X121000000Y-80000000D03*
%TO.N,/VCC_SPI_IO*%
X147590000Y-76130000D03*
X139670000Y-75620000D03*
%TO.N,/GPO*%
X150950000Y-82490000D03*
X159670000Y-81370000D03*
%TO.N,/5V_SPI_SCK*%
X142010000Y-74290000D03*
%TO.N,/SPI_SCK*%
X143370000Y-102570000D03*
X148460000Y-102570000D03*
%TO.N,/SPI_MOSI*%
X148520000Y-105320000D03*
X143330000Y-105320000D03*
%TO.N,/SPI_CS*%
X143370000Y-101230000D03*
X150210000Y-101230000D03*
%TO.N,/SPI_MISO*%
X148475000Y-104005000D03*
X143300000Y-103920000D03*
%TD*%
D39*
%TO.N,/5V_SPI_MOSI*%
X145137500Y-77350000D02*
X143850000Y-77350000D01*
X143000000Y-76500000D02*
X143000000Y-72958381D01*
X143850000Y-77350000D02*
X143000000Y-76500000D01*
X143000000Y-72958381D02*
X143515881Y-72442500D01*
D40*
%TO.N,Net-(JP1-A)*%
X145039881Y-120702500D02*
X145039881Y-114210119D01*
X145039881Y-114210119D02*
X145750000Y-113500000D01*
X145750000Y-113500000D02*
X146260000Y-113500000D01*
D39*
%TO.N,/5V_SPI_MISO*%
X142900000Y-78650000D02*
X141000000Y-76750000D01*
X141000000Y-72466619D02*
X140975881Y-72442500D01*
X141000000Y-76750000D02*
X141000000Y-72466619D01*
X145137500Y-78650000D02*
X142900000Y-78650000D01*
D41*
%TO.N,GND*%
X140000000Y-95500000D02*
X141000000Y-96500000D01*
X140400000Y-98450000D02*
X140400000Y-97100000D01*
X141200000Y-96700000D02*
X141000000Y-96500000D01*
X140000000Y-97500000D02*
X141000000Y-96500000D01*
X140000000Y-93370000D02*
X140570000Y-92800000D01*
X144735000Y-95675000D02*
X145550000Y-95675000D01*
X140000000Y-98450000D02*
X140000000Y-97500000D01*
X142950000Y-97500000D02*
X143600000Y-97500000D01*
X139050000Y-97500000D02*
X140000000Y-97500000D01*
X139050000Y-97500000D02*
X137970000Y-97500000D01*
X143630000Y-97900000D02*
X143890000Y-98160000D01*
X143710000Y-96700000D02*
X144735000Y-95675000D01*
X142950000Y-96700000D02*
X143710000Y-96700000D01*
X140570000Y-92800000D02*
X141420000Y-92800000D01*
X142000000Y-97500000D02*
X141000000Y-96500000D01*
X142950000Y-97500000D02*
X142000000Y-97500000D01*
X140000000Y-94550000D02*
X140000000Y-95500000D01*
X141787500Y-92432500D02*
X141787500Y-91500000D01*
X143890000Y-97790000D02*
X143890000Y-98160000D01*
X143600000Y-97500000D02*
X143890000Y-97790000D01*
X139050000Y-97100000D02*
X137950000Y-97100000D01*
X143890000Y-98160000D02*
X143890000Y-99110000D01*
X142950000Y-97900000D02*
X143630000Y-97900000D01*
X143890000Y-99110000D02*
X143310000Y-99690000D01*
X137970000Y-97500000D02*
X137760000Y-97290000D01*
X140400000Y-98450000D02*
X140400000Y-99987500D01*
X140400000Y-97100000D02*
X141000000Y-96500000D01*
X141420000Y-92800000D02*
X141787500Y-92432500D01*
X137950000Y-97100000D02*
X137760000Y-97290000D01*
X140400000Y-99987500D02*
X139587500Y-100800000D01*
X140000000Y-98450000D02*
X140000000Y-100387500D01*
X139050000Y-97100000D02*
X140400000Y-97100000D01*
X140000000Y-100387500D02*
X139587500Y-100800000D01*
X142090000Y-97590000D02*
X141000000Y-96500000D01*
X140000000Y-94550000D02*
X140000000Y-93370000D01*
X142950000Y-96700000D02*
X141200000Y-96700000D01*
D39*
%TO.N,/5V_SPI_CS*%
X146200000Y-76700000D02*
X147780000Y-78280000D01*
X146870000Y-81340000D02*
X137800000Y-81340000D01*
X144175000Y-76700000D02*
X143750000Y-76275000D01*
X137800000Y-81340000D02*
X136250000Y-79790000D01*
X143750000Y-74748381D02*
X146055881Y-72442500D01*
X147780000Y-80430000D02*
X146870000Y-81340000D01*
X145137500Y-76700000D02*
X144175000Y-76700000D01*
X136250000Y-79790000D02*
X136250000Y-79000000D01*
X143750000Y-76275000D02*
X143750000Y-74748381D01*
X145137500Y-76700000D02*
X146200000Y-76700000D01*
X147780000Y-78280000D02*
X147780000Y-80430000D01*
%TO.N,/VCC_SPI_IO*%
X149710000Y-79950000D02*
X150862500Y-79950000D01*
D42*
X135400000Y-113500000D02*
X126750000Y-113500000D01*
X137817500Y-75780000D02*
X139000000Y-76962500D01*
D39*
X148960000Y-79200000D02*
X149710000Y-79950000D01*
D42*
X139670000Y-75620000D02*
X139650000Y-75640000D01*
X124750000Y-111500000D02*
X124750000Y-81750000D01*
D39*
X138962500Y-77000000D02*
X139000000Y-76962500D01*
D42*
X124750000Y-81750000D02*
X129500000Y-77000000D01*
X126750000Y-113500000D02*
X124750000Y-111500000D01*
D39*
X148960000Y-77200000D02*
X148960000Y-79200000D01*
X139670000Y-75620000D02*
X139000000Y-76290000D01*
D42*
X134360000Y-75640000D02*
X137660000Y-75640000D01*
D39*
X147590000Y-76130000D02*
X147890000Y-76130000D01*
D42*
X133000000Y-77000000D02*
X134360000Y-75640000D01*
X137800000Y-75780000D02*
X137817500Y-75780000D01*
D39*
X139000000Y-76290000D02*
X139000000Y-76962500D01*
D42*
X137660000Y-75640000D02*
X137800000Y-75780000D01*
D39*
X136250000Y-77000000D02*
X138962500Y-77000000D01*
X145217500Y-76130000D02*
X145137500Y-76050000D01*
X147590000Y-76130000D02*
X145217500Y-76130000D01*
D42*
X129500000Y-77000000D02*
X133000000Y-77000000D01*
D39*
X147890000Y-76130000D02*
X148960000Y-77200000D01*
%TO.N,/GPO*%
X136770000Y-82490000D02*
X150950000Y-82490000D01*
D41*
X140800000Y-102101371D02*
X139631371Y-103270000D01*
X140800000Y-98450000D02*
X140800000Y-102101371D01*
D39*
X159670000Y-81370000D02*
X159670000Y-79080000D01*
D41*
X139631371Y-103270000D02*
X136000000Y-103270000D01*
X134260000Y-101530000D02*
X134260000Y-85000000D01*
D39*
X159670000Y-79080000D02*
X159750000Y-79000000D01*
X134260000Y-85000000D02*
X136770000Y-82490000D01*
D41*
X136000000Y-103270000D02*
X134260000Y-101530000D01*
D42*
%TO.N,VCC*%
X145530000Y-97770000D02*
X145550000Y-97750000D01*
D39*
X154587500Y-76050000D02*
X150862500Y-76050000D01*
D40*
X148910000Y-112780000D02*
X148910000Y-113340000D01*
D42*
X158130000Y-86010000D02*
X157530000Y-86610000D01*
X157530000Y-109010000D02*
X153760000Y-112780000D01*
X157530000Y-86610000D02*
X157530000Y-109010000D01*
D41*
X137512500Y-100087500D02*
X137512500Y-100800000D01*
X140400000Y-93680000D02*
X140880000Y-93200000D01*
X139600000Y-91612500D02*
X139712500Y-91500000D01*
D42*
X158500000Y-86000000D02*
X159750000Y-86000000D01*
X146250000Y-99375000D02*
X147220000Y-98405000D01*
X147220000Y-97780000D02*
X147220000Y-93200000D01*
X158130000Y-86010000D02*
X157470000Y-85350000D01*
X146960000Y-109570000D02*
X148910000Y-111520000D01*
X146960000Y-107860000D02*
X146960000Y-109570000D01*
X147220000Y-93200000D02*
X147220000Y-91880000D01*
X158490000Y-86010000D02*
X158500000Y-86000000D01*
D41*
X139712500Y-91500000D02*
X139712500Y-90007500D01*
D42*
X148910000Y-111520000D02*
X148910000Y-112780000D01*
X145330000Y-89990000D02*
X139730000Y-89990000D01*
D41*
X147190000Y-97750000D02*
X147220000Y-97780000D01*
X139712500Y-90007500D02*
X139730000Y-89990000D01*
D42*
X139730000Y-89990000D02*
X138520000Y-89990000D01*
X153760000Y-112780000D02*
X148910000Y-112780000D01*
X146250000Y-105870000D02*
X146250000Y-99375000D01*
D41*
X142950000Y-97100000D02*
X143770000Y-97100000D01*
X140400000Y-94550000D02*
X140400000Y-93680000D01*
D39*
X155500000Y-76962500D02*
X154587500Y-76050000D01*
D42*
X146960000Y-107860000D02*
X146960000Y-106580000D01*
D40*
X148910000Y-113340000D02*
X148750000Y-113500000D01*
D42*
X147220000Y-91880000D02*
X145330000Y-89990000D01*
X157470000Y-85350000D02*
X157470000Y-77780000D01*
X147220000Y-98405000D02*
X147220000Y-97780000D01*
D40*
X148750000Y-113500000D02*
X147460000Y-113500000D01*
D42*
X158130000Y-86010000D02*
X158490000Y-86010000D01*
X136280000Y-100480000D02*
X136600000Y-100800000D01*
D41*
X140880000Y-93200000D02*
X147220000Y-93200000D01*
D42*
X156652500Y-76962500D02*
X155500000Y-76962500D01*
D41*
X139600000Y-98450000D02*
X139600000Y-99120000D01*
D42*
X146960000Y-106580000D02*
X146250000Y-105870000D01*
X136280000Y-92230000D02*
X136280000Y-100480000D01*
D41*
X144420000Y-97750000D02*
X145550000Y-97750000D01*
X139600000Y-99120000D02*
X139230000Y-99490000D01*
D42*
X138520000Y-89990000D02*
X136280000Y-92230000D01*
X136600000Y-100800000D02*
X137512500Y-100800000D01*
D41*
X139230000Y-99490000D02*
X138110000Y-99490000D01*
X143770000Y-97100000D02*
X144420000Y-97750000D01*
X145550000Y-97750000D02*
X147190000Y-97750000D01*
X139600000Y-94550000D02*
X139600000Y-91612500D01*
D42*
X157470000Y-77780000D02*
X156652500Y-76962500D01*
D41*
X138110000Y-99490000D02*
X137512500Y-100087500D01*
D42*
%TO.N,Net-(JP2-B)*%
X138250000Y-113500000D02*
X136600000Y-113500000D01*
X139959881Y-120702500D02*
X139959881Y-115209881D01*
X139959881Y-115209881D02*
X138250000Y-113500000D01*
D39*
%TO.N,/5V_SPI_SCK*%
X143250000Y-78000000D02*
X145137500Y-78000000D01*
X142010000Y-74290000D02*
X142000000Y-74300000D01*
X142000000Y-74300000D02*
X142000000Y-76750000D01*
X142000000Y-76750000D02*
X143250000Y-78000000D01*
D41*
%TO.N,/SPI_SCK*%
X152520000Y-78920001D02*
X151599999Y-78000000D01*
X151599999Y-78000000D02*
X150862500Y-78000000D01*
X148460000Y-102570000D02*
X148600000Y-102430000D01*
X152520000Y-95370000D02*
X152520000Y-78920001D01*
X148600000Y-102430000D02*
X148600000Y-99290000D01*
X142760000Y-102570000D02*
X142000000Y-101810000D01*
X142000000Y-101810000D02*
X142000000Y-98450000D01*
X148600000Y-99290000D02*
X152520000Y-95370000D01*
X143370000Y-102570000D02*
X142760000Y-102570000D01*
%TO.N,/SPI_MOSI*%
X143330000Y-105320000D02*
X142594314Y-105320000D01*
X152920000Y-95535686D02*
X152920000Y-78670001D01*
X141200000Y-103925686D02*
X141200000Y-98450000D01*
X149100000Y-101600000D02*
X149100000Y-99355686D01*
X148520000Y-105320000D02*
X149090000Y-105320000D01*
X152920000Y-78670001D02*
X151599999Y-77350000D01*
X142594314Y-105320000D02*
X141200000Y-103925686D01*
X144310000Y-107860000D02*
X144420000Y-107860000D01*
X149430000Y-104980000D02*
X149430000Y-101930000D01*
X149430000Y-101930000D02*
X149100000Y-101600000D01*
X149090000Y-105320000D02*
X149430000Y-104980000D01*
X149100000Y-99355686D02*
X152920000Y-95535686D01*
X151599999Y-77350000D02*
X150862500Y-77350000D01*
%TO.N,/SPI_CS*%
X143370000Y-101230000D02*
X142720000Y-101230000D01*
X142720000Y-101230000D02*
X142400000Y-100910000D01*
X153320000Y-95720000D02*
X153320000Y-78501544D01*
X149500000Y-100520000D02*
X149500000Y-99540000D01*
X149500000Y-99540000D02*
X153320000Y-95720000D01*
X153320000Y-78501544D02*
X151518456Y-76700000D01*
X150210000Y-101230000D02*
X149500000Y-100520000D01*
X151518456Y-76700000D02*
X150862500Y-76700000D01*
X142400000Y-100910000D02*
X142400000Y-98450000D01*
%TO.N,/SPI_MISO*%
X147500000Y-102050000D02*
X148100000Y-101450000D01*
X148475000Y-104005000D02*
X148205000Y-104005000D01*
X148100000Y-99224314D02*
X152120000Y-95204314D01*
X152120000Y-79170001D02*
X151599999Y-78650000D01*
X141600000Y-102780000D02*
X141600000Y-98450000D01*
X142740000Y-103920000D02*
X141600000Y-102780000D01*
X147500000Y-103300000D02*
X147500000Y-102050000D01*
X148205000Y-104005000D02*
X147500000Y-103300000D01*
X152120000Y-95204314D02*
X152120000Y-79170001D01*
X148100000Y-101450000D02*
X148100000Y-99224314D01*
X143300000Y-103920000D02*
X142740000Y-103920000D01*
X151599999Y-78650000D02*
X150862500Y-78650000D01*
D39*
%TO.N,Net-(D1-A)*%
X159750000Y-88000000D02*
X159750000Y-95562500D01*
%TO.N,/5V_INT*%
X159750000Y-76110000D02*
X160760000Y-75100000D01*
X167899881Y-73780119D02*
X167899881Y-72442500D01*
X166580000Y-75100000D02*
X167899881Y-73780119D01*
X160760000Y-75100000D02*
X166580000Y-75100000D01*
X159750000Y-77000000D02*
X159750000Y-76110000D01*
%TD*%
%TA.AperFunction,Conductor*%
%TO.N,GND*%
G36*
X151433213Y-120505279D02*
G01*
X151477561Y-120533780D01*
X151496281Y-120552500D01*
X152174153Y-120552500D01*
X152151881Y-120635620D01*
X152151881Y-120769380D01*
X152174153Y-120852500D01*
X151496281Y-120852500D01*
X151477561Y-120871220D01*
X151416238Y-120904704D01*
X151346546Y-120899719D01*
X151302200Y-120871219D01*
X151283481Y-120852500D01*
X150605609Y-120852500D01*
X150627881Y-120769380D01*
X150627881Y-120635620D01*
X150605609Y-120552500D01*
X151283479Y-120552500D01*
X151302198Y-120533781D01*
X151363521Y-120500295D01*
X151433213Y-120505279D01*
G37*
%TD.AperFunction*%
%TA.AperFunction,Conductor*%
G36*
X154457995Y-76420185D02*
G01*
X154478637Y-76436819D01*
X154538181Y-76496363D01*
X154571666Y-76557686D01*
X154574500Y-76584044D01*
X154574500Y-77354269D01*
X154577353Y-77384699D01*
X154577353Y-77384701D01*
X154620012Y-77506609D01*
X154622207Y-77512882D01*
X154702850Y-77622150D01*
X154812118Y-77702793D01*
X154854845Y-77717744D01*
X154940299Y-77747646D01*
X154970730Y-77750500D01*
X154970734Y-77750500D01*
X156029270Y-77750500D01*
X156059699Y-77747646D01*
X156059701Y-77747646D01*
X156124175Y-77725085D01*
X156187882Y-77702793D01*
X156297150Y-77622150D01*
X156372055Y-77520657D01*
X156427702Y-77478406D01*
X156497358Y-77472947D01*
X156558908Y-77506014D01*
X156559506Y-77506609D01*
X156983181Y-77930284D01*
X157016666Y-77991607D01*
X157019500Y-78017965D01*
X157019500Y-85409308D01*
X157043712Y-85499672D01*
X157050200Y-85523885D01*
X157050200Y-85523886D01*
X157070762Y-85559500D01*
X157109511Y-85626614D01*
X157109513Y-85626616D01*
X157405216Y-85922319D01*
X157438701Y-85983642D01*
X157433717Y-86053334D01*
X157405216Y-86097681D01*
X157169513Y-86333383D01*
X157169509Y-86333389D01*
X157110201Y-86436112D01*
X157110200Y-86436117D01*
X157079500Y-86550691D01*
X157079500Y-108772035D01*
X157059815Y-108839074D01*
X157043181Y-108859716D01*
X153609716Y-112293181D01*
X153548393Y-112326666D01*
X153522035Y-112329500D01*
X149484500Y-112329500D01*
X149417461Y-112309815D01*
X149371706Y-112257011D01*
X149360500Y-112205500D01*
X149360500Y-111460693D01*
X149360500Y-111460691D01*
X149329799Y-111346114D01*
X149329797Y-111346110D01*
X149304731Y-111302694D01*
X149270493Y-111243392D01*
X149270487Y-111243384D01*
X147446819Y-109419716D01*
X147413334Y-109358393D01*
X147410500Y-109332035D01*
X147410500Y-108784892D01*
X147430185Y-108717853D01*
X147476049Y-108675533D01*
X147497324Y-108664162D01*
X147643883Y-108543883D01*
X147764162Y-108397324D01*
X147853537Y-108230115D01*
X147908573Y-108048683D01*
X147927157Y-107860000D01*
X148432861Y-107860000D01*
X148453365Y-108068186D01*
X148514092Y-108268375D01*
X148612705Y-108452869D01*
X148649799Y-108498067D01*
X149096957Y-108050910D01*
X149144311Y-108132930D01*
X149227070Y-108215689D01*
X149309089Y-108263042D01*
X148861931Y-108710199D01*
X148861931Y-108710200D01*
X148907126Y-108747292D01*
X148907128Y-108747293D01*
X149091624Y-108845907D01*
X149291815Y-108906634D01*
X149291811Y-108906634D01*
X149500000Y-108927138D01*
X149708186Y-108906634D01*
X149908379Y-108845906D01*
X150092870Y-108747294D01*
X150092874Y-108747291D01*
X150138067Y-108710200D01*
X150138067Y-108710199D01*
X149690910Y-108263042D01*
X149772930Y-108215689D01*
X149855689Y-108132930D01*
X149903042Y-108050910D01*
X150350199Y-108498067D01*
X150350200Y-108498067D01*
X150387291Y-108452874D01*
X150387294Y-108452870D01*
X150485906Y-108268379D01*
X150546634Y-108068186D01*
X150567138Y-107860000D01*
X150546634Y-107651813D01*
X150485907Y-107451624D01*
X150387293Y-107267128D01*
X150387292Y-107267126D01*
X150350200Y-107221931D01*
X150350199Y-107221931D01*
X149903041Y-107669088D01*
X149855689Y-107587070D01*
X149772930Y-107504311D01*
X149690910Y-107456957D01*
X150138067Y-107009799D01*
X150092869Y-106972705D01*
X149908375Y-106874092D01*
X149708184Y-106813365D01*
X149708188Y-106813365D01*
X149500000Y-106792861D01*
X149291813Y-106813365D01*
X149091620Y-106874093D01*
X148907130Y-106972704D01*
X148907128Y-106972706D01*
X148861930Y-107009798D01*
X148861930Y-107009799D01*
X149309089Y-107456957D01*
X149227070Y-107504311D01*
X149144311Y-107587070D01*
X149096957Y-107669088D01*
X148649799Y-107221930D01*
X148649798Y-107221930D01*
X148612706Y-107267128D01*
X148612704Y-107267130D01*
X148514093Y-107451620D01*
X148453365Y-107651813D01*
X148432861Y-107860000D01*
X147927157Y-107860000D01*
X147908573Y-107671317D01*
X147853537Y-107489885D01*
X147829969Y-107445792D01*
X147764165Y-107322681D01*
X147764161Y-107322674D01*
X147643883Y-107176116D01*
X147497325Y-107055839D01*
X147497324Y-107055838D01*
X147497317Y-107055834D01*
X147476043Y-107044462D01*
X147426200Y-106995498D01*
X147410500Y-106935106D01*
X147410500Y-106520693D01*
X147410500Y-106520691D01*
X147379799Y-106406114D01*
X147320490Y-106303386D01*
X146736819Y-105719715D01*
X146703334Y-105658392D01*
X146700500Y-105632034D01*
X146700500Y-99612965D01*
X146720185Y-99545926D01*
X146736819Y-99525284D01*
X147153785Y-99108318D01*
X147580489Y-98681614D01*
X147639799Y-98578887D01*
X147651519Y-98535146D01*
X147670500Y-98464309D01*
X147670500Y-97720691D01*
X147670500Y-93140691D01*
X147670500Y-91820691D01*
X147639799Y-91706114D01*
X147580490Y-91603386D01*
X145606614Y-89629511D01*
X145547302Y-89595267D01*
X145503888Y-89570201D01*
X145491780Y-89566957D01*
X145479673Y-89563713D01*
X145479670Y-89563712D01*
X145441478Y-89553478D01*
X145389309Y-89539500D01*
X139789309Y-89539500D01*
X138460691Y-89539500D01*
X138391944Y-89557920D01*
X138346112Y-89570201D01*
X138346107Y-89570204D01*
X138302695Y-89595267D01*
X138302696Y-89595268D01*
X138243389Y-89629508D01*
X138243383Y-89629513D01*
X135919513Y-91953383D01*
X135919509Y-91953389D01*
X135860201Y-92056112D01*
X135860200Y-92056117D01*
X135829500Y-92170691D01*
X135829500Y-100539308D01*
X135853712Y-100629672D01*
X135860200Y-100653885D01*
X135860200Y-100653886D01*
X135885267Y-100697303D01*
X135919511Y-100756614D01*
X136323386Y-101160489D01*
X136374537Y-101190021D01*
X136426114Y-101219799D01*
X136540691Y-101250500D01*
X136604198Y-101250500D01*
X136671237Y-101270185D01*
X136716992Y-101322989D01*
X136724877Y-101352519D01*
X136725744Y-101352330D01*
X136727353Y-101359701D01*
X136772206Y-101487880D01*
X136772207Y-101487882D01*
X136852850Y-101597150D01*
X136962118Y-101677793D01*
X136995689Y-101689540D01*
X137090299Y-101722646D01*
X137120730Y-101725500D01*
X137120734Y-101725500D01*
X137904270Y-101725500D01*
X137934699Y-101722646D01*
X137934701Y-101722646D01*
X138005342Y-101697927D01*
X138062882Y-101677793D01*
X138172150Y-101597150D01*
X138252793Y-101487882D01*
X138281290Y-101406443D01*
X138297646Y-101359701D01*
X138297646Y-101359699D01*
X138300500Y-101329269D01*
X138300500Y-101318053D01*
X138700000Y-101318053D01*
X138710613Y-101406443D01*
X138766079Y-101547095D01*
X138857435Y-101667564D01*
X138977904Y-101758920D01*
X139118556Y-101814386D01*
X139206946Y-101825000D01*
X139437500Y-101825000D01*
X139437500Y-100950000D01*
X138700000Y-100950000D01*
X138700000Y-101318053D01*
X138300500Y-101318053D01*
X138300500Y-100270730D01*
X138297646Y-100240300D01*
X138297646Y-100240298D01*
X138252793Y-100112119D01*
X138252790Y-100112113D01*
X138171809Y-100002387D01*
X138147838Y-99936758D01*
X138163154Y-99868588D01*
X138183901Y-99841070D01*
X138198156Y-99826816D01*
X138259480Y-99793333D01*
X138285834Y-99790500D01*
X138715413Y-99790500D01*
X138782452Y-99810185D01*
X138828207Y-99862989D01*
X138838151Y-99932147D01*
X138814217Y-99989425D01*
X138766080Y-100052902D01*
X138710613Y-100193556D01*
X138700000Y-100281946D01*
X138700000Y-100650000D01*
X139437500Y-100650000D01*
X139437500Y-99758833D01*
X139457185Y-99691794D01*
X139473819Y-99671152D01*
X139619687Y-99525284D01*
X139840460Y-99304511D01*
X139843330Y-99299540D01*
X139880021Y-99235989D01*
X139880023Y-99235980D01*
X139883130Y-99228482D01*
X139885916Y-99229636D01*
X139914791Y-99182254D01*
X139977634Y-99151718D01*
X139998210Y-99149999D01*
X140083213Y-99149999D01*
X140151251Y-99140086D01*
X140160453Y-99137244D01*
X140161360Y-99140181D01*
X140214388Y-99131117D01*
X140239192Y-99138400D01*
X140239549Y-99137245D01*
X140248751Y-99140088D01*
X140316779Y-99149999D01*
X140375498Y-99149999D01*
X140442538Y-99169683D01*
X140488294Y-99222486D01*
X140499500Y-99273999D01*
X140499500Y-99820746D01*
X140479815Y-99887785D01*
X140427011Y-99933540D01*
X140357853Y-99943484D01*
X140300575Y-99919550D01*
X140197097Y-99841080D01*
X140056443Y-99785613D01*
X139968054Y-99775000D01*
X139737500Y-99775000D01*
X139737500Y-101825000D01*
X139968054Y-101825000D01*
X140056443Y-101814386D01*
X140197097Y-101758919D01*
X140197098Y-101758919D01*
X140300574Y-101680450D01*
X140365886Y-101655626D01*
X140434249Y-101670054D01*
X140483961Y-101719151D01*
X140499500Y-101779253D01*
X140499500Y-101925538D01*
X140479815Y-101992577D01*
X140463181Y-102013219D01*
X139543219Y-102933181D01*
X139481896Y-102966666D01*
X139455538Y-102969500D01*
X136175833Y-102969500D01*
X136108794Y-102949815D01*
X136088152Y-102933181D01*
X134596819Y-101441848D01*
X134563334Y-101380525D01*
X134560500Y-101354167D01*
X134560500Y-86005070D01*
X134580185Y-85938031D01*
X134626047Y-85895712D01*
X134797318Y-85804165D01*
X134797324Y-85804162D01*
X134943883Y-85683883D01*
X135064162Y-85537324D01*
X135153537Y-85370115D01*
X135208573Y-85188683D01*
X135227157Y-85000000D01*
X135832843Y-85000000D01*
X135851426Y-85188681D01*
X135869180Y-85247207D01*
X135906463Y-85370115D01*
X135906464Y-85370118D01*
X135906465Y-85370119D01*
X135906466Y-85370122D01*
X135995834Y-85537318D01*
X135995838Y-85537325D01*
X136116116Y-85683883D01*
X136262674Y-85804161D01*
X136262681Y-85804165D01*
X136429877Y-85893533D01*
X136429878Y-85893533D01*
X136429885Y-85893537D01*
X136611317Y-85948573D01*
X136611316Y-85948573D01*
X136628233Y-85950239D01*
X136800000Y-85967157D01*
X136988683Y-85948573D01*
X137170115Y-85893537D01*
X137337324Y-85804162D01*
X137483883Y-85683883D01*
X137604162Y-85537324D01*
X137693537Y-85370115D01*
X137748573Y-85188683D01*
X137767157Y-85000000D01*
X138372843Y-85000000D01*
X138391426Y-85188681D01*
X138409180Y-85247207D01*
X138446463Y-85370115D01*
X138446464Y-85370118D01*
X138446465Y-85370119D01*
X138446466Y-85370122D01*
X138535834Y-85537318D01*
X138535838Y-85537325D01*
X138656116Y-85683883D01*
X138802674Y-85804161D01*
X138802681Y-85804165D01*
X138969877Y-85893533D01*
X138969878Y-85893533D01*
X138969885Y-85893537D01*
X139151317Y-85948573D01*
X139151316Y-85948573D01*
X139168233Y-85950239D01*
X139340000Y-85967157D01*
X139528683Y-85948573D01*
X139710115Y-85893537D01*
X139877324Y-85804162D01*
X140023883Y-85683883D01*
X140144162Y-85537324D01*
X140233537Y-85370115D01*
X140288573Y-85188683D01*
X140307157Y-85000000D01*
X140912843Y-85000000D01*
X140931426Y-85188681D01*
X140949180Y-85247207D01*
X140986463Y-85370115D01*
X140986464Y-85370118D01*
X140986465Y-85370119D01*
X140986466Y-85370122D01*
X141075834Y-85537318D01*
X141075838Y-85537325D01*
X141196116Y-85683883D01*
X141342674Y-85804161D01*
X141342681Y-85804165D01*
X141509877Y-85893533D01*
X141509878Y-85893533D01*
X141509885Y-85893537D01*
X141691317Y-85948573D01*
X141691316Y-85948573D01*
X141708233Y-85950239D01*
X141880000Y-85967157D01*
X142068683Y-85948573D01*
X142250115Y-85893537D01*
X142417324Y-85804162D01*
X142563883Y-85683883D01*
X142684162Y-85537324D01*
X142773537Y-85370115D01*
X142828573Y-85188683D01*
X142847157Y-85000000D01*
X143452843Y-85000000D01*
X143471426Y-85188681D01*
X143489180Y-85247207D01*
X143526463Y-85370115D01*
X143526464Y-85370118D01*
X143526465Y-85370119D01*
X143526466Y-85370122D01*
X143615834Y-85537318D01*
X143615838Y-85537325D01*
X143736116Y-85683883D01*
X143882674Y-85804161D01*
X143882681Y-85804165D01*
X144049877Y-85893533D01*
X144049878Y-85893533D01*
X144049885Y-85893537D01*
X144231317Y-85948573D01*
X144231316Y-85948573D01*
X144248233Y-85950239D01*
X144420000Y-85967157D01*
X144608683Y-85948573D01*
X144790115Y-85893537D01*
X144957324Y-85804162D01*
X145103883Y-85683883D01*
X145224162Y-85537324D01*
X145313537Y-85370115D01*
X145368573Y-85188683D01*
X145387157Y-85000000D01*
X145992843Y-85000000D01*
X146011426Y-85188681D01*
X146029180Y-85247207D01*
X146066463Y-85370115D01*
X146066464Y-85370118D01*
X146066465Y-85370119D01*
X146066466Y-85370122D01*
X146155834Y-85537318D01*
X146155838Y-85537325D01*
X146276116Y-85683883D01*
X146422674Y-85804161D01*
X146422681Y-85804165D01*
X146589877Y-85893533D01*
X146589878Y-85893533D01*
X146589885Y-85893537D01*
X146771317Y-85948573D01*
X146771316Y-85948573D01*
X146788233Y-85950239D01*
X146960000Y-85967157D01*
X147148683Y-85948573D01*
X147330115Y-85893537D01*
X147497324Y-85804162D01*
X147643883Y-85683883D01*
X147764162Y-85537324D01*
X147853537Y-85370115D01*
X147908573Y-85188683D01*
X147927157Y-85000000D01*
X148432861Y-85000000D01*
X148453365Y-85208186D01*
X148514092Y-85408375D01*
X148612705Y-85592869D01*
X148649799Y-85638067D01*
X149096957Y-85190910D01*
X149144311Y-85272930D01*
X149227070Y-85355689D01*
X149309089Y-85403042D01*
X148861931Y-85850199D01*
X148861931Y-85850200D01*
X148907126Y-85887292D01*
X148907128Y-85887293D01*
X149091624Y-85985907D01*
X149291815Y-86046634D01*
X149291811Y-86046634D01*
X149500000Y-86067138D01*
X149708186Y-86046634D01*
X149908379Y-85985906D01*
X150092870Y-85887294D01*
X150092874Y-85887291D01*
X150138067Y-85850200D01*
X150138067Y-85850199D01*
X149690910Y-85403042D01*
X149772930Y-85355689D01*
X149855689Y-85272930D01*
X149903042Y-85190910D01*
X150350199Y-85638067D01*
X150350200Y-85638067D01*
X150387291Y-85592874D01*
X150387294Y-85592870D01*
X150485906Y-85408379D01*
X150546634Y-85208186D01*
X150567138Y-85000000D01*
X150546634Y-84791813D01*
X150485907Y-84591624D01*
X150387293Y-84407128D01*
X150387292Y-84407126D01*
X150350200Y-84361931D01*
X150350199Y-84361931D01*
X149903041Y-84809088D01*
X149855689Y-84727070D01*
X149772930Y-84644311D01*
X149690910Y-84596957D01*
X150138067Y-84149799D01*
X150092869Y-84112705D01*
X149908375Y-84014092D01*
X149708184Y-83953365D01*
X149708188Y-83953365D01*
X149500000Y-83932861D01*
X149291813Y-83953365D01*
X149091620Y-84014093D01*
X148907130Y-84112704D01*
X148907128Y-84112706D01*
X148861930Y-84149798D01*
X148861930Y-84149799D01*
X149309089Y-84596957D01*
X149227070Y-84644311D01*
X149144311Y-84727070D01*
X149096957Y-84809088D01*
X148649799Y-84361930D01*
X148649798Y-84361930D01*
X148612706Y-84407128D01*
X148612704Y-84407130D01*
X148514093Y-84591620D01*
X148453365Y-84791813D01*
X148432861Y-85000000D01*
X147927157Y-85000000D01*
X147908573Y-84811317D01*
X147853537Y-84629885D01*
X147829969Y-84585792D01*
X147764165Y-84462681D01*
X147764161Y-84462674D01*
X147643883Y-84316116D01*
X147497325Y-84195838D01*
X147497318Y-84195834D01*
X147330122Y-84106466D01*
X147330119Y-84106465D01*
X147330118Y-84106464D01*
X147330115Y-84106463D01*
X147148683Y-84051427D01*
X147148681Y-84051426D01*
X147148683Y-84051426D01*
X146960000Y-84032843D01*
X146771318Y-84051426D01*
X146664194Y-84083921D01*
X146589885Y-84106463D01*
X146589882Y-84106464D01*
X146589880Y-84106465D01*
X146589877Y-84106466D01*
X146422681Y-84195834D01*
X146422674Y-84195838D01*
X146276116Y-84316116D01*
X146155838Y-84462674D01*
X146155834Y-84462681D01*
X146066466Y-84629877D01*
X146066465Y-84629880D01*
X146011426Y-84811318D01*
X145992843Y-85000000D01*
X145387157Y-85000000D01*
X145368573Y-84811317D01*
X145313537Y-84629885D01*
X145289969Y-84585792D01*
X145224165Y-84462681D01*
X145224161Y-84462674D01*
X145103883Y-84316116D01*
X144957325Y-84195838D01*
X144957318Y-84195834D01*
X144790122Y-84106466D01*
X144790119Y-84106465D01*
X144790118Y-84106464D01*
X144790115Y-84106463D01*
X144608683Y-84051427D01*
X144608681Y-84051426D01*
X144608683Y-84051426D01*
X144420000Y-84032843D01*
X144231318Y-84051426D01*
X144124194Y-84083921D01*
X144049885Y-84106463D01*
X144049882Y-84106464D01*
X144049880Y-84106465D01*
X144049877Y-84106466D01*
X143882681Y-84195834D01*
X143882674Y-84195838D01*
X143736116Y-84316116D01*
X143615838Y-84462674D01*
X143615834Y-84462681D01*
X143526466Y-84629877D01*
X143526465Y-84629880D01*
X143471426Y-84811318D01*
X143452843Y-85000000D01*
X142847157Y-85000000D01*
X142828573Y-84811317D01*
X142773537Y-84629885D01*
X142749969Y-84585792D01*
X142684165Y-84462681D01*
X142684161Y-84462674D01*
X142563883Y-84316116D01*
X142417325Y-84195838D01*
X142417318Y-84195834D01*
X142250122Y-84106466D01*
X142250119Y-84106465D01*
X142250118Y-84106464D01*
X142250115Y-84106463D01*
X142068683Y-84051427D01*
X142068681Y-84051426D01*
X142068683Y-84051426D01*
X141880000Y-84032843D01*
X141691318Y-84051426D01*
X141584194Y-84083921D01*
X141509885Y-84106463D01*
X141509882Y-84106464D01*
X141509880Y-84106465D01*
X141509877Y-84106466D01*
X141342681Y-84195834D01*
X141342674Y-84195838D01*
X141196116Y-84316116D01*
X141075838Y-84462674D01*
X141075834Y-84462681D01*
X140986466Y-84629877D01*
X140986465Y-84629880D01*
X140931426Y-84811318D01*
X140912843Y-85000000D01*
X140307157Y-85000000D01*
X140288573Y-84811317D01*
X140233537Y-84629885D01*
X140209969Y-84585792D01*
X140144165Y-84462681D01*
X140144161Y-84462674D01*
X140023883Y-84316116D01*
X139877325Y-84195838D01*
X139877318Y-84195834D01*
X139710122Y-84106466D01*
X139710119Y-84106465D01*
X139710118Y-84106464D01*
X139710115Y-84106463D01*
X139528683Y-84051427D01*
X139528681Y-84051426D01*
X139528683Y-84051426D01*
X139340000Y-84032843D01*
X139151318Y-84051426D01*
X139044194Y-84083921D01*
X138969885Y-84106463D01*
X138969882Y-84106464D01*
X138969880Y-84106465D01*
X138969877Y-84106466D01*
X138802681Y-84195834D01*
X138802674Y-84195838D01*
X138656116Y-84316116D01*
X138535838Y-84462674D01*
X138535834Y-84462681D01*
X138446466Y-84629877D01*
X138446465Y-84629880D01*
X138391426Y-84811318D01*
X138372843Y-85000000D01*
X137767157Y-85000000D01*
X137748573Y-84811317D01*
X137693537Y-84629885D01*
X137669969Y-84585792D01*
X137604165Y-84462681D01*
X137604161Y-84462674D01*
X137483883Y-84316116D01*
X137337325Y-84195838D01*
X137337318Y-84195834D01*
X137170122Y-84106466D01*
X137170119Y-84106465D01*
X137170118Y-84106464D01*
X137170115Y-84106463D01*
X136988683Y-84051427D01*
X136988681Y-84051426D01*
X136988683Y-84051426D01*
X136800000Y-84032843D01*
X136611318Y-84051426D01*
X136504194Y-84083921D01*
X136429885Y-84106463D01*
X136429882Y-84106464D01*
X136429880Y-84106465D01*
X136429877Y-84106466D01*
X136262681Y-84195834D01*
X136262674Y-84195838D01*
X136116116Y-84316116D01*
X135995838Y-84462674D01*
X135995834Y-84462681D01*
X135906466Y-84629877D01*
X135906465Y-84629880D01*
X135851426Y-84811318D01*
X135832843Y-85000000D01*
X135227157Y-85000000D01*
X135208573Y-84811317D01*
X135168653Y-84679719D01*
X135168031Y-84609855D01*
X135199632Y-84556048D01*
X136878863Y-82876819D01*
X136940186Y-82843334D01*
X136966544Y-82840500D01*
X150275681Y-82840500D01*
X150342720Y-82860185D01*
X150377729Y-82894057D01*
X150421817Y-82957929D01*
X150523072Y-83047633D01*
X150549150Y-83070736D01*
X150699773Y-83149789D01*
X150699775Y-83149790D01*
X150864944Y-83190500D01*
X151035056Y-83190500D01*
X151200225Y-83149790D01*
X151279692Y-83108081D01*
X151350849Y-83070736D01*
X151350850Y-83070734D01*
X151350852Y-83070734D01*
X151478183Y-82957929D01*
X151574818Y-82817930D01*
X151579558Y-82805429D01*
X151621735Y-82749728D01*
X151687332Y-82725670D01*
X151755522Y-82740896D01*
X151804656Y-82790571D01*
X151819500Y-82849401D01*
X151819500Y-95028481D01*
X151799815Y-95095520D01*
X151783181Y-95116162D01*
X147859541Y-99039801D01*
X147859535Y-99039809D01*
X147819982Y-99108318D01*
X147819979Y-99108323D01*
X147812230Y-99137244D01*
X147800170Y-99182254D01*
X147799500Y-99184753D01*
X147799500Y-101274167D01*
X147779815Y-101341206D01*
X147763181Y-101361848D01*
X147259541Y-101865487D01*
X147259535Y-101865495D01*
X147219982Y-101934004D01*
X147219979Y-101934009D01*
X147209109Y-101974578D01*
X147199500Y-102010438D01*
X147199500Y-103339562D01*
X147205799Y-103363070D01*
X147219979Y-103415991D01*
X147224758Y-103424267D01*
X147224759Y-103424269D01*
X147259537Y-103484507D01*
X147259541Y-103484512D01*
X147737622Y-103962593D01*
X147771107Y-104023916D01*
X147773037Y-104035327D01*
X147789859Y-104173868D01*
X147789860Y-104173874D01*
X147850182Y-104332931D01*
X147946818Y-104472930D01*
X148078531Y-104589618D01*
X148115658Y-104648807D01*
X148114890Y-104718673D01*
X148078532Y-104775248D01*
X147991816Y-104852071D01*
X147895182Y-104992068D01*
X147834860Y-105151125D01*
X147834859Y-105151130D01*
X147814355Y-105320000D01*
X147834859Y-105488869D01*
X147834860Y-105488874D01*
X147895182Y-105647931D01*
X147944732Y-105719715D01*
X147991817Y-105787929D01*
X148097505Y-105881560D01*
X148119150Y-105900736D01*
X148269773Y-105979789D01*
X148269775Y-105979790D01*
X148434944Y-106020500D01*
X148605056Y-106020500D01*
X148770225Y-105979790D01*
X148849692Y-105938081D01*
X148920849Y-105900736D01*
X148920850Y-105900734D01*
X148920852Y-105900734D01*
X149048183Y-105787929D01*
X149144818Y-105647930D01*
X149144819Y-105647927D01*
X149145847Y-105646438D01*
X149200130Y-105602448D01*
X149200450Y-105602315D01*
X149205986Y-105600021D01*
X149205989Y-105600021D01*
X149205991Y-105600019D01*
X149205993Y-105600019D01*
X149274504Y-105560464D01*
X149274503Y-105560464D01*
X149274511Y-105560460D01*
X149330460Y-105504511D01*
X149670460Y-105164511D01*
X149710022Y-105095988D01*
X149730500Y-105019562D01*
X149730500Y-104940438D01*
X149730500Y-101974578D01*
X149750185Y-101907539D01*
X149802989Y-101861784D01*
X149872147Y-101851840D01*
X149912126Y-101864782D01*
X149956545Y-101888095D01*
X149959775Y-101889790D01*
X150124944Y-101930500D01*
X150295056Y-101930500D01*
X150460225Y-101889790D01*
X150539692Y-101848081D01*
X150610849Y-101810736D01*
X150610850Y-101810734D01*
X150610852Y-101810734D01*
X150738183Y-101697929D01*
X150834818Y-101557930D01*
X150895140Y-101398872D01*
X150915645Y-101230000D01*
X150895140Y-101061128D01*
X150834818Y-100902070D01*
X150738183Y-100762071D01*
X150610852Y-100649266D01*
X150610849Y-100649263D01*
X150460226Y-100570210D01*
X150295056Y-100529500D01*
X150124944Y-100529500D01*
X150124940Y-100529500D01*
X150040035Y-100550426D01*
X149970233Y-100547356D01*
X149922681Y-100517710D01*
X149836819Y-100431848D01*
X149803334Y-100370525D01*
X149800500Y-100344167D01*
X149800500Y-99715833D01*
X149820185Y-99648794D01*
X149836819Y-99628152D01*
X153560460Y-95904511D01*
X153565060Y-95896543D01*
X153600021Y-95835989D01*
X153620500Y-95759562D01*
X153620500Y-79418053D01*
X154475000Y-79418053D01*
X154485613Y-79506443D01*
X154541079Y-79647095D01*
X154632435Y-79767564D01*
X154752904Y-79858920D01*
X154893556Y-79914386D01*
X154981946Y-79925000D01*
X155350000Y-79925000D01*
X155650000Y-79925000D01*
X156018054Y-79925000D01*
X156106443Y-79914386D01*
X156247095Y-79858920D01*
X156367564Y-79767564D01*
X156458920Y-79647095D01*
X156514386Y-79506443D01*
X156525000Y-79418053D01*
X156525000Y-79187500D01*
X155650000Y-79187500D01*
X155650000Y-79925000D01*
X155350000Y-79925000D01*
X155350000Y-79187500D01*
X154475000Y-79187500D01*
X154475000Y-79418053D01*
X153620500Y-79418053D01*
X153620500Y-78656946D01*
X154475000Y-78656946D01*
X154475000Y-78887500D01*
X155350000Y-78887500D01*
X155650000Y-78887500D01*
X156525000Y-78887500D01*
X156525000Y-78656946D01*
X156514386Y-78568556D01*
X156458920Y-78427904D01*
X156367564Y-78307435D01*
X156247095Y-78216079D01*
X156106443Y-78160613D01*
X156018054Y-78150000D01*
X155650000Y-78150000D01*
X155650000Y-78887500D01*
X155350000Y-78887500D01*
X155350000Y-78150000D01*
X154981946Y-78150000D01*
X154893556Y-78160613D01*
X154752904Y-78216079D01*
X154632435Y-78307435D01*
X154541079Y-78427904D01*
X154485613Y-78568556D01*
X154475000Y-78656946D01*
X153620500Y-78656946D01*
X153620500Y-78461982D01*
X153600021Y-78385555D01*
X153600017Y-78385548D01*
X153560464Y-78317039D01*
X153560458Y-78317031D01*
X151855608Y-76612181D01*
X151822123Y-76550858D01*
X151827107Y-76481166D01*
X151868979Y-76425233D01*
X151934443Y-76400816D01*
X151943289Y-76400500D01*
X154390956Y-76400500D01*
X154457995Y-76420185D01*
G37*
%TD.AperFunction*%
%TA.AperFunction,Conductor*%
G36*
X139098530Y-90460185D02*
G01*
X139144285Y-90512989D01*
X139154229Y-90582147D01*
X139125204Y-90645703D01*
X139105124Y-90664270D01*
X139052851Y-90702848D01*
X138972207Y-90812117D01*
X138972206Y-90812119D01*
X138927353Y-90940298D01*
X138927353Y-90940300D01*
X138924500Y-90970730D01*
X138924500Y-92029269D01*
X138927353Y-92059699D01*
X138927353Y-92059701D01*
X138972206Y-92187880D01*
X138972207Y-92187882D01*
X139052850Y-92297150D01*
X139162118Y-92377793D01*
X139216456Y-92396806D01*
X139273231Y-92437527D01*
X139298978Y-92502480D01*
X139299500Y-92513847D01*
X139299500Y-94589562D01*
X139309739Y-94627775D01*
X139319979Y-94665991D01*
X139320833Y-94668051D01*
X139321034Y-94669927D01*
X139322083Y-94673840D01*
X139321472Y-94674003D01*
X139328299Y-94737521D01*
X139297022Y-94799999D01*
X139236932Y-94835649D01*
X139206270Y-94839500D01*
X138700000Y-94839500D01*
X138687255Y-94842035D01*
X138640491Y-94851336D01*
X138640486Y-94851338D01*
X138601608Y-94867442D01*
X138601604Y-94867443D01*
X138566445Y-94887743D01*
X138517445Y-94951600D01*
X138517445Y-94951601D01*
X138501338Y-94990486D01*
X138501336Y-94990491D01*
X138499232Y-95001069D01*
X138492206Y-95036398D01*
X138489500Y-95050001D01*
X138489500Y-95149998D01*
X138501336Y-95209508D01*
X138501338Y-95209513D01*
X138517440Y-95248388D01*
X138518100Y-95249725D01*
X138518176Y-95250165D01*
X138518998Y-95252148D01*
X138518554Y-95252331D01*
X138530103Y-95318556D01*
X138514889Y-95360107D01*
X138515806Y-95360487D01*
X138511131Y-95371770D01*
X138499500Y-95430247D01*
X138499500Y-95569752D01*
X138511131Y-95628229D01*
X138511132Y-95628231D01*
X138513058Y-95631113D01*
X138515322Y-95638344D01*
X138515806Y-95639513D01*
X138515701Y-95639556D01*
X138533933Y-95697791D01*
X138515446Y-95765171D01*
X138513058Y-95768887D01*
X138511132Y-95771768D01*
X138511131Y-95771770D01*
X138499500Y-95830247D01*
X138499500Y-95969752D01*
X138511131Y-96028229D01*
X138511132Y-96028231D01*
X138513058Y-96031113D01*
X138515322Y-96038344D01*
X138515806Y-96039513D01*
X138515701Y-96039556D01*
X138533933Y-96097791D01*
X138515446Y-96165171D01*
X138513058Y-96168887D01*
X138511132Y-96171768D01*
X138511131Y-96171770D01*
X138499500Y-96230247D01*
X138499500Y-96369752D01*
X138511131Y-96428229D01*
X138511132Y-96428231D01*
X138513058Y-96431113D01*
X138515322Y-96438344D01*
X138515806Y-96439513D01*
X138515701Y-96439556D01*
X138533933Y-96497791D01*
X138515446Y-96565171D01*
X138513058Y-96568887D01*
X138511132Y-96571768D01*
X138511131Y-96571770D01*
X138499500Y-96630247D01*
X138499500Y-96704162D01*
X138479815Y-96771201D01*
X138463181Y-96791843D01*
X138411214Y-96843809D01*
X138411212Y-96843811D01*
X138359912Y-96948748D01*
X138359911Y-96948751D01*
X138350000Y-97016780D01*
X138350000Y-97183213D01*
X138359913Y-97251253D01*
X138362756Y-97260455D01*
X138359823Y-97261361D01*
X138368879Y-97314421D01*
X138361606Y-97339196D01*
X138362755Y-97339552D01*
X138359910Y-97348755D01*
X138350000Y-97416780D01*
X138350000Y-97583213D01*
X138359912Y-97651248D01*
X138411215Y-97756191D01*
X138453180Y-97798155D01*
X138486666Y-97859478D01*
X138489500Y-97885837D01*
X138489500Y-97950000D01*
X138492771Y-97966446D01*
X138501336Y-98009508D01*
X138501338Y-98009513D01*
X138517442Y-98048391D01*
X138517443Y-98048395D01*
X138519005Y-98051100D01*
X138537743Y-98083554D01*
X138601602Y-98132555D01*
X138640493Y-98148664D01*
X138700000Y-98160500D01*
X138700001Y-98160500D01*
X139206271Y-98160500D01*
X139273310Y-98180185D01*
X139319065Y-98232989D01*
X139329009Y-98302147D01*
X139320831Y-98331955D01*
X139319979Y-98334009D01*
X139311150Y-98366961D01*
X139299712Y-98409649D01*
X139299500Y-98410439D01*
X139299500Y-98944167D01*
X139279815Y-99011206D01*
X139263181Y-99031848D01*
X139141848Y-99153181D01*
X139080525Y-99186666D01*
X139054167Y-99189500D01*
X138070438Y-99189500D01*
X137994010Y-99209978D01*
X137925489Y-99249540D01*
X137925486Y-99249542D01*
X137336848Y-99838181D01*
X137275525Y-99871666D01*
X137249167Y-99874500D01*
X137120730Y-99874500D01*
X137090300Y-99877353D01*
X137090298Y-99877353D01*
X136962119Y-99922206D01*
X136962118Y-99922207D01*
X136928133Y-99947289D01*
X136862504Y-99971259D01*
X136794333Y-99955943D01*
X136745266Y-99906202D01*
X136730500Y-99847518D01*
X136730500Y-92467965D01*
X136750185Y-92400926D01*
X136766819Y-92380284D01*
X138670284Y-90476819D01*
X138731607Y-90443334D01*
X138757965Y-90440500D01*
X139031491Y-90440500D01*
X139098530Y-90460185D01*
G37*
%TD.AperFunction*%
%TA.AperFunction,Conductor*%
G36*
X141865165Y-95084550D02*
G01*
X141868892Y-95086945D01*
X141871768Y-95088867D01*
X141871770Y-95088868D01*
X141930247Y-95100499D01*
X141930250Y-95100500D01*
X141930252Y-95100500D01*
X142069750Y-95100500D01*
X142069751Y-95100499D01*
X142084568Y-95097552D01*
X142128229Y-95088868D01*
X142139513Y-95084194D01*
X142140173Y-95085788D01*
X142193035Y-95069230D01*
X142242978Y-95082138D01*
X142244094Y-95079445D01*
X142251601Y-95082554D01*
X142251602Y-95082555D01*
X142278992Y-95093900D01*
X142290486Y-95098661D01*
X142290490Y-95098663D01*
X142290491Y-95098663D01*
X142290493Y-95098664D01*
X142301683Y-95100889D01*
X142363594Y-95133274D01*
X142398168Y-95193990D01*
X142399108Y-95198311D01*
X142401333Y-95209498D01*
X142401338Y-95209513D01*
X142417440Y-95248388D01*
X142418100Y-95249725D01*
X142418176Y-95250165D01*
X142418998Y-95252148D01*
X142418554Y-95252331D01*
X142430103Y-95318556D01*
X142414889Y-95360107D01*
X142415806Y-95360487D01*
X142411131Y-95371770D01*
X142399500Y-95430247D01*
X142399500Y-95569752D01*
X142411131Y-95628229D01*
X142411132Y-95628231D01*
X142413058Y-95631113D01*
X142415322Y-95638344D01*
X142415806Y-95639513D01*
X142415701Y-95639556D01*
X142433933Y-95697791D01*
X142415446Y-95765171D01*
X142413058Y-95768887D01*
X142411132Y-95771768D01*
X142411131Y-95771770D01*
X142399500Y-95830247D01*
X142399500Y-95969752D01*
X142411131Y-96028229D01*
X142411132Y-96028231D01*
X142413058Y-96031113D01*
X142415322Y-96038344D01*
X142415806Y-96039513D01*
X142415701Y-96039556D01*
X142433933Y-96097791D01*
X142415446Y-96165171D01*
X142413058Y-96168887D01*
X142411132Y-96171768D01*
X142411131Y-96171770D01*
X142399500Y-96230247D01*
X142399500Y-96304162D01*
X142379815Y-96371201D01*
X142363181Y-96391843D01*
X142311214Y-96443809D01*
X142311212Y-96443811D01*
X142259912Y-96548748D01*
X142259911Y-96548751D01*
X142250000Y-96616780D01*
X142250000Y-96783213D01*
X142259912Y-96851248D01*
X142311214Y-96956189D01*
X142363181Y-97008155D01*
X142396666Y-97069478D01*
X142399500Y-97095837D01*
X142399500Y-97104162D01*
X142379815Y-97171201D01*
X142363181Y-97191843D01*
X142311214Y-97243809D01*
X142311212Y-97243811D01*
X142259912Y-97348748D01*
X142259911Y-97348751D01*
X142250000Y-97416780D01*
X142250000Y-97583213D01*
X142259913Y-97651253D01*
X142262698Y-97660268D01*
X142263677Y-97730131D01*
X142261803Y-97735669D01*
X142260597Y-97739816D01*
X142248025Y-97807072D01*
X142216356Y-97869352D01*
X142156044Y-97904625D01*
X142101947Y-97905904D01*
X142069749Y-97899500D01*
X142069748Y-97899500D01*
X141930252Y-97899500D01*
X141930247Y-97899500D01*
X141871770Y-97911131D01*
X141871768Y-97911132D01*
X141868887Y-97913058D01*
X141861655Y-97915322D01*
X141860487Y-97915806D01*
X141860443Y-97915701D01*
X141802209Y-97933933D01*
X141734829Y-97915446D01*
X141731113Y-97913058D01*
X141728231Y-97911132D01*
X141728229Y-97911131D01*
X141669752Y-97899500D01*
X141669748Y-97899500D01*
X141530252Y-97899500D01*
X141530247Y-97899500D01*
X141471770Y-97911131D01*
X141471768Y-97911132D01*
X141468887Y-97913058D01*
X141461655Y-97915322D01*
X141460487Y-97915806D01*
X141460443Y-97915701D01*
X141402209Y-97933933D01*
X141334829Y-97915446D01*
X141331113Y-97913058D01*
X141328231Y-97911132D01*
X141328229Y-97911131D01*
X141269752Y-97899500D01*
X141269748Y-97899500D01*
X141130252Y-97899500D01*
X141130247Y-97899500D01*
X141071770Y-97911131D01*
X141071768Y-97911132D01*
X141068887Y-97913058D01*
X141061655Y-97915322D01*
X141060487Y-97915806D01*
X141060443Y-97915701D01*
X141002209Y-97933933D01*
X140934829Y-97915446D01*
X140931113Y-97913058D01*
X140928231Y-97911132D01*
X140928229Y-97911131D01*
X140869752Y-97899500D01*
X140869748Y-97899500D01*
X140795837Y-97899500D01*
X140728798Y-97879815D01*
X140708155Y-97863181D01*
X140656187Y-97811212D01*
X140551251Y-97759912D01*
X140551248Y-97759911D01*
X140483219Y-97750000D01*
X140316786Y-97750000D01*
X140248746Y-97759913D01*
X140239545Y-97762756D01*
X140238639Y-97759825D01*
X140185562Y-97768877D01*
X140160803Y-97761605D01*
X140160448Y-97762755D01*
X140151244Y-97759910D01*
X140083219Y-97750000D01*
X139916783Y-97750000D01*
X139886108Y-97754469D01*
X139816931Y-97744653D01*
X139764043Y-97698995D01*
X139744235Y-97631992D01*
X139745531Y-97613883D01*
X139749999Y-97583216D01*
X139749999Y-97416786D01*
X139740086Y-97348748D01*
X139737244Y-97339547D01*
X139740181Y-97338639D01*
X139731117Y-97285612D01*
X139738400Y-97260807D01*
X139737245Y-97260451D01*
X139740088Y-97251248D01*
X139749999Y-97183219D01*
X139749999Y-97016786D01*
X139740087Y-96948751D01*
X139688784Y-96843808D01*
X139636819Y-96791843D01*
X139603334Y-96730520D01*
X139600500Y-96704162D01*
X139600500Y-96630249D01*
X139600499Y-96630247D01*
X139588868Y-96571770D01*
X139588867Y-96571768D01*
X139586945Y-96568892D01*
X139584681Y-96561664D01*
X139584194Y-96560487D01*
X139584299Y-96560443D01*
X139566066Y-96502215D01*
X139584550Y-96434835D01*
X139586945Y-96431108D01*
X139588867Y-96428231D01*
X139588868Y-96428229D01*
X139600499Y-96369752D01*
X139600500Y-96369750D01*
X139600500Y-96230249D01*
X139600499Y-96230247D01*
X139588868Y-96171770D01*
X139588867Y-96171768D01*
X139586945Y-96168892D01*
X139584681Y-96161664D01*
X139584194Y-96160487D01*
X139584299Y-96160443D01*
X139566066Y-96102215D01*
X139584550Y-96034835D01*
X139586945Y-96031108D01*
X139588867Y-96028231D01*
X139588868Y-96028229D01*
X139600499Y-95969752D01*
X139600500Y-95969750D01*
X139600500Y-95830249D01*
X139600499Y-95830247D01*
X139588868Y-95771770D01*
X139588867Y-95771768D01*
X139586945Y-95768892D01*
X139584681Y-95761664D01*
X139584194Y-95760487D01*
X139584299Y-95760443D01*
X139566066Y-95702215D01*
X139584550Y-95634835D01*
X139586945Y-95631108D01*
X139588867Y-95628231D01*
X139588868Y-95628229D01*
X139600499Y-95569752D01*
X139600500Y-95569750D01*
X139600500Y-95430249D01*
X139600499Y-95430247D01*
X139588868Y-95371770D01*
X139584194Y-95360487D01*
X139585787Y-95359826D01*
X139569231Y-95306947D01*
X139582125Y-95257080D01*
X139579422Y-95255962D01*
X139579731Y-95255215D01*
X139583968Y-95249951D01*
X139585843Y-95242703D01*
X139586638Y-95241327D01*
X139589554Y-95243012D01*
X139623546Y-95200791D01*
X139689830Y-95178694D01*
X139748776Y-95191213D01*
X139848751Y-95240088D01*
X139916780Y-95249999D01*
X140083213Y-95249999D01*
X140151248Y-95240087D01*
X140256189Y-95188785D01*
X140308155Y-95136819D01*
X140369478Y-95103334D01*
X140395837Y-95100500D01*
X140469750Y-95100500D01*
X140469751Y-95100499D01*
X140484568Y-95097552D01*
X140528229Y-95088868D01*
X140528231Y-95088867D01*
X140531108Y-95086945D01*
X140538335Y-95084681D01*
X140539513Y-95084194D01*
X140539556Y-95084299D01*
X140597785Y-95066066D01*
X140665165Y-95084550D01*
X140668892Y-95086945D01*
X140671768Y-95088867D01*
X140671770Y-95088868D01*
X140730247Y-95100499D01*
X140730250Y-95100500D01*
X140730252Y-95100500D01*
X140869750Y-95100500D01*
X140869751Y-95100499D01*
X140884568Y-95097552D01*
X140928229Y-95088868D01*
X140928231Y-95088867D01*
X140931108Y-95086945D01*
X140938335Y-95084681D01*
X140939513Y-95084194D01*
X140939556Y-95084299D01*
X140997785Y-95066066D01*
X141065165Y-95084550D01*
X141068892Y-95086945D01*
X141071768Y-95088867D01*
X141071770Y-95088868D01*
X141130247Y-95100499D01*
X141130250Y-95100500D01*
X141130252Y-95100500D01*
X141269750Y-95100500D01*
X141269751Y-95100499D01*
X141284568Y-95097552D01*
X141328229Y-95088868D01*
X141328231Y-95088867D01*
X141331108Y-95086945D01*
X141338335Y-95084681D01*
X141339513Y-95084194D01*
X141339556Y-95084299D01*
X141397785Y-95066066D01*
X141465165Y-95084550D01*
X141468892Y-95086945D01*
X141471768Y-95088867D01*
X141471770Y-95088868D01*
X141530247Y-95100499D01*
X141530250Y-95100500D01*
X141530252Y-95100500D01*
X141669750Y-95100500D01*
X141669751Y-95100499D01*
X141684568Y-95097552D01*
X141728229Y-95088868D01*
X141728231Y-95088867D01*
X141731108Y-95086945D01*
X141738335Y-95084681D01*
X141739513Y-95084194D01*
X141739556Y-95084299D01*
X141797785Y-95066066D01*
X141865165Y-95084550D01*
G37*
%TD.AperFunction*%
%TA.AperFunction,Conductor*%
G36*
X146712539Y-93520185D02*
G01*
X146758294Y-93572989D01*
X146769500Y-93624500D01*
X146769500Y-95073737D01*
X146749815Y-95140776D01*
X146697011Y-95186531D01*
X146627853Y-95196475D01*
X146564297Y-95167450D01*
X146530145Y-95119227D01*
X146508920Y-95065404D01*
X146417564Y-94944935D01*
X146297095Y-94853579D01*
X146156443Y-94798113D01*
X146068054Y-94787500D01*
X145700000Y-94787500D01*
X145700000Y-96562500D01*
X146068054Y-96562500D01*
X146156443Y-96551886D01*
X146297095Y-96496420D01*
X146417564Y-96405064D01*
X146508921Y-96284594D01*
X146530145Y-96230773D01*
X146573051Y-96175629D01*
X146638958Y-96152435D01*
X146706943Y-96168555D01*
X146755420Y-96218872D01*
X146769500Y-96276262D01*
X146769500Y-97325500D01*
X146749815Y-97392539D01*
X146697011Y-97438294D01*
X146645500Y-97449500D01*
X146596974Y-97449500D01*
X146529935Y-97429815D01*
X146484180Y-97377011D01*
X146473515Y-97337077D01*
X146472646Y-97327801D01*
X146472645Y-97327798D01*
X146472645Y-97327796D01*
X146427793Y-97199619D01*
X146427792Y-97199617D01*
X146415690Y-97183219D01*
X146347150Y-97090350D01*
X146237882Y-97009707D01*
X146237880Y-97009706D01*
X146109700Y-96964853D01*
X146079270Y-96962000D01*
X146079266Y-96962000D01*
X145020734Y-96962000D01*
X145020730Y-96962000D01*
X144990300Y-96964853D01*
X144990298Y-96964853D01*
X144862119Y-97009706D01*
X144862117Y-97009707D01*
X144752850Y-97090350D01*
X144672207Y-97199617D01*
X144639501Y-97293083D01*
X144598778Y-97349859D01*
X144533825Y-97375605D01*
X144465264Y-97362148D01*
X144434779Y-97339808D01*
X143954512Y-96859541D01*
X143954507Y-96859537D01*
X143941983Y-96852307D01*
X143937123Y-96849501D01*
X143937120Y-96849498D01*
X143937120Y-96849499D01*
X143900282Y-96828231D01*
X143885990Y-96819979D01*
X143860513Y-96813152D01*
X143809562Y-96799500D01*
X143773999Y-96799500D01*
X143706960Y-96779815D01*
X143661205Y-96727011D01*
X143649999Y-96675500D01*
X143649999Y-96616786D01*
X143640087Y-96548751D01*
X143588784Y-96443808D01*
X143536819Y-96391843D01*
X143503334Y-96330520D01*
X143500500Y-96304162D01*
X143500500Y-96230249D01*
X143500499Y-96230247D01*
X143488868Y-96171770D01*
X143488867Y-96171768D01*
X143486945Y-96168892D01*
X143484681Y-96161664D01*
X143484194Y-96160487D01*
X143484299Y-96160443D01*
X143466066Y-96102215D01*
X143478867Y-96055553D01*
X144525000Y-96055553D01*
X144535613Y-96143943D01*
X144591079Y-96284595D01*
X144682435Y-96405064D01*
X144802904Y-96496420D01*
X144943556Y-96551886D01*
X145031946Y-96562500D01*
X145400000Y-96562500D01*
X145400000Y-95825000D01*
X144525000Y-95825000D01*
X144525000Y-96055553D01*
X143478867Y-96055553D01*
X143484550Y-96034835D01*
X143486945Y-96031108D01*
X143488867Y-96028231D01*
X143488868Y-96028229D01*
X143500499Y-95969752D01*
X143500500Y-95969750D01*
X143500500Y-95830249D01*
X143500499Y-95830247D01*
X143488868Y-95771770D01*
X143488867Y-95771768D01*
X143486945Y-95768892D01*
X143484681Y-95761664D01*
X143484194Y-95760487D01*
X143484299Y-95760443D01*
X143466066Y-95702215D01*
X143484550Y-95634835D01*
X143486945Y-95631108D01*
X143488867Y-95628231D01*
X143488868Y-95628229D01*
X143500499Y-95569752D01*
X143500500Y-95569750D01*
X143500500Y-95430249D01*
X143500499Y-95430247D01*
X143488868Y-95371770D01*
X143484194Y-95360487D01*
X143485787Y-95359826D01*
X143469231Y-95306947D01*
X143472463Y-95294446D01*
X144525000Y-95294446D01*
X144525000Y-95525000D01*
X145400000Y-95525000D01*
X145400000Y-94787500D01*
X145031946Y-94787500D01*
X144943556Y-94798113D01*
X144802904Y-94853579D01*
X144682435Y-94944935D01*
X144591079Y-95065404D01*
X144535613Y-95206056D01*
X144525000Y-95294446D01*
X143472463Y-95294446D01*
X143482140Y-95257023D01*
X143479445Y-95255907D01*
X143488014Y-95235218D01*
X143498664Y-95209507D01*
X143510500Y-95150000D01*
X143510500Y-95050000D01*
X143498664Y-94990493D01*
X143482555Y-94951602D01*
X143462257Y-94916446D01*
X143411259Y-94877314D01*
X143398398Y-94867445D01*
X143359513Y-94851338D01*
X143359508Y-94851336D01*
X143329753Y-94845418D01*
X143300000Y-94839500D01*
X142784500Y-94839500D01*
X142717461Y-94819815D01*
X142671706Y-94767011D01*
X142660500Y-94715500D01*
X142660500Y-94200001D01*
X142660500Y-94200000D01*
X142648664Y-94140493D01*
X142632555Y-94101602D01*
X142612257Y-94066446D01*
X142608549Y-94063601D01*
X142548398Y-94017445D01*
X142509513Y-94001338D01*
X142509508Y-94001336D01*
X142479753Y-93995418D01*
X142450000Y-93989500D01*
X142350000Y-93989500D01*
X142330164Y-93993445D01*
X142290491Y-94001336D01*
X142290486Y-94001338D01*
X142251601Y-94017445D01*
X142250265Y-94018104D01*
X142249825Y-94018180D01*
X142247852Y-94018998D01*
X142247669Y-94018556D01*
X142181433Y-94030102D01*
X142139892Y-94014889D01*
X142139513Y-94015806D01*
X142128229Y-94011131D01*
X142069752Y-93999500D01*
X142069748Y-93999500D01*
X141930252Y-93999500D01*
X141930247Y-93999500D01*
X141871770Y-94011131D01*
X141871768Y-94011132D01*
X141868887Y-94013058D01*
X141861655Y-94015322D01*
X141860487Y-94015806D01*
X141860443Y-94015701D01*
X141802209Y-94033933D01*
X141734829Y-94015446D01*
X141731113Y-94013058D01*
X141728231Y-94011132D01*
X141728229Y-94011131D01*
X141669752Y-93999500D01*
X141669748Y-93999500D01*
X141530252Y-93999500D01*
X141530247Y-93999500D01*
X141471770Y-94011131D01*
X141471768Y-94011132D01*
X141468887Y-94013058D01*
X141461655Y-94015322D01*
X141460487Y-94015806D01*
X141460443Y-94015701D01*
X141402209Y-94033933D01*
X141334829Y-94015446D01*
X141331113Y-94013058D01*
X141328231Y-94011132D01*
X141328229Y-94011131D01*
X141269752Y-93999500D01*
X141269748Y-93999500D01*
X141130252Y-93999500D01*
X141130247Y-93999500D01*
X141071770Y-94011131D01*
X141071768Y-94011132D01*
X141068887Y-94013058D01*
X141061655Y-94015322D01*
X141060487Y-94015806D01*
X141060443Y-94015701D01*
X141002209Y-94033933D01*
X140934829Y-94015446D01*
X140931113Y-94013058D01*
X140928231Y-94011132D01*
X140928229Y-94011131D01*
X140869752Y-93999500D01*
X140869748Y-93999500D01*
X140824500Y-93999500D01*
X140757461Y-93979815D01*
X140711706Y-93927011D01*
X140700500Y-93875500D01*
X140700500Y-93855833D01*
X140720185Y-93788794D01*
X140736819Y-93768152D01*
X140968152Y-93536819D01*
X141029475Y-93503334D01*
X141055833Y-93500500D01*
X146645500Y-93500500D01*
X146712539Y-93520185D01*
G37*
%TD.AperFunction*%
%TA.AperFunction,Conductor*%
G36*
X141020369Y-90460185D02*
G01*
X141066124Y-90512989D01*
X141076068Y-90582147D01*
X141052134Y-90639426D01*
X140966079Y-90752904D01*
X140910613Y-90893556D01*
X140900000Y-90981946D01*
X140900000Y-91350000D01*
X142675000Y-91350000D01*
X142675000Y-90981946D01*
X142664386Y-90893556D01*
X142608920Y-90752904D01*
X142522866Y-90639426D01*
X142498043Y-90574114D01*
X142512471Y-90505750D01*
X142561568Y-90456039D01*
X142621670Y-90440500D01*
X145092035Y-90440500D01*
X145159074Y-90460185D01*
X145179716Y-90476819D01*
X146733181Y-92030284D01*
X146766666Y-92091607D01*
X146769500Y-92117965D01*
X146769500Y-92775500D01*
X146749815Y-92842539D01*
X146697011Y-92888294D01*
X146645500Y-92899500D01*
X140840438Y-92899500D01*
X140764010Y-92919978D01*
X140695489Y-92959540D01*
X140695486Y-92959542D01*
X140159541Y-93495487D01*
X140159537Y-93495492D01*
X140131887Y-93543385D01*
X140081320Y-93591600D01*
X140012713Y-93604824D01*
X139947848Y-93578856D01*
X139907320Y-93521942D01*
X139900500Y-93481385D01*
X139900500Y-92549500D01*
X139920185Y-92482461D01*
X139972989Y-92436706D01*
X140024500Y-92425500D01*
X140104270Y-92425500D01*
X140134699Y-92422646D01*
X140134701Y-92422646D01*
X140198790Y-92400219D01*
X140262882Y-92377793D01*
X140372150Y-92297150D01*
X140452793Y-92187882D01*
X140486481Y-92091607D01*
X140497646Y-92059701D01*
X140497646Y-92059699D01*
X140500500Y-92029269D01*
X140500500Y-92018053D01*
X140900000Y-92018053D01*
X140910613Y-92106443D01*
X140966079Y-92247095D01*
X141057435Y-92367564D01*
X141177904Y-92458920D01*
X141318556Y-92514386D01*
X141406946Y-92525000D01*
X141637500Y-92525000D01*
X141937500Y-92525000D01*
X142168054Y-92525000D01*
X142256443Y-92514386D01*
X142397095Y-92458920D01*
X142517564Y-92367564D01*
X142608920Y-92247095D01*
X142664386Y-92106443D01*
X142675000Y-92018053D01*
X142675000Y-91650000D01*
X141937500Y-91650000D01*
X141937500Y-92525000D01*
X141637500Y-92525000D01*
X141637500Y-91650000D01*
X140900000Y-91650000D01*
X140900000Y-92018053D01*
X140500500Y-92018053D01*
X140500500Y-90970730D01*
X140497646Y-90940300D01*
X140497646Y-90940298D01*
X140452793Y-90812119D01*
X140452792Y-90812117D01*
X140409091Y-90752904D01*
X140372150Y-90702850D01*
X140372148Y-90702849D01*
X140372148Y-90702848D01*
X140319876Y-90664270D01*
X140277625Y-90608623D01*
X140272166Y-90538967D01*
X140305233Y-90477417D01*
X140366327Y-90443516D01*
X140393509Y-90440500D01*
X140953330Y-90440500D01*
X141020369Y-90460185D01*
G37*
%TD.AperFunction*%
%TA.AperFunction,Conductor*%
G36*
X124016342Y-70520185D02*
G01*
X124062097Y-70572989D01*
X124072041Y-70642147D01*
X124043016Y-70705703D01*
X123996756Y-70739061D01*
X123899675Y-70779273D01*
X123899666Y-70779277D01*
X123689587Y-70900567D01*
X123497144Y-71048233D01*
X123497137Y-71048239D01*
X123325620Y-71219756D01*
X123325614Y-71219763D01*
X123177948Y-71412206D01*
X123056658Y-71622285D01*
X123056654Y-71622294D01*
X122963828Y-71846395D01*
X122901042Y-72080714D01*
X122869381Y-72321211D01*
X122869381Y-72563788D01*
X122901042Y-72804285D01*
X122963828Y-73038604D01*
X123030090Y-73198573D01*
X123056657Y-73262712D01*
X123177945Y-73472789D01*
X123177947Y-73472792D01*
X123177948Y-73472793D01*
X123325614Y-73665236D01*
X123325620Y-73665243D01*
X123497137Y-73836760D01*
X123497143Y-73836765D01*
X123689592Y-73984436D01*
X123899669Y-74105724D01*
X124123781Y-74198554D01*
X124358092Y-74261338D01*
X124538467Y-74285084D01*
X124598592Y-74293000D01*
X124598593Y-74293000D01*
X124841170Y-74293000D01*
X124889269Y-74286667D01*
X125081670Y-74261338D01*
X125315981Y-74198554D01*
X125540093Y-74105724D01*
X125750170Y-73984436D01*
X125942619Y-73836765D01*
X126114146Y-73665238D01*
X126261817Y-73472789D01*
X126383105Y-73262712D01*
X126475935Y-73038600D01*
X126538719Y-72804289D01*
X126570381Y-72563788D01*
X126570381Y-72442500D01*
X127206632Y-72442500D01*
X127227177Y-72651102D01*
X127288024Y-72851685D01*
X127386829Y-73036537D01*
X127386833Y-73036544D01*
X127519807Y-73198573D01*
X127681836Y-73331547D01*
X127681843Y-73331551D01*
X127718058Y-73350908D01*
X127866697Y-73430357D01*
X128067281Y-73491204D01*
X128275881Y-73511749D01*
X128484481Y-73491204D01*
X128685065Y-73430357D01*
X128869924Y-73331548D01*
X129031954Y-73198573D01*
X129164929Y-73036543D01*
X129263738Y-72851684D01*
X129324585Y-72651100D01*
X129345130Y-72442500D01*
X129746632Y-72442500D01*
X129767177Y-72651102D01*
X129828024Y-72851685D01*
X129926829Y-73036537D01*
X129926833Y-73036544D01*
X130059807Y-73198573D01*
X130221836Y-73331547D01*
X130221843Y-73331551D01*
X130258058Y-73350908D01*
X130406697Y-73430357D01*
X130607281Y-73491204D01*
X130815881Y-73511749D01*
X131024481Y-73491204D01*
X131225065Y-73430357D01*
X131409924Y-73331548D01*
X131571954Y-73198573D01*
X131704929Y-73036543D01*
X131803738Y-72851684D01*
X131864585Y-72651100D01*
X131885130Y-72442500D01*
X132286632Y-72442500D01*
X132307177Y-72651102D01*
X132368024Y-72851685D01*
X132466829Y-73036537D01*
X132466833Y-73036544D01*
X132599807Y-73198573D01*
X132761836Y-73331547D01*
X132761843Y-73331551D01*
X132798058Y-73350908D01*
X132946697Y-73430357D01*
X133147281Y-73491204D01*
X133355881Y-73511749D01*
X133564481Y-73491204D01*
X133765065Y-73430357D01*
X133949924Y-73331548D01*
X134111954Y-73198573D01*
X134244929Y-73036543D01*
X134343738Y-72851684D01*
X134404585Y-72651100D01*
X134425130Y-72442500D01*
X134404585Y-72233900D01*
X134343738Y-72033316D01*
X134244929Y-71848457D01*
X134244928Y-71848455D01*
X134111954Y-71686426D01*
X133949925Y-71553452D01*
X133949918Y-71553448D01*
X133913730Y-71534105D01*
X134732281Y-71534105D01*
X134732281Y-72292500D01*
X135410153Y-72292500D01*
X135387881Y-72375620D01*
X135387881Y-72509380D01*
X135410153Y-72592500D01*
X134732282Y-72592500D01*
X134732282Y-73350885D01*
X134732283Y-73350908D01*
X134735189Y-73375969D01*
X134735190Y-73375973D01*
X134780492Y-73478574D01*
X134780495Y-73478579D01*
X134859801Y-73557885D01*
X134859806Y-73557888D01*
X134962404Y-73603189D01*
X134987487Y-73606099D01*
X135745880Y-73606099D01*
X135745881Y-73606098D01*
X135745881Y-72928228D01*
X135829001Y-72950500D01*
X135962761Y-72950500D01*
X136045881Y-72928228D01*
X136045881Y-73606099D01*
X136804267Y-73606099D01*
X136804289Y-73606097D01*
X136829350Y-73603191D01*
X136829354Y-73603190D01*
X136931955Y-73557888D01*
X136931960Y-73557885D01*
X137011266Y-73478579D01*
X137011269Y-73478574D01*
X137056570Y-73375977D01*
X137056570Y-73375975D01*
X137059480Y-73350894D01*
X137059481Y-73350891D01*
X137059481Y-72592500D01*
X136381609Y-72592500D01*
X136403881Y-72509380D01*
X136403881Y-72442500D01*
X137366632Y-72442500D01*
X137387177Y-72651102D01*
X137448024Y-72851685D01*
X137546829Y-73036537D01*
X137546833Y-73036544D01*
X137679807Y-73198573D01*
X137841836Y-73331547D01*
X137841843Y-73331551D01*
X137878058Y-73350908D01*
X138026697Y-73430357D01*
X138227281Y-73491204D01*
X138435881Y-73511749D01*
X138644481Y-73491204D01*
X138845065Y-73430357D01*
X139029924Y-73331548D01*
X139191954Y-73198573D01*
X139324929Y-73036543D01*
X139423738Y-72851684D01*
X139484585Y-72651100D01*
X139505130Y-72442500D01*
X139484585Y-72233900D01*
X139423738Y-72033316D01*
X139324929Y-71848457D01*
X139324928Y-71848455D01*
X139191954Y-71686426D01*
X139029925Y-71553452D01*
X139029918Y-71553448D01*
X138845066Y-71454643D01*
X138644483Y-71393796D01*
X138435881Y-71373251D01*
X138227278Y-71393796D01*
X138026695Y-71454643D01*
X137841843Y-71553448D01*
X137841836Y-71553452D01*
X137679807Y-71686426D01*
X137546833Y-71848455D01*
X137546829Y-71848462D01*
X137448024Y-72033314D01*
X137387177Y-72233897D01*
X137366632Y-72442500D01*
X136403881Y-72442500D01*
X136403881Y-72375620D01*
X136381609Y-72292500D01*
X137059480Y-72292500D01*
X137059480Y-71534114D01*
X137059478Y-71534091D01*
X137056572Y-71509030D01*
X137056571Y-71509026D01*
X137011269Y-71406425D01*
X137011266Y-71406420D01*
X136931960Y-71327114D01*
X136931955Y-71327111D01*
X136829357Y-71281810D01*
X136804275Y-71278900D01*
X136045881Y-71278900D01*
X136045881Y-71956771D01*
X135962761Y-71934500D01*
X135829001Y-71934500D01*
X135745881Y-71956771D01*
X135745881Y-71278900D01*
X134987495Y-71278900D01*
X134987472Y-71278902D01*
X134962411Y-71281808D01*
X134962407Y-71281809D01*
X134859806Y-71327111D01*
X134859801Y-71327114D01*
X134780495Y-71406420D01*
X134780492Y-71406425D01*
X134735191Y-71509022D01*
X134735191Y-71509024D01*
X134732281Y-71534105D01*
X133913730Y-71534105D01*
X133765066Y-71454643D01*
X133564483Y-71393796D01*
X133355881Y-71373251D01*
X133147278Y-71393796D01*
X132946695Y-71454643D01*
X132761843Y-71553448D01*
X132761836Y-71553452D01*
X132599807Y-71686426D01*
X132466833Y-71848455D01*
X132466829Y-71848462D01*
X132368024Y-72033314D01*
X132307177Y-72233897D01*
X132286632Y-72442500D01*
X131885130Y-72442500D01*
X131864585Y-72233900D01*
X131803738Y-72033316D01*
X131704929Y-71848457D01*
X131704928Y-71848455D01*
X131571954Y-71686426D01*
X131409925Y-71553452D01*
X131409918Y-71553448D01*
X131225066Y-71454643D01*
X131024483Y-71393796D01*
X130815881Y-71373251D01*
X130607278Y-71393796D01*
X130406695Y-71454643D01*
X130221843Y-71553448D01*
X130221836Y-71553452D01*
X130059807Y-71686426D01*
X129926833Y-71848455D01*
X129926829Y-71848462D01*
X129828024Y-72033314D01*
X129767177Y-72233897D01*
X129746632Y-72442500D01*
X129345130Y-72442500D01*
X129324585Y-72233900D01*
X129263738Y-72033316D01*
X129164929Y-71848457D01*
X129164928Y-71848455D01*
X129031954Y-71686426D01*
X128869925Y-71553452D01*
X128869918Y-71553448D01*
X128685066Y-71454643D01*
X128484483Y-71393796D01*
X128275881Y-71373251D01*
X128067278Y-71393796D01*
X127866695Y-71454643D01*
X127681843Y-71553448D01*
X127681836Y-71553452D01*
X127519807Y-71686426D01*
X127386833Y-71848455D01*
X127386829Y-71848462D01*
X127288024Y-72033314D01*
X127227177Y-72233897D01*
X127206632Y-72442500D01*
X126570381Y-72442500D01*
X126570381Y-72321212D01*
X126538719Y-72080711D01*
X126475935Y-71846400D01*
X126383105Y-71622288D01*
X126261817Y-71412211D01*
X126161756Y-71281809D01*
X126114147Y-71219763D01*
X126114141Y-71219756D01*
X125942624Y-71048239D01*
X125942617Y-71048233D01*
X125750174Y-70900567D01*
X125750173Y-70900566D01*
X125750170Y-70900564D01*
X125540093Y-70779276D01*
X125540086Y-70779273D01*
X125443006Y-70739061D01*
X125388603Y-70695220D01*
X125366538Y-70628926D01*
X125383817Y-70561227D01*
X125434954Y-70513616D01*
X125490459Y-70500500D01*
X173741324Y-70500500D01*
X173808363Y-70520185D01*
X173829005Y-70536819D01*
X174713181Y-71420995D01*
X174746666Y-71482318D01*
X174749500Y-71508676D01*
X174749500Y-82934108D01*
X174749500Y-83065892D01*
X174750798Y-83070736D01*
X174783608Y-83193187D01*
X174816554Y-83250250D01*
X174849500Y-83307314D01*
X176172071Y-84629885D01*
X177463181Y-85920994D01*
X177496666Y-85982317D01*
X177499500Y-86008675D01*
X177499500Y-87002742D01*
X177479815Y-87069781D01*
X177427011Y-87115536D01*
X177357853Y-87125480D01*
X177294297Y-87096455D01*
X177260939Y-87050195D01*
X177183108Y-86862294D01*
X177183103Y-86862285D01*
X177061817Y-86652211D01*
X176916887Y-86463334D01*
X176914147Y-86459763D01*
X176914141Y-86459756D01*
X176742624Y-86288239D01*
X176742617Y-86288233D01*
X176550174Y-86140567D01*
X176550173Y-86140566D01*
X176550170Y-86140564D01*
X176340093Y-86019276D01*
X176305797Y-86005070D01*
X176115985Y-85926447D01*
X175881666Y-85863661D01*
X175641170Y-85832000D01*
X175641169Y-85832000D01*
X175398593Y-85832000D01*
X175398592Y-85832000D01*
X175158095Y-85863661D01*
X174923776Y-85926447D01*
X174699675Y-86019273D01*
X174699666Y-86019277D01*
X174489587Y-86140567D01*
X174297144Y-86288233D01*
X174297137Y-86288239D01*
X174125620Y-86459756D01*
X174125614Y-86459763D01*
X173977948Y-86652206D01*
X173856658Y-86862285D01*
X173856654Y-86862294D01*
X173763828Y-87086395D01*
X173701042Y-87320714D01*
X173669381Y-87561211D01*
X173669381Y-87803788D01*
X173701042Y-88044285D01*
X173763828Y-88278604D01*
X173828485Y-88434699D01*
X173856657Y-88502712D01*
X173977945Y-88712789D01*
X173977947Y-88712792D01*
X173977948Y-88712793D01*
X174125614Y-88905236D01*
X174125620Y-88905243D01*
X174297137Y-89076760D01*
X174297143Y-89076765D01*
X174489592Y-89224436D01*
X174699669Y-89345724D01*
X174923781Y-89438554D01*
X175158092Y-89501338D01*
X175338467Y-89525084D01*
X175398592Y-89533000D01*
X175398593Y-89533000D01*
X175641170Y-89533000D01*
X175689269Y-89526667D01*
X175881670Y-89501338D01*
X176115981Y-89438554D01*
X176340093Y-89345724D01*
X176550170Y-89224436D01*
X176742619Y-89076765D01*
X176914146Y-88905238D01*
X177061817Y-88712789D01*
X177183105Y-88502712D01*
X177260939Y-88314804D01*
X177304780Y-88260401D01*
X177371074Y-88238336D01*
X177438773Y-88255615D01*
X177486384Y-88306752D01*
X177499500Y-88362257D01*
X177499500Y-114942742D01*
X177479815Y-115009781D01*
X177427011Y-115055536D01*
X177357853Y-115065480D01*
X177294297Y-115036455D01*
X177260939Y-114990195D01*
X177183108Y-114802294D01*
X177183103Y-114802285D01*
X177061817Y-114592211D01*
X176956915Y-114455500D01*
X176914147Y-114399763D01*
X176914141Y-114399756D01*
X176742624Y-114228239D01*
X176742617Y-114228233D01*
X176550174Y-114080567D01*
X176550173Y-114080566D01*
X176550170Y-114080564D01*
X176340093Y-113959276D01*
X176318906Y-113950500D01*
X176115985Y-113866447D01*
X175881666Y-113803661D01*
X175641170Y-113772000D01*
X175641169Y-113772000D01*
X175398593Y-113772000D01*
X175398592Y-113772000D01*
X175158095Y-113803661D01*
X174923776Y-113866447D01*
X174699675Y-113959273D01*
X174699666Y-113959277D01*
X174489587Y-114080567D01*
X174297144Y-114228233D01*
X174297137Y-114228239D01*
X174125620Y-114399756D01*
X174125614Y-114399763D01*
X173977948Y-114592206D01*
X173856658Y-114802285D01*
X173856654Y-114802294D01*
X173763828Y-115026395D01*
X173701042Y-115260714D01*
X173669381Y-115501211D01*
X173669381Y-115743788D01*
X173701042Y-115984285D01*
X173763828Y-116218604D01*
X173856654Y-116442705D01*
X173856657Y-116442712D01*
X173977945Y-116652789D01*
X173977947Y-116652792D01*
X173977948Y-116652793D01*
X174125614Y-116845236D01*
X174125620Y-116845243D01*
X174297137Y-117016760D01*
X174297143Y-117016765D01*
X174489592Y-117164436D01*
X174699669Y-117285724D01*
X174923781Y-117378554D01*
X175158092Y-117441338D01*
X175338467Y-117465084D01*
X175398592Y-117473000D01*
X175398593Y-117473000D01*
X175641170Y-117473000D01*
X175689269Y-117466667D01*
X175881670Y-117441338D01*
X176115981Y-117378554D01*
X176340093Y-117285724D01*
X176550170Y-117164436D01*
X176742619Y-117016765D01*
X176914146Y-116845238D01*
X177061817Y-116652789D01*
X177183105Y-116442712D01*
X177260939Y-116254804D01*
X177304780Y-116200401D01*
X177371074Y-116178336D01*
X177438773Y-116195615D01*
X177486384Y-116246752D01*
X177499500Y-116302257D01*
X177499500Y-118991324D01*
X177479815Y-119058363D01*
X177463181Y-119079005D01*
X174079005Y-122463181D01*
X174017682Y-122496666D01*
X173991324Y-122499500D01*
X124501159Y-122499500D01*
X124434120Y-122479815D01*
X124388365Y-122427011D01*
X124378421Y-122357853D01*
X124407446Y-122294297D01*
X124439156Y-122268115D01*
X124480170Y-122244436D01*
X124672619Y-122096765D01*
X124844146Y-121925238D01*
X124991817Y-121732789D01*
X125113105Y-121522712D01*
X125205935Y-121298600D01*
X125268719Y-121064289D01*
X125300381Y-120823788D01*
X125300381Y-120702500D01*
X136350632Y-120702500D01*
X136371177Y-120911102D01*
X136432024Y-121111685D01*
X136530829Y-121296537D01*
X136530833Y-121296544D01*
X136663807Y-121458573D01*
X136825836Y-121591547D01*
X136825843Y-121591551D01*
X136862058Y-121610908D01*
X137010697Y-121690357D01*
X137211281Y-121751204D01*
X137419881Y-121771749D01*
X137628481Y-121751204D01*
X137829065Y-121690357D01*
X138013924Y-121591548D01*
X138175954Y-121458573D01*
X138308929Y-121296543D01*
X138407738Y-121111684D01*
X138468585Y-120911100D01*
X138489130Y-120702500D01*
X138468585Y-120493900D01*
X138407738Y-120293316D01*
X138308929Y-120108457D01*
X138308928Y-120108455D01*
X138175954Y-119946426D01*
X138013925Y-119813452D01*
X138013918Y-119813448D01*
X137829066Y-119714643D01*
X137628483Y-119653796D01*
X137419881Y-119633251D01*
X137211278Y-119653796D01*
X137010695Y-119714643D01*
X136825843Y-119813448D01*
X136825836Y-119813452D01*
X136663807Y-119946426D01*
X136530833Y-120108455D01*
X136530829Y-120108462D01*
X136432024Y-120293314D01*
X136371177Y-120493897D01*
X136350632Y-120702500D01*
X125300381Y-120702500D01*
X125300381Y-120581212D01*
X125268719Y-120340711D01*
X125205935Y-120106400D01*
X125113105Y-119882288D01*
X124991817Y-119672211D01*
X124891756Y-119541809D01*
X124844147Y-119479763D01*
X124844141Y-119479756D01*
X124672624Y-119308239D01*
X124672617Y-119308233D01*
X124480174Y-119160567D01*
X124480173Y-119160566D01*
X124480170Y-119160564D01*
X124303153Y-119058363D01*
X124270095Y-119039277D01*
X124270086Y-119039273D01*
X124045985Y-118946447D01*
X123811666Y-118883661D01*
X123571170Y-118852000D01*
X123571169Y-118852000D01*
X123328593Y-118852000D01*
X123328592Y-118852000D01*
X123088095Y-118883661D01*
X122853776Y-118946447D01*
X122629675Y-119039273D01*
X122629666Y-119039277D01*
X122419587Y-119160567D01*
X122227144Y-119308233D01*
X122227137Y-119308239D01*
X122055620Y-119479756D01*
X122055614Y-119479763D01*
X121907948Y-119672206D01*
X121786658Y-119882285D01*
X121786654Y-119882294D01*
X121693828Y-120106395D01*
X121631042Y-120340714D01*
X121599381Y-120581211D01*
X121599381Y-120823788D01*
X121631042Y-121064285D01*
X121693828Y-121298604D01*
X121760090Y-121458573D01*
X121786657Y-121522712D01*
X121907945Y-121732789D01*
X121907947Y-121732792D01*
X121907948Y-121732793D01*
X122055614Y-121925236D01*
X122055620Y-121925243D01*
X122227137Y-122096760D01*
X122227143Y-122096765D01*
X122419592Y-122244436D01*
X122460604Y-122268114D01*
X122508819Y-122318680D01*
X122522042Y-122387287D01*
X122496074Y-122452152D01*
X122439160Y-122492680D01*
X122398603Y-122499500D01*
X120624500Y-122499500D01*
X120557461Y-122479815D01*
X120511706Y-122427011D01*
X120500500Y-122375500D01*
X120500500Y-81690691D01*
X124299500Y-81690691D01*
X124299500Y-111559308D01*
X124323712Y-111649672D01*
X124330200Y-111673885D01*
X124330200Y-111673886D01*
X124330201Y-111673887D01*
X124389511Y-111776614D01*
X126473386Y-113860489D01*
X126576113Y-113919799D01*
X126600321Y-113926284D01*
X126600324Y-113926286D01*
X126600325Y-113926286D01*
X126630447Y-113934357D01*
X126690691Y-113950500D01*
X134636287Y-113950500D01*
X134703326Y-113970185D01*
X134749081Y-114022988D01*
X134788115Y-114108461D01*
X134788121Y-114108472D01*
X134811135Y-114144282D01*
X134817465Y-114154132D01*
X134819738Y-114157668D01*
X134819749Y-114157684D01*
X134880881Y-114228233D01*
X134913895Y-114266334D01*
X134951784Y-114299165D01*
X134958100Y-114304638D01*
X134958101Y-114304639D01*
X135079049Y-114382368D01*
X135079051Y-114382368D01*
X135079055Y-114382371D01*
X135132260Y-114406669D01*
X135270215Y-114447176D01*
X135328111Y-114455500D01*
X135328114Y-114455500D01*
X135900003Y-114455500D01*
X135900003Y-114455499D01*
X135945728Y-114450348D01*
X135947992Y-114449257D01*
X135948976Y-114448784D01*
X135954069Y-114447944D01*
X135955784Y-114447451D01*
X135955842Y-114447652D01*
X136017916Y-114437427D01*
X136030372Y-114439607D01*
X136100000Y-114455500D01*
X136671886Y-114455500D01*
X136671889Y-114455500D01*
X136729785Y-114447176D01*
X136867740Y-114406669D01*
X136920945Y-114382371D01*
X137041899Y-114304639D01*
X137086105Y-114266334D01*
X137155202Y-114186590D01*
X137180250Y-114157684D01*
X137180252Y-114157681D01*
X137180259Y-114157673D01*
X137211881Y-114108468D01*
X137250919Y-114022988D01*
X137296674Y-113970185D01*
X137363713Y-113950500D01*
X138012035Y-113950500D01*
X138079074Y-113970185D01*
X138099716Y-113986819D01*
X139473062Y-115360165D01*
X139506547Y-115421488D01*
X139509381Y-115447846D01*
X139509381Y-119662403D01*
X139489696Y-119729442D01*
X139443836Y-119771761D01*
X139365832Y-119813455D01*
X139203807Y-119946426D01*
X139070833Y-120108455D01*
X139070829Y-120108462D01*
X138972024Y-120293314D01*
X138911177Y-120493897D01*
X138890632Y-120702500D01*
X138911177Y-120911102D01*
X138972024Y-121111685D01*
X139070829Y-121296537D01*
X139070833Y-121296544D01*
X139203807Y-121458573D01*
X139365836Y-121591547D01*
X139365843Y-121591551D01*
X139402058Y-121610908D01*
X139550697Y-121690357D01*
X139751281Y-121751204D01*
X139959881Y-121771749D01*
X140168481Y-121751204D01*
X140369065Y-121690357D01*
X140553924Y-121591548D01*
X140715954Y-121458573D01*
X140848929Y-121296543D01*
X140947738Y-121111684D01*
X141008585Y-120911100D01*
X141029130Y-120702500D01*
X141430632Y-120702500D01*
X141451177Y-120911102D01*
X141512024Y-121111685D01*
X141610829Y-121296537D01*
X141610833Y-121296544D01*
X141743807Y-121458573D01*
X141905836Y-121591547D01*
X141905843Y-121591551D01*
X141942058Y-121610908D01*
X142090697Y-121690357D01*
X142291281Y-121751204D01*
X142499881Y-121771749D01*
X142708481Y-121751204D01*
X142909065Y-121690357D01*
X143093924Y-121591548D01*
X143255954Y-121458573D01*
X143388929Y-121296543D01*
X143487738Y-121111684D01*
X143548585Y-120911100D01*
X143569130Y-120702500D01*
X143548585Y-120493900D01*
X143487738Y-120293316D01*
X143388929Y-120108457D01*
X143388928Y-120108455D01*
X143255954Y-119946426D01*
X143093925Y-119813452D01*
X143093918Y-119813448D01*
X142909066Y-119714643D01*
X142708483Y-119653796D01*
X142499881Y-119633251D01*
X142291278Y-119653796D01*
X142090695Y-119714643D01*
X141905843Y-119813448D01*
X141905836Y-119813452D01*
X141743807Y-119946426D01*
X141610833Y-120108455D01*
X141610829Y-120108462D01*
X141512024Y-120293314D01*
X141451177Y-120493897D01*
X141430632Y-120702500D01*
X141029130Y-120702500D01*
X141008585Y-120493900D01*
X140947738Y-120293316D01*
X140848929Y-120108457D01*
X140848928Y-120108455D01*
X140715954Y-119946426D01*
X140553929Y-119813455D01*
X140553925Y-119813452D01*
X140553924Y-119813452D01*
X140475925Y-119771760D01*
X140426083Y-119722797D01*
X140410381Y-119662403D01*
X140410381Y-115150574D01*
X140410381Y-115150572D01*
X140379680Y-115035995D01*
X140379680Y-115035994D01*
X140320370Y-114933267D01*
X138526614Y-113139511D01*
X138475250Y-113109856D01*
X138423888Y-113080201D01*
X138411780Y-113076957D01*
X138399673Y-113073713D01*
X138399670Y-113073712D01*
X138361478Y-113063478D01*
X138309309Y-113049500D01*
X138309308Y-113049500D01*
X137363713Y-113049500D01*
X137296674Y-113029815D01*
X137250919Y-112977012D01*
X137211884Y-112891538D01*
X137211878Y-112891527D01*
X137196897Y-112868216D01*
X137180259Y-112842327D01*
X137180255Y-112842322D01*
X137180250Y-112842315D01*
X137114362Y-112766276D01*
X137086105Y-112733666D01*
X137041899Y-112695361D01*
X137041898Y-112695360D01*
X136920950Y-112617631D01*
X136920946Y-112617629D01*
X136920945Y-112617629D01*
X136867740Y-112593331D01*
X136781211Y-112567924D01*
X136729789Y-112552825D01*
X136729777Y-112552822D01*
X136671890Y-112544500D01*
X136671889Y-112544500D01*
X136100000Y-112544500D01*
X136099995Y-112544500D01*
X136054272Y-112549651D01*
X136054267Y-112549653D01*
X136051010Y-112551222D01*
X136045907Y-112552061D01*
X136044220Y-112552548D01*
X136044162Y-112552349D01*
X135982068Y-112562570D01*
X135969623Y-112560390D01*
X135900006Y-112544500D01*
X135900000Y-112544500D01*
X135328111Y-112544500D01*
X135328109Y-112544500D01*
X135270222Y-112552822D01*
X135270210Y-112552825D01*
X135132260Y-112593331D01*
X135079055Y-112617629D01*
X135079049Y-112617631D01*
X134958101Y-112695360D01*
X134958100Y-112695361D01*
X134913892Y-112733669D01*
X134819749Y-112842315D01*
X134819738Y-112842331D01*
X134788121Y-112891527D01*
X134788115Y-112891538D01*
X134749081Y-112977012D01*
X134703326Y-113029815D01*
X134636287Y-113049500D01*
X126987965Y-113049500D01*
X126920926Y-113029815D01*
X126900284Y-113013181D01*
X125236819Y-111349716D01*
X125203334Y-111288393D01*
X125200500Y-111262035D01*
X125200500Y-107002047D01*
X130681300Y-107002047D01*
X130681300Y-108717952D01*
X130692931Y-108776429D01*
X130692932Y-108776430D01*
X130737247Y-108842752D01*
X130803569Y-108887067D01*
X130803570Y-108887068D01*
X130862047Y-108898699D01*
X130862050Y-108898700D01*
X130862052Y-108898700D01*
X132577950Y-108898700D01*
X132577951Y-108898699D01*
X132592768Y-108895752D01*
X132636429Y-108887068D01*
X132636429Y-108887067D01*
X132636431Y-108887067D01*
X132702752Y-108842752D01*
X132747067Y-108776431D01*
X132747067Y-108776429D01*
X132747068Y-108776429D01*
X132758699Y-108717952D01*
X132758700Y-108717950D01*
X132758700Y-107860000D01*
X133292843Y-107860000D01*
X133311426Y-108048681D01*
X133311427Y-108048683D01*
X133366463Y-108230115D01*
X133366464Y-108230118D01*
X133366465Y-108230119D01*
X133366466Y-108230122D01*
X133455834Y-108397318D01*
X133455838Y-108397325D01*
X133576116Y-108543883D01*
X133722674Y-108664161D01*
X133722681Y-108664165D01*
X133889877Y-108753533D01*
X133889878Y-108753533D01*
X133889885Y-108753537D01*
X134071317Y-108808573D01*
X134071316Y-108808573D01*
X134088233Y-108810239D01*
X134260000Y-108827157D01*
X134448683Y-108808573D01*
X134630115Y-108753537D01*
X134797324Y-108664162D01*
X134943883Y-108543883D01*
X135064162Y-108397324D01*
X135153537Y-108230115D01*
X135208573Y-108048683D01*
X135227157Y-107860000D01*
X135832843Y-107860000D01*
X135851426Y-108048681D01*
X135851427Y-108048683D01*
X135906463Y-108230115D01*
X135906464Y-108230118D01*
X135906465Y-108230119D01*
X135906466Y-108230122D01*
X135995834Y-108397318D01*
X135995838Y-108397325D01*
X136116116Y-108543883D01*
X136262674Y-108664161D01*
X136262681Y-108664165D01*
X136429877Y-108753533D01*
X136429878Y-108753533D01*
X136429885Y-108753537D01*
X136611317Y-108808573D01*
X136611316Y-108808573D01*
X136628233Y-108810239D01*
X136800000Y-108827157D01*
X136988683Y-108808573D01*
X137170115Y-108753537D01*
X137337324Y-108664162D01*
X137483883Y-108543883D01*
X137604162Y-108397324D01*
X137693537Y-108230115D01*
X137748573Y-108048683D01*
X137767157Y-107860000D01*
X138372843Y-107860000D01*
X138391426Y-108048681D01*
X138391427Y-108048683D01*
X138446463Y-108230115D01*
X138446464Y-108230118D01*
X138446465Y-108230119D01*
X138446466Y-108230122D01*
X138535834Y-108397318D01*
X138535838Y-108397325D01*
X138656116Y-108543883D01*
X138802674Y-108664161D01*
X138802681Y-108664165D01*
X138969877Y-108753533D01*
X138969878Y-108753533D01*
X138969885Y-108753537D01*
X139151317Y-108808573D01*
X139151316Y-108808573D01*
X139168233Y-108810239D01*
X139340000Y-108827157D01*
X139528683Y-108808573D01*
X139710115Y-108753537D01*
X139877324Y-108664162D01*
X140023883Y-108543883D01*
X140144162Y-108397324D01*
X140233537Y-108230115D01*
X140288573Y-108048683D01*
X140307157Y-107860000D01*
X140912843Y-107860000D01*
X140931426Y-108048681D01*
X140931427Y-108048683D01*
X140986463Y-108230115D01*
X140986464Y-108230118D01*
X140986465Y-108230119D01*
X140986466Y-108230122D01*
X141075834Y-108397318D01*
X141075838Y-108397325D01*
X141196116Y-108543883D01*
X141342674Y-108664161D01*
X141342681Y-108664165D01*
X141509877Y-108753533D01*
X141509878Y-108753533D01*
X141509885Y-108753537D01*
X141691317Y-108808573D01*
X141691316Y-108808573D01*
X141708233Y-108810239D01*
X141880000Y-108827157D01*
X142068683Y-108808573D01*
X142250115Y-108753537D01*
X142417324Y-108664162D01*
X142563883Y-108543883D01*
X142684162Y-108397324D01*
X142773537Y-108230115D01*
X142828573Y-108048683D01*
X142847157Y-107860000D01*
X143452843Y-107860000D01*
X143471426Y-108048681D01*
X143471427Y-108048683D01*
X143526463Y-108230115D01*
X143526464Y-108230118D01*
X143526465Y-108230119D01*
X143526466Y-108230122D01*
X143615834Y-108397318D01*
X143615838Y-108397325D01*
X143736116Y-108543883D01*
X143882674Y-108664161D01*
X143882681Y-108664165D01*
X144049877Y-108753533D01*
X144049878Y-108753533D01*
X144049885Y-108753537D01*
X144231317Y-108808573D01*
X144231316Y-108808573D01*
X144248233Y-108810239D01*
X144420000Y-108827157D01*
X144608683Y-108808573D01*
X144790115Y-108753537D01*
X144957324Y-108664162D01*
X145103883Y-108543883D01*
X145224162Y-108397324D01*
X145313537Y-108230115D01*
X145368573Y-108048683D01*
X145387157Y-107860000D01*
X145368573Y-107671317D01*
X145313537Y-107489885D01*
X145289969Y-107445792D01*
X145224165Y-107322681D01*
X145224161Y-107322674D01*
X145103883Y-107176116D01*
X144957325Y-107055838D01*
X144957318Y-107055834D01*
X144790122Y-106966466D01*
X144790119Y-106966465D01*
X144790118Y-106966464D01*
X144790115Y-106966463D01*
X144608683Y-106911427D01*
X144608681Y-106911426D01*
X144608683Y-106911426D01*
X144420000Y-106892843D01*
X144231318Y-106911426D01*
X144125357Y-106943569D01*
X144049885Y-106966463D01*
X144049882Y-106966464D01*
X144049880Y-106966465D01*
X144049877Y-106966466D01*
X143882681Y-107055834D01*
X143882674Y-107055838D01*
X143736116Y-107176116D01*
X143615838Y-107322674D01*
X143615834Y-107322681D01*
X143526466Y-107489877D01*
X143526465Y-107489880D01*
X143471426Y-107671318D01*
X143452843Y-107860000D01*
X142847157Y-107860000D01*
X142828573Y-107671317D01*
X142773537Y-107489885D01*
X142749969Y-107445792D01*
X142684165Y-107322681D01*
X142684161Y-107322674D01*
X142563883Y-107176116D01*
X142417325Y-107055838D01*
X142417318Y-107055834D01*
X142250122Y-106966466D01*
X142250119Y-106966465D01*
X142250118Y-106966464D01*
X142250115Y-106966463D01*
X142068683Y-106911427D01*
X142068681Y-106911426D01*
X142068683Y-106911426D01*
X141880000Y-106892843D01*
X141691318Y-106911426D01*
X141585357Y-106943569D01*
X141509885Y-106966463D01*
X141509882Y-106966464D01*
X141509880Y-106966465D01*
X141509877Y-106966466D01*
X141342681Y-107055834D01*
X141342674Y-107055838D01*
X141196116Y-107176116D01*
X141075838Y-107322674D01*
X141075834Y-107322681D01*
X140986466Y-107489877D01*
X140986465Y-107489880D01*
X140931426Y-107671318D01*
X140912843Y-107860000D01*
X140307157Y-107860000D01*
X140288573Y-107671317D01*
X140233537Y-107489885D01*
X140209969Y-107445792D01*
X140144165Y-107322681D01*
X140144161Y-107322674D01*
X140023883Y-107176116D01*
X139877325Y-107055838D01*
X139877318Y-107055834D01*
X139710122Y-106966466D01*
X139710119Y-106966465D01*
X139710118Y-106966464D01*
X139710115Y-106966463D01*
X139528683Y-106911427D01*
X139528681Y-106911426D01*
X139528683Y-106911426D01*
X139340000Y-106892843D01*
X139151318Y-106911426D01*
X139045357Y-106943569D01*
X138969885Y-106966463D01*
X138969882Y-106966464D01*
X138969880Y-106966465D01*
X138969877Y-106966466D01*
X138802681Y-107055834D01*
X138802674Y-107055838D01*
X138656116Y-107176116D01*
X138535838Y-107322674D01*
X138535834Y-107322681D01*
X138446466Y-107489877D01*
X138446465Y-107489880D01*
X138391426Y-107671318D01*
X138372843Y-107860000D01*
X137767157Y-107860000D01*
X137748573Y-107671317D01*
X137693537Y-107489885D01*
X137669969Y-107445792D01*
X137604165Y-107322681D01*
X137604161Y-107322674D01*
X137483883Y-107176116D01*
X137337325Y-107055838D01*
X137337318Y-107055834D01*
X137170122Y-106966466D01*
X137170119Y-106966465D01*
X137170118Y-106966464D01*
X137170115Y-106966463D01*
X136988683Y-106911427D01*
X136988681Y-106911426D01*
X136988683Y-106911426D01*
X136800000Y-106892843D01*
X136611318Y-106911426D01*
X136505357Y-106943569D01*
X136429885Y-106966463D01*
X136429882Y-106966464D01*
X136429880Y-106966465D01*
X136429877Y-106966466D01*
X136262681Y-107055834D01*
X136262674Y-107055838D01*
X136116116Y-107176116D01*
X135995838Y-107322674D01*
X135995834Y-107322681D01*
X135906466Y-107489877D01*
X135906465Y-107489880D01*
X135851426Y-107671318D01*
X135832843Y-107860000D01*
X135227157Y-107860000D01*
X135208573Y-107671317D01*
X135153537Y-107489885D01*
X135129969Y-107445792D01*
X135064165Y-107322681D01*
X135064161Y-107322674D01*
X134943883Y-107176116D01*
X134797325Y-107055838D01*
X134797318Y-107055834D01*
X134630122Y-106966466D01*
X134630119Y-106966465D01*
X134630118Y-106966464D01*
X134630115Y-106966463D01*
X134448683Y-106911427D01*
X134448681Y-106911426D01*
X134448683Y-106911426D01*
X134260000Y-106892843D01*
X134071318Y-106911426D01*
X133965357Y-106943569D01*
X133889885Y-106966463D01*
X133889882Y-106966464D01*
X133889880Y-106966465D01*
X133889877Y-106966466D01*
X133722681Y-107055834D01*
X133722674Y-107055838D01*
X133576116Y-107176116D01*
X133455838Y-107322674D01*
X133455834Y-107322681D01*
X133366466Y-107489877D01*
X133366465Y-107489880D01*
X133311426Y-107671318D01*
X133292843Y-107860000D01*
X132758700Y-107860000D01*
X132758700Y-107002049D01*
X132758699Y-107002047D01*
X132747068Y-106943570D01*
X132747067Y-106943569D01*
X132702752Y-106877247D01*
X132636430Y-106832932D01*
X132636429Y-106832931D01*
X132577952Y-106821300D01*
X132577948Y-106821300D01*
X130862052Y-106821300D01*
X130862047Y-106821300D01*
X130803570Y-106832931D01*
X130803569Y-106832932D01*
X130737247Y-106877247D01*
X130692932Y-106943569D01*
X130692931Y-106943570D01*
X130681300Y-107002047D01*
X125200500Y-107002047D01*
X125200500Y-84218247D01*
X130757500Y-84218247D01*
X130757500Y-85781752D01*
X130769131Y-85840229D01*
X130769132Y-85840230D01*
X130813447Y-85906552D01*
X130879769Y-85950867D01*
X130879770Y-85950868D01*
X130938247Y-85962499D01*
X130938250Y-85962500D01*
X130938252Y-85962500D01*
X132501750Y-85962500D01*
X132501751Y-85962499D01*
X132516568Y-85959552D01*
X132560229Y-85950868D01*
X132560229Y-85950867D01*
X132560231Y-85950867D01*
X132626552Y-85906552D01*
X132670867Y-85840231D01*
X132670867Y-85840229D01*
X132670868Y-85840229D01*
X132682499Y-85781752D01*
X132682500Y-85781750D01*
X132682500Y-85000000D01*
X133292843Y-85000000D01*
X133311426Y-85188681D01*
X133329180Y-85247207D01*
X133366463Y-85370115D01*
X133366464Y-85370118D01*
X133366465Y-85370119D01*
X133366466Y-85370122D01*
X133455834Y-85537318D01*
X133455838Y-85537325D01*
X133576116Y-85683883D01*
X133722674Y-85804161D01*
X133722681Y-85804165D01*
X133893953Y-85895712D01*
X133943797Y-85944674D01*
X133959500Y-86005070D01*
X133959500Y-101569562D01*
X133979979Y-101645989D01*
X134017433Y-101710861D01*
X134019540Y-101714511D01*
X134019542Y-101714514D01*
X134935554Y-102630525D01*
X135815489Y-103510460D01*
X135874829Y-103544720D01*
X135884008Y-103550020D01*
X135884012Y-103550022D01*
X135960438Y-103570500D01*
X135960440Y-103570500D01*
X139670931Y-103570500D01*
X139670933Y-103570500D01*
X139747360Y-103550021D01*
X139815882Y-103510460D01*
X139871831Y-103454511D01*
X140687819Y-102638523D01*
X140749142Y-102605038D01*
X140818834Y-102610022D01*
X140874767Y-102651894D01*
X140899184Y-102717358D01*
X140899500Y-102726204D01*
X140899500Y-103965248D01*
X140907601Y-103995481D01*
X140919979Y-104041676D01*
X140919980Y-104041677D01*
X140947228Y-104088872D01*
X140959540Y-104110197D01*
X142409803Y-105560460D01*
X142478326Y-105600022D01*
X142554752Y-105620500D01*
X142621168Y-105620500D01*
X142688207Y-105640185D01*
X142723217Y-105674058D01*
X142801817Y-105787929D01*
X142903072Y-105877633D01*
X142929150Y-105900736D01*
X143079773Y-105979789D01*
X143079775Y-105979790D01*
X143244944Y-106020500D01*
X143415056Y-106020500D01*
X143580225Y-105979790D01*
X143659692Y-105938081D01*
X143730849Y-105900736D01*
X143730850Y-105900734D01*
X143730852Y-105900734D01*
X143858183Y-105787929D01*
X143954818Y-105647930D01*
X144015140Y-105488872D01*
X144035645Y-105320000D01*
X144015140Y-105151128D01*
X143954818Y-104992070D01*
X143858183Y-104852071D01*
X143730852Y-104739266D01*
X143730849Y-104739263D01*
X143697809Y-104721923D01*
X143647596Y-104673338D01*
X143631622Y-104605319D01*
X143654957Y-104539462D01*
X143694699Y-104505026D01*
X143694678Y-104504996D01*
X143694957Y-104504803D01*
X143697812Y-104502329D01*
X143700852Y-104500734D01*
X143828183Y-104387929D01*
X143924818Y-104247930D01*
X143985140Y-104088872D01*
X144005645Y-103920000D01*
X143985140Y-103751128D01*
X143984656Y-103749853D01*
X143924817Y-103592068D01*
X143868486Y-103510460D01*
X143828183Y-103452071D01*
X143814010Y-103439515D01*
X143727722Y-103363070D01*
X143690595Y-103303881D01*
X143691363Y-103234016D01*
X143729780Y-103175656D01*
X143752321Y-103160459D01*
X143770852Y-103150734D01*
X143898183Y-103037929D01*
X143994818Y-102897930D01*
X144055140Y-102738872D01*
X144075645Y-102570000D01*
X144055140Y-102401128D01*
X143994818Y-102242070D01*
X143898183Y-102102071D01*
X143774856Y-101992813D01*
X143737731Y-101933626D01*
X143738499Y-101863761D01*
X143774856Y-101807186D01*
X143898183Y-101697929D01*
X143994818Y-101557930D01*
X144055140Y-101398872D01*
X144075645Y-101230000D01*
X144055140Y-101061128D01*
X143994818Y-100902070D01*
X143898183Y-100762071D01*
X143770852Y-100649266D01*
X143770849Y-100649263D01*
X143620226Y-100570210D01*
X143455056Y-100529500D01*
X143284944Y-100529500D01*
X143119773Y-100570210D01*
X142969150Y-100649264D01*
X142906727Y-100704566D01*
X142843493Y-100734287D01*
X142774230Y-100725103D01*
X142720927Y-100679931D01*
X142700507Y-100613111D01*
X142700500Y-100611750D01*
X142700500Y-98434000D01*
X142720185Y-98366961D01*
X142772989Y-98321206D01*
X142824500Y-98310000D01*
X143299987Y-98310000D01*
X143307045Y-98309918D01*
X143416717Y-98286784D01*
X143416718Y-98286783D01*
X143455592Y-98270681D01*
X143468499Y-98264983D01*
X143559481Y-98199519D01*
X143559483Y-98199517D01*
X143620672Y-98105612D01*
X143620675Y-98105606D01*
X143636762Y-98066767D01*
X143639403Y-98060179D01*
X143660000Y-97949997D01*
X143660000Y-97850013D01*
X143659918Y-97842954D01*
X143635601Y-97727674D01*
X143636961Y-97727387D01*
X143636026Y-97664322D01*
X143637468Y-97660529D01*
X143637242Y-97660460D01*
X143639840Y-97652050D01*
X143641842Y-97649028D01*
X143644186Y-97642866D01*
X143644396Y-97642438D01*
X143645764Y-97643109D01*
X143678435Y-97593807D01*
X143742391Y-97565676D01*
X143811404Y-97576588D01*
X143845997Y-97600968D01*
X144179540Y-97934511D01*
X144235489Y-97990460D01*
X144235491Y-97990461D01*
X144235495Y-97990464D01*
X144289718Y-98021769D01*
X144304011Y-98030021D01*
X144380438Y-98050500D01*
X144459562Y-98050500D01*
X144503026Y-98050500D01*
X144570065Y-98070185D01*
X144615820Y-98122989D01*
X144626484Y-98162922D01*
X144627026Y-98168705D01*
X144627354Y-98172203D01*
X144672143Y-98300199D01*
X144672207Y-98300382D01*
X144752850Y-98409650D01*
X144862118Y-98490293D01*
X144904845Y-98505244D01*
X144990299Y-98535146D01*
X145020730Y-98538000D01*
X145020734Y-98538000D01*
X146079270Y-98538000D01*
X146109699Y-98535146D01*
X146124606Y-98529930D01*
X146194385Y-98526366D01*
X146255013Y-98561093D01*
X146287242Y-98623086D01*
X146280839Y-98692661D01*
X146253245Y-98734651D01*
X145889513Y-99098383D01*
X145889511Y-99098386D01*
X145830200Y-99201113D01*
X145830199Y-99201116D01*
X145823712Y-99225324D01*
X145823713Y-99225325D01*
X145799500Y-99315691D01*
X145799500Y-105929308D01*
X145823712Y-106019672D01*
X145830200Y-106043885D01*
X145830200Y-106043886D01*
X145830201Y-106043887D01*
X145889511Y-106146614D01*
X145889513Y-106146616D01*
X146473181Y-106730284D01*
X146506666Y-106791607D01*
X146509500Y-106817965D01*
X146509500Y-106935106D01*
X146489815Y-107002145D01*
X146443957Y-107044462D01*
X146422682Y-107055834D01*
X146422674Y-107055839D01*
X146276116Y-107176116D01*
X146155838Y-107322674D01*
X146155834Y-107322681D01*
X146066466Y-107489877D01*
X146066465Y-107489880D01*
X146011426Y-107671318D01*
X145992843Y-107860000D01*
X146011426Y-108048681D01*
X146011427Y-108048683D01*
X146066463Y-108230115D01*
X146066464Y-108230118D01*
X146066465Y-108230119D01*
X146066466Y-108230122D01*
X146155834Y-108397318D01*
X146155838Y-108397325D01*
X146276116Y-108543883D01*
X146422674Y-108664161D01*
X146422676Y-108664162D01*
X146443950Y-108675533D01*
X146493795Y-108724492D01*
X146509500Y-108784892D01*
X146509500Y-109629308D01*
X146533712Y-109719672D01*
X146540200Y-109743885D01*
X146540200Y-109743886D01*
X146540201Y-109743887D01*
X146599511Y-109846614D01*
X146599513Y-109846616D01*
X148423181Y-111670284D01*
X148456666Y-111731607D01*
X148459500Y-111757965D01*
X148459500Y-112330069D01*
X148439815Y-112397108D01*
X148433875Y-112405557D01*
X148429475Y-112411290D01*
X148350426Y-112548209D01*
X148350423Y-112548216D01*
X148309500Y-112700943D01*
X148309500Y-112775500D01*
X148289815Y-112842539D01*
X148237011Y-112888294D01*
X148185500Y-112899500D01*
X148144711Y-112899500D01*
X148077672Y-112879815D01*
X148043374Y-112845519D01*
X148042909Y-112845868D01*
X148040486Y-112842631D01*
X148040398Y-112842543D01*
X148040263Y-112842333D01*
X148040250Y-112842315D01*
X147974362Y-112766276D01*
X147946105Y-112733666D01*
X147901899Y-112695361D01*
X147901898Y-112695360D01*
X147780950Y-112617631D01*
X147780946Y-112617629D01*
X147780945Y-112617629D01*
X147727740Y-112593331D01*
X147641211Y-112567924D01*
X147589789Y-112552825D01*
X147589777Y-112552822D01*
X147531890Y-112544500D01*
X147531889Y-112544500D01*
X146960000Y-112544500D01*
X146959995Y-112544500D01*
X146914272Y-112549651D01*
X146914267Y-112549653D01*
X146911010Y-112551222D01*
X146905907Y-112552061D01*
X146904220Y-112552548D01*
X146904162Y-112552349D01*
X146842068Y-112562570D01*
X146829623Y-112560390D01*
X146760006Y-112544500D01*
X146760000Y-112544500D01*
X146188111Y-112544500D01*
X146188109Y-112544500D01*
X146130222Y-112552822D01*
X146130210Y-112552825D01*
X145992260Y-112593331D01*
X145939055Y-112617629D01*
X145939049Y-112617631D01*
X145818101Y-112695360D01*
X145818100Y-112695361D01*
X145773892Y-112733669D01*
X145679749Y-112842315D01*
X145679738Y-112842331D01*
X145663103Y-112868216D01*
X145610299Y-112913971D01*
X145590883Y-112920950D01*
X145518218Y-112940421D01*
X145518212Y-112940423D01*
X145494898Y-112953885D01*
X145494896Y-112953886D01*
X145381290Y-113019475D01*
X145381282Y-113019481D01*
X144559362Y-113841401D01*
X144559356Y-113841409D01*
X144513082Y-113921560D01*
X144513082Y-113921561D01*
X144480304Y-113978334D01*
X144439380Y-114131062D01*
X144439380Y-114131064D01*
X144439380Y-114299165D01*
X144439381Y-114299178D01*
X144439381Y-119760103D01*
X144419696Y-119827142D01*
X144394046Y-119855956D01*
X144283807Y-119946426D01*
X144150833Y-120108455D01*
X144150829Y-120108462D01*
X144052024Y-120293314D01*
X143991177Y-120493897D01*
X143970632Y-120702500D01*
X143991177Y-120911102D01*
X144052024Y-121111685D01*
X144150829Y-121296537D01*
X144150833Y-121296544D01*
X144283807Y-121458573D01*
X144445836Y-121591547D01*
X144445843Y-121591551D01*
X144482058Y-121610908D01*
X144630697Y-121690357D01*
X144831281Y-121751204D01*
X145039881Y-121771749D01*
X145248481Y-121751204D01*
X145449065Y-121690357D01*
X145633924Y-121591548D01*
X145795954Y-121458573D01*
X145928929Y-121296543D01*
X146027738Y-121111684D01*
X146088585Y-120911100D01*
X146109130Y-120702500D01*
X146510632Y-120702500D01*
X146531177Y-120911102D01*
X146592024Y-121111685D01*
X146690829Y-121296537D01*
X146690833Y-121296544D01*
X146823807Y-121458573D01*
X146985836Y-121591547D01*
X146985843Y-121591551D01*
X147022058Y-121610908D01*
X147170697Y-121690357D01*
X147371281Y-121751204D01*
X147579881Y-121771749D01*
X147788481Y-121751204D01*
X147989065Y-121690357D01*
X148173924Y-121591548D01*
X148335954Y-121458573D01*
X148468929Y-121296543D01*
X148567738Y-121111684D01*
X148628585Y-120911100D01*
X148649130Y-120702500D01*
X148628585Y-120493900D01*
X148567738Y-120293316D01*
X148468929Y-120108457D01*
X148468928Y-120108455D01*
X148335954Y-119946426D01*
X148173925Y-119813452D01*
X148173918Y-119813448D01*
X148137730Y-119794105D01*
X148956281Y-119794105D01*
X148956281Y-120552500D01*
X149634153Y-120552500D01*
X149611881Y-120635620D01*
X149611881Y-120769380D01*
X149634153Y-120852500D01*
X148956282Y-120852500D01*
X148956282Y-121610885D01*
X148956283Y-121610908D01*
X148959189Y-121635969D01*
X148959190Y-121635973D01*
X149004492Y-121738574D01*
X149004495Y-121738579D01*
X149083801Y-121817885D01*
X149083806Y-121817888D01*
X149186404Y-121863189D01*
X149211487Y-121866099D01*
X149969880Y-121866099D01*
X149969881Y-121866098D01*
X149969881Y-121188228D01*
X150053001Y-121210500D01*
X150186761Y-121210500D01*
X150269881Y-121188228D01*
X150269881Y-121866099D01*
X151028267Y-121866099D01*
X151028289Y-121866097D01*
X151053350Y-121863191D01*
X151053354Y-121863190D01*
X151155955Y-121817888D01*
X151155960Y-121817885D01*
X151235266Y-121738579D01*
X151235269Y-121738574D01*
X151276446Y-121645317D01*
X151321531Y-121591940D01*
X151388317Y-121571412D01*
X151455600Y-121590250D01*
X151502017Y-121642472D01*
X151503316Y-121645317D01*
X151544492Y-121738574D01*
X151544495Y-121738579D01*
X151623801Y-121817885D01*
X151623806Y-121817888D01*
X151726404Y-121863189D01*
X151751487Y-121866099D01*
X152509880Y-121866099D01*
X152509881Y-121866098D01*
X152509881Y-121188228D01*
X152593001Y-121210500D01*
X152726761Y-121210500D01*
X152809881Y-121188228D01*
X152809881Y-121866099D01*
X153568267Y-121866099D01*
X153568289Y-121866097D01*
X153593350Y-121863191D01*
X153593354Y-121863190D01*
X153695955Y-121817888D01*
X153695960Y-121817885D01*
X153775266Y-121738579D01*
X153775269Y-121738574D01*
X153820570Y-121635977D01*
X153820570Y-121635975D01*
X153823480Y-121610894D01*
X153823481Y-121610891D01*
X153823481Y-120852500D01*
X153145609Y-120852500D01*
X153167881Y-120769380D01*
X153167881Y-120702500D01*
X154130632Y-120702500D01*
X154151177Y-120911102D01*
X154212024Y-121111685D01*
X154310829Y-121296537D01*
X154310833Y-121296544D01*
X154443807Y-121458573D01*
X154605836Y-121591547D01*
X154605843Y-121591551D01*
X154642058Y-121610908D01*
X154790697Y-121690357D01*
X154991281Y-121751204D01*
X155199881Y-121771749D01*
X155408481Y-121751204D01*
X155609065Y-121690357D01*
X155793924Y-121591548D01*
X155955954Y-121458573D01*
X156088929Y-121296543D01*
X156187738Y-121111684D01*
X156248585Y-120911100D01*
X156269130Y-120702500D01*
X159210632Y-120702500D01*
X159231177Y-120911102D01*
X159292024Y-121111685D01*
X159390829Y-121296537D01*
X159390833Y-121296544D01*
X159523807Y-121458573D01*
X159685836Y-121591547D01*
X159685843Y-121591551D01*
X159722058Y-121610908D01*
X159870697Y-121690357D01*
X160071281Y-121751204D01*
X160279881Y-121771749D01*
X160488481Y-121751204D01*
X160689065Y-121690357D01*
X160873924Y-121591548D01*
X161035954Y-121458573D01*
X161168929Y-121296543D01*
X161267738Y-121111684D01*
X161328585Y-120911100D01*
X161349130Y-120702500D01*
X161750632Y-120702500D01*
X161771177Y-120911102D01*
X161832024Y-121111685D01*
X161930829Y-121296537D01*
X161930833Y-121296544D01*
X162063807Y-121458573D01*
X162225836Y-121591547D01*
X162225843Y-121591551D01*
X162262058Y-121610908D01*
X162410697Y-121690357D01*
X162611281Y-121751204D01*
X162819881Y-121771749D01*
X163028481Y-121751204D01*
X163229065Y-121690357D01*
X163413924Y-121591548D01*
X163575954Y-121458573D01*
X163708929Y-121296543D01*
X163807738Y-121111684D01*
X163868585Y-120911100D01*
X163889130Y-120702500D01*
X164290632Y-120702500D01*
X164311177Y-120911102D01*
X164372024Y-121111685D01*
X164470829Y-121296537D01*
X164470833Y-121296544D01*
X164603807Y-121458573D01*
X164765836Y-121591547D01*
X164765843Y-121591551D01*
X164802058Y-121610908D01*
X164950697Y-121690357D01*
X165151281Y-121751204D01*
X165359881Y-121771749D01*
X165568481Y-121751204D01*
X165769065Y-121690357D01*
X165953924Y-121591548D01*
X166115954Y-121458573D01*
X166248929Y-121296543D01*
X166347738Y-121111684D01*
X166408585Y-120911100D01*
X166429130Y-120702500D01*
X166830632Y-120702500D01*
X166851177Y-120911102D01*
X166912024Y-121111685D01*
X167010829Y-121296537D01*
X167010833Y-121296544D01*
X167143807Y-121458573D01*
X167305836Y-121591547D01*
X167305843Y-121591551D01*
X167342058Y-121610908D01*
X167490697Y-121690357D01*
X167691281Y-121751204D01*
X167899881Y-121771749D01*
X168108481Y-121751204D01*
X168309065Y-121690357D01*
X168493924Y-121591548D01*
X168655954Y-121458573D01*
X168788929Y-121296543D01*
X168887738Y-121111684D01*
X168948585Y-120911100D01*
X168969130Y-120702500D01*
X169370632Y-120702500D01*
X169391177Y-120911102D01*
X169452024Y-121111685D01*
X169550829Y-121296537D01*
X169550833Y-121296544D01*
X169683807Y-121458573D01*
X169845836Y-121591547D01*
X169845843Y-121591551D01*
X169882058Y-121610908D01*
X170030697Y-121690357D01*
X170231281Y-121751204D01*
X170439881Y-121771749D01*
X170648481Y-121751204D01*
X170849065Y-121690357D01*
X171033924Y-121591548D01*
X171195954Y-121458573D01*
X171328929Y-121296543D01*
X171427738Y-121111684D01*
X171488585Y-120911100D01*
X171509130Y-120702500D01*
X171910632Y-120702500D01*
X171931177Y-120911102D01*
X171992024Y-121111685D01*
X172090829Y-121296537D01*
X172090833Y-121296544D01*
X172223807Y-121458573D01*
X172385836Y-121591547D01*
X172385843Y-121591551D01*
X172422058Y-121610908D01*
X172570697Y-121690357D01*
X172771281Y-121751204D01*
X172979881Y-121771749D01*
X173188481Y-121751204D01*
X173389065Y-121690357D01*
X173573924Y-121591548D01*
X173735954Y-121458573D01*
X173868929Y-121296543D01*
X173967738Y-121111684D01*
X174028585Y-120911100D01*
X174049130Y-120702500D01*
X174028585Y-120493900D01*
X173967738Y-120293316D01*
X173868929Y-120108457D01*
X173868928Y-120108455D01*
X173735954Y-119946426D01*
X173573925Y-119813452D01*
X173573918Y-119813448D01*
X173389066Y-119714643D01*
X173188483Y-119653796D01*
X172979881Y-119633251D01*
X172771278Y-119653796D01*
X172570695Y-119714643D01*
X172385843Y-119813448D01*
X172385836Y-119813452D01*
X172223807Y-119946426D01*
X172090833Y-120108455D01*
X172090829Y-120108462D01*
X171992024Y-120293314D01*
X171931177Y-120493897D01*
X171910632Y-120702500D01*
X171509130Y-120702500D01*
X171488585Y-120493900D01*
X171427738Y-120293316D01*
X171328929Y-120108457D01*
X171328928Y-120108455D01*
X171195954Y-119946426D01*
X171033925Y-119813452D01*
X171033918Y-119813448D01*
X170849066Y-119714643D01*
X170648483Y-119653796D01*
X170439881Y-119633251D01*
X170231278Y-119653796D01*
X170030695Y-119714643D01*
X169845843Y-119813448D01*
X169845836Y-119813452D01*
X169683807Y-119946426D01*
X169550833Y-120108455D01*
X169550829Y-120108462D01*
X169452024Y-120293314D01*
X169391177Y-120493897D01*
X169370632Y-120702500D01*
X168969130Y-120702500D01*
X168948585Y-120493900D01*
X168887738Y-120293316D01*
X168788929Y-120108457D01*
X168788928Y-120108455D01*
X168655954Y-119946426D01*
X168493925Y-119813452D01*
X168493918Y-119813448D01*
X168309066Y-119714643D01*
X168108483Y-119653796D01*
X167899881Y-119633251D01*
X167691278Y-119653796D01*
X167490695Y-119714643D01*
X167305843Y-119813448D01*
X167305836Y-119813452D01*
X167143807Y-119946426D01*
X167010833Y-120108455D01*
X167010829Y-120108462D01*
X166912024Y-120293314D01*
X166851177Y-120493897D01*
X166830632Y-120702500D01*
X166429130Y-120702500D01*
X166408585Y-120493900D01*
X166347738Y-120293316D01*
X166248929Y-120108457D01*
X166248928Y-120108455D01*
X166115954Y-119946426D01*
X165953925Y-119813452D01*
X165953918Y-119813448D01*
X165769066Y-119714643D01*
X165568483Y-119653796D01*
X165359881Y-119633251D01*
X165151278Y-119653796D01*
X164950695Y-119714643D01*
X164765843Y-119813448D01*
X164765836Y-119813452D01*
X164603807Y-119946426D01*
X164470833Y-120108455D01*
X164470829Y-120108462D01*
X164372024Y-120293314D01*
X164311177Y-120493897D01*
X164290632Y-120702500D01*
X163889130Y-120702500D01*
X163868585Y-120493900D01*
X163807738Y-120293316D01*
X163708929Y-120108457D01*
X163708928Y-120108455D01*
X163575954Y-119946426D01*
X163413925Y-119813452D01*
X163413918Y-119813448D01*
X163229066Y-119714643D01*
X163028483Y-119653796D01*
X162819881Y-119633251D01*
X162611278Y-119653796D01*
X162410695Y-119714643D01*
X162225843Y-119813448D01*
X162225836Y-119813452D01*
X162063807Y-119946426D01*
X161930833Y-120108455D01*
X161930829Y-120108462D01*
X161832024Y-120293314D01*
X161771177Y-120493897D01*
X161750632Y-120702500D01*
X161349130Y-120702500D01*
X161328585Y-120493900D01*
X161267738Y-120293316D01*
X161168929Y-120108457D01*
X161168928Y-120108455D01*
X161035954Y-119946426D01*
X160873925Y-119813452D01*
X160873918Y-119813448D01*
X160689066Y-119714643D01*
X160488483Y-119653796D01*
X160279881Y-119633251D01*
X160071278Y-119653796D01*
X159870695Y-119714643D01*
X159685843Y-119813448D01*
X159685836Y-119813452D01*
X159523807Y-119946426D01*
X159390833Y-120108455D01*
X159390829Y-120108462D01*
X159292024Y-120293314D01*
X159231177Y-120493897D01*
X159210632Y-120702500D01*
X156269130Y-120702500D01*
X156248585Y-120493900D01*
X156187738Y-120293316D01*
X156088929Y-120108457D01*
X156088928Y-120108455D01*
X155955954Y-119946426D01*
X155793925Y-119813452D01*
X155793918Y-119813448D01*
X155609066Y-119714643D01*
X155408483Y-119653796D01*
X155199881Y-119633251D01*
X154991278Y-119653796D01*
X154790695Y-119714643D01*
X154605843Y-119813448D01*
X154605836Y-119813452D01*
X154443807Y-119946426D01*
X154310833Y-120108455D01*
X154310829Y-120108462D01*
X154212024Y-120293314D01*
X154151177Y-120493897D01*
X154130632Y-120702500D01*
X153167881Y-120702500D01*
X153167881Y-120635620D01*
X153145609Y-120552500D01*
X153823480Y-120552500D01*
X153823480Y-119794114D01*
X153823478Y-119794091D01*
X153820572Y-119769030D01*
X153820571Y-119769026D01*
X153775269Y-119666425D01*
X153775266Y-119666420D01*
X153695960Y-119587114D01*
X153695955Y-119587111D01*
X153593357Y-119541810D01*
X153568275Y-119538900D01*
X152809881Y-119538900D01*
X152809881Y-120216771D01*
X152726761Y-120194500D01*
X152593001Y-120194500D01*
X152509881Y-120216771D01*
X152509881Y-119538900D01*
X151751495Y-119538900D01*
X151751472Y-119538902D01*
X151726411Y-119541808D01*
X151726407Y-119541809D01*
X151623806Y-119587111D01*
X151623801Y-119587114D01*
X151544495Y-119666420D01*
X151544490Y-119666428D01*
X151503314Y-119759683D01*
X151458228Y-119813060D01*
X151391442Y-119833587D01*
X151324160Y-119814749D01*
X151277744Y-119762525D01*
X151276445Y-119759682D01*
X151235269Y-119666424D01*
X151235266Y-119666420D01*
X151155960Y-119587114D01*
X151155955Y-119587111D01*
X151053357Y-119541810D01*
X151028275Y-119538900D01*
X150269881Y-119538900D01*
X150269881Y-120216771D01*
X150186761Y-120194500D01*
X150053001Y-120194500D01*
X149969881Y-120216771D01*
X149969881Y-119538900D01*
X149211495Y-119538900D01*
X149211472Y-119538902D01*
X149186411Y-119541808D01*
X149186407Y-119541809D01*
X149083806Y-119587111D01*
X149083801Y-119587114D01*
X149004495Y-119666420D01*
X149004492Y-119666425D01*
X148959191Y-119769022D01*
X148959191Y-119769024D01*
X148956281Y-119794105D01*
X148137730Y-119794105D01*
X147989066Y-119714643D01*
X147788483Y-119653796D01*
X147579881Y-119633251D01*
X147371278Y-119653796D01*
X147170695Y-119714643D01*
X146985843Y-119813448D01*
X146985836Y-119813452D01*
X146823807Y-119946426D01*
X146690833Y-120108455D01*
X146690829Y-120108462D01*
X146592024Y-120293314D01*
X146531177Y-120493897D01*
X146510632Y-120702500D01*
X146109130Y-120702500D01*
X146088585Y-120493900D01*
X146027738Y-120293316D01*
X145928929Y-120108457D01*
X145928928Y-120108455D01*
X145795954Y-119946426D01*
X145685716Y-119855956D01*
X145646382Y-119798210D01*
X145640381Y-119760103D01*
X145640381Y-114510216D01*
X145660066Y-114443177D01*
X145676700Y-114422535D01*
X145733134Y-114366101D01*
X145794457Y-114332616D01*
X145864149Y-114337600D01*
X145887855Y-114349467D01*
X145939055Y-114382371D01*
X145992260Y-114406669D01*
X146130215Y-114447176D01*
X146188111Y-114455500D01*
X146188114Y-114455500D01*
X146760003Y-114455500D01*
X146760003Y-114455499D01*
X146805728Y-114450348D01*
X146807992Y-114449257D01*
X146808976Y-114448784D01*
X146814069Y-114447944D01*
X146815784Y-114447451D01*
X146815842Y-114447652D01*
X146877916Y-114437427D01*
X146890372Y-114439607D01*
X146960000Y-114455500D01*
X147531886Y-114455500D01*
X147531889Y-114455500D01*
X147589785Y-114447176D01*
X147727740Y-114406669D01*
X147780945Y-114382371D01*
X147901899Y-114304639D01*
X147946105Y-114266334D01*
X148015202Y-114186590D01*
X148040250Y-114157684D01*
X148040252Y-114157680D01*
X148040259Y-114157673D01*
X148040398Y-114157457D01*
X148040461Y-114157402D01*
X148042909Y-114154132D01*
X148043620Y-114154664D01*
X148093204Y-114111704D01*
X148144711Y-114100500D01*
X148663331Y-114100500D01*
X148663347Y-114100501D01*
X148670943Y-114100501D01*
X148829054Y-114100501D01*
X148829057Y-114100501D01*
X148981785Y-114059577D01*
X149031904Y-114030639D01*
X149118716Y-113980520D01*
X149230520Y-113868716D01*
X149230520Y-113868714D01*
X149240728Y-113858507D01*
X149240730Y-113858504D01*
X149268506Y-113830728D01*
X149268511Y-113830724D01*
X149278714Y-113820520D01*
X149278716Y-113820520D01*
X149390520Y-113708716D01*
X149465375Y-113579063D01*
X149465378Y-113579058D01*
X149469575Y-113571788D01*
X149469577Y-113571785D01*
X149510500Y-113419057D01*
X149510500Y-113354500D01*
X149530185Y-113287461D01*
X149582989Y-113241706D01*
X149634500Y-113230500D01*
X153819308Y-113230500D01*
X153819309Y-113230500D01*
X153909673Y-113206286D01*
X153933887Y-113199799D01*
X154036614Y-113140489D01*
X157890489Y-109286614D01*
X157949799Y-109183887D01*
X157967051Y-109119501D01*
X157980500Y-109069309D01*
X157980500Y-97723818D01*
X158750000Y-97723818D01*
X158760493Y-97811198D01*
X158760493Y-97811199D01*
X158815330Y-97950255D01*
X158905645Y-98069354D01*
X159024744Y-98159669D01*
X159163801Y-98214506D01*
X159251182Y-98225000D01*
X159600000Y-98225000D01*
X159900000Y-98225000D01*
X160248818Y-98225000D01*
X160336198Y-98214506D01*
X160336199Y-98214506D01*
X160475255Y-98159669D01*
X160594354Y-98069354D01*
X160684669Y-97950255D01*
X160727162Y-97842500D01*
X172037632Y-97842500D01*
X172058177Y-98051102D01*
X172119024Y-98251685D01*
X172217829Y-98436537D01*
X172217833Y-98436544D01*
X172350807Y-98598573D01*
X172512836Y-98731547D01*
X172512843Y-98731551D01*
X172518643Y-98734651D01*
X172697697Y-98830357D01*
X172898281Y-98891204D01*
X173106881Y-98911749D01*
X173315481Y-98891204D01*
X173516065Y-98830357D01*
X173700924Y-98731548D01*
X173862954Y-98598573D01*
X173995929Y-98436543D01*
X174094738Y-98251684D01*
X174155585Y-98051100D01*
X174176130Y-97842500D01*
X174155585Y-97633900D01*
X174094738Y-97433316D01*
X174066251Y-97380021D01*
X173995932Y-97248462D01*
X173995928Y-97248455D01*
X173862954Y-97086426D01*
X173707864Y-96959147D01*
X174582781Y-96959147D01*
X174582781Y-98725852D01*
X174594412Y-98784329D01*
X174594413Y-98784330D01*
X174638728Y-98850652D01*
X174705050Y-98894967D01*
X174705051Y-98894968D01*
X174763528Y-98906599D01*
X174763531Y-98906600D01*
X174763533Y-98906600D01*
X176530231Y-98906600D01*
X176530232Y-98906599D01*
X176545049Y-98903652D01*
X176588710Y-98894968D01*
X176588710Y-98894967D01*
X176588712Y-98894967D01*
X176655033Y-98850652D01*
X176699348Y-98784331D01*
X176699348Y-98784329D01*
X176699349Y-98784329D01*
X176709230Y-98734651D01*
X176710981Y-98725848D01*
X176710981Y-96959152D01*
X176710981Y-96959149D01*
X176710980Y-96959147D01*
X176699349Y-96900670D01*
X176699348Y-96900669D01*
X176655033Y-96834347D01*
X176588711Y-96790032D01*
X176588710Y-96790031D01*
X176530233Y-96778400D01*
X176530229Y-96778400D01*
X174763533Y-96778400D01*
X174763528Y-96778400D01*
X174705051Y-96790031D01*
X174705050Y-96790032D01*
X174638728Y-96834347D01*
X174594413Y-96900669D01*
X174594412Y-96900670D01*
X174582781Y-96959147D01*
X173707864Y-96959147D01*
X173700925Y-96953452D01*
X173700918Y-96953448D01*
X173516066Y-96854643D01*
X173315483Y-96793796D01*
X173106881Y-96773251D01*
X172898278Y-96793796D01*
X172697695Y-96854643D01*
X172512843Y-96953448D01*
X172512836Y-96953452D01*
X172350807Y-97086426D01*
X172217833Y-97248455D01*
X172217829Y-97248462D01*
X172119024Y-97433314D01*
X172058177Y-97633897D01*
X172037632Y-97842500D01*
X160727162Y-97842500D01*
X160739506Y-97811199D01*
X160739506Y-97811198D01*
X160750000Y-97723818D01*
X160750000Y-97587500D01*
X159900000Y-97587500D01*
X159900000Y-98225000D01*
X159600000Y-98225000D01*
X159600000Y-97587500D01*
X158750000Y-97587500D01*
X158750000Y-97723818D01*
X157980500Y-97723818D01*
X157980500Y-97151181D01*
X158750000Y-97151181D01*
X158750000Y-97287500D01*
X159600000Y-97287500D01*
X159900000Y-97287500D01*
X160750000Y-97287500D01*
X160750000Y-97151181D01*
X160739506Y-97063801D01*
X160739506Y-97063800D01*
X160684669Y-96924744D01*
X160594354Y-96805645D01*
X160475255Y-96715330D01*
X160336198Y-96660493D01*
X160248818Y-96650000D01*
X159900000Y-96650000D01*
X159900000Y-97287500D01*
X159600000Y-97287500D01*
X159600000Y-96650000D01*
X159251182Y-96650000D01*
X159163801Y-96660493D01*
X159163800Y-96660493D01*
X159024744Y-96715330D01*
X158905645Y-96805645D01*
X158815330Y-96924744D01*
X158760493Y-97063800D01*
X158760493Y-97063801D01*
X158750000Y-97151181D01*
X157980500Y-97151181D01*
X157980500Y-87595730D01*
X158849500Y-87595730D01*
X158849500Y-88404269D01*
X158852353Y-88434699D01*
X158852353Y-88434701D01*
X158897206Y-88562880D01*
X158897207Y-88562882D01*
X158977850Y-88672150D01*
X159087118Y-88752793D01*
X159129845Y-88767744D01*
X159215299Y-88797646D01*
X159245730Y-88800500D01*
X159245734Y-88800500D01*
X159275500Y-88800500D01*
X159342539Y-88820185D01*
X159388294Y-88872989D01*
X159399500Y-88924500D01*
X159399500Y-94750500D01*
X159379815Y-94817539D01*
X159327011Y-94863294D01*
X159275500Y-94874500D01*
X159240232Y-94874500D01*
X159210230Y-94877313D01*
X159210218Y-94877315D01*
X159083821Y-94921544D01*
X159083819Y-94921545D01*
X158976069Y-95001069D01*
X158896545Y-95108819D01*
X158896544Y-95108821D01*
X158852315Y-95235218D01*
X158852313Y-95235230D01*
X158849500Y-95265231D01*
X158849500Y-95859768D01*
X158852313Y-95889769D01*
X158852315Y-95889781D01*
X158896544Y-96016178D01*
X158896545Y-96016180D01*
X158976069Y-96123930D01*
X159083819Y-96203454D01*
X159083821Y-96203455D01*
X159210218Y-96247684D01*
X159210222Y-96247684D01*
X159210226Y-96247686D01*
X159225231Y-96249093D01*
X159240232Y-96250500D01*
X159240236Y-96250500D01*
X160259768Y-96250500D01*
X160273101Y-96249249D01*
X160289774Y-96247686D01*
X160289778Y-96247684D01*
X160289781Y-96247684D01*
X160372120Y-96218872D01*
X160416179Y-96203455D01*
X160523930Y-96123930D01*
X160603455Y-96016179D01*
X160622816Y-95960845D01*
X160647684Y-95889781D01*
X160647684Y-95889778D01*
X160647686Y-95889774D01*
X160650500Y-95859764D01*
X160650500Y-95302500D01*
X172037632Y-95302500D01*
X172058177Y-95511102D01*
X172119024Y-95711685D01*
X172217829Y-95896537D01*
X172217832Y-95896542D01*
X172350807Y-96058573D01*
X172512836Y-96191547D01*
X172512843Y-96191551D01*
X172671327Y-96276262D01*
X172697697Y-96290357D01*
X172898281Y-96351204D01*
X173106881Y-96371749D01*
X173315481Y-96351204D01*
X173516065Y-96290357D01*
X173700924Y-96191548D01*
X173862954Y-96058573D01*
X173995929Y-95896543D01*
X174094738Y-95711684D01*
X174155585Y-95511100D01*
X174176130Y-95302500D01*
X174577632Y-95302500D01*
X174598177Y-95511102D01*
X174659024Y-95711685D01*
X174757829Y-95896537D01*
X174757832Y-95896542D01*
X174890807Y-96058573D01*
X175052836Y-96191547D01*
X175052843Y-96191551D01*
X175211327Y-96276262D01*
X175237697Y-96290357D01*
X175438281Y-96351204D01*
X175646881Y-96371749D01*
X175855481Y-96351204D01*
X176056065Y-96290357D01*
X176240924Y-96191548D01*
X176402954Y-96058573D01*
X176535929Y-95896543D01*
X176634738Y-95711684D01*
X176695585Y-95511100D01*
X176716130Y-95302500D01*
X176695585Y-95093900D01*
X176634738Y-94893316D01*
X176605973Y-94839500D01*
X176535932Y-94708462D01*
X176535928Y-94708455D01*
X176402954Y-94546426D01*
X176240925Y-94413452D01*
X176240918Y-94413448D01*
X176056066Y-94314643D01*
X175855483Y-94253796D01*
X175646881Y-94233251D01*
X175438278Y-94253796D01*
X175237695Y-94314643D01*
X175052843Y-94413448D01*
X175052836Y-94413452D01*
X174890807Y-94546426D01*
X174757833Y-94708455D01*
X174757829Y-94708462D01*
X174659024Y-94893314D01*
X174598177Y-95093897D01*
X174577632Y-95302500D01*
X174176130Y-95302500D01*
X174155585Y-95093900D01*
X174094738Y-94893316D01*
X174065973Y-94839500D01*
X173995932Y-94708462D01*
X173995928Y-94708455D01*
X173862954Y-94546426D01*
X173700925Y-94413452D01*
X173700918Y-94413448D01*
X173516066Y-94314643D01*
X173315483Y-94253796D01*
X173106881Y-94233251D01*
X172898278Y-94253796D01*
X172697695Y-94314643D01*
X172512843Y-94413448D01*
X172512836Y-94413452D01*
X172350807Y-94546426D01*
X172217833Y-94708455D01*
X172217829Y-94708462D01*
X172119024Y-94893314D01*
X172058177Y-95093897D01*
X172037632Y-95302500D01*
X160650500Y-95302500D01*
X160650500Y-95265236D01*
X160649630Y-95255962D01*
X160647686Y-95235230D01*
X160647686Y-95235226D01*
X160647684Y-95235222D01*
X160647684Y-95235218D01*
X160603455Y-95108821D01*
X160603454Y-95108819D01*
X160523930Y-95001069D01*
X160416180Y-94921545D01*
X160416178Y-94921544D01*
X160289781Y-94877315D01*
X160289769Y-94877313D01*
X160259768Y-94874500D01*
X160259764Y-94874500D01*
X160224500Y-94874500D01*
X160157461Y-94854815D01*
X160111706Y-94802011D01*
X160100500Y-94750500D01*
X160100500Y-92762500D01*
X172037632Y-92762500D01*
X172058177Y-92971102D01*
X172119024Y-93171685D01*
X172217829Y-93356537D01*
X172217833Y-93356544D01*
X172350807Y-93518573D01*
X172512836Y-93651547D01*
X172512843Y-93651551D01*
X172697695Y-93750356D01*
X172697697Y-93750357D01*
X172898281Y-93811204D01*
X173106881Y-93831749D01*
X173315481Y-93811204D01*
X173516065Y-93750357D01*
X173700924Y-93651548D01*
X173862954Y-93518573D01*
X173995929Y-93356543D01*
X174094738Y-93171684D01*
X174155585Y-92971100D01*
X174176130Y-92762500D01*
X174577632Y-92762500D01*
X174598177Y-92971102D01*
X174659024Y-93171685D01*
X174757829Y-93356537D01*
X174757833Y-93356544D01*
X174890807Y-93518573D01*
X175052836Y-93651547D01*
X175052843Y-93651551D01*
X175237695Y-93750356D01*
X175237697Y-93750357D01*
X175438281Y-93811204D01*
X175646881Y-93831749D01*
X175855481Y-93811204D01*
X176056065Y-93750357D01*
X176240924Y-93651548D01*
X176402954Y-93518573D01*
X176535929Y-93356543D01*
X176634738Y-93171684D01*
X176695585Y-92971100D01*
X176716130Y-92762500D01*
X176695585Y-92553900D01*
X176634738Y-92353316D01*
X176535929Y-92168457D01*
X176535928Y-92168455D01*
X176402954Y-92006426D01*
X176240925Y-91873452D01*
X176240918Y-91873448D01*
X176056066Y-91774643D01*
X175855483Y-91713796D01*
X175646881Y-91693251D01*
X175438278Y-91713796D01*
X175237695Y-91774643D01*
X175052843Y-91873448D01*
X175052836Y-91873452D01*
X174890807Y-92006426D01*
X174757833Y-92168455D01*
X174757829Y-92168462D01*
X174659024Y-92353314D01*
X174598177Y-92553897D01*
X174577632Y-92762500D01*
X174176130Y-92762500D01*
X174155585Y-92553900D01*
X174094738Y-92353316D01*
X173995929Y-92168457D01*
X173995928Y-92168455D01*
X173862954Y-92006426D01*
X173700925Y-91873452D01*
X173700918Y-91873448D01*
X173516066Y-91774643D01*
X173315483Y-91713796D01*
X173106881Y-91693251D01*
X172898278Y-91713796D01*
X172697695Y-91774643D01*
X172512843Y-91873448D01*
X172512836Y-91873452D01*
X172350807Y-92006426D01*
X172217833Y-92168455D01*
X172217829Y-92168462D01*
X172119024Y-92353314D01*
X172058177Y-92553897D01*
X172037632Y-92762500D01*
X160100500Y-92762500D01*
X160100500Y-88924500D01*
X160120185Y-88857461D01*
X160172989Y-88811706D01*
X160224500Y-88800500D01*
X160254270Y-88800500D01*
X160284699Y-88797646D01*
X160284701Y-88797646D01*
X160348790Y-88775219D01*
X160412882Y-88752793D01*
X160522150Y-88672150D01*
X160602793Y-88562882D01*
X160625219Y-88498790D01*
X160647646Y-88434701D01*
X160647646Y-88434699D01*
X160650500Y-88404269D01*
X160650500Y-87595730D01*
X160647646Y-87565300D01*
X160647646Y-87565298D01*
X160602793Y-87437119D01*
X160602792Y-87437117D01*
X160522150Y-87327850D01*
X160412882Y-87247207D01*
X160412880Y-87247206D01*
X160284700Y-87202353D01*
X160254270Y-87199500D01*
X160254266Y-87199500D01*
X159245734Y-87199500D01*
X159245730Y-87199500D01*
X159215300Y-87202353D01*
X159215298Y-87202353D01*
X159087119Y-87247206D01*
X159087117Y-87247207D01*
X158977850Y-87327850D01*
X158897207Y-87437117D01*
X158897206Y-87437119D01*
X158852353Y-87565298D01*
X158852353Y-87565300D01*
X158849500Y-87595730D01*
X157980500Y-87595730D01*
X157980500Y-86847965D01*
X158000185Y-86780926D01*
X158016819Y-86760284D01*
X158280284Y-86496819D01*
X158341607Y-86463334D01*
X158367965Y-86460500D01*
X158549307Y-86460500D01*
X158549309Y-86460500D01*
X158570861Y-86454724D01*
X158602954Y-86450500D01*
X158769901Y-86450500D01*
X158836940Y-86470185D01*
X158882695Y-86522989D01*
X158886934Y-86533525D01*
X158897207Y-86562882D01*
X158977850Y-86672150D01*
X159087118Y-86752793D01*
X159129845Y-86767744D01*
X159215299Y-86797646D01*
X159245730Y-86800500D01*
X159245734Y-86800500D01*
X160254270Y-86800500D01*
X160284699Y-86797646D01*
X160284701Y-86797646D01*
X160348790Y-86775219D01*
X160412882Y-86752793D01*
X160522150Y-86672150D01*
X160602793Y-86562882D01*
X160635229Y-86470185D01*
X160647646Y-86434701D01*
X160647646Y-86434699D01*
X160650500Y-86404269D01*
X160650500Y-85595730D01*
X160647646Y-85565300D01*
X160647646Y-85565298D01*
X160602793Y-85437119D01*
X160602792Y-85437117D01*
X160522150Y-85327850D01*
X160412882Y-85247207D01*
X160412880Y-85247206D01*
X160284700Y-85202353D01*
X160254270Y-85199500D01*
X160254266Y-85199500D01*
X159245734Y-85199500D01*
X159245730Y-85199500D01*
X159215300Y-85202353D01*
X159215298Y-85202353D01*
X159087119Y-85247206D01*
X159087117Y-85247207D01*
X158977850Y-85327850D01*
X158917732Y-85409308D01*
X158897207Y-85437118D01*
X158886940Y-85466456D01*
X158846221Y-85523230D01*
X158781269Y-85548978D01*
X158769901Y-85549500D01*
X158440691Y-85549500D01*
X158419139Y-85555275D01*
X158387046Y-85559500D01*
X158367965Y-85559500D01*
X158300926Y-85539815D01*
X158280284Y-85523181D01*
X157956819Y-85199716D01*
X157923334Y-85138393D01*
X157920500Y-85112035D01*
X157920500Y-78595730D01*
X158849500Y-78595730D01*
X158849500Y-79404269D01*
X158852353Y-79434699D01*
X158852353Y-79434701D01*
X158897206Y-79562880D01*
X158897207Y-79562882D01*
X158977850Y-79672150D01*
X159087118Y-79752793D01*
X159124525Y-79765882D01*
X159215290Y-79797643D01*
X159215296Y-79797644D01*
X159215301Y-79797646D01*
X159215305Y-79797646D01*
X159221953Y-79799098D01*
X159283250Y-79832632D01*
X159316687Y-79893981D01*
X159319500Y-79920244D01*
X159319500Y-80689430D01*
X159299815Y-80756469D01*
X159273870Y-80783286D01*
X159274762Y-80784293D01*
X159269149Y-80789265D01*
X159269148Y-80789266D01*
X159141817Y-80902071D01*
X159141816Y-80902072D01*
X159045182Y-81042068D01*
X158984860Y-81201125D01*
X158984859Y-81201130D01*
X158964355Y-81370000D01*
X158984859Y-81538869D01*
X158984860Y-81538874D01*
X159045182Y-81697931D01*
X159107475Y-81788177D01*
X159141817Y-81837929D01*
X159212202Y-81900284D01*
X159269150Y-81950736D01*
X159419773Y-82029789D01*
X159419775Y-82029790D01*
X159584944Y-82070500D01*
X159755056Y-82070500D01*
X159920225Y-82029790D01*
X159999915Y-81987965D01*
X160070849Y-81950736D01*
X160070850Y-81950734D01*
X160070852Y-81950734D01*
X160198183Y-81837929D01*
X160294818Y-81697930D01*
X160340042Y-81578683D01*
X172310574Y-81578683D01*
X173923864Y-81578683D01*
X173923864Y-78442729D01*
X172310574Y-78442729D01*
X172310574Y-81578683D01*
X160340042Y-81578683D01*
X160355140Y-81538872D01*
X160375645Y-81370000D01*
X160355140Y-81201128D01*
X160294818Y-81042070D01*
X160198183Y-80902071D01*
X160070852Y-80789266D01*
X160070850Y-80789265D01*
X160065238Y-80784293D01*
X160066802Y-80782527D01*
X160030065Y-80737186D01*
X160020500Y-80689430D01*
X160020500Y-79924500D01*
X160040185Y-79857461D01*
X160092989Y-79811706D01*
X160144500Y-79800500D01*
X160254270Y-79800500D01*
X160284699Y-79797646D01*
X160284701Y-79797646D01*
X160348790Y-79775219D01*
X160412882Y-79752793D01*
X160522150Y-79672150D01*
X160602793Y-79562882D01*
X160632030Y-79479328D01*
X160647646Y-79434701D01*
X160647646Y-79434699D01*
X160650500Y-79404269D01*
X160650500Y-78595730D01*
X160647646Y-78565300D01*
X160647646Y-78565298D01*
X160602793Y-78437119D01*
X160602792Y-78437117D01*
X160522150Y-78327850D01*
X160412882Y-78247207D01*
X160412880Y-78247206D01*
X160284700Y-78202353D01*
X160254270Y-78199500D01*
X160254266Y-78199500D01*
X159245734Y-78199500D01*
X159245730Y-78199500D01*
X159215300Y-78202353D01*
X159215298Y-78202353D01*
X159087119Y-78247206D01*
X159087117Y-78247207D01*
X158977850Y-78327850D01*
X158897207Y-78437117D01*
X158897206Y-78437119D01*
X158852353Y-78565298D01*
X158852353Y-78565300D01*
X158849500Y-78595730D01*
X157920500Y-78595730D01*
X157920500Y-77720693D01*
X157920500Y-77720691D01*
X157889799Y-77606114D01*
X157866185Y-77565213D01*
X157830490Y-77503386D01*
X156929114Y-76602011D01*
X156918235Y-76595730D01*
X158849500Y-76595730D01*
X158849500Y-77404269D01*
X158852353Y-77434699D01*
X158852353Y-77434701D01*
X158897206Y-77562880D01*
X158897207Y-77562882D01*
X158977850Y-77672150D01*
X159087118Y-77752793D01*
X159129845Y-77767744D01*
X159215299Y-77797646D01*
X159245730Y-77800500D01*
X159245734Y-77800500D01*
X160254270Y-77800500D01*
X160284699Y-77797646D01*
X160284701Y-77797646D01*
X160348790Y-77775219D01*
X160412882Y-77752793D01*
X160522150Y-77672150D01*
X160602793Y-77562882D01*
X160626596Y-77494856D01*
X160647646Y-77434701D01*
X160647646Y-77434699D01*
X160650500Y-77404269D01*
X160650500Y-76595730D01*
X160647646Y-76565300D01*
X160647646Y-76565298D01*
X160602793Y-76437119D01*
X160602792Y-76437117D01*
X160595499Y-76427235D01*
X160522150Y-76327850D01*
X160412882Y-76247207D01*
X160412880Y-76247206D01*
X160373650Y-76233479D01*
X160316874Y-76192757D01*
X160291127Y-76127804D01*
X160304584Y-76059243D01*
X160326921Y-76028760D01*
X160868863Y-75486819D01*
X160930186Y-75453334D01*
X160956544Y-75450500D01*
X166626142Y-75450500D01*
X166626144Y-75450500D01*
X166715288Y-75426614D01*
X166727591Y-75419511D01*
X166795212Y-75380470D01*
X168180351Y-73995331D01*
X168226495Y-73915407D01*
X168250381Y-73826262D01*
X168250381Y-73733975D01*
X168250381Y-73536046D01*
X168270066Y-73469007D01*
X168315926Y-73426689D01*
X168493924Y-73331548D01*
X168655954Y-73198573D01*
X168788929Y-73036543D01*
X168887738Y-72851684D01*
X168948585Y-72651100D01*
X168969130Y-72442500D01*
X169370632Y-72442500D01*
X169391177Y-72651102D01*
X169452024Y-72851685D01*
X169550829Y-73036537D01*
X169550833Y-73036544D01*
X169683807Y-73198573D01*
X169845836Y-73331547D01*
X169845843Y-73331551D01*
X169882058Y-73350908D01*
X170030697Y-73430357D01*
X170231281Y-73491204D01*
X170439881Y-73511749D01*
X170648481Y-73491204D01*
X170849065Y-73430357D01*
X171033924Y-73331548D01*
X171195954Y-73198573D01*
X171328929Y-73036543D01*
X171427738Y-72851684D01*
X171488585Y-72651100D01*
X171509130Y-72442500D01*
X171910632Y-72442500D01*
X171931177Y-72651102D01*
X171992024Y-72851685D01*
X172090829Y-73036537D01*
X172090833Y-73036544D01*
X172223807Y-73198573D01*
X172385836Y-73331547D01*
X172385843Y-73331551D01*
X172422058Y-73350908D01*
X172570697Y-73430357D01*
X172771281Y-73491204D01*
X172979881Y-73511749D01*
X173188481Y-73491204D01*
X173389065Y-73430357D01*
X173573924Y-73331548D01*
X173735954Y-73198573D01*
X173868929Y-73036543D01*
X173967738Y-72851684D01*
X174028585Y-72651100D01*
X174049130Y-72442500D01*
X174028585Y-72233900D01*
X173967738Y-72033316D01*
X173868929Y-71848457D01*
X173868928Y-71848455D01*
X173735954Y-71686426D01*
X173573925Y-71553452D01*
X173573918Y-71553448D01*
X173389066Y-71454643D01*
X173188483Y-71393796D01*
X172979881Y-71373251D01*
X172771278Y-71393796D01*
X172570695Y-71454643D01*
X172385843Y-71553448D01*
X172385836Y-71553452D01*
X172223807Y-71686426D01*
X172090833Y-71848455D01*
X172090829Y-71848462D01*
X171992024Y-72033314D01*
X171931177Y-72233897D01*
X171910632Y-72442500D01*
X171509130Y-72442500D01*
X171488585Y-72233900D01*
X171427738Y-72033316D01*
X171328929Y-71848457D01*
X171328928Y-71848455D01*
X171195954Y-71686426D01*
X171033925Y-71553452D01*
X171033918Y-71553448D01*
X170849066Y-71454643D01*
X170648483Y-71393796D01*
X170439881Y-71373251D01*
X170231278Y-71393796D01*
X170030695Y-71454643D01*
X169845843Y-71553448D01*
X169845836Y-71553452D01*
X169683807Y-71686426D01*
X169550833Y-71848455D01*
X169550829Y-71848462D01*
X169452024Y-72033314D01*
X169391177Y-72233897D01*
X169370632Y-72442500D01*
X168969130Y-72442500D01*
X168948585Y-72233900D01*
X168887738Y-72033316D01*
X168788929Y-71848457D01*
X168788928Y-71848455D01*
X168655954Y-71686426D01*
X168493925Y-71553452D01*
X168493918Y-71553448D01*
X168309066Y-71454643D01*
X168108483Y-71393796D01*
X167899881Y-71373251D01*
X167691278Y-71393796D01*
X167490695Y-71454643D01*
X167305843Y-71553448D01*
X167305836Y-71553452D01*
X167143807Y-71686426D01*
X167010833Y-71848455D01*
X167010829Y-71848462D01*
X166912024Y-72033314D01*
X166851177Y-72233897D01*
X166830632Y-72442500D01*
X166851177Y-72651102D01*
X166912024Y-72851685D01*
X167010829Y-73036537D01*
X167010833Y-73036544D01*
X167143807Y-73198573D01*
X167305836Y-73331547D01*
X167305839Y-73331549D01*
X167342015Y-73350885D01*
X167483835Y-73426689D01*
X167533678Y-73475649D01*
X167549381Y-73536046D01*
X167549381Y-73583575D01*
X167529696Y-73650614D01*
X167513062Y-73671256D01*
X166471137Y-74713181D01*
X166409814Y-74746666D01*
X166383456Y-74749500D01*
X160713856Y-74749500D01*
X160624712Y-74773386D01*
X160624709Y-74773387D01*
X160544791Y-74819527D01*
X160544786Y-74819531D01*
X159469531Y-75894786D01*
X159469529Y-75894789D01*
X159431231Y-75961125D01*
X159431229Y-75961127D01*
X159423387Y-75974709D01*
X159423386Y-75974711D01*
X159423386Y-75974712D01*
X159408905Y-76028757D01*
X159399500Y-76063856D01*
X159399500Y-76075500D01*
X159379815Y-76142539D01*
X159327011Y-76188294D01*
X159275500Y-76199500D01*
X159245730Y-76199500D01*
X159215300Y-76202353D01*
X159215298Y-76202353D01*
X159087119Y-76247206D01*
X159087117Y-76247207D01*
X158977850Y-76327850D01*
X158897207Y-76437117D01*
X158897206Y-76437119D01*
X158852353Y-76565298D01*
X158852353Y-76565300D01*
X158849500Y-76595730D01*
X156918235Y-76595730D01*
X156833255Y-76546666D01*
X156826384Y-76542699D01*
X156796856Y-76534788D01*
X156796855Y-76534787D01*
X156796855Y-76534788D01*
X156754331Y-76523394D01*
X156711809Y-76512000D01*
X156711808Y-76512000D01*
X156500726Y-76512000D01*
X156433687Y-76492315D01*
X156387932Y-76439511D01*
X156383684Y-76428953D01*
X156377794Y-76412120D01*
X156377793Y-76412118D01*
X156369452Y-76400816D01*
X156297150Y-76302850D01*
X156187882Y-76222207D01*
X156187880Y-76222206D01*
X156059700Y-76177353D01*
X156029270Y-76174500D01*
X156029266Y-76174500D01*
X155259044Y-76174500D01*
X155192005Y-76154815D01*
X155171363Y-76138181D01*
X154802713Y-75769531D01*
X154802708Y-75769527D01*
X154722790Y-75723387D01*
X154722783Y-75723384D01*
X154712731Y-75720690D01*
X154712731Y-75720691D01*
X154673187Y-75710095D01*
X154633644Y-75699500D01*
X154633643Y-75699500D01*
X151702785Y-75699500D01*
X151652699Y-75688934D01*
X151612577Y-75671218D01*
X151569992Y-75652415D01*
X151544865Y-75649500D01*
X150180143Y-75649500D01*
X150180117Y-75649502D01*
X150155012Y-75652413D01*
X150155008Y-75652415D01*
X150052235Y-75697793D01*
X149972794Y-75777234D01*
X149927415Y-75880006D01*
X149927415Y-75880008D01*
X149924500Y-75905131D01*
X149924500Y-76194856D01*
X149924502Y-76194882D01*
X149927413Y-76219986D01*
X149927414Y-76219990D01*
X149927415Y-76219991D01*
X149972794Y-76322765D01*
X149972795Y-76322766D01*
X149973743Y-76324913D01*
X149982814Y-76394191D01*
X149973743Y-76425085D01*
X149927415Y-76530009D01*
X149924500Y-76555131D01*
X149924500Y-76844856D01*
X149924502Y-76844882D01*
X149927413Y-76869986D01*
X149927414Y-76869990D01*
X149927415Y-76869991D01*
X149972794Y-76972765D01*
X149972795Y-76972766D01*
X149973743Y-76974913D01*
X149982814Y-77044191D01*
X149973743Y-77075085D01*
X149927415Y-77180009D01*
X149924500Y-77205131D01*
X149924500Y-77494856D01*
X149924502Y-77494882D01*
X149927413Y-77519986D01*
X149927414Y-77519990D01*
X149927415Y-77519991D01*
X149972794Y-77622765D01*
X149972795Y-77622766D01*
X149973743Y-77624913D01*
X149982814Y-77694191D01*
X149973743Y-77725085D01*
X149927415Y-77830009D01*
X149924500Y-77855131D01*
X149924500Y-78144856D01*
X149924502Y-78144882D01*
X149927413Y-78169986D01*
X149927414Y-78169990D01*
X149927415Y-78169991D01*
X149972794Y-78272765D01*
X149972795Y-78272766D01*
X149973743Y-78274913D01*
X149982814Y-78344191D01*
X149973743Y-78375085D01*
X149927415Y-78480009D01*
X149924500Y-78505131D01*
X149924500Y-78794856D01*
X149924502Y-78794882D01*
X149927413Y-78819986D01*
X149927414Y-78819990D01*
X149927415Y-78819991D01*
X149972794Y-78922765D01*
X149972795Y-78922766D01*
X149973743Y-78924913D01*
X149982814Y-78994191D01*
X149973743Y-79025085D01*
X149927415Y-79130009D01*
X149924500Y-79155131D01*
X149924500Y-79369456D01*
X149904815Y-79436495D01*
X149852011Y-79482250D01*
X149782853Y-79492194D01*
X149719297Y-79463169D01*
X149712819Y-79457137D01*
X149346819Y-79091137D01*
X149313334Y-79029814D01*
X149310500Y-79003456D01*
X149310500Y-77153858D01*
X149310500Y-77153856D01*
X149286614Y-77064712D01*
X149275894Y-77046144D01*
X149274766Y-77044191D01*
X149263686Y-77025000D01*
X149240470Y-76984788D01*
X148313458Y-76057776D01*
X148279973Y-75996453D01*
X148278043Y-75985039D01*
X148275140Y-75961132D01*
X148275140Y-75961128D01*
X148214818Y-75802070D01*
X148205709Y-75788874D01*
X148172905Y-75741349D01*
X148118183Y-75662071D01*
X147990852Y-75549266D01*
X147990849Y-75549263D01*
X147840226Y-75470210D01*
X147675056Y-75429500D01*
X147504944Y-75429500D01*
X147339773Y-75470210D01*
X147189150Y-75549263D01*
X147072716Y-75652415D01*
X147061817Y-75662071D01*
X147017729Y-75725942D01*
X146963448Y-75769931D01*
X146915681Y-75779500D01*
X146080834Y-75779500D01*
X146013795Y-75759815D01*
X145993154Y-75743182D01*
X145947765Y-75697794D01*
X145844992Y-75652415D01*
X145819865Y-75649500D01*
X144455143Y-75649500D01*
X144455117Y-75649502D01*
X144430012Y-75652413D01*
X144430008Y-75652415D01*
X144327235Y-75697793D01*
X144327234Y-75697794D01*
X144312181Y-75712848D01*
X144250858Y-75746333D01*
X144181166Y-75741349D01*
X144125233Y-75699477D01*
X144100816Y-75634013D01*
X144100500Y-75625167D01*
X144100500Y-74944924D01*
X144120185Y-74877885D01*
X144136814Y-74857248D01*
X145530468Y-73463593D01*
X145591789Y-73430110D01*
X145654143Y-73432616D01*
X145729499Y-73455475D01*
X145847281Y-73491204D01*
X146055881Y-73511749D01*
X146264481Y-73491204D01*
X146465065Y-73430357D01*
X146649924Y-73331548D01*
X146811954Y-73198573D01*
X146944929Y-73036543D01*
X147043738Y-72851684D01*
X147104585Y-72651100D01*
X147125130Y-72442500D01*
X147526632Y-72442500D01*
X147547177Y-72651102D01*
X147608024Y-72851685D01*
X147706829Y-73036537D01*
X147706833Y-73036544D01*
X147839807Y-73198573D01*
X148001836Y-73331547D01*
X148001843Y-73331551D01*
X148038058Y-73350908D01*
X148186697Y-73430357D01*
X148387281Y-73491204D01*
X148595881Y-73511749D01*
X148804481Y-73491204D01*
X149005065Y-73430357D01*
X149189924Y-73331548D01*
X149351954Y-73198573D01*
X149484929Y-73036543D01*
X149583738Y-72851684D01*
X149644585Y-72651100D01*
X149665130Y-72442500D01*
X150066632Y-72442500D01*
X150087177Y-72651102D01*
X150148024Y-72851685D01*
X150246829Y-73036537D01*
X150246833Y-73036544D01*
X150379807Y-73198573D01*
X150541836Y-73331547D01*
X150541843Y-73331551D01*
X150578058Y-73350908D01*
X150726697Y-73430357D01*
X150927281Y-73491204D01*
X151135881Y-73511749D01*
X151344481Y-73491204D01*
X151545065Y-73430357D01*
X151729924Y-73331548D01*
X151891954Y-73198573D01*
X152024929Y-73036543D01*
X152123738Y-72851684D01*
X152184585Y-72651100D01*
X152205130Y-72442500D01*
X154130632Y-72442500D01*
X154151177Y-72651102D01*
X154212024Y-72851685D01*
X154310829Y-73036537D01*
X154310833Y-73036544D01*
X154443807Y-73198573D01*
X154605836Y-73331547D01*
X154605843Y-73331551D01*
X154642058Y-73350908D01*
X154790697Y-73430357D01*
X154991281Y-73491204D01*
X155199881Y-73511749D01*
X155408481Y-73491204D01*
X155609065Y-73430357D01*
X155793924Y-73331548D01*
X155955954Y-73198573D01*
X156088929Y-73036543D01*
X156187738Y-72851684D01*
X156248585Y-72651100D01*
X156269130Y-72442500D01*
X156670632Y-72442500D01*
X156691177Y-72651102D01*
X156752024Y-72851685D01*
X156850829Y-73036537D01*
X156850833Y-73036544D01*
X156983807Y-73198573D01*
X157145836Y-73331547D01*
X157145843Y-73331551D01*
X157182058Y-73350908D01*
X157330697Y-73430357D01*
X157531281Y-73491204D01*
X157739881Y-73511749D01*
X157948481Y-73491204D01*
X158149065Y-73430357D01*
X158333924Y-73331548D01*
X158495954Y-73198573D01*
X158628929Y-73036543D01*
X158727738Y-72851684D01*
X158788585Y-72651100D01*
X158809130Y-72442500D01*
X159210632Y-72442500D01*
X159231177Y-72651102D01*
X159292024Y-72851685D01*
X159390829Y-73036537D01*
X159390833Y-73036544D01*
X159523807Y-73198573D01*
X159685836Y-73331547D01*
X159685843Y-73331551D01*
X159722058Y-73350908D01*
X159870697Y-73430357D01*
X160071281Y-73491204D01*
X160279881Y-73511749D01*
X160488481Y-73491204D01*
X160689065Y-73430357D01*
X160873924Y-73331548D01*
X161035954Y-73198573D01*
X161168929Y-73036543D01*
X161267738Y-72851684D01*
X161328585Y-72651100D01*
X161349130Y-72442500D01*
X161750632Y-72442500D01*
X161771177Y-72651102D01*
X161832024Y-72851685D01*
X161930829Y-73036537D01*
X161930833Y-73036544D01*
X162063807Y-73198573D01*
X162225836Y-73331547D01*
X162225843Y-73331551D01*
X162262058Y-73350908D01*
X162410697Y-73430357D01*
X162611281Y-73491204D01*
X162819881Y-73511749D01*
X163028481Y-73491204D01*
X163229065Y-73430357D01*
X163413924Y-73331548D01*
X163575954Y-73198573D01*
X163708929Y-73036543D01*
X163807738Y-72851684D01*
X163868585Y-72651100D01*
X163889130Y-72442500D01*
X164290632Y-72442500D01*
X164311177Y-72651102D01*
X164372024Y-72851685D01*
X164470829Y-73036537D01*
X164470833Y-73036544D01*
X164603807Y-73198573D01*
X164765836Y-73331547D01*
X164765843Y-73331551D01*
X164802058Y-73350908D01*
X164950697Y-73430357D01*
X165151281Y-73491204D01*
X165359881Y-73511749D01*
X165568481Y-73491204D01*
X165769065Y-73430357D01*
X165953924Y-73331548D01*
X166115954Y-73198573D01*
X166248929Y-73036543D01*
X166347738Y-72851684D01*
X166408585Y-72651100D01*
X166429130Y-72442500D01*
X166408585Y-72233900D01*
X166347738Y-72033316D01*
X166248929Y-71848457D01*
X166248928Y-71848455D01*
X166115954Y-71686426D01*
X165953925Y-71553452D01*
X165953918Y-71553448D01*
X165769066Y-71454643D01*
X165568483Y-71393796D01*
X165359881Y-71373251D01*
X165151278Y-71393796D01*
X164950695Y-71454643D01*
X164765843Y-71553448D01*
X164765836Y-71553452D01*
X164603807Y-71686426D01*
X164470833Y-71848455D01*
X164470829Y-71848462D01*
X164372024Y-72033314D01*
X164311177Y-72233897D01*
X164290632Y-72442500D01*
X163889130Y-72442500D01*
X163868585Y-72233900D01*
X163807738Y-72033316D01*
X163708929Y-71848457D01*
X163708928Y-71848455D01*
X163575954Y-71686426D01*
X163413925Y-71553452D01*
X163413918Y-71553448D01*
X163229066Y-71454643D01*
X163028483Y-71393796D01*
X162819881Y-71373251D01*
X162611278Y-71393796D01*
X162410695Y-71454643D01*
X162225843Y-71553448D01*
X162225836Y-71553452D01*
X162063807Y-71686426D01*
X161930833Y-71848455D01*
X161930829Y-71848462D01*
X161832024Y-72033314D01*
X161771177Y-72233897D01*
X161750632Y-72442500D01*
X161349130Y-72442500D01*
X161328585Y-72233900D01*
X161267738Y-72033316D01*
X161168929Y-71848457D01*
X161168928Y-71848455D01*
X161035954Y-71686426D01*
X160873925Y-71553452D01*
X160873918Y-71553448D01*
X160689066Y-71454643D01*
X160488483Y-71393796D01*
X160279881Y-71373251D01*
X160071278Y-71393796D01*
X159870695Y-71454643D01*
X159685843Y-71553448D01*
X159685836Y-71553452D01*
X159523807Y-71686426D01*
X159390833Y-71848455D01*
X159390829Y-71848462D01*
X159292024Y-72033314D01*
X159231177Y-72233897D01*
X159210632Y-72442500D01*
X158809130Y-72442500D01*
X158788585Y-72233900D01*
X158727738Y-72033316D01*
X158628929Y-71848457D01*
X158628928Y-71848455D01*
X158495954Y-71686426D01*
X158333925Y-71553452D01*
X158333918Y-71553448D01*
X158149066Y-71454643D01*
X157948483Y-71393796D01*
X157739881Y-71373251D01*
X157531278Y-71393796D01*
X157330695Y-71454643D01*
X157145843Y-71553448D01*
X157145836Y-71553452D01*
X156983807Y-71686426D01*
X156850833Y-71848455D01*
X156850829Y-71848462D01*
X156752024Y-72033314D01*
X156691177Y-72233897D01*
X156670632Y-72442500D01*
X156269130Y-72442500D01*
X156248585Y-72233900D01*
X156187738Y-72033316D01*
X156088929Y-71848457D01*
X156088928Y-71848455D01*
X155955954Y-71686426D01*
X155793925Y-71553452D01*
X155793918Y-71553448D01*
X155609066Y-71454643D01*
X155408483Y-71393796D01*
X155199881Y-71373251D01*
X154991278Y-71393796D01*
X154790695Y-71454643D01*
X154605843Y-71553448D01*
X154605836Y-71553452D01*
X154443807Y-71686426D01*
X154310833Y-71848455D01*
X154310829Y-71848462D01*
X154212024Y-72033314D01*
X154151177Y-72233897D01*
X154130632Y-72442500D01*
X152205130Y-72442500D01*
X152184585Y-72233900D01*
X152123738Y-72033316D01*
X152024929Y-71848457D01*
X152024928Y-71848455D01*
X151891954Y-71686426D01*
X151729925Y-71553452D01*
X151729918Y-71553448D01*
X151545066Y-71454643D01*
X151344483Y-71393796D01*
X151135881Y-71373251D01*
X150927278Y-71393796D01*
X150726695Y-71454643D01*
X150541843Y-71553448D01*
X150541836Y-71553452D01*
X150379807Y-71686426D01*
X150246833Y-71848455D01*
X150246829Y-71848462D01*
X150148024Y-72033314D01*
X150087177Y-72233897D01*
X150066632Y-72442500D01*
X149665130Y-72442500D01*
X149644585Y-72233900D01*
X149583738Y-72033316D01*
X149484929Y-71848457D01*
X149484928Y-71848455D01*
X149351954Y-71686426D01*
X149189925Y-71553452D01*
X149189918Y-71553448D01*
X149005066Y-71454643D01*
X148804483Y-71393796D01*
X148595881Y-71373251D01*
X148387278Y-71393796D01*
X148186695Y-71454643D01*
X148001843Y-71553448D01*
X148001836Y-71553452D01*
X147839807Y-71686426D01*
X147706833Y-71848455D01*
X147706829Y-71848462D01*
X147608024Y-72033314D01*
X147547177Y-72233897D01*
X147526632Y-72442500D01*
X147125130Y-72442500D01*
X147104585Y-72233900D01*
X147043738Y-72033316D01*
X146944929Y-71848457D01*
X146944928Y-71848455D01*
X146811954Y-71686426D01*
X146649925Y-71553452D01*
X146649918Y-71553448D01*
X146465066Y-71454643D01*
X146264483Y-71393796D01*
X146055881Y-71373251D01*
X145847278Y-71393796D01*
X145646695Y-71454643D01*
X145461843Y-71553448D01*
X145461836Y-71553452D01*
X145299807Y-71686426D01*
X145166833Y-71848455D01*
X145166829Y-71848462D01*
X145068024Y-72033314D01*
X145007177Y-72233897D01*
X144986632Y-72442500D01*
X145007177Y-72651102D01*
X145065764Y-72844235D01*
X145066388Y-72914102D01*
X145034785Y-72967912D01*
X143562181Y-74440517D01*
X143500858Y-74474002D01*
X143431166Y-74469018D01*
X143375233Y-74427146D01*
X143350816Y-74361682D01*
X143350500Y-74352836D01*
X143350500Y-73632273D01*
X143370185Y-73565234D01*
X143422989Y-73519479D01*
X143486653Y-73508870D01*
X143515881Y-73511749D01*
X143724481Y-73491204D01*
X143925065Y-73430357D01*
X144109924Y-73331548D01*
X144271954Y-73198573D01*
X144404929Y-73036543D01*
X144503738Y-72851684D01*
X144564585Y-72651100D01*
X144585130Y-72442500D01*
X144564585Y-72233900D01*
X144503738Y-72033316D01*
X144404929Y-71848457D01*
X144404928Y-71848455D01*
X144271954Y-71686426D01*
X144109925Y-71553452D01*
X144109918Y-71553448D01*
X143925066Y-71454643D01*
X143724483Y-71393796D01*
X143515881Y-71373251D01*
X143307278Y-71393796D01*
X143106695Y-71454643D01*
X142921843Y-71553448D01*
X142921836Y-71553452D01*
X142759807Y-71686426D01*
X142626833Y-71848455D01*
X142626829Y-71848462D01*
X142528024Y-72033314D01*
X142467177Y-72233897D01*
X142446632Y-72442500D01*
X142467177Y-72651102D01*
X142528024Y-72851685D01*
X142626831Y-73036540D01*
X142628602Y-73039190D01*
X142629102Y-73040789D01*
X142629705Y-73041916D01*
X142629491Y-73042030D01*
X142649480Y-73105868D01*
X142649500Y-73108081D01*
X142649500Y-73645172D01*
X142629815Y-73712211D01*
X142577011Y-73757966D01*
X142507853Y-73767910D01*
X142444297Y-73738885D01*
X142443274Y-73737989D01*
X142414176Y-73712211D01*
X142410852Y-73709266D01*
X142410850Y-73709265D01*
X142410849Y-73709264D01*
X142260226Y-73630210D01*
X142095056Y-73589500D01*
X141924944Y-73589500D01*
X141759773Y-73630210D01*
X141609150Y-73709264D01*
X141556727Y-73755707D01*
X141493494Y-73785428D01*
X141424230Y-73776244D01*
X141370927Y-73731072D01*
X141350507Y-73664252D01*
X141350500Y-73662891D01*
X141350500Y-73523155D01*
X141370185Y-73456116D01*
X141416047Y-73413797D01*
X141569918Y-73331551D01*
X141569922Y-73331549D01*
X141569924Y-73331548D01*
X141731954Y-73198573D01*
X141864929Y-73036543D01*
X141963738Y-72851684D01*
X142024585Y-72651100D01*
X142045130Y-72442500D01*
X142024585Y-72233900D01*
X141963738Y-72033316D01*
X141864929Y-71848457D01*
X141864928Y-71848455D01*
X141731954Y-71686426D01*
X141569925Y-71553452D01*
X141569918Y-71553448D01*
X141385066Y-71454643D01*
X141184483Y-71393796D01*
X140975881Y-71373251D01*
X140767278Y-71393796D01*
X140566695Y-71454643D01*
X140381843Y-71553448D01*
X140381836Y-71553452D01*
X140219807Y-71686426D01*
X140086833Y-71848455D01*
X140086829Y-71848462D01*
X139988024Y-72033314D01*
X139927177Y-72233897D01*
X139906632Y-72442500D01*
X139927177Y-72651102D01*
X139988024Y-72851685D01*
X140086829Y-73036537D01*
X140086833Y-73036544D01*
X140219807Y-73198573D01*
X140381836Y-73331547D01*
X140381843Y-73331551D01*
X140566697Y-73430357D01*
X140572321Y-73432687D01*
X140571276Y-73435208D01*
X140619875Y-73467007D01*
X140648378Y-73530798D01*
X140649500Y-73547439D01*
X140649500Y-76796144D01*
X140662555Y-76844866D01*
X140673385Y-76885287D01*
X140719527Y-76965208D01*
X140719529Y-76965211D01*
X140719530Y-76965212D01*
X142684788Y-78930470D01*
X142735179Y-78959563D01*
X142735181Y-78959564D01*
X142764709Y-78976613D01*
X142764711Y-78976613D01*
X142764712Y-78976614D01*
X142853856Y-79000500D01*
X144078222Y-79000500D01*
X144145261Y-79020185D01*
X144191016Y-79072989D01*
X144201396Y-79138790D01*
X144199500Y-79155128D01*
X144199500Y-79444856D01*
X144199502Y-79444882D01*
X144202413Y-79469987D01*
X144204863Y-79478989D01*
X144203615Y-79479328D01*
X144211454Y-79539195D01*
X144181630Y-79602380D01*
X144176633Y-79607680D01*
X144172361Y-79611952D01*
X144114833Y-79724855D01*
X144102932Y-79800000D01*
X146172065Y-79800000D01*
X146160164Y-79724850D01*
X146160162Y-79724844D01*
X146102643Y-79611958D01*
X146102636Y-79611949D01*
X146098370Y-79607683D01*
X146064885Y-79546360D01*
X146069869Y-79476668D01*
X146072582Y-79469999D01*
X146072584Y-79469993D01*
X146072583Y-79469993D01*
X146072585Y-79469991D01*
X146075500Y-79444865D01*
X146075499Y-79155136D01*
X146075497Y-79155117D01*
X146072586Y-79130012D01*
X146072585Y-79130008D01*
X146026257Y-79025086D01*
X146017185Y-78955808D01*
X146026257Y-78924913D01*
X146027204Y-78922766D01*
X146027206Y-78922765D01*
X146072585Y-78819991D01*
X146075500Y-78794865D01*
X146075499Y-78505136D01*
X146075497Y-78505117D01*
X146072586Y-78480012D01*
X146072585Y-78480008D01*
X146030879Y-78385553D01*
X146027206Y-78377235D01*
X146027205Y-78377234D01*
X146026257Y-78375086D01*
X146017185Y-78305808D01*
X146026257Y-78274913D01*
X146027204Y-78272766D01*
X146027206Y-78272765D01*
X146072585Y-78169991D01*
X146075500Y-78144865D01*
X146075499Y-77855136D01*
X146075497Y-77855117D01*
X146072586Y-77830012D01*
X146072585Y-77830008D01*
X146026257Y-77725086D01*
X146017185Y-77655808D01*
X146026257Y-77624913D01*
X146027204Y-77622766D01*
X146027206Y-77622765D01*
X146072585Y-77519991D01*
X146075500Y-77494865D01*
X146075499Y-77370542D01*
X146095183Y-77303504D01*
X146147987Y-77257749D01*
X146217145Y-77247805D01*
X146280701Y-77276829D01*
X146287180Y-77282862D01*
X147393181Y-78388862D01*
X147426666Y-78450185D01*
X147429500Y-78476543D01*
X147429500Y-80233456D01*
X147409815Y-80300495D01*
X147393181Y-80321137D01*
X146761137Y-80953181D01*
X146699814Y-80986666D01*
X146673456Y-80989500D01*
X137996544Y-80989500D01*
X137929505Y-80969815D01*
X137908863Y-80953181D01*
X137055682Y-80100000D01*
X144102935Y-80100000D01*
X144114835Y-80175149D01*
X144114837Y-80175155D01*
X144172356Y-80288041D01*
X144172363Y-80288050D01*
X144261949Y-80377636D01*
X144261953Y-80377639D01*
X144374855Y-80435166D01*
X144468514Y-80449999D01*
X144987499Y-80449999D01*
X145287500Y-80449999D01*
X145806479Y-80449999D01*
X145900149Y-80435164D01*
X145900155Y-80435162D01*
X146013041Y-80377643D01*
X146013050Y-80377636D01*
X146102636Y-80288050D01*
X146102639Y-80288046D01*
X146160166Y-80175144D01*
X146172068Y-80100000D01*
X145287500Y-80100000D01*
X145287500Y-80449999D01*
X144987499Y-80449999D01*
X144987500Y-80449998D01*
X144987500Y-80100000D01*
X144102935Y-80100000D01*
X137055682Y-80100000D01*
X136897161Y-79941479D01*
X136863676Y-79880156D01*
X136868660Y-79810464D01*
X136910532Y-79754531D01*
X136911209Y-79754028D01*
X136983738Y-79700499D01*
X137022150Y-79672150D01*
X137102793Y-79562882D01*
X137132030Y-79479328D01*
X137147646Y-79434701D01*
X137147646Y-79434699D01*
X137149207Y-79418053D01*
X137975000Y-79418053D01*
X137985613Y-79506443D01*
X138041079Y-79647095D01*
X138132435Y-79767564D01*
X138252904Y-79858920D01*
X138393556Y-79914386D01*
X138481946Y-79925000D01*
X138850000Y-79925000D01*
X139150000Y-79925000D01*
X139518054Y-79925000D01*
X139606443Y-79914386D01*
X139747095Y-79858920D01*
X139867564Y-79767564D01*
X139958920Y-79647095D01*
X140014386Y-79506443D01*
X140025000Y-79418053D01*
X140025000Y-79187500D01*
X139150000Y-79187500D01*
X139150000Y-79925000D01*
X138850000Y-79925000D01*
X138850000Y-79187500D01*
X137975000Y-79187500D01*
X137975000Y-79418053D01*
X137149207Y-79418053D01*
X137150500Y-79404269D01*
X137150500Y-78656946D01*
X137975000Y-78656946D01*
X137975000Y-78887500D01*
X138850000Y-78887500D01*
X139150000Y-78887500D01*
X140025000Y-78887500D01*
X140025000Y-78656946D01*
X140014386Y-78568556D01*
X139958920Y-78427904D01*
X139867564Y-78307435D01*
X139747095Y-78216079D01*
X139606443Y-78160613D01*
X139518054Y-78150000D01*
X139150000Y-78150000D01*
X139150000Y-78887500D01*
X138850000Y-78887500D01*
X138850000Y-78150000D01*
X138481946Y-78150000D01*
X138393556Y-78160613D01*
X138252904Y-78216079D01*
X138132435Y-78307435D01*
X138041079Y-78427904D01*
X137985613Y-78568556D01*
X137975000Y-78656946D01*
X137150500Y-78656946D01*
X137150500Y-78595730D01*
X137147646Y-78565300D01*
X137147646Y-78565298D01*
X137102793Y-78437119D01*
X137102792Y-78437117D01*
X137022150Y-78327850D01*
X136912882Y-78247207D01*
X136912880Y-78247206D01*
X136784700Y-78202353D01*
X136754270Y-78199500D01*
X136754266Y-78199500D01*
X135745734Y-78199500D01*
X135745730Y-78199500D01*
X135715300Y-78202353D01*
X135715298Y-78202353D01*
X135587119Y-78247206D01*
X135587117Y-78247207D01*
X135477850Y-78327850D01*
X135397207Y-78437117D01*
X135397206Y-78437119D01*
X135352353Y-78565298D01*
X135352353Y-78565300D01*
X135349500Y-78595730D01*
X135349500Y-79404269D01*
X135352353Y-79434699D01*
X135352353Y-79434701D01*
X135397206Y-79562880D01*
X135397207Y-79562882D01*
X135477850Y-79672150D01*
X135587118Y-79752793D01*
X135629331Y-79767564D01*
X135715299Y-79797646D01*
X135745730Y-79800500D01*
X135745734Y-79800500D01*
X135794801Y-79800500D01*
X135861840Y-79820185D01*
X135907595Y-79872989D01*
X135914574Y-79892402D01*
X135923175Y-79924500D01*
X135923386Y-79925287D01*
X135923387Y-79925290D01*
X135969527Y-80005208D01*
X135969529Y-80005211D01*
X135969530Y-80005212D01*
X137584788Y-81620470D01*
X137664712Y-81666614D01*
X137753856Y-81690500D01*
X137753858Y-81690500D01*
X146916142Y-81690500D01*
X146916144Y-81690500D01*
X147005288Y-81666614D01*
X147085212Y-81620470D01*
X148060469Y-80645212D01*
X148106614Y-80565288D01*
X148130500Y-80476144D01*
X148130500Y-78233856D01*
X148106614Y-78144712D01*
X148106611Y-78144706D01*
X148060473Y-78064794D01*
X148060470Y-78064791D01*
X148060469Y-78064788D01*
X147995212Y-77999531D01*
X147346181Y-77350500D01*
X146687863Y-76692181D01*
X146654378Y-76630858D01*
X146659362Y-76561166D01*
X146701234Y-76505233D01*
X146766698Y-76480816D01*
X146775544Y-76480500D01*
X146915681Y-76480500D01*
X146982720Y-76500185D01*
X147017729Y-76534057D01*
X147061817Y-76597929D01*
X147120029Y-76649500D01*
X147189150Y-76710736D01*
X147339773Y-76789789D01*
X147339775Y-76789790D01*
X147504944Y-76830500D01*
X147675056Y-76830500D01*
X147840225Y-76789790D01*
X147899699Y-76758574D01*
X147968206Y-76744848D01*
X148033260Y-76770339D01*
X148045007Y-76780689D01*
X148573181Y-77308863D01*
X148606666Y-77370186D01*
X148609500Y-77396544D01*
X148609500Y-79246144D01*
X148622648Y-79295213D01*
X148622648Y-79295214D01*
X148633384Y-79335285D01*
X148633385Y-79335286D01*
X148679527Y-79415208D01*
X148679529Y-79415211D01*
X148679530Y-79415212D01*
X149494788Y-80230470D01*
X149574712Y-80276614D01*
X149663856Y-80300500D01*
X150022215Y-80300500D01*
X150072300Y-80311065D01*
X150155009Y-80347585D01*
X150180135Y-80350500D01*
X151544864Y-80350499D01*
X151544879Y-80350497D01*
X151544882Y-80350497D01*
X151569987Y-80347586D01*
X151569987Y-80347585D01*
X151569991Y-80347585D01*
X151645416Y-80314281D01*
X151714691Y-80305210D01*
X151777876Y-80335033D01*
X151814908Y-80394282D01*
X151819500Y-80427716D01*
X151819500Y-82130598D01*
X151799815Y-82197637D01*
X151747011Y-82243392D01*
X151677853Y-82253336D01*
X151614297Y-82224311D01*
X151579558Y-82174569D01*
X151575317Y-82163386D01*
X151574818Y-82162070D01*
X151478183Y-82022071D01*
X151381709Y-81936603D01*
X151350849Y-81909263D01*
X151200226Y-81830210D01*
X151035056Y-81789500D01*
X150864944Y-81789500D01*
X150699773Y-81830210D01*
X150549150Y-81909263D01*
X150421818Y-82022070D01*
X150421817Y-82022071D01*
X150377729Y-82085942D01*
X150323448Y-82129931D01*
X150275681Y-82139500D01*
X136723856Y-82139500D01*
X136634712Y-82163386D01*
X136634709Y-82163387D01*
X136554791Y-82209527D01*
X136554786Y-82209531D01*
X134703952Y-84060364D01*
X134642629Y-84093849D01*
X134580277Y-84091344D01*
X134448682Y-84051426D01*
X134448683Y-84051426D01*
X134260000Y-84032843D01*
X134071318Y-84051426D01*
X133964194Y-84083921D01*
X133889885Y-84106463D01*
X133889882Y-84106464D01*
X133889880Y-84106465D01*
X133889877Y-84106466D01*
X133722681Y-84195834D01*
X133722674Y-84195838D01*
X133576116Y-84316116D01*
X133455838Y-84462674D01*
X133455834Y-84462681D01*
X133366466Y-84629877D01*
X133366465Y-84629880D01*
X133311426Y-84811318D01*
X133292843Y-85000000D01*
X132682500Y-85000000D01*
X132682500Y-84218249D01*
X132682499Y-84218247D01*
X132670868Y-84159770D01*
X132670867Y-84159769D01*
X132626552Y-84093447D01*
X132560230Y-84049132D01*
X132560229Y-84049131D01*
X132501752Y-84037500D01*
X132501748Y-84037500D01*
X130938252Y-84037500D01*
X130938247Y-84037500D01*
X130879770Y-84049131D01*
X130879769Y-84049132D01*
X130813447Y-84093447D01*
X130769132Y-84159769D01*
X130769131Y-84159770D01*
X130757500Y-84218247D01*
X125200500Y-84218247D01*
X125200500Y-81987965D01*
X125220185Y-81920926D01*
X125236819Y-81900284D01*
X129650284Y-77486819D01*
X129711607Y-77453334D01*
X129737965Y-77450500D01*
X133059308Y-77450500D01*
X133059309Y-77450500D01*
X133149673Y-77426286D01*
X133173887Y-77419799D01*
X133276614Y-77360489D01*
X134510284Y-76126819D01*
X134571607Y-76093334D01*
X134597965Y-76090500D01*
X135422617Y-76090500D01*
X135489656Y-76110185D01*
X135535411Y-76162989D01*
X135545355Y-76232147D01*
X135516330Y-76295703D01*
X135496250Y-76314270D01*
X135477851Y-76327848D01*
X135397207Y-76437117D01*
X135397206Y-76437119D01*
X135352353Y-76565298D01*
X135352353Y-76565300D01*
X135349500Y-76595730D01*
X135349500Y-77404269D01*
X135352353Y-77434699D01*
X135352353Y-77434701D01*
X135397206Y-77562880D01*
X135397207Y-77562882D01*
X135477850Y-77672150D01*
X135587118Y-77752793D01*
X135629845Y-77767744D01*
X135715299Y-77797646D01*
X135745730Y-77800500D01*
X135745734Y-77800500D01*
X136754270Y-77800500D01*
X136784699Y-77797646D01*
X136784701Y-77797646D01*
X136848790Y-77775219D01*
X136912882Y-77752793D01*
X137022150Y-77672150D01*
X137102793Y-77562882D01*
X137127262Y-77492953D01*
X137148051Y-77433544D01*
X137188773Y-77376769D01*
X137253726Y-77351022D01*
X137265092Y-77350500D01*
X137977404Y-77350500D01*
X138044443Y-77370185D01*
X138090198Y-77422989D01*
X138094445Y-77433544D01*
X138118884Y-77503386D01*
X138122207Y-77512882D01*
X138202850Y-77622150D01*
X138312118Y-77702793D01*
X138354845Y-77717744D01*
X138440299Y-77747646D01*
X138470730Y-77750500D01*
X138470734Y-77750500D01*
X139529270Y-77750500D01*
X139559699Y-77747646D01*
X139559701Y-77747646D01*
X139624175Y-77725085D01*
X139687882Y-77702793D01*
X139797150Y-77622150D01*
X139877793Y-77512882D01*
X139905150Y-77434699D01*
X139922646Y-77384701D01*
X139922646Y-77384699D01*
X139925500Y-77354269D01*
X139925500Y-76570730D01*
X139922646Y-76540300D01*
X139922646Y-76540298D01*
X139880604Y-76420152D01*
X139877041Y-76350374D01*
X139911770Y-76289746D01*
X139940012Y-76269404D01*
X140070852Y-76200734D01*
X140198183Y-76087929D01*
X140294818Y-75947930D01*
X140355140Y-75788872D01*
X140375645Y-75620000D01*
X140355140Y-75451128D01*
X140354901Y-75450499D01*
X140294817Y-75292068D01*
X140245210Y-75220201D01*
X140198183Y-75152071D01*
X140070852Y-75039266D01*
X140070849Y-75039263D01*
X139920226Y-74960210D01*
X139755056Y-74919500D01*
X139584944Y-74919500D01*
X139419773Y-74960210D01*
X139269150Y-75039263D01*
X139141816Y-75152072D01*
X139045182Y-75292068D01*
X138984860Y-75451125D01*
X138984859Y-75451130D01*
X138964355Y-75620000D01*
X138979811Y-75747293D01*
X138968351Y-75816216D01*
X138944397Y-75849920D01*
X138822139Y-75972177D01*
X138760819Y-76005661D01*
X138691127Y-76000677D01*
X138646779Y-75972176D01*
X138094116Y-75419513D01*
X138094114Y-75419511D01*
X138066841Y-75403764D01*
X138041164Y-75384061D01*
X137936616Y-75279513D01*
X137936614Y-75279511D01*
X137885250Y-75249856D01*
X137833888Y-75220201D01*
X137821780Y-75216957D01*
X137809673Y-75213713D01*
X137809670Y-75213712D01*
X137771478Y-75203478D01*
X137719309Y-75189500D01*
X134300691Y-75189500D01*
X134186114Y-75220201D01*
X134186112Y-75220201D01*
X134186112Y-75220202D01*
X134159983Y-75235288D01*
X134159982Y-75235288D01*
X134083389Y-75279508D01*
X134083384Y-75279512D01*
X132849716Y-76513181D01*
X132788393Y-76546666D01*
X132762035Y-76549500D01*
X129440691Y-76549500D01*
X129338019Y-76577011D01*
X129326110Y-76580202D01*
X129289025Y-76601614D01*
X129223389Y-76639508D01*
X129223384Y-76639512D01*
X124389513Y-81473383D01*
X124389511Y-81473386D01*
X124330201Y-81576112D01*
X124327762Y-81585215D01*
X124299500Y-81690691D01*
X120500500Y-81690691D01*
X120500500Y-78250000D01*
X124244353Y-78250000D01*
X124264834Y-78392456D01*
X124324622Y-78523371D01*
X124324623Y-78523373D01*
X124418872Y-78632143D01*
X124539947Y-78709953D01*
X124539950Y-78709954D01*
X124539949Y-78709954D01*
X124678036Y-78750499D01*
X124678038Y-78750500D01*
X124678039Y-78750500D01*
X124821962Y-78750500D01*
X124821962Y-78750499D01*
X124960053Y-78709953D01*
X125081128Y-78632143D01*
X125175377Y-78523373D01*
X125235165Y-78392457D01*
X125255647Y-78250000D01*
X125235165Y-78107543D01*
X125175377Y-77976627D01*
X125081128Y-77867857D01*
X124960053Y-77790047D01*
X124960051Y-77790046D01*
X124960049Y-77790045D01*
X124960050Y-77790045D01*
X124821963Y-77749500D01*
X124821961Y-77749500D01*
X124678039Y-77749500D01*
X124678036Y-77749500D01*
X124539949Y-77790045D01*
X124418873Y-77867856D01*
X124324623Y-77976626D01*
X124324622Y-77976628D01*
X124264834Y-78107543D01*
X124244353Y-78250000D01*
X120500500Y-78250000D01*
X120500500Y-70624500D01*
X120520185Y-70557461D01*
X120572989Y-70511706D01*
X120624500Y-70500500D01*
X123949303Y-70500500D01*
X124016342Y-70520185D01*
G37*
%TD.AperFunction*%
%TD*%
M02*
